<svg xmlns="http://www.w3.org/2000/svg">
<defs>
<font id="UTMDinhTran" horiz-adv-x="1603" >
  <font-face 
    font-family="UTMDinhTran"
    font-weight="400"
    font-stretch="normal"
    units-per-em="2048"
    panose-1="2 4 6 3 5 5 6 2 2 4"
    ascent="1638"
    descent="-410"
    x-height="583"
    cap-height="1247"
    bbox="-3770.21 -524 4942 2045"
    underline-thickness="109"
    underline-position="-143"
    unicode-range="U+0020-2026"
  />
<missing-glyph horiz-adv-x="5040" 
d="M3351 2045h10q37 -10 37 -52q0 -12 -32 -57h-28q0 24 28 54l2 10q-5 13 -10 15h-9q-8 0 -10 -19h-30q6 49 42 49zM2019 2016l29 -31q0 -16 -40 -30h-19l-59 12l-11 -12l-28 25q11 29 43 29h11l42 -11h2q10 0 30 18zM468 1980h142v-60h-94v-75h89v-59h-89v-129l-5 -5h-49
v323zM1155 1980h43l6 -5v-78h30v-52h-30v-188l-6 -5h-49v193h-25v52h25v78zM1621 1980h42l4 -5v-94h3q23 24 54 24h2q58 0 83 -71l2 -39v-143h-52v115q0 80 -42 80h-7q-43 0 -43 -86v-109h-51v323zM2200 1980h49l5 -5v-222q10 -51 45 -51q44 7 44 59v214l5 5h49v-216
q0 -85 -66 -112q-15 -8 -35 -8q-47 0 -82 55q-14 24 -14 57v224zM2435 1980h159v-60h-56v-268h-53v268h-55v55zM2621 1980h71q7 -4 83 -251h2l80 251h73v-328h-54v242h-2l-74 -242h-44q-4 0 -58 182l-19 60h-3v-242h-55v328zM3760 1980h52v-328h-45l-5 5v11l3 2l-3 14
q-29 -40 -78 -40q-67 0 -100 91l-5 39v3q0 94 92 125l23 3q35 0 63 -32h3v107zM2057 1928h36l4 -6v-49h-45v-221h-48v23q-23 -31 -59 -31q-89 14 -89 97v156h51v-104q0 -79 26 -86l18 -5h6q26 0 39 36l3 26v133h53v25zM3476 1928v-55h-31v-221h-47v25h-2q-15 -33 -57 -33
q-68 0 -86 78l-3 29v146h52v-120q0 -50 19 -68l21 -7h9q42 0 42 69v126h27q4 0 4 28l3 3h49zM758 1905q68 0 103 -77q9 -18 12 -54q0 -88 -90 -127l-32 -3q-63 0 -101 73q-12 22 -12 52v10q0 94 101 126h19zM1011 1905h3q74 0 83 -101v-152h-51v119q0 76 -42 76h-5
q-44 0 -44 -76v-119h-52v245h46v-21q30 29 62 29zM1466 1905h7q72 0 105 -89h-60q-16 31 -42 31h-17q-53 -14 -53 -61l-3 -15q12 -69 61 -69h9q22 0 47 27h40l2 3h3l2 -3l2 3l3 -3l2 3l2 -7q-33 -81 -110 -81q-76 0 -110 94l-4 36v3q0 85 77 120q15 8 37 8zM3141 1905h2

<glyph glyph-name=".notdef" horiz-adv-x="5040" 
d="M3351 2045h10q37 -10 37 -52q0 -12 -32 -57h-28q0 24 28 54l2 10q-5 13 -10 15h-9q-8 0 -10 -19h-30q6 49 42 49zM2019 2016l29 -31q0 -16 -40 -30h-19l-59 12l-11 -12l-28 25q11 29 43 29h11l42 -11h2q10 0 30 18zM468 1980h142v-60h-94v-75h89v-59h-89v-129l-5 -5h-49
v323zM1155 1980h43l6 -5v-78h30v-52h-30v-188l-6 -5h-49v193h-25v52h25v78zM1621 1980h42l4 -5v-94h3q23 24 54 24h2q58 0 83 -71l2 -39v-143h-52v115q0 80 -42 80h-7q-43 0 -43 -86v-109h-51v323zM2200 1980h49l5 -5v-222q10 -51 45 -51q44 7 44 59v214l5 5h49v-216
q0 -85 -66 -112q-15 -8 -35 -8q-47 0 -82 55q-14 24 -14 57v224zM2435 1980h159v-60h-56v-268h-53v268h-55v55zM2621 1980h71q7 -4 83 -251h2l80 251h73v-328h-54v242h-2l-74 -242h-44q-4 0 -58 182l-19 60h-3v-242h-55v328zM3760 1980h52v-328h-45l-5 5v11l3 2l-3 14
q-29 -40 -78 -40q-67 0 -100 91l-5 39v3q0 94 92 125l23 3q35 0 63 -32h3v107zM2057 1928h36l4 -6v-49h-45v-221h-48v23q-23 -31 -59 -31q-89 14 -89 97v156h51v-104q0 -79 26 -86l18 -5h6q26 0 39 36l3 26v133h53v25zM3476 1928v-55h-31v-221h-47v25h-2q-15 -33 -57 -33
q-68 0 -86 78l-3 29v146h52v-120q0 -50 19 -68l21 -7h9q42 0 42 69v126h27q4 0 4 28l3 3h49zM758 1905q68 0 103 -77q9 -18 12 -54q0 -88 -90 -127l-32 -3q-63 0 -101 73q-12 22 -12 52v10q0 94 101 126h19zM1011 1905h3q74 0 83 -101v-152h-51v119q0 76 -42 76h-5
q-44 0 -44 -76v-119h-52v245h46v-21q30 29 62 29zM1466 1905h7q72 0 105 -89h-60q-16 31 -42 31h-17q-53 -14 -53 -61l-3 -15q12 -69 61 -69h9q22 0 47 27h40l2 3h3l2 -3l2 3l3 -3l2 3l2 -7q-33 -81 -110 -81q-76 0 -110 94l-4 36v3q0 85 77 120q15 8 37 8zM3141 1905h2
q49 0 70 -60v-14h-52q0 16 -16 16h-4q-14 0 -19 -13v-13q0 -9 68 -35q30 -19 30 -59q0 -58 -61 -80l-23 -3q-76 12 -76 83h54q0 -20 27 -25h4q19 0 24 23q0 22 -68 44q-34 27 -34 59q0 66 74 77zM4203 1905q55 0 77 -63q7 -18 7 -65v-125h-52v112q0 83 -40 83h-11
q-33 0 -40 -54v-141h-52v5h-2l2 2v238h47v-21q25 29 64 29zM4432 1905h5q40 0 69 -40v18l-3 3l3 11h47v-208q0 -97 -85 -132l-33 -4h-7q-70 0 -104 80h59q24 -22 45 -23h13q22 0 43 22q15 13 22 52h-3q-32 -40 -73 -40q-57 0 -96 70q-10 18 -14 63q0 88 87 125zM3851 1897
h53v-136q6 -59 40 -59h7q46 0 46 93v102h51v-245h-47l-3 10h3l-3 3v5l3 2v3h-4q0 -23 -57 -31h-3q-59 0 -84 75l-2 85v93zM690 1771q10 -69 63 -69h7q59 14 59 65v15q-13 65 -59 65h-5q-58 0 -65 -76zM3630 1774q13 -72 61 -72h5q58 0 66 75q0 49 -51 70h-22q-37 0 -56 -57z
M4374 1774q8 -72 65 -72h5q59 12 59 72q0 61 -59 73h-14q-56 -16 -56 -62v-11zM3928 1620h52v-57h-52v57zM1054 1402q43 -11 43 -49v-4q0 -17 -32 -60h-28q0 25 31 57v7q0 12 -7 15h-12q-10 -4 -10 -19h-28v6q0 32 33 44zM3349 1339q92 0 138 -99h-60q-37 42 -80 42
q-55 0 -87 -68q-10 -22 -10 -47q0 -78 81 -110l18 -1q36 0 75 39h61q-44 -97 -138 -97q-93 0 -141 112q-10 31 -10 62q0 97 90 152q29 15 63 15zM3664 1339q57 0 103 -47q46 -51 46 -115v-20q0 -89 -91 -146q-33 -13 -63 -13q-89 0 -138 101q-13 33 -13 60v18q0 98 98 151
q29 11 58 11zM2261 1337h2l47 -11h3q11 0 26 11l18 -36q-18 -19 -35 -19h-3l-54 10l-20 -7l-20 36q18 16 36 16zM716 1334h19q118 0 129 -26q25 -26 25 -62q-10 -57 -30 -57v-6q47 -23 47 -66v-18q0 -63 -69 -88l-54 -5h-67v328zM2550 1334h53v-217q6 -61 45 -61q29 0 44 39
l3 30v203l4 6h45l5 -6v-171q0 -118 -40 -133q-24 -26 -64 -26q-55 0 -91 76l-4 54v206zM2805 1334h59q4 0 122 -237h4v237h50l4 -6v-322h-58q-29 48 -125 238h-3v-238h-53v328zM3101 1334h54v-328h-54v328zM3859 1334h8q155 0 174 -40q23 -11 47 -75l4 -36v-11l3 -2
q0 -94 -82 -149q-35 -15 -99 -15h-55v328zM4141 1334h153v-60h-103v-75h101v-57h-101v-74l4 -5h99v-57h-157v322zM3563 1175v-10q0 -76 79 -108l19 -1q68 0 96 86l3 20v15q0 61 -60 94q-12 8 -39 11q-66 0 -96 -83zM770 1274v-67h9q54 0 54 28l3 14q-11 25 -29 25h-37z
M3912 1274v-206l2 -3v-2q104 0 122 76l2 15v29q0 34 -32 68q-25 23 -78 23h-16zM1041 1259h5q38 0 71 -40v32h49v-245h-49v32q-36 -40 -80 -40q-75 0 -101 97l-5 36q0 89 85 125zM1314 1259h3q74 0 83 -102v-151h-51v128q0 67 -42 67h-10q-34 0 -39 -62v-133h-52v245h47v-21
q28 29 61 29zM1543 1259h5q45 0 71 -40v32h47v-219q0 -95 -104 -126h-16q-74 0 -108 82h59q26 -25 44 -25h14q52 0 64 77q-33 -42 -76 -42q-60 0 -101 81l-7 44v16q0 79 85 117zM1912 1259h2q43 0 61 -37h2q32 37 69 37h4q57 0 79 -55q8 -25 8 -45v-153h-52v138q0 44 -23 55
l-12 2h-15q-32 0 -36 -65v-130h-52v136q0 59 -43 59h-8q-32 0 -36 -57v-138h-54v245h50v-21h2q6 24 54 29zM2282 1259q47 0 75 -42v34h47v-245h-47v32q-36 -40 -78 -40q-74 0 -102 92l-6 41q0 90 85 125zM985 1117q0 -48 61 -61h4q45 0 62 46l3 15v22q-12 62 -57 62h-14
q-41 0 -59 -57v-27zM1487 1128q0 -48 43 -68l18 -4h5q47 0 63 57v23q-11 65 -58 65h-12q-50 0 -59 -73zM2225 1131v-14q15 -61 57 -61h14q58 12 58 64v11q0 45 -37 65l-18 5h-10q-64 -8 -64 -70zM770 1150v-82q0 -5 7 -5q77 0 77 45q0 34 -47 42h-37zM2966 753l24 -28
l-51 -55q-18 12 -27 26zM1524 727l85 -54q0 -15 -21 -42l-87 54q18 41 23 42zM2850 693h38l55 -60h-54l-21 26l-23 -26h-54q54 60 59 60zM3422 693h40l56 -60h-54l-24 26h-1q0 -5 -19 -26h-54zM622 685h52q8 -4 47 -137l34 -110q9 8 34 100l48 147h54v-2l-112 -326h-44z
M1159 685h51v-54h-51v54zM1354 685h46l6 -5v-323h-52v328zM2317 685h45l4 -5v-78h31v-52h-31v-193h-53v193h-26v52h26v78zM2425 685h52v-98h2q23 23 54 23h3q57 0 81 -71l3 -38v-144h-52v115q0 81 -39 81h-10q-42 0 -42 -87v-109h-52v328zM2664 685h52v-54h-52v54zM3028 685
h44l6 -5v-78h29v-52h-29v-193h-54v193h-27v52h27v78zM3234 685h52v-328h-52v328zM3957 685h52v-328h-52v328zM4316 685h51v-54h-51v54zM1555 610h5q83 0 110 -102l3 -23v-11q0 -83 -85 -120l-35 -5q-76 0 -111 97l-4 32q0 97 93 130zM1811 610h4q53 0 78 -60q7 -25 7 -81
v-112h-54v146q-7 50 -37 50h-10q-38 0 -42 -57v-139h-54v245h49v-21q26 29 59 29zM2046 610h4q45 0 63 -39h3v31h49v-206q0 -102 -89 -135l-28 -3h-5q-73 0 -106 81h52l37 -20l15 -3h14q50 0 61 72q-33 -39 -73 -39q-62 0 -98 76q-11 23 -12 60q0 85 86 123zM2866 610h2
q82 0 111 -104l2 -25l-2 -27h-172q15 -45 45 -45l14 -3q29 0 49 22h57v-3q-35 -76 -108 -76q-77 0 -111 97l-1 28v8q0 49 32 89q34 39 82 39zM3429 610h5q41 0 70 -39h2v31h47v-245h-47v31h-2q-35 -39 -77 -39q-71 0 -101 89l-5 36v14q0 86 84 120zM3711 610h7
q88 0 107 -128l-2 -1v-15q0 -65 -66 -106q-21 -11 -46 -11q-34 0 -64 32v-99l-5 -5h-49v325h49v-28q31 36 69 36zM4151 610q44 0 75 -39v31h49v-245h-49v31q-35 -39 -77 -39q-92 0 -108 132q0 84 73 121q15 8 37 8zM922 602h50v-136q3 -60 42 -60h5q44 0 44 87v109h52v-245
h-47v24h-5q0 -23 -56 -32h-3q-55 0 -82 68q-4 35 -4 99v81zM1159 602h51v-245h-51v245zM2664 602h52v-245h-52v245zM4316 602h51v-245h-51v245zM1492 488v-16q13 -66 59 -66h4q59 0 66 76q-13 71 -59 71h-11q-59 -16 -59 -65zM1987 472q15 -66 59 -66h11q48 0 59 75v1
q-13 71 -59 71h-14q-39 0 -56 -57v-24zM2805 506h122v2q-16 45 -59 45h-7q-35 0 -56 -47zM3373 474q13 -68 61 -68h5q52 0 65 63v12q-10 72 -57 72h-16q-56 -14 -56 -63zM3642 478q12 -72 61 -72h3q50 0 65 60v22q0 43 -49 65h-22q-47 0 -58 -72v-3zM4095 472q10 -66 66 -66
q43 0 61 48l2 15v16q0 54 -52 68h-18q-42 0 -59 -60v-21zM3416 321h51v-52h-51v52zM4137 321h51v-52h-51v52zM2733 133h4q35 0 43 -50v-2q0 -16 -24 -41l-10 -17h-28q0 25 28 56l3 2v2q-3 19 -9 19h-10q-8 0 -9 -19h-30q6 50 42 50zM1546 116l52 -60l-26 -19l-52 52zM352 79
h4q75 -48 85 -60l-20 -37q-88 49 -88 58zM3490 79l86 -58l-18 -39q-10 0 -91 55q15 36 23 42zM4578 76l19 -42l-91 -52l-20 39l92 58v-3zM1204 53h51v-19l5 -5h14v-36h-14l-5 -5v-279h-46v31q-34 -40 -81 -40q-72 0 -102 105l-3 26q0 102 101 131h14q33 0 66 -33v59l-6 5
h-43v36h49v24zM1480 45h40l56 -61h-53l-23 27l-23 -27h-53zM2641 45h33q12 0 63 -61h-54l-23 27q-19 -21 -19 -27h-58v4zM49 37h160v-60h-56v-268h-50l-4 5v245l2 3v2l-2 2l2 3l-2 2l2 3l-2 3h-54v54zM699 37h47v-73l2 -2l-2 -3v-3l2 -2l-2 -3v-3l2 -2v-2l-2 -3l2 -3h3
q17 24 51 24h3q53 0 77 -58q7 -17 7 -42v-153h-52v127q0 68 -40 68h-8q-43 0 -43 -86v-109h-52v322zM1297 37h47l5 -6v-49h-52v55zM1987 37h52v-198l70 115h62l-78 -118l90 -125v-2h-70q-10 22 -74 115v-115h-52v328zM2271 37v-99q24 24 53 24q57 0 80 -56q10 -19 10 -77
v-120h-54v133q0 62 -41 62h-11q-31 0 -37 -55v-140h-53v314l-1 3v3l1 2l-1 3l1 3h53zM2458 37h51v-55h-51v55zM3148 37h51v-108q27 33 68 33h3q75 0 105 -94l5 -37q0 -75 -64 -120q-30 -11 -49 -11q-41 0 -72 40v-31h-47v328zM4275 37h52v-99h2q23 24 54 24h3q60 0 82 -74
l2 -41v-138h-52v111q0 82 -32 82l-10 2h-12q-37 0 -37 -80v-115h-52v328zM329 -38h3v-58h-5q-42 0 -42 -57v-138h-53v245h47v-21q18 29 50 29zM564 -38q71 0 86 -87v-166h-51v136q-6 59 -41 59h-6q-45 0 -45 -84v-111h-52v245h50v-21q25 29 59 29zM1504 -38q72 0 105 -94
l5 -39q-2 -24 -7 -24h-169q17 -47 62 -47q24 0 48 21h57q-33 -79 -108 -79q-82 0 -113 105v37q0 81 89 117zM2657 -38h5q77 0 107 -97l3 -26v-21l-3 -13h-170q18 -47 53 -47h12q21 0 42 21h59q-34 -79 -105 -79q-84 0 -115 102l-2 29q0 93 91 128zM2915 -38h4q54 0 78 -60
q7 -25 7 -82v-111h-54v138q0 48 -35 57h-11q-38 0 -43 -57v-138h-54v245h50v-21q25 29 58 29zM3508 -38h6q40 0 70 -40h2v32h47v-245h-47v31h-2q-34 -40 -78 -40q-71 0 -101 90l-4 37v12q0 82 77 117q11 6 30 6zM3781 -38h4q62 0 82 -78l3 -84v-91h-54v138q0 48 -38 57h-9
q-38 0 -42 -52v-143h-54v245h49v-21q26 29 59 29zM4133 -38h1q74 0 104 -93l4 -40q0 -88 -84 -126l-25 -3q-41 0 -68 34v-106h-52v326h47v-29q30 37 73 37zM4714 -38h5q34 0 63 -37q27 37 69 37h6q56 0 79 -66l6 -51v-136h-52v122q0 73 -39 73h-7q-35 0 -41 -50v-140l-5 -5
h-48v140q0 42 -31 55h-17q-40 0 -40 -77v-118h-51v245h47v-21q22 29 56 29zM359 -46h49l5 -6v-234l-5 -5h-49v245zM1297 -46h52v-245h-52v245zM1649 -46h52v-136q4 -60 43 -60h4q44 0 44 81v115h52v-245h-47v24h-5q-12 -33 -59 -33q-52 0 -79 63q-5 12 -5 34v157zM2458 -46
h51v-245h-51v245zM4515 -46h51v-245h-51v245zM1077 -169q0 -53 51 -73h12q54 0 66 66v10q0 53 -54 70h-17q-38 0 -58 -57v-16zM1438 -143h122q-18 47 -53 47h-7q-43 0 -62 -44v-3zM2599 -143h122q-21 47 -54 47h-7q-46 0 -61 -47zM3196 -158v-11q10 -73 61 -73h5q64 8 64 71
v5q0 45 -38 65l-18 5h-14q-60 -14 -60 -62zM3452 -173q14 -69 62 -69h11q41 0 59 60v13q-8 73 -56 73h-17q-47 0 -59 -73v-4zM4062 -158v-22q0 -47 59 -62h9q50 0 61 76q-13 70 -58 70h-15q-56 -17 -56 -62z" />
    <glyph glyph-name=".null" horiz-adv-x="0" 
 />
    <glyph glyph-name="nonmarkingreturn" horiz-adv-x="571" 
 />
    <glyph glyph-name="space" unicode=" " horiz-adv-x="286" 
 />
    <glyph glyph-name="exclam" unicode="!" horiz-adv-x="659" 
d="M336 334q152 274 321 508q90 123 158 195q76 79 117 85q15 4 4 19q-43 46 -68 63q-48 36 -122 -35q-27 -26 -57 -65q-21 -28 -42 -62l-21 -33q-18 -28 -35 -58l-100 -166q-62 -108 -107 -192q-54 -103 -79 -167q-39 -106 4 -143q6 -7 6 4zM139 174q-74 -124 -27 -186
q45 -63 119 59q73 123 27 189q-45 63 -119 -62z" />
    <glyph glyph-name="quotedbl" unicode="&#x22;" horiz-adv-x="200" 
d="M428 1145q-45 10 -88 -36q-42 -44 -37 -89q1 -6 3 -14l4 -13q5 -15 5 -20q0 -12 -9 -32q-6 -12 -14 -23q-10 -13 -22 -23q-6 -5 4 -7t19 3q97 49 149 145q53 92 -14 109zM584 1145q-45 10 -89 -36q-43 -44 -38 -89q0 -6 3 -14q1 -5 5 -13q6 -15 6 -20q0 -12 -10 -32
q-6 -12 -14 -23q-10 -13 -23 -23q-6 -5 4 -7q11 -2 18 3q101 50 152 145q50 93 -14 109z" />
    <glyph glyph-name="numbersign" unicode="#" horiz-adv-x="1961" 
d="M1893 496q-71 -82 -144 -105q-91 -27 -127 33q-30 51 -3 129q26 72 89 137q79 82 154 94q-14 -16 0 -63l4 -6q3 -4 4 -5q5 -5 8 -5q6 21 24 46q8 9 16 19l16 14q55 46 59 -22q10 -135 -100 -266zM1938 840q-24 24 -100 -3q-59 -22 -127 -65q-100 -64 -163 -150
q-67 -92 -69 -180q-3 -123 115 -131q-31 -33 -75 -70l-60 -46q-22 -15 -47 -26q-31 -14 -54 -17q-63 -9 -55 61q11 88 76 223q52 109 139 244l141 206q25 35 52 70l28 37q82 107 12 105q-65 -2 -129 -56q-50 -41 -112 -102q-51 -51 -121 -125l-191 -206l-66 -69
q-73 -76 -133 -134q-71 -67 -132 -118q-144 -116 -256 -153q102 64 241 214q129 139 253 311q123 171 196 312q79 152 74 220q-5 56 -73 72q-59 13 -159 -3q-83 -13 -180 -44q-82 -26 -137 -52q-265 -127 -472 -297q-213 -176 -296 -344q-58 -115 16 -150q69 -33 166 27
q60 39 107 88q-38 -3 -53 40q-18 51 18 139q45 112 202 243q154 129 316 193q63 25 118 35q65 12 107 1q106 -27 53 -188q-86 -272 -310 -535q-114 -134 -241 -233q-137 -107 -276 -164q-8 -4 -23 -7l-22 -5q-24 -5 -22 -20q2 -13 18 -19q115 -35 215 -19q75 12 172 62
q111 74 233 181q52 45 109 100l156 153q11 12 25 26l122 123q110 109 184 171l-94 -136q-44 -65 -82 -124q-47 -75 -84 -139q-94 -164 -116 -257q-27 -115 59 -116q101 -3 299 131q146 101 217 186q94 13 164 54l53 31q31 20 57 41q67 53 125 130q68 90 83 185
q15 93 -31 122q-67 41 -160 -34zM1618 227q-64 -86 -6 -125q55 -40 115 45q62 84 6 125q-54 43 -115 -45z" />
    <glyph glyph-name="dollar" unicode="$" horiz-adv-x="931" 
d="M610 178q-128 -112 -260 -98l238 424q86 -18 121 -44q52 -39 26 -110q-33 -93 -125 -172zM616 657l-10 2q-6 1 -8 3q-123 23 -103 114q24 88 111 162q112 96 211 76zM923 1096l142 250q6 12 -10 12h-27q-18 0 -25 -12l-143 -254q-141 -14 -289 -97q-151 -85 -221 -200
q-69 -114 -18 -187q30 -42 89 -65q37 -15 113 -29l-237 -420q-26 15 -39 33q-96 113 55 289q-50 12 -108 -13q-101 -40 -152 -139q-53 -104 4 -186q52 -74 187 -80l-132 -231q-6 -13 11 -13h26q17 0 25 13l131 233q162 13 324 104q205 116 279 293q83 199 -159 238l-77 14
l194 344l14 -14q72 -88 -40 -225q47 -36 116 6q76 41 116 128q42 92 -3 150q-42 51 -146 58z" />
    <glyph glyph-name="percent" unicode="%" horiz-adv-x="964" 
d="M636 222q-105 -128 -203 -163q-72 -23 -59 51q4 25 18 58l10 24l8 15q104 191 277 266q66 31 61 -20q-3 -99 -112 -231zM595 763q-106 -128 -205 -163q-71 -23 -58 50q5 25 19 58l10 24q5 9 8 16q101 186 275 266q63 28 63 -21q-3 -99 -112 -230zM751 528
q-82 -5 -165 -51q-130 -75 -226 -196q-88 -111 -93 -183q-5 -59 62 -78q64 -18 136 13q198 82 338 286q83 117 51 175q-21 38 -103 34zM1190 1036q6 6 5 10t-9 3q-78 0 -151 -35q-26 -13 -39 -25l-1090 -964q-6 -5 -5 -10q2 -4 9 -3l47 11q6 1 10 5zM710 1068
q-83 -4 -163 -50q-131 -75 -229 -196q-89 -111 -94 -183q-5 -59 62 -78q64 -18 136 12q95 39 188 119q86 74 152 166q84 118 51 174q-21 40 -103 36z" />
    <glyph glyph-name="ampersand" unicode="&#x26;" horiz-adv-x="1232" 
d="M1469 1118q-92 20 -262 -35q-144 -46 -268 -105q-146 -70 -244 -149q-135 -109 -99 -190q30 -70 142 -74q-73 -19 -129 -35q-77 -23 -140 -46q-163 -60 -250 -130q-145 -115 -172 -226q-27 -107 73 -139q110 -34 317 51q115 47 249 128q146 89 310 215l6 2
q-19 -29 -81 -113l-130 -175l-40 -53q-3 -5 -4 -6q-6 -7 -9 -12l-86 -114q-74 -99 -107 -145q-91 -127 98 -66q65 21 141 73q27 18 53 39l34 27q-52 8 -25 58q50 91 88 158q50 88 94 160q108 176 203 292q26 30 -20 74t-78 10q-69 -71 -156 -142q-72 -61 -166 -128
q-142 -103 -258 -157q-104 -48 -174 -51q-140 -6 -67 126q72 131 263 213q79 34 173 57q81 20 168 31q20 1 25 13t-11 13q-33 4 -49 11q-183 69 -37 226q123 132 305 193q100 34 152 20q50 -13 2 -56q-45 -39 -111 -107q-79 -82 -112 -129q-60 -89 32 -76q56 7 147 51
q85 40 138 80q17 14 12 27q0 2 -2 2q-22 -16 -59 -31q-46 -14 -25 19q24 36 80 101q45 52 88 97q95 99 -22 123z" />
    <glyph glyph-name="quotesingle" unicode="'" horiz-adv-x="47" 
d="M428 1145q-45 10 -88 -36q-42 -44 -37 -89q1 -6 3 -14l4 -13q5 -15 5 -20q0 -12 -9 -32q-6 -12 -14 -23q-10 -13 -22 -23q-6 -5 4 -7t19 3q97 49 149 145q53 92 -14 109z" />
    <glyph glyph-name="parenleft" unicode="(" horiz-adv-x="991" 
d="M799 1215q-103 -41 -214 -132q-183 -149 -322 -374q-133 -214 -180 -420q-40 -166 -31 -290q11 -148 92 -232q15 -18 33 -25q3 -1 9 4l11 12q3 0 -2 4q-113 47 -55 328q53 259 199 514q39 70 112 170q86 118 173 214q107 117 194 176q103 70 172 55q2 0 4 2l5 13
q2 7 -1 7q-87 19 -199 -26z" />
    <glyph glyph-name="parenright" unicode=")" horiz-adv-x="503" 
d="M505 991q-10 148 -93 234q-10 10 -16 14q-9 7 -17 8q-8 4 -20 -16q0 -2 2 -2q113 -50 56 -330q-53 -258 -199 -514q-41 -71 -113 -170q-87 -119 -173 -214q-106 -117 -193 -176q-103 -70 -173 -54q-2 -1 -2 -2q-8 -21 -4 -23q86 -18 197 28q104 42 215 132
q182 149 321 374q133 214 181 420q40 169 31 291z" />
    <glyph glyph-name="asterisk" unicode="*" horiz-adv-x="1064" 
d="M1413 1262q-63 -13 -180 -72q-100 -50 -191 -107l205 303q2 9 -7 9l-65 -21l-40 -16q-20 -8 -30 -15l-7 -5q-5 -4 -6 -4q-6 -5 -11 -11l-142 -236q-29 75 -43 133q-8 32 -9 53q-1 22 5 30q11 16 4 14q-145 -67 -131 -100q54 -119 117 -201q-134 -57 -274 -97
q-77 -23 -124 -29q-54 -7 -63 7l-7 8q-5 3 -5 -2q26 -157 63 -151q62 12 181 73q98 50 192 109l-252 -412q-3 -10 6 -8l70 21l12 10l260 389q30 -75 45 -136q8 -33 10 -54q1 -24 -5 -31q-4 -5 -5 -11q-2 -5 1 -4q146 65 131 101q-57 121 -115 200q131 56 272 97
q77 23 124 29q54 8 63 -7l8 -8q5 -4 4 0q-24 161 -61 152z" />
    <glyph glyph-name="plus" unicode="+" horiz-adv-x="1152" 
d="M697 754q62 68 119 129h131l-242 -264q70 -2 142 -6l142 -9q68 -5 125 -11l-70 -47q-94 3 -199 4h-198q-28 -33 -58 -71q-20 -24 -58 -71l-128 -160l-139 21l251 281l-432 -8l117 87l6 1q57 -1 96 -1q50 0 91 -2q98 -2 189 -5z" />
    <glyph glyph-name="comma" unicode="," horiz-adv-x="301" 
d="M204 297q-45 10 -87 -36q-41 -44 -36 -89q0 -10 6 -27q6 -16 6 -20q0 -12 -10 -32q-6 -12 -14 -23q-10 -13 -23 -23q-6 -4 4 -6q10 -1 18 2q101 50 152 145q50 93 -16 109z" />
    <glyph glyph-name="hyphen" unicode="-" horiz-adv-x="727" 
d="M639 547h-453q-9 1 -26 -12q-14 -12 -30 -31q-15 -17 -22 -30q-8 -13 -2 -11q18 6 46 8h452q10 -1 27 13q14 12 30 31q15 17 22 30t1 10q-18 -7 -45 -8z" />
    <glyph glyph-name="hyphen" unicode="&#x2010;" horiz-adv-x="727" 
d="M639 547h-453q-9 1 -26 -12q-14 -12 -30 -31q-15 -17 -22 -30q-8 -13 -2 -11q18 6 46 8h452q10 -1 27 13q14 12 30 31q15 17 22 30t1 10q-18 -7 -45 -8z" />
    <glyph glyph-name="period" unicode="." horiz-adv-x="272" 
d="M97 244q-59 -85 -6 -127q53 -39 117 47q60 86 6 125t-117 -45z" />
    <glyph glyph-name="slash" unicode="/" horiz-adv-x="409" 
d="M193 175q-58 -54 -119 -46q-45 5 -37 56q8 56 80 116q32 28 86 53q41 19 80 31q-16 -141 -90 -210zM289 438q-39 -15 -85 -41l-66 -41q48 48 102 99l88 80q-29 -50 -39 -97zM610 495q-88 4 -202 -26q11 85 49 145l21 27q3 6 0 10t-8 2q-29 -5 -73 -19l-38 -14
q-18 -7 -25 -12l-326 -334q-88 -87 -153 -114q-8 -2 6 -14q13 -12 27 -5q31 17 66 44q32 23 41 34h2q-50 -116 77 -131q110 -10 203 64q110 90 125 264q140 24 213 1q92 -29 35 -128q65 30 86 83q8 21 7 41q0 18 -7 29q-28 48 -126 53z" />
    <glyph glyph-name="zero" unicode="0" horiz-adv-x="780" 
d="M789 731q-41 -122 -120 -253q-172 -282 -351 -374q-130 -67 -131 73q0 47 15 113l22 79q149 399 462 600q51 33 93 27q39 -5 43 -40q11 -93 -33 -225zM796 1090q-158 -32 -300 -142q-117 -92 -219 -212q-93 -109 -163 -229q-138 -237 -128 -378q9 -114 142 -131
q127 -16 259 61q168 101 324 281q147 170 246 365q60 120 74 200q17 93 -25 148q-54 69 -210 37z" />
    <glyph glyph-name="one" unicode="1" horiz-adv-x="335" 
d="M741 1082q-23 6 -54 -1q-65 -15 -158 -94q-106 -89 -53 -131q-211 -262 -372 -508q-21 -29 -38 -60q-22 -42 -34 -80q-32 -102 16 -157q24 -29 90 -84q7 -4 10 -2q4 3 3 10q-10 68 60 229q60 140 171 327q230 387 375 532q9 13 -16 19z" />
    <glyph glyph-name="two" unicode="2" horiz-adv-x="835" 
d="M973 1055q-112 76 -325 12q-96 -27 -197 -104q-92 -69 -139 -138q-33 -45 -7 -93q30 -56 130 -68q5 0 2 6q-35 82 20 182t158 143q122 48 162 -18q52 -86 -48 -226q-43 -60 -115 -130q-63 -62 -148 -131q-72 -59 -161 -124q-70 -51 -154 -109l-127 -86q-61 -41 -79 -54
q-6 -5 -2 -23q3 -18 15 -36q30 -48 75 -42q176 26 354 19q198 -7 242 -51q3 -3 6 -13l2 -12q0 -9 2 -10h7q66 15 112 140q47 127 -57 130q-133 4 -282 -21q-62 -10 -136 -27l-137 -34l332 243q57 42 102 76q109 83 186 152q90 81 156 158q177 205 51 289z" />
    <glyph glyph-name="three" unicode="3" horiz-adv-x="823" 
d="M938 1074q-72 32 -194 11q-265 -46 -424 -245q-39 -51 -18 -103q24 -63 131 -71q-38 78 22 182q58 100 154 143q157 68 197 -44q39 -110 -80 -230q-46 -47 -113 -85q-47 -26 -125 -57l-57 -20q-14 -5 -24 -16q-7 -9 -11 -21l-2 -17q1 -7 4 -5l65 26q42 15 72 20
q86 15 119 -46q35 -66 8 -148q-24 -75 -90 -141q-153 -150 -295 -94q-94 36 -106 139q-13 112 88 217q1 4 -15 0q-17 -5 -41 -17q-65 -33 -114 -87q-78 -87 -83 -193q-6 -116 93 -149q107 -36 244 0q111 28 223 98q122 78 198 166q88 101 91 190q10 154 -195 139q15 9 53 26
q35 17 54 28q108 64 170 130q71 77 76 152q3 88 -75 122z" />
    <glyph glyph-name="four" unicode="4" horiz-adv-x="845" 
d="M479 465q-107 -9 -156 -16q-74 -9 -127 -23q83 105 286 274q99 82 176 134q89 59 134 67q-182 -217 -313 -436zM1048 1097q-11 4 -34 6q-45 4 -67 1q-45 -5 -185 -98q-116 -77 -287 -208q-141 -108 -285 -226q-127 -104 -174 -148q-18 -18 -9 -64q10 -51 56 -47
q54 8 138 14q103 7 198 7l-39 -77q-21 -44 -29 -79q-23 -89 27 -143l38 -37l50 -41q14 -11 14 8q-20 110 105 363q72 -5 118 -17q38 -11 56 -26l5 -16l3 -15q0 -11 2 -12h6q66 14 118 118q54 107 -40 113q-35 1 -94 1q-43 -1 -105 -3q57 104 100 177q51 86 97 156
q101 151 223 281q7 8 -6 12z" />
    <glyph glyph-name="five" unicode="5" horiz-adv-x="788" 
d="M979 1063q-99 0 -209 -4q-145 -5 -215 -15q-5 0 -17 -6t-15 -10q-44 -51 -136 -175l-153 -206q-58 -77 -31 -121q10 -15 30 -28l32 -17q2 -2 6 2q61 85 188 125q220 67 222 -115q3 -177 -167 -298q-80 -59 -164 -83q-94 -27 -155 5q-65 36 -59 116q7 87 98 183q2 2 2 6
t-4 0q-12 -1 -31 -5q-24 -6 -48 -15q-68 -25 -112 -66q-81 -75 -81 -177q0 -108 100 -139q145 -44 326 24q163 61 286 183q184 179 179 337q-5 172 -261 149q-130 -12 -229 -80q51 141 137 235q28 28 74 33q118 15 211 2q47 -7 26 -72l-20 -36q-5 -8 8 -7q12 0 19 7
q37 34 97 113q65 85 81 126q13 29 -15 29z" />
    <glyph glyph-name="six" unicode="6" horiz-adv-x="831" 
d="M628 239q-27 -32 -66 -65q-97 -81 -206 -79q-113 3 -124 95q-14 109 89 220q95 101 212 133q124 34 160 -53q30 -71 -6 -160q-21 -47 -59 -91zM951 1071q-101 14 -229 -43q-225 -102 -402 -287q-172 -179 -247 -379q-22 -56 -27 -117q-6 -71 12 -126q48 -140 234 -125
q101 8 209 58q43 20 87 47q35 22 72 48l32 27l50 50q70 74 103 147q53 116 8 198q-52 96 -219 76q-100 -13 -196 -65q-107 -59 -177 -150q28 77 85 160q46 67 116 145q55 63 113 113q69 61 139 102q85 49 130 40q42 -9 9 -52l-11 -14q-3 -3 -4 -5l-53 -70q-45 -63 -63 -104
q-13 -26 2 -47q16 -24 55 -14q41 9 104 49q24 15 46 31l28 22q16 16 11 33q-26 -15 -36 -12q-9 3 -3 16q31 77 73 140q66 93 -51 108z" />
    <glyph glyph-name="seven" unicode="7" horiz-adv-x="587" 
d="M957 1054l-24 5q-11 2 -25 2h-16q-117 2 -252 -1q-158 -2 -240 -9q-36 -4 -53 -37q-20 -34 -42 -78q-28 -53 -54 -113q-3 -7 4 -16q8 -9 10 -2l3 5q2 3 3 5q20 46 70 59q59 18 192 28q126 10 182 5q57 -4 23 -39l-331 -310q-100 -100 -166 -179q-78 -94 -111 -162
l-12 -29q-6 -20 -9 -39q-7 -52 15 -86q19 -30 60 -64l58 -44q6 -6 11 2q1 1 0 8v10q3 130 43 209q54 106 151 238q80 109 188 232q44 51 92 104l151 159q6 7 14 14q5 6 12 13l32 33l17 21q10 13 15 24q6 13 3 20q-2 8 -14 12z" />
    <glyph glyph-name="eight" unicode="8" horiz-adv-x="819" 
d="M556 176q-92 -80 -191 -95t-147 44q-49 58 -19 156q30 97 121 176q64 56 148 67l83 -13q48 -10 79 -27q78 -44 45 -138q-34 -94 -119 -170zM843 838q-23 -77 -97 -140q-54 -51 -127 -63q-17 2 -37 7l-16 4q-9 2 -14 3q-113 21 -92 113q16 85 100 160q72 62 151 74
q79 11 117 -35q39 -47 15 -123zM819 1073q-143 -12 -294 -96q-148 -84 -218 -194q-68 -108 -17 -175q35 -47 88 -63q-148 -34 -285 -185q-68 -74 -89 -144q-24 -79 17 -138q60 -86 225 -79t336 105q172 97 252 227q79 130 21 218q-18 26 -68 46q-39 16 -90 26
q126 25 253 157q138 146 65 240q-53 67 -196 55z" />
    <glyph glyph-name="nine" unicode="9" horiz-adv-x="829" 
d="M860 858q-8 -86 -76 -172q-114 -143 -254 -180q-127 -35 -165 53q-32 72 5 160q21 47 65 99q34 41 74 75q193 157 305 84q53 -34 46 -119zM1043 821q6 72 -14 126q-49 139 -241 124q-105 -8 -216 -58q-81 -37 -165 -95q-12 -9 -34 -30q-28 -26 -55 -56q-76 -83 -110 -154
q-55 -115 -9 -198q53 -96 224 -77q105 14 207 69q112 60 184 153q-37 -82 -65 -135q-41 -80 -85 -140q-53 -73 -112 -125q-68 -59 -145 -90q-95 -41 -164 -16q-65 25 -72 91q-7 74 64 167q2 2 2 4q0 3 -6 0q-9 -1 -27 -7q-20 -7 -41 -17q-59 -29 -96 -70q-67 -75 -56 -165
q12 -94 107 -112q134 -22 276 39q200 73 377 261q173 183 248 392q20 59 24 119z" />
    <glyph glyph-name="colon" unicode=":" horiz-adv-x="331" 
d="M97 244q-59 -85 -6 -127q53 -39 117 47q61 88 6 125q-54 39 -117 -45zM226 463q-62 -84 -6 -125q51 -41 115 45q63 85 6 127q-53 42 -115 -47z" />
    <glyph glyph-name="semicolon" unicode=";" horiz-adv-x="362" 
d="M204 297q-45 10 -87 -36q-41 -44 -36 -89q0 -10 6 -27q6 -16 6 -20q0 -12 -10 -32q-6 -12 -14 -23q-10 -13 -23 -23q-6 -4 4 -6q10 -1 18 2q101 50 152 145q50 93 -16 109zM228 463q-58 -84 -6 -125q54 -40 117 45q60 87 6 127q-52 41 -117 -47z" />
    <glyph glyph-name="less" unicode="&#x3c;" horiz-adv-x="552" 
d="M200 -60q-54 -73 -110 -124q-87 -77 -172 -88q-47 -7 -10 67q39 77 129 144q47 36 120 73q55 28 128 58q-38 -67 -85 -130zM379 299l-29 -35q-53 -65 -132 -81q-90 -18 -87 85q3 100 87 185q78 80 165 92q68 9 84 -42q18 -61 -76 -165q9 -3 19 0q-15 -20 -31 -39z
M686 357q-3 13 -10 16q-4 4 -10 -2q-102 -127 -217 -195l92 166q9 14 -15 16q-10 1 -24 1q-12 -1 -25 -3q78 47 104 122q27 77 -26 106q-59 31 -156 10q-91 -20 -186 -79q-95 -60 -155 -135q-65 -83 -66 -161q0 -138 148 -115q134 21 229 123l-64 -106q-68 -27 -122 -52
q-74 -34 -136 -73l-104 -65q-44 -30 -79 -58q-43 -34 -71 -66q-75 -82 -43 -135t135 -18q98 36 206 113q97 70 179 155q77 81 146 201q37 15 59 29q108 68 209 190q5 3 2 15z" />
    <glyph glyph-name="equal" unicode="=" horiz-adv-x="727" 
d="M639 760h-453q-9 1 -26 -12q-14 -12 -30 -31q-15 -17 -22 -30q-8 -13 -2 -11q18 6 46 8h452q10 -1 27 13q14 12 30 31q15 17 22 30t1 10q-18 -7 -45 -8zM639 459h-453q-9 1 -26 -12q-14 -12 -30 -31q-15 -17 -22 -30q-8 -13 -2 -11q18 6 46 8h452q10 -1 27 13
q14 12 30 31q15 17 22 30t1 10q-18 -7 -45 -8z" />
    <glyph glyph-name="greater" unicode="&#x3e;" horiz-adv-x="532" 
d="M258 374q-38 -114 -7 -184q-43 -20 -76 -22q-47 -2 -69 35q-29 46 -4 119q24 65 82 124q81 85 163 95q-57 -68 -89 -167zM390 322q-43 -77 -98 -115q-32 58 2 164q35 105 103 159q74 62 43 -75q-14 -67 -50 -133zM578 295q-7 15 -13 8l-51 -47q-36 -32 -63 -51
q-80 -58 -124 -33q41 23 98 82l41 46q16 19 29 36q60 83 74 169q15 85 -27 111q-61 39 -145 -30q-24 22 -94 -4q-57 -20 -117 -60q-207 -130 -213 -303q-3 -119 118 -122q93 -2 187 50q47 -46 140 2q73 38 159 123q7 8 1 23z" />
    <glyph glyph-name="question" unicode="?" horiz-adv-x="1005" 
d="M346 276q-73 46 -137 -67q-66 -110 4 -154q68 -43 135 68q68 109 -2 153zM993 1012q-68 56 -194 53q-254 -3 -414 -141q-51 -44 -48 -98q4 -66 101 -95q10 -3 10 12q-3 83 48 154q56 75 153 100q96 25 151 -18q49 -38 46 -113q-8 -134 -131 -219q-111 -77 -248 -74
q-15 0 -25 -4l-12 -10q-55 -53 -88 -108q-45 -77 -17 -117q8 -10 31 -26l41 -27q10 -4 10 6q-1 38 43 116q40 70 72 103q25 26 59 35q79 22 147 50q78 32 138 69q143 89 172 202q24 93 -45 150z" />
    <glyph glyph-name="at" unicode="@" horiz-adv-x="1142" 
d="M738 557l-28 -35q-53 -63 -131 -82q-92 -23 -91 80q0 99 87 187q80 82 167 94q66 9 80 -42q17 -60 -73 -161q6 -4 18 -4q-13 -18 -29 -37zM1153 1002q-82 69 -220 69q-185 0 -365 -94q-143 -76 -247 -185q-113 -117 -166 -260q-35 -94 -29 -182q7 -98 66 -174
q94 -123 268 -131q145 -8 303 61q138 60 274 179q4 2 7 7q1 1 2 4l2 3q6 25 -19 25q-12 0 -20 -9q-114 -107 -265 -170q-139 -58 -270 -50q-158 11 -237 122q-93 129 -29 305q97 274 385 418q168 83 314 86q132 3 204 -59q92 -81 52 -221q-43 -151 -224 -271
q-77 -50 -100 -20q-30 36 57 143q11 14 -12 17q-18 3 -47 -1q75 48 98 121q23 74 -31 103q-59 31 -156 9q-91 -21 -183 -81q-94 -60 -152 -137q-63 -83 -62 -160q2 -137 156 -107q141 27 215 121q-65 -101 6 -118q89 -23 234 75q233 159 262 346q20 138 -71 216z" />
    <glyph glyph-name="A" unicode="A" 
d="M1723 753q-45 -63 -146 -96q-4 -12 18 -21q11 -4 24 -3q16 1 31 10q-98 -119 -210 -222q-135 -123 -268 -202q-157 -93 -301 -117q-165 -28 -308 35q-158 71 -214 215q-59 155 30 332q69 140 226 232q137 81 322 116q94 17 187 21q104 3 199 -10q225 -32 380 -154
q81 -62 30 -136zM1880 918q7 60 -51 102q-138 101 -370 136q-213 32 -427 -1q-213 -32 -413 -138q-223 -119 -343 -292q-154 -223 -75 -445q76 -215 302 -264q224 -47 436 5q235 59 406 231q-49 -64 -75 -101q-41 -60 -52 -90q-27 -70 64 -59q27 4 96 32q80 33 113 60
q7 8 4 12q-40 62 41 197q49 80 139 194q84 106 143 167l11 6q2 11 -37 18q-37 6 -66 2q52 41 105 119q44 65 49 109z" />
    <glyph glyph-name="B" unicode="B" horiz-adv-x="1483" 
d="M1862 1079q-89 64 -245 86q-361 53 -757 -62q-197 -57 -362 -149q-174 -97 -294 -223q-82 -84 30 -128q108 -43 152 -13q-40 13 -16 72q22 52 81 116q153 163 436 263q288 101 574 85q267 -14 271 -185q3 -162 -199 -275q-102 -56 -236 -96q-116 -34 -225 -48
q-20 -1 -27 -13q-6 -12 6 -13q241 -12 203 -184q-38 -167 -250 -251q-82 -32 -169 -28q-101 4 -85 69q20 76 114 218q77 116 201 270l108 131l98 114q88 100 129 140q8 8 1 15q-6 7 -20 10q-37 9 -59 -11q-118 -98 -226 -205q-95 -95 -229 -241q-51 -56 -151 -188
q-55 -73 -95 -133q-48 -70 -71 -116q-60 -113 118 -124q251 -21 445 49q169 60 252 168q78 101 42 188q-37 92 -184 111q81 11 187 42q124 35 229 82q125 56 200 120q89 73 103 151q22 112 -80 186z" />
    <glyph glyph-name="C" unicode="C" horiz-adv-x="1781" 
d="M2056 924q6 53 -50 96q-139 108 -487 147q-235 26 -473 -12q-212 -31 -413 -139q-223 -119 -345 -291q-168 -238 -49 -455q110 -201 383 -270q220 -56 506 0q339 67 557 244q33 29 49 47q38 39 70 135q12 37 15 60q4 25 -5 18q-128 -150 -246 -241q-130 -100 -268 -146
q-296 -101 -613 -4q-57 16 -102 45q-145 82 -210 221q-73 155 -1 301q69 139 236 234q143 82 331 118q276 50 507 25q264 -29 423 -154q77 -60 43 -104q-23 -31 -115 -62q-207 -72 -458 -28q-33 6 -77 19q-57 18 -101 40q-123 61 -99 131q5 15 22 25l14 8l11 4q-7 22 -45 -2
q-85 -49 -25 -156q34 -58 100 -102q49 -32 130 -64q272 -103 541 41q127 71 196 170q44 62 48 101z" />
    <glyph glyph-name="D" unicode="D" horiz-adv-x="1744" 
d="M1942 986q-85 156 -349 188q-349 43 -745 -78q-197 -60 -362 -152q-175 -99 -292 -223q-72 -75 49 -123q71 -32 139 -8q-33 31 -6 86q31 66 143 162q54 45 157 102q97 52 200 94q123 50 315 78q179 27 299 18q190 -15 263 -129q74 -114 12 -296q-54 -156 -213 -322
q-153 -160 -318 -244q-140 -73 -296 -93q-161 -20 -202 38q-21 32 53 160q65 112 189 274q266 348 420 473q22 17 -18 27q-40 9 -66 -12q-101 -83 -223 -202q-114 -113 -229 -241q-240 -270 -347 -448q-69 -119 189 -137q115 -7 254 15q148 24 282 77q177 71 367 221
q196 156 285 303q137 231 50 392z" />
    <glyph glyph-name="E" unicode="E" horiz-adv-x="1345" 
d="M1905 1300q-132 27 -291 37q-231 18 -500 -34q-175 -33 -378 -124q-218 -97 -316 -198q-111 -113 -97 -204q12 -78 112 -135q85 -47 215 -71q117 -21 214 -14l-140 -29q-96 -22 -174 -49q-100 -36 -175 -81q-88 -55 -141 -124q-112 -147 -4 -231q47 -38 145 -51
q87 -12 205 -5q219 13 387 68q53 18 110 41q79 31 142 64q80 41 127 82q57 47 67 92q23 112 -205 84q-8 0 -6 -8q67 -91 -90 -211q-107 -81 -255 -118q-129 -33 -269 -28q-77 4 -129 24q-63 25 -72 68q-10 50 49 121q58 72 164 129q98 52 221 86q253 68 424 27l10 1
q6 2 11 11q21 43 24 76q3 35 -16 37l-277 18q-52 3 -88 6q-97 7 -167 16q-85 12 -152 29q-135 36 -151 112q-17 82 118 177q87 61 227 111q54 19 114 35q47 13 95 24q284 63 530 56q280 -8 417 -107q73 -54 34 -97q-27 -30 -124 -65q-225 -80 -465 -47l-32 5l-42 10
q-54 13 -95 31q-116 52 -83 122q6 14 24 25q12 8 25 12q-4 20 -45 -4q-96 -59 -51 -152q26 -55 92 -95q44 -27 127 -56q260 -87 551 65q71 37 123 77q62 46 102 97q26 33 38 52q18 27 23 48q13 50 -39 91t-198 71z" />
    <glyph glyph-name="F" unicode="F" horiz-adv-x="1175" 
d="M1506 1208q-53 22 -152 28q-79 5 -182 -1q-72 -4 -148 -12q-130 -16 -260 -50q-116 -30 -226 -73q-196 -78 -313 -168q-41 -31 -65 -59q-34 -40 -35 -78q-3 -63 97 -69q94 -6 153 34q-59 44 -1 123q21 29 55 58l26 22q12 10 22 16q184 121 508 174q74 11 125 11
q72 1 118 -17q122 -47 70 -225q-20 -68 -80 -161q-53 -84 -137 -188l-475 2q-26 0 -45 -8q-32 -9 -76 -39q-37 -24 -57 -45q-6 -4 -5 -9t9 -5q289 28 598 41q-160 -187 -406 -365q-254 -183 -442 -241q-45 -14 -4 -51q42 -36 96 -33q27 2 51 7q30 7 58 21q126 62 360 261
q243 206 422 409l137 8q5 0 11 4l41 25q7 4 5 9q-1 5 -9 5l-138 2q149 173 241 317q99 155 110 242q5 51 -57 78z" />
    <glyph glyph-name="G" unicode="G" horiz-adv-x="1765" 
d="M2012 922q6 53 -52 96q-136 108 -487 147q-118 15 -236 11q-105 -3 -235 -23q-213 -31 -414 -140q-221 -120 -344 -292q-122 -171 -92 -340q27 -155 170 -264q135 -101 322 -124q170 -20 361 26q380 91 593 331l-78 -110l-367 -500q-88 -123 97 -66q63 21 139 73l88 65
q-54 11 -27 57l88 156q50 89 93 158q51 84 98 152q53 78 102 138q26 29 -20 73q-45 43 -76 9q-12 -9 -21 -20q-188 -213 -435 -336q-134 -67 -268 -95q-145 -30 -282 -12q-96 12 -188 60q-217 117 -241 326q-23 207 159 360q85 72 204 122q108 45 232 68q274 52 507 25
q263 -29 423 -154q79 -61 45 -104q-24 -31 -117 -62q-212 -72 -456 -26q-34 6 -78 19q-57 17 -101 39q-123 61 -98 132q5 14 22 25l14 7l11 5q-9 20 -47 -4q-82 -49 -24 -154q35 -59 100 -103q52 -35 131 -65q266 -102 539 41q128 70 198 170q44 64 48 103z" />
    <glyph glyph-name="H" unicode="H" horiz-adv-x="849" 
d="M1472 957q-16 2 -62 2h-98q-113 -3 -178 -6l307 438q2 2 2 6q0 8 -16 8q-49 0 -80 -30q-86 -84 -338 -428l-256 -23l299 420q0 8 -16 8q-51 0 -82 -31q-34 -32 -121 -139l-217 -274l-260 -37q-100 -15 -100 -45q0 -4 20 -4l144 8q47 3 80 4l63 2q-523 -710 -523 -773
q0 -19 23 -19q42 0 137 49q87 42 157 95l5 10q-35 -3 -35 28q0 7 4 19q89 175 367 597l239 8q-519 -746 -522 -847q0 -24 37 -24q98 0 235 100l4 10q-20 -3 -30 15q-9 14 0 32q115 261 403 716q300 0 328 -30q68 21 123 92q8 8 8 18q0 19 -51 25z" />
    <glyph glyph-name="I" unicode="I" horiz-adv-x="894" 
d="M1121 1247q-76 2 -166 -11q-79 -10 -130 -26q-195 -58 -391 -180q-105 -66 -181 -136q-86 -78 -129 -155q-8 -14 -2 -57q3 -19 8 -34q5 -17 13 -23q7 -5 12 8q19 48 57 105q48 72 113 136q79 79 176 139q114 71 248 113q65 21 125 28q74 9 123 -5q128 -35 63 -209
q-93 -248 -319 -555q-69 -90 -169 -185q-89 -85 -188 -159q-132 -22 -223 -137q-25 -31 37 -58q64 -29 129 7q213 116 506 495q84 109 164 223q87 123 153 230q74 117 116 203q46 95 50 145q8 94 -195 98z" />
    <glyph glyph-name="J" unicode="J" horiz-adv-x="1116" 
d="M1529 1167q-144 7 -399 -37q-93 -14 -164 -237q-3 -7 4 -12q8 -3 11 2q21 64 86 86q129 43 225 43q64 0 37 -68q-60 -150 -297 -473q-148 -202 -309 -342q-228 -200 -381 -184q-111 12 -111 168q0 48 8 92q37 207 160 385q132 191 272 227q10 3 -2 6q-129 15 -186 -10
q-168 -76 -279 -276q-102 -187 -102 -371q0 -109 41 -184q62 -109 190 -109q52 0 99 16q156 52 336 187q80 58 217 188q123 115 356 422q270 358 254 455q-3 23 -66 26z" />
    <glyph glyph-name="K" unicode="K" horiz-adv-x="827" 
d="M1561 1272q-160 -31 -1004 -703q240 341 449 566q4 4 4 8q0 20 -51 20q-24 0 -39 -6q-182 -68 -182 -137q0 -16 14 -31q-252 -307 -406 -508l-46 -60q-26 -35 -47 -61q-52 -70 -91 -127q-122 -173 -119 -223q0 -18 33 -18q89 0 264 98q22 11 4 14q-24 10 -24 39
q0 64 114 226q58 -79 170 -219q64 -80 127 -154q71 -85 136 -158q111 -125 196 -203q97 -89 148 -106q27 -8 61 -8q132 0 262 168q8 8 8 18q-4 4 -6 4q-58 -45 -143 -45q-59 0 -82 15q-162 98 -352 278q-107 99 -232 231l-106 114l-96 106q-22 24 2 45q581 486 897 616
q19 6 32 -2t17 -25q3 -3 8 3q45 32 86 96q41 63 41 100q0 38 -47 29z" />
    <glyph glyph-name="L" unicode="L" horiz-adv-x="1019" 
d="M1486 1079q-125 -324 -440 -534q-172 -113 -279 -152q33 40 76 97l171 229q51 68 89 117q101 131 170 206q86 93 141 119q63 32 78 10q17 -28 -6 -92zM1598 1255q-102 0 -213 -49q-95 -43 -196 -123q-100 -77 -189 -171q-71 -75 -150 -178l-139 -186q-41 -54 -73 -96
q-41 -52 -80 -98q-161 -14 -278 82q-44 38 -70 82q-4 8 -14 2q-10 -7 -18 -18q-10 -12 -15 -26q-13 -36 10 -66q49 -63 172 -89q44 -9 97 -13q37 -3 77 -3l-103 -122q-72 -83 -118 -122l-92 -16l-100 -23q-117 -31 -166 -77q-42 -40 -18 -63q21 -19 81 -17q119 3 216 44
q38 17 84 45l85 52q56 9 185 -15q121 -23 260 -65q143 -44 242 -90q110 -51 130 -88q2 -2 1 -12l-1 -12q-4 -10 -2 -12l6 -1q72 -6 154 84q86 94 -14 144q-79 39 -209 70q-114 26 -255 43q-262 31 -435 20q61 47 137 123l121 127q89 18 183 61q79 37 181 100
q179 111 350 291q90 96 150 187q67 101 90 186q29 108 -64 108z" />
    <glyph glyph-name="M" unicode="M" horiz-adv-x="2017" 
d="M2179 1083q-65 0 -129 -55q-147 -119 -346 -338l-302 -338q70 139 201 342q212 326 223 346q17 30 17 50q0 40 -47 40q-66 0 -121 -61q-63 -70 -130 -146l-296 -343q-52 -59 -127 -129q-55 -52 -148 -132q-193 -166 -297 -198q212 131 496 524q280 391 268 531
q-6 77 -135 77q-90 0 -225 -36q-106 -29 -186 -66q-270 -128 -471 -297q-209 -172 -297 -346q-25 -46 -25 -82q0 -78 88 -78q49 0 105 32q47 26 79 62q-59 -9 -59 78q0 19 11 53q7 21 24 60q22 54 88 127q59 66 143 135q75 62 178 121q94 54 181 88q107 43 180 43
q115 0 115 -103q0 -45 -17 -92q-41 -132 -131 -278q-83 -136 -201 -273q-242 -284 -499 -385l-28 -9l-21 -5q-19 -3 -19 -16q0 -15 19 -21q79 -24 149 -24q84 0 201 69q144 82 359 280q94 87 210 204q98 97 227 233l-84 -129q-53 -83 -97 -157q-54 -91 -99 -172
q-51 -94 -88 -177q-8 -16 -8 -33q0 -49 63 -49q36 0 51 19q67 77 150 175l147 175q236 279 375 393q-143 -248 -215 -411q-78 -177 -78 -263q0 -90 78 -84q77 7 211 107q116 88 190 174q19 24 19 37q0 12 -8 20q-12 -21 -101 -94q-104 -88 -149 -88q-38 0 -29 68
q17 148 178 448q103 191 176 291q41 53 41 84q0 22 -28 22z" />
    <glyph glyph-name="N" unicode="N" horiz-adv-x="1607" 
d="M1884 1016q80 108 10 106q-63 -1 -127 -55q-50 -41 -114 -104l-125 -128q-28 -30 -66 -70l-203 -218q-76 -79 -138 -139q-73 -71 -135 -123q-144 -121 -249 -156q102 64 241 213q128 138 251 308q122 171 194 311q77 151 72 219q-6 55 -74 71q-59 14 -159 -2
q-82 -14 -179 -44q-82 -26 -137 -52q-207 -100 -379 -223q-276 -196 -387 -412q-78 -158 48 -168q123 -9 195 92q-42 -5 -56 42q-15 53 24 134q62 122 215 252q195 166 383 240q62 24 116 34q64 12 106 2q106 -27 54 -188q-89 -277 -302 -534q-110 -133 -234 -231
q-134 -106 -273 -162q-7 -4 -23 -7q-2 -1 -6 -1l-18 -5q-23 -4 -20 -19q2 -14 18 -19q112 -35 200 -13q35 8 78 29l78 41q111 73 233 180q52 46 109 100l255 253q26 27 48 48q109 109 183 170l-173 -260l-84 -140q-92 -165 -112 -258q-26 -117 62 -118q80 0 223 102
q133 94 209 193q21 34 8 49q-52 -63 -141 -125l-44 -29q-29 -18 -48 -24q-54 -16 -46 51q11 89 76 224q53 111 140 247q35 55 75 113z" />
    <glyph glyph-name="O" unicode="O" horiz-adv-x="1792" 
d="M1587 313q-127 -123 -296 -180q-186 -61 -378 -58q-207 3 -347 83q-144 82 -210 221q-73 155 -1 301q69 139 236 235q145 83 331 117q133 24 281 23q170 -1 313 -35q123 -31 187 -101q68 -77 43 -176q-36 -143 -203 -219l-9 -3l-40 -16q-43 -15 -87 -24q-59 -12 -123 -12
q-77 0 -159 16q-29 -119 125 -133q141 -11 310 87q152 88 227 198q-60 -189 -200 -324zM1889 760q84 168 -54 284q-117 99 -335 123q-225 25 -473 -12q-212 -31 -412 -139q-222 -119 -344 -291q-169 -238 -50 -455q109 -201 382 -270q221 -57 504 0q208 41 386 143
q208 119 322 295q43 65 70 135q34 86 29 144q-3 27 -25 43z" />
    <glyph glyph-name="P" unicode="P" horiz-adv-x="1591" 
d="M1907 911q-4 136 -168 195q-182 67 -446 53q-250 -14 -506 -96q-206 -65 -370 -161q-173 -102 -267 -220q-50 -62 51 -105q98 -43 147 -8q-23 11 -20 41q1 12 6 26q4 11 10 21q59 106 186 195q114 81 273 141q329 126 616 115q188 -10 267 -105q86 -104 -13 -262
q-98 -157 -325 -246q-214 -83 -459 -75q155 223 418 491q17 19 -24 28q-42 8 -64 -11q-116 -101 -240 -229q-55 -58 -117 -127q-54 -60 -120 -136q-35 -38 -80 -95q-53 -66 -97 -126q-52 -72 -82 -123q-34 -60 -34 -86q2 -39 97 -21q84 17 163 58q9 3 4 8q-22 29 5 97
q32 79 128 202q130 3 273 32q132 27 262 74q255 92 395 212q135 115 131 243z" />
    <glyph glyph-name="Q" unicode="Q" horiz-adv-x="1718" 
d="M1607 545q23 -19 72 -18q44 0 47 8q-81 -188 -252 -302q-183 -125 -457 -153q-288 -29 -475 78q-144 82 -210 221q-73 155 -1 301q69 139 236 235q144 83 329 117q128 23 282 19q170 -5 316 -41q212 -54 240 -217q21 -139 -127 -248zM1644 -127q-280 86 -526 133
q199 46 368 147q195 117 305 285q43 65 70 135q34 86 29 144q-3 26 -27 43q84 168 -54 284q-116 99 -333 123q-224 25 -475 -12q-211 -31 -411 -139q-223 -120 -345 -291q-143 -203 -75 -396q62 -175 268 -276q-55 -9 -91 -25q-29 -12 -44 -29q-12 -12 -15 -26q-1 -8 0 -14
q12 -28 86 -34q28 -2 60 -1l47 4q52 6 122 22l136 27q74 -4 235 -39q178 -40 346 -94q200 -65 327 -132q151 -80 179 -154q1 -3 -1 -13l-5 -12q-5 -9 -5 -11l5 -1q65 -21 182 62q119 86 31 138q-104 64 -389 152z" />
    <glyph glyph-name="R" unicode="R" horiz-adv-x="1532" 
d="M2323 -248q-7 11 -9 4q-24 -65 -107 -93q-81 -27 -165 1q-87 27 -230 103q-132 69 -290 170q-193 121 -367 249q-177 130 -264 215q150 11 287 38q124 24 236 63q100 33 187 77q77 39 140 83q141 97 164 227q26 145 -136 219q-127 59 -354 66q-201 7 -379 -27
q-255 -47 -499 -167q-251 -123 -379 -269q-56 -62 27 -108q80 -45 165 -17q-25 17 -18 53q13 62 91 138q30 29 68 59q30 24 64 47q112 75 252 130q132 52 273 81q287 58 477 8q103 -26 138 -109q38 -90 -32 -196q-83 -124 -307 -229q-235 -108 -451 -111q165 235 398 473
q19 19 -23 27t-66 -13q-122 -106 -247 -237q-106 -110 -230 -254l-78 -95q-53 -67 -97 -126q-52 -72 -82 -122q-35 -60 -36 -85q5 -41 99 -23q82 16 164 57q8 4 2 11q-22 28 4 91q30 74 127 199q150 -166 314 -318q149 -138 298 -253q328 -250 506 -289q90 -17 209 56
q122 76 160 182q3 4 -4 14z" />
    <glyph glyph-name="S" unicode="S" horiz-adv-x="1490" 
d="M1333 183q-19 -14 -67 -36q-75 -36 -193 -57q-132 -24 -245 -12q-116 10 -199 53q-106 57 -94 148l10 81h3q33 -7 108 -18l323 -42q94 -12 146 -19q234 -34 227 -74q-3 -12 -19 -24zM1984 938q5 53 -52 96q-61 47 -203 88q-138 40 -293 58q-252 25 -503 -19
q-185 -29 -375 -112q-214 -93 -293 -199q-143 -189 -28 -337q97 -127 292 -148q5 -18 -14 -55l-15 -26q-1 -1 -5 -9l-21 -38q-25 -49 -30 -85q-7 -48 18 -86q32 -52 113 -80q70 -25 172 -30q181 -10 331 30q103 28 218 100q134 84 196 178q74 112 -101 144q-112 21 -254 37
l-241 26q-67 6 -114 12q-61 7 -110 15q-117 18 -206 45q-140 41 -164 136q-25 99 102 195q80 62 217 107q53 18 112 33q47 11 95 20q277 55 525 31q280 -27 442 -152q80 -60 46 -105q-24 -31 -116 -65q-211 -73 -463 -30q-34 6 -78 19q-58 18 -102 39q-125 61 -100 132
q4 15 21 26l26 11q-9 19 -47 -2q-86 -53 -23 -156q36 -61 102 -104q52 -35 132 -64q270 -102 544 45q125 71 197 175q46 65 50 104z" />
    <glyph glyph-name="T" unicode="T" horiz-adv-x="1095" 
d="M1550 1223q-96 24 -381 -16q-129 -18 -235 -43q-116 -27 -173 -56q-28 -15 -57 -55q-26 -34 -33 -58q-19 -35 25 -26q63 9 138 5q92 -6 136 -34q3 -2 4 7l-1 19q-2 13 -7 23q-6 12 -16 17q91 46 229 60q130 14 160 -9q26 -23 8 -62q-41 -100 -128 -235
q-82 -126 -188 -258q-230 -285 -397 -398q-76 -48 -131 -71q-68 -28 -123 -25q-119 6 -86 234q28 197 135 356q114 170 263 201q5 2 -2 6l-48 2q-26 1 -46 0q-50 -3 -87 -21q-107 -54 -191 -153q-78 -92 -123 -208q-95 -242 -7 -400l29 -38q24 -24 54 -37q81 -38 193 3
q86 31 175 86q76 45 154 107q61 47 126 106l88 84q86 82 272 318q97 122 170 226q86 122 127 203q58 115 -26 140z" />
    <glyph glyph-name="U" unicode="U" horiz-adv-x="1380" 
d="M1696 1012q-33 22 -80 17q-57 -7 -100 -54q-44 -49 -96 -120q-40 -55 -93 -134q-17 -25 -44 -66l-42 -64q-47 -71 -75 -110q-129 -170 -336 -311q-17 -11 -50 -25q-39 -16 -69 -22q-86 -16 -49 59q20 40 112 168q34 48 92 126l211 287l101 141q105 151 146 229
q51 101 -3 128q-39 20 -141 1q-79 -16 -207 -74q-142 -64 -282 -152q-162 -102 -284 -216q-141 -132 -214 -267q-93 -174 29 -182q120 -8 186 92q-107 0 -33 172q65 151 253 302q177 142 345 196q68 20 105 6q50 -18 16 -99q-38 -86 -117 -208q-69 -107 -168 -240
q-83 -112 -185 -238q-82 -102 -171 -207q-108 -126 -15 -173q93 -48 273 49q45 23 107 71q53 40 116 96q109 96 185 179q-86 -119 -110 -231q-26 -125 65 -118q71 5 199 93q124 85 219 190q24 33 10 53q-2 2 -6 -2l-60 -55q-36 -32 -64 -53q-73 -58 -120 -68q-32 -5 -40 27
q-7 27 3 61q59 194 189 375q120 166 307 332l5 1q4 1 5 3q5 12 -25 35z" />
    <glyph glyph-name="V" unicode="V" horiz-adv-x="1206" 
d="M1578 1184q-40 12 -101 -44q-57 -51 -111 -141q-56 -92 -85 -185q-32 -101 -22 -171q-120 -171 -281 -329q-176 -171 -293 -218q-41 -12 -36 19q16 98 90 250q63 131 166 294q86 137 188 280q88 121 160 210q65 80 -25 84q-27 1 -60 -8l-57 -21q-80 -29 -170 -71
q-76 -37 -157 -82q-87 -50 -165 -101q-87 -59 -159 -119q-169 -138 -254 -280q-104 -175 9 -194q110 -18 182 81q-108 6 -23 180q45 94 163 201q104 94 232 172q102 65 179 84q32 8 40 -13q8 -22 -16 -58q-11 -18 -24 -37l-33 -49q-43 -66 -85 -132l-101 -161
q-57 -93 -105 -175q-55 -94 -97 -172q-46 -87 -76 -152q-67 -151 -40 -183q36 -44 212 45q161 82 331 215q198 155 387 413q198 270 262 488q19 69 -25 80z" />
    <glyph glyph-name="W" unicode="W" horiz-adv-x="1718" 
d="M2059 1143q-114 0 -194 -213q-62 -164 -62 -303l-10 -18q-6 -11 -11 -21q-14 -25 -29 -49q-39 -63 -89 -127q-59 -77 -125 -143q-52 -54 -86 -81q-14 -14 -24 -14q-16 4 -9 29q21 82 67 204l95 240l148 346q4 6 4 19q0 22 -17 39q-19 16 -36 16q-11 0 -17 -6l-134 -168
l-166 -213q-26 -34 -68 -88q-111 -144 -228 -280q-107 -125 -190 -208q-4 5 -4 11q0 61 202 393l69 108l204 302q102 150 102 233q0 100 -143 100q-98 0 -214 -37q-49 -16 -104 -39q-45 -18 -100 -45q-190 -93 -330 -206q-235 -193 -389 -469q-23 -43 -40 -101
q-21 -69 -23 -126q-6 -152 121 -152q71 0 151 49q82 50 102 106q10 22 0 31q-51 -88 -127 -88q-48 0 -77 44q-25 38 -25 89q0 80 38 173q33 82 94 171q110 158 255 273q50 38 117 81q78 50 153 88q88 45 159 67q82 25 134 18q68 -10 68 -72q0 -63 -74 -164
q-427 -590 -637 -1005q-12 -25 -12 -46q0 -47 57 -47q39 0 86 29q287 176 725 770q8 7 11 4q5 -2 0 -10q-20 -35 -53 -112l-76 -183q-95 -242 -95 -287q0 -49 52 -49q38 0 86 29q114 70 241 201q145 154 279 352q227 332 233 499q3 56 -35 56z" />
    <glyph glyph-name="X" unicode="X" horiz-adv-x="1196" 
d="M1705 1239q-23 7 -47 -4q-46 -21 -119 -75q-65 -47 -151 -119l-162 -140q-74 -66 -152 -139q56 176 104 295q31 81 0 114q-18 21 -74 13q-46 -7 -100 -29q-194 -78 -401 -215q-217 -143 -291 -250q-111 -162 -2 -184q107 -22 186 67q-103 14 -6 175q147 240 424 307
q107 23 80 -78l-102 -385q-72 -68 -199 -168q-112 -88 -255 -192q-274 -200 -454 -312q-66 -42 -120 -62q-70 -27 -127 -20q-15 2 -15 -10q1 -10 12 -18q153 -104 252 -54q115 59 401 285q136 106 254 209q130 112 212 196q-14 -53 -23 -89q-12 -49 -21 -89
q-22 -97 -30 -166v-23q0 -14 3 -25q8 -31 30 -42q30 -15 99 19q60 29 139 89q166 126 214 206q9 18 -2 32q-3 3 -6 0q-15 -20 -57 -58q-48 -45 -92 -75q-125 -83 -125 15q0 188 55 393q373 373 721 551q5 2 0 8q-22 38 -53 47z" />
    <glyph glyph-name="Y" unicode="Y" horiz-adv-x="1314" 
d="M1652 1032q-23 17 -41 17q-12 0 -18 -7q-592 -681 -807 -815q-4 9 -4 15q0 71 188 336q26 35 58 78l176 237q117 160 117 235q0 91 -136 91q-88 0 -194 -30q-96 -27 -205 -77q-156 -74 -308 -185q-143 -105 -241 -210q-135 -145 -135 -275q0 -92 100 -104q78 -8 164 29
q69 31 103 73q11 15 8 29q-62 -61 -125 -61q-38 0 -64 28q-34 43 -19 110q14 58 62 130q39 60 96 122q48 51 89 85q50 41 115 86q77 52 151 91q87 46 158 68q83 25 139 17q59 -10 59 -62q0 -62 -84 -168q-432 -534 -587 -833q-11 -24 -11 -39q0 -49 74 -49q50 0 100 26
q354 233 680 631q7 10 11 6q2 -2 -2 -10q-609 -955 -658 -1100l-3 -14l-1 -12q0 -45 49 -45q59 0 148 55q90 53 127 104q8 15 0 15q-23 0 -23 33q3 180 320 688l391 604q4 12 4 20q0 23 -21 37z" />
    <glyph glyph-name="Z" unicode="Z" horiz-adv-x="761" 
d="M1352 1071q-90 6 -358 -4q-272 -9 -420 -29q-34 -6 -80 -73q-50 -70 -70 -129q-3 -10 0 -19q3 -8 11 -4q85 107 475 107q172 0 172 -19q0 -2 -23 -24q-584 -566 -1081 -850q-39 -21 -39 -52q0 -44 104 -28q95 14 230 14q291 0 524 -61q275 -71 340 -201q2 -2 -4 -25
q-3 -12 2 -12q49 -10 139 53q92 65 92 117q0 33 -38 51q-142 67 -500 119q-322 47 -471 41q-19 0 -27 4q-7 4 2 12l1032 981q10 10 7 21q-4 10 -19 10z" />
    <glyph glyph-name="bracketleft" unicode="[" horiz-adv-x="16" 
d="M185 437q-3 8 -9 14q-15 14 -20 6q-150 -198 -240 -248q-100 -57 -147 -25q-14 -25 -5 -46t31 -19q41 0 94 26q76 34 170 130q36 37 72 80q28 33 53 67q4 5 1 15z" />
    <glyph glyph-name="backslash" unicode="\" horiz-adv-x="477" 
d="M559 584q-79 -11 -99 -39q-27 -34 -80 -117l-55 -69q-35 -44 -63 -75q-36 -41 -63 -65q-33 -29 -54 -37q-50 -20 -37 29q15 61 63 143q36 62 88 131q48 63 72 84q24 26 -53 15t-96 -39q-35 -45 -113 -170l-63 -101q-41 -69 -48 -106q-9 -50 35 -62q29 -8 80 0
q110 17 211 156v-6l-96 -160l-63 -112q-33 -62 -54 -107l-2 -3q-1 -3 -2 -5l-3 -11q-2 -16 11 -32q12 -16 36 -34q7 -6 20 -15l20 -15q10 -5 14 7q9 48 31 108q43 127 127 279q80 145 174 272q64 87 119 141q22 26 -57 15z" />
    <glyph glyph-name="bracketright" unicode="]" horiz-adv-x="280" 
d="M342 573q25 23 -53 12q-78 -10 -98 -38l-44 -64q-39 -57 -69 -106l-62 -102q-40 -70 -47 -107q-9 -50 34 -61q30 -8 79 4q41 7 116 57q70 46 124 98l8 10q2 9 1 19q-1 11 -5 14q-7 4 -12 -2q-34 -35 -87 -78q-25 -20 -43 -33q-20 -14 -28 -16q-49 -17 -37 29l18 57l44 83
q50 89 79 126l48 61z" />
    <glyph glyph-name="asciicircum" unicode="^" horiz-adv-x="833" 
d="M562 915q-112 -95 -193 -227q-100 -161 -100 -299q0 -154 133 -256q-77 -43 -162 -43q-142 0 -166 119q-6 28 -6 55q0 176 192 400q163 187 302 254v-3zM840 735q-37 -143 -164 -329q-119 -172 -198 -224q-107 76 -107 215q0 147 92 285q55 83 166 172q106 88 172 88
q57 0 57 -90q0 -49 -18 -117zM914 1051q63 66 63 110q0 47 -80 47q-52 0 -123 -24q-347 -119 -653 -490q-101 -123 -160 -252q-61 -138 -61 -243q0 -93 51 -144q63 -59 166 -59q154 0 350 110q40 -12 80 -12q97 0 203 66q78 51 137 123q12 15 -4 34q-2 2 -4 0
q-107 -112 -174 -143q-68 -31 -131 -31q-26 0 -47 7q158 106 288 299q128 186 172 362q17 69 17 123q0 132 -90 117z" />
    <glyph glyph-name="underscore" unicode="_" horiz-adv-x="7" 
d="M-1173 -92q324 14 648.5 30.5t650.5 -5.5q196 -10 259 -73q38 -38 35 -111q-3 -8 -13 -9q-80 13 -214 20q-379 14 -758 7.5t-756 -14.5q-931 -34 -1738 -73q-140 -8 -280 -14t-278 -17q-134 -9 -138 -8q-21 6 -13 26q19 31 174 66q166 24 333.5 38.5t337.5 30.5
q436 30 874 56.5t876 49.5z" />
    <glyph glyph-name="grave" unicode="`" horiz-adv-x="329" 
d="M21 313q40 66 80.5 132t91.5 125q26 19 19 16q26 14 112 22q15 0 20 -8q1 -4 -3 -14q-13 -21 -31 -37.5t-32 -32.5q-43 -50 -76.5 -104t-68.5 -106q25 21 45 46t43 48q165 186 299 295q85 66 170 98q56 19 104 12q28 -14 24 -37q-10 -66 -88 -113q-71 40 -171 -22
q-157 -91 -274 -226.5t-218 -276.5q-20 -24 -27 -26q-41 -12 -113 -3q-7 0 -17 10q-3 2 0 16q22 47 53 94.5t58 91.5z" />
    <glyph glyph-name="a" unicode="a" horiz-adv-x="602" 
d="M373 317l-41 -53q-52 -63 -132 -82q-93 -23 -91 80q1 99 87 187q80 82 167 94q67 7 80 -43q16 -59 -74 -162l9 -1q6 0 9 1q-7 -11 -14 -21zM654 297q-2 9 -5 10q-3 6 -10 2l-34 -32q-30 -29 -54 -48q-74 -58 -98 -36q-31 30 67 149q11 12 -14 16q-20 2 -49 -2
q75 47 98 121q23 75 -31 103q-119 63 -321 -60q-100 -60 -163 -141q-70 -88 -69 -168q2 -88 76 -106q64 -14 156 24q66 28 113 72q-46 -89 14 -105q42 -11 100 13q45 19 109 65l52 45q39 34 56 51q8 9 8 15t-1 12z" />
    <glyph glyph-name="b" unicode="b" horiz-adv-x="569" 
d="M385 251q-100 -99 -215 -99q-30 0 -18 41q17 54 56 119l104 165q83 62 134 52q46 -9 44 -66q-6 -114 -105 -212zM648 1016q-87 -9 -109 -37q-68 -85 -150 -200l-143 -206q-172 -267 -225 -368q-64 -131 139 -103q142 19 287 126q157 116 174 245q12 86 -57 112
q-74 29 -205 -34q124 178 237 326q60 72 113 122q26 26 -61 17z" />
    <glyph glyph-name="c" unicode="c" horiz-adv-x="456" 
d="M576 365q8 9 -2 23q-9 14 -15 7q-36 -44 -95 -99q-77 -71 -134 -99q-127 -66 -188 20q-33 45 -6 123q26 78 94 141q66 59 151 82q34 9 49 -4q16 -14 0 -39l-69 -85q-48 -62 -23 -79q27 -16 87 15q54 28 61 45q2 3 -6 6t-7 6l23 43q9 16 14 26l8 19q22 56 -18 76
q-70 35 -197 -12q-145 -54 -241 -176q-92 -118 -70 -209q21 -96 129 -102q88 -5 182 44q77 42 136 92q35 30 74 69z" />
    <glyph glyph-name="d" unicode="d" horiz-adv-x="616" 
d="M373 317l-41 -53q-52 -63 -132 -82q-93 -23 -91 80q1 99 90 187q81 82 168 94q116 15 91 -76q-9 -31 -35 -74zM985 1016q-19 3 -54 -1q-89 -10 -110 -38l-80 -103q-46 -59 -79 -106l-70 -96q-37 -52 -66 -97q-1 2 -4 3t-4 2q-117 62 -303 -41q-104 -60 -172 -147
q-73 -94 -72 -181q2 -87 73 -106q60 -17 149 18q70 27 123 74l-7 -17q-4 -9 -4 -12q-8 -50 35 -61q29 -7 78 4q99 17 221 135l27 30q3 8 2 19q-2 11 -6 14q-4 4 -11 -2q-33 -35 -86 -78q-25 -20 -44 -33q-21 -14 -29 -16q-49 -17 -37 29q9 45 52 125q38 71 103 168
q55 82 128 182q60 81 128 170q62 84 129 147q11 11 -10 15z" />
    <glyph glyph-name="e" unicode="e" horiz-adv-x="428" 
d="M279 378q-72 -48 -144 -65q24 150 182 217q69 30 85 7q15 -23 -29 -78q-32 -41 -94 -81zM552 381q-6 14 -11 8q-33 -40 -74 -80q-55 -53 -106 -86q-140 -93 -211 -16q-4 4 -7 10l-8 15q-9 23 -8 42q50 5 138 49q83 42 155 97q145 111 92 161q-51 48 -203 -8
q-147 -54 -244 -171q-95 -114 -73 -203q24 -107 141 -106q88 1 187 54q55 31 123 96q58 55 106 113q10 11 3 25z" />
    <glyph glyph-name="f" unicode="f" horiz-adv-x="276" 
d="M1002 1192q-9 6 -23 8q-145 11 -305 -67q-78 -39 -175 -148q-36 -41 -75 -91l-59 -81l-160 -244h-78q-13 0 -29 -21q-16 -22 0 -22h78l-178 -284l-238 -396q-22 -38 43 -77q53 -29 70 6q114 224 258 467q40 66 87 144l87 140h140q13 0 28 22q16 21 0 21h-141l172 282
q57 89 103 145q57 69 104 96q84 66 209 45q31 -5 43 -29q35 24 47 63q4 13 -8 21z" />
    <glyph glyph-name="g" unicode="g" horiz-adv-x="544" 
d="M369 264q-53 -65 -131 -81q-90 -18 -86 85q3 100 86 185q77 80 164 92q68 9 84 -42q18 -61 -76 -165q9 -3 19 0q-22 -33 -60 -74zM418 594q-91 -20 -185 -79q-96 -60 -155 -135q-65 -83 -65 -161q-2 -138 147 -115q134 21 228 123q-10 -14 -29 -48l-95 -165l-67 -108
q-56 -83 -113 -139q-67 -65 -139 -97q-215 -96 -282 46q-65 139 84 286q35 36 73 53q9 4 13 8q-9 0 -13 -4q-257 -68 -296 -263q-38 -195 221 -206q158 -7 338 112q164 108 253 253q37 58 74 123l112 198q24 44 38 66q9 14 -15 16q-10 1 -25 1q-12 -1 -26 -3h2
q78 47 104 122q27 77 -26 106q-59 31 -156 10z" />
    <glyph glyph-name="h" unicode="h" horiz-adv-x="559" 
d="M635 1016q-32 5 -89 -7q-62 -13 -77 -32q-91 -116 -225 -318q-113 -169 -192 -307q-87 -152 -99 -209q-4 -26 48 -36q21 -4 40 -2q19 3 25 12q90 132 183 232q110 118 169 128q11 4 6 -6q-45 -61 -78 -111q-49 -71 -79 -122q-22 -39 -25 -77q-4 -38 15 -48q59 -38 182 30
q42 24 93 68l67 61q8 9 8 31q-1 22 -8 14q-44 -44 -104 -90q-55 -43 -71 -47q-55 -14 -36 51q9 34 42 83q23 35 66 88q7 9 17 21l48 59l24 33q10 16 14 26q20 50 -60 55q-75 3 -191 -89q-42 -33 -95 -83l-83 -80v4q94 159 211 330q108 152 254 317q22 18 0 21z" />
    <glyph glyph-name="i" unicode="i" horiz-adv-x="278" 
d="M342 573q25 23 -53 12q-78 -10 -98 -38l-44 -64q-39 -57 -69 -106l-62 -102q-40 -70 -47 -107q-9 -50 34 -61q30 -8 79 4q41 7 116 57q70 46 124 98l8 10q2 9 1 19q-1 11 -5 14q-7 4 -12 -2q-34 -35 -87 -78q-25 -20 -43 -33q-20 -14 -28 -16q-49 -17 -37 29
q14 61 54 134q33 59 79 122q23 32 53 66zM448 727q-13 47 -67 53q-66 11 -108 -28q-43 -39 -27 -82q16 -41 68 -49q60 -9 106 26q42 33 28 80z" />
    <glyph glyph-name="j" unicode="j" horiz-adv-x="217" 
d="M156 520q-29 -41 -68 -107l-144 -243q-40 -64 -75 -109q-76 -93 -146 -139q-88 -57 -190 -57q10 4 20 10l15 10q10 9 7 19q-3 9 -15 6q-120 -21 -189 -8q-17 3 -18 -21q0 -22 12 -31q22 -16 92 -24q65 -7 115 -2q105 8 215 70q96 53 176 133q37 37 79 97q35 50 78 122
l144 254q27 47 51 53q20 6 24 20q3 15 -9 15q-112 7 -174 -68zM436 727q-14 47 -67 53q-67 11 -109 -28q-43 -39 -26 -82q15 -41 67 -49q61 -9 106 26q42 33 29 80z" />
    <glyph glyph-name="k" unicode="k" horiz-adv-x="561" 
d="M658 309q-4 -1 -6 -4q-48 -52 -102 -90q-64 -46 -92 -39q-57 18 -75 99q-7 30 -8 69q-1 28 1 62q30 27 73 54q34 21 64 34q54 25 123 28q31 0 39 25q8 26 -29 45q-35 17 -88 5q-45 -10 -78 -32q-48 -30 -94 -68q-37 -30 -81 -71q-15 -15 -38 -37l-39 -38q-47 -47 -84 -79
q94 184 277 433q122 168 227 282l7 6q6 5 8 8q8 11 -5 15q-50 14 -131 -17q-32 -13 -53 -41q-45 -59 -93 -125q-55 -77 -106 -153q-91 -134 -166 -258q-85 -141 -137 -254q-19 -44 36 -62q21 -6 42 -4q22 1 29 11q41 53 84 103q56 63 110 112q0 -85 10 -135q15 -74 52 -84
q69 -19 169 35q89 49 157 128q12 10 4 35q-2 3 -7 2z" />
    <glyph glyph-name="l" unicode="l" horiz-adv-x="270" 
d="M592 1015q-88 -11 -109 -38q-97 -127 -167 -223q-87 -122 -157 -230q-98 -151 -172 -286l-13 -27q-9 -18 -13 -33q-12 -40 8 -57q22 -21 72 -17q41 3 77 19q110 51 201 149q4 3 7 9q1 2 3 10q4 12 -6 18q-7 4 -10 -2q-34 -34 -93 -78q-26 -20 -46 -33q-21 -14 -29 -16
q-44 -14 -37 29q12 57 111 213q90 143 211 303q144 193 227 276q24 24 -65 14z" />
    <glyph glyph-name="m" unicode="m" horiz-adv-x="813" 
d="M799 594q-29 3 -70 -14q-59 -25 -156 -112q-34 -30 -78 -73l-65 -63l2 6q15 25 55 73q4 4 8 10q3 3 8 9l16 19q17 20 26 32q25 33 35 51q14 31 -12 48q-20 14 -49 14q-29 3 -70 -14q-61 -26 -159 -112q-35 -31 -79 -73l-65 -63v4l23 40l46 73q48 64 101 120q5 8 4 12
q-4 7 -29 7q-36 -2 -70 -12q-42 -12 -59 -31q-9 -16 -25 -42l-19 -30q-2 -4 -4 -6l-77 -128q-40 -67 -64 -115q-30 -59 -40 -95q-6 -25 46 -25q21 0 39 5q19 6 25 14q78 111 183 220q121 125 176 136q4 2 5 -2t-1 -6q-60 -83 -109 -162q-82 -131 -94 -180q-4 -25 57 -25
q25 0 46 5q22 6 28 14q52 78 107 143q66 84 125 137q70 62 118 72q5 2 6 0q2 -2 -2 -4l-98 -139q-51 -75 -67 -111q-36 -81 2 -111t118 5q97 39 213 151l9 10q1 9 0 19q-2 11 -7 14q-6 6 -10 -2q-84 -84 -139 -119q-31 -17 -48 -6q-19 12 -7 49q9 32 40 80q23 34 64 86
l67 85q16 21 25 35q11 16 15 26q19 51 -66 51z" />
    <glyph glyph-name="n" unicode="n" horiz-adv-x="538" 
d="M596 295q-1 11 -5 14q-7 6 -11 -2q-32 -32 -77 -70q-49 -41 -70 -53q-28 -13 -44 1q-17 15 -7 44q9 33 40 80q20 30 62 84l94 119q11 17 15 27q22 55 -60 55q-74 4 -197 -92q-45 -35 -101 -87l-85 -81v4q25 48 66 106q40 61 100 127q18 18 -20 15q-97 -5 -127 -43
q-72 -96 -139 -217q-61 -111 -91 -193q-10 -26 46 -28q23 0 42 5q21 5 27 15q86 125 186 227q112 114 172 125q5 2 6 -1q2 -3 0 -5l-44 -62q-28 -39 -48 -71q-39 -55 -65 -102q-51 -99 -8 -125q30 -21 94 -7q102 27 241 162q1 2 4 6q3 3 3 4q3 8 1 19z" />
    <glyph glyph-name="o" unicode="o" horiz-adv-x="499" 
d="M354 266q-64 -73 -131 -94q-85 -23 -117 31q-28 47 -3 119q24 66 81 124q73 77 143 86q-7 -7 -6 -25q1 -16 6 -32l6 -9q4 -5 6 -5q11 41 54 74q49 40 53 -23q9 -123 -92 -246zM397 586q-24 22 -94 -4q-57 -20 -117 -60q-207 -133 -213 -303q-3 -118 118 -121
q96 -3 187 49q64 38 101 68q61 49 116 121q61 83 76 169q14 85 -29 111q-61 39 -145 -30z" />
    <glyph glyph-name="p" unicode="p" horiz-adv-x="509" 
d="M344 270q-60 -61 -138 -91q-88 -34 -142 -1l62 114q31 53 67 105q6 -33 30 -45q-4 28 27 76q28 43 63 72q49 41 89 35q40 -7 40 -56q0 -107 -98 -209zM473 609q-99 -3 -192 -77q2 4 7 11l13 13q8 9 12 15l11 15q1 1 4 5q3 3 4 5q4 6 -2 10q-25 11 -77 -3t-69 -36l-16 -24
q-10 -15 -24 -38l-35 -59q-126 -202 -240 -430q-29 -57 -53 -112q-14 -26 13 -72q22 -37 50 -59q16 -16 19 2q32 146 135 348q109 -62 321 80q99 69 160 152q71 97 66 184q-6 74 -107 70z" />
    <glyph glyph-name="q" unicode="q" horiz-adv-x="528" 
d="M372 315l-44 -53q-54 -68 -136 -83q-94 -18 -85 97q7 92 89 175q79 81 163 92q69 8 85 -39q21 -57 -75 -166q12 -4 18 -2q-7 -11 -15 -21zM371 588q-91 -21 -184 -81q-95 -61 -153 -138q-64 -85 -63 -164q2 -108 115 -106q101 1 203 75v-2q-76 -121 -129 -217
q-3 -6 -8 -15l-32 -58q-26 -51 -30 -72q-8 -49 32 -61q26 -8 75 1q114 16 243 174q5 9 -3 22q-8 14 -13 9q-42 -51 -85 -91q-51 -47 -77 -52q-44 -9 -35 30q11 54 46 121q47 96 161 258l84 117q10 17 -15 20l-48 -4q74 48 99 121q24 74 -28 103q-58 31 -155 10z" />
    <glyph glyph-name="r" unicode="r" horiz-adv-x="423" 
d="M472 298q-1 9 -4 11q-7 4 -12 0q-22 -22 -61 -57l-33 -29q-15 -13 -23 -18q-45 -31 -66 -13q-21 19 7 66q28 49 76 104l38 43q21 25 35 46q26 38 -2 54q-26 16 -75 -3l-122 -46q-18 -7 -28 -10q75 71 144 196q74 134 24 144q-56 11 -167 -136q-49 -65 -70 -123
q-25 -66 -5 -103q-18 -28 -100 -117l-18 -18l-19 -19l-45 -41q-56 -46 -98 -61q-11 -5 3 -15q15 -10 25 -6q50 28 106 72q45 37 69 62l57 64q31 37 49 61q7 -5 28 0l39 11q46 12 35 -16q-5 -14 -39 -56l-79 -97q-64 -78 -31 -132q36 -59 172 11q99 56 184 145q6 7 6 13v13z
" />
    <glyph glyph-name="s" unicode="s" horiz-adv-x="395" 
d="M174 174q-57 -53 -116 -45q-45 7 -41 54q5 54 80 116q32 28 87 55q46 21 81 31q-17 -142 -91 -211zM273 438q-44 -16 -86 -40q-30 -17 -68 -44q100 106 189 181q-25 -48 -35 -97zM457 643q4 4 2 9q-3 3 -8 3l-72 -21l-39 -13q-18 -6 -24 -11l-56 -56l-11 -11l-13 -13
q-34 -32 -56 -54l-189 -198q-86 -88 -156 -118q-7 -2 6 -13t26 -6q34 18 70 45q31 24 39 33h2q-50 -114 78 -129q105 -13 202 64q110 87 125 254q71 14 64 -48q0 -2 2 -2h2q30 28 20 73q-11 50 -83 38q16 93 51 145z" />
    <glyph glyph-name="t" unicode="t" horiz-adv-x="282" 
d="M489 905q-83 -11 -104 -39q-37 -48 -149 -229l-43 -68h-70q-13 0 -29 -21q-16 -22 0 -22h72l-88 -145l-75 -133l-22 -44q-10 -25 -12 -36q-9 -48 34 -59q17 -5 40 -3q10 0 21 2q8 1 18 3q41 8 121 64q75 51 129 104q6 6 8 10q5 21 -4 30q-6 4 -12 0q-32 -34 -92 -84
l-47 -36q-21 -16 -29 -19q-48 -15 -37 29q12 62 72 172l88 145h96q14 0 30 22q16 21 1 21h-101q61 91 125 174l42 56q9 11 15 20q36 46 62 72q24 24 -60 14z" />
    <glyph glyph-name="u" unicode="u" horiz-adv-x="534" 
d="M567 584q-77 -10 -98 -37l-110 -170q-40 -62 -96 -118q-63 -64 -107 -77q-48 -12 -37 31q17 63 67 148q41 71 93 137q43 56 63 73q24 24 -53 13q-78 -10 -98 -37q-33 -47 -113 -170l-28 -46q-21 -33 -34 -55q-40 -69 -47 -108q-9 -49 35 -62q29 -8 78 0q94 19 189 113
q-4 -7 -6 -12l-17 -39q-9 -49 34 -62q30 -8 79 0q50 11 124 61q64 43 123 101q9 3 9 13q6 16 -2 28q-7 6 -13 0q-50 -48 -91 -82q-53 -44 -77 -51q-48 -12 -37 33q18 69 68 154q37 64 90 135q38 46 66 73q24 24 -54 13z" />
    <glyph glyph-name="v" unicode="v" horiz-adv-x="403" 
d="M557 668q-26 21 -78 -19q-87 -62 -121 -188q-10 -33 -4 -60q-85 -115 -178 -168q-55 -31 -51 11q5 61 35 130q24 58 65 120q17 24 38 51q18 21 30 33q6 3 7 8q0 6 -7 6q-25 6 -77 -4q-59 -10 -73 -31q-53 -72 -105 -199q-55 -131 -57 -198q-1 -49 39 -55q26 -4 74 12
q59 20 139 88q73 62 148 149q122 139 176 244q25 50 0 70z" />
    <glyph glyph-name="w" unicode="w" horiz-adv-x="653" 
d="M815 667q-27 22 -77 -18q-43 -33 -84 -101q-51 -84 -43 -147q-37 -53 -89 -102q-44 -41 -83 -63q-58 -34 -51 8q4 60 32 130q22 55 62 122q16 26 38 52l31 32q15 14 0 14q-27 4 -79 -6q-60 -12 -74 -33q-18 -26 -38 -61l-34 -64q-64 -128 -151 -190q-55 -37 -52 4
q6 60 37 132q24 57 66 124q16 25 35 49l26 29q7 4 7 9q1 5 -7 5q-26 4 -77 -6q-59 -10 -72 -31q-53 -72 -104 -198q-54 -132 -54 -197q0 -50 40 -56q26 -3 73 13q75 29 170 155q-14 -36 -20 -68l-4 -26l-1 -20q0 -50 43 -55q17 -1 39 3l37 11q42 15 104 67q110 86 201 197
q90 105 152 217q27 48 1 69z" />
    <glyph glyph-name="x" unicode="x" horiz-adv-x="444" 
d="M586 637q25 23 -7 30q-31 8 -50 -8l-64 -66q-34 -35 -63 -63q-52 -52 -111 -104l15 90l16 78q9 39 -20 37q-26 -4 -73 -26q-51 -24 -75 -48q-9 -8 -11 -20q-2 -13 13 -15q33 -3 31 -20l-25 -193q-104 -82 -186 -137l-158 -106q-43 -30 -86 -25q-12 0 -15 -11t9 -16
q99 -37 154 -2q60 41 145 113l133 119q-3 -70 4 -107q8 -38 55 -38q17 0 40 6l36 10q99 33 226 155q10 10 5 30t-16 9l-25 -24l-12 -12q-34 -31 -60 -52q-82 -65 -105 -39q-6 7 -9 16q-5 12 -8 27q-8 56 -2 131z" />
    <glyph glyph-name="y" unicode="y" horiz-adv-x="489" 
d="M598 583q-76 -11 -97 -38q-18 -23 -48 -70l-52 -82q-55 -85 -98 -131q-59 -63 -117 -80q-51 -16 -35 29q14 56 54 129q33 58 79 123q57 79 88 106q24 25 -53 14q-77 -10 -96 -38q-12 -13 -45 -64l-132 -207q-40 -68 -47 -106q-8 -50 36 -62q29 -9 77 0q96 18 189 111
l-3 -4q-22 -47 -67 -124q-52 -90 -115 -185q-110 -173 -252 -238q-215 -94 -282 48q-65 139 84 286q33 34 73 55q7 0 15 4q1 2 -1 2l-8 -2q-5 -1 -6 -2q-257 -68 -296 -263q-38 -195 221 -206q158 -7 339 112q165 109 252 253l143 241l28 50q44 77 77 131q78 120 150 194
q22 26 -55 14z" />
    <glyph glyph-name="z" unicode="z" horiz-adv-x="448" 
d="M489 288q-6 15 -14 9q-81 -72 -178 -93q-79 -17 -171 -1q-26 3 -16 26q4 11 40 40l215 162q6 5 15 11l78 58q26 21 18 59q-8 37 -36 39q-52 0 -119 -3l-55 -2q-24 -2 -33 -3q-60 -6 -137 -105q-12 -16 -7 -21t19 5q2 1 7 3l7 3q114 27 203 21q24 -3 10 -17
q-21 -22 -92 -60l-133 -71q-64 -34 -96 -55q-46 -29 -62 -51l-9 -18q-4 -11 -1 -21q3 -13 17 -25q16 -13 45 -26q28 -14 78 -29l75 -21q58 -17 103 4q44 23 113 69q75 52 114 89q9 9 2 24z" />
    <glyph glyph-name="braceleft" unicode="{" horiz-adv-x="3389" 
d="M1484 1495q63 123 186 71q11 -6 -32 -58q-120 -164 -217.5 -365.5t-174.5 -386.5q-10 -26 -19 -59q70 80 136.5 165t158.5 144q83 47 145 20q26 -17 2 -67q-45 -90 -102.5 -173.5t-89.5 -179.5q-13 -69 11 -73q24 -8 97 58q16 18 21 33q2 57 20 90q42 117 150 221.5
t168 144.5q89 56 92 24q73 65 142 70q62 3 79 -73q11 -70 -22 -176q-74 -190 -238 -323q-66 -60 -203 -118t-182 80q-119 -122 -209 -147q-60 -17 -84 22q-20 51 14 135q28 69 64 137t69 132q11 23 11 24q-6 5 -34 -13q-40 -30 -67 -65q-76 -87 -136 -184.5t-116 -197.5
q-23 -40 -108 -35q-31 0 -31 31q-2 -13 26 85q65 184 149.5 361.5t169.5 353.5q38 74 74 148t80 144zM2000 945q-56 6 -22 85q-140 -75 -209 -233q-52 -136 6 -200q44 -43 128 2q112 60 175 214q53 126 32 215q-10 35 -29 28q-38 -14 -81 -111zM1178 1237q43 19 85.5 41
t88.5 39q-44 -73 -61 -78q-251 -116 -509 -287q-295 -206 -434 -403q-114 -179 -98 -304q6 -56 55 -133q-12 -23 -56 -142q-146 87 -146 238q-5 130 111 301q140 190 353 353q236 184 611 375zM2725 515q29 22 56.5 47t58.5 43q13 -94 -40 -130q-143 -104 -300.5 -181
t-319.5 -140q-593 -224 -1114 -286q-149 -14 -300 -16.5t-296 31.5q-9 3 -8 38q9 50 14 74q48 -13 97.5 -27t99.5 -18q190 -29 381 -12.5t381 53.5q417 85 800 248q272 110 490 276zM1650 1440q469 176 948 236q338 40 597 -11q176 -43 247 -101q95 -82 77 -195.5
t-56 -198.5q-116 -240 -288 -382q-156 -111 -266 -101q-105 7 -118 99q-129 -130 -206 -157q-75 -22 -97 4q-28 27 -5 109q26 79 66 151.5t76 149.5q15 30 14 32l-24 -13q-48 -30 -136 -135q-121 -163 -192 -303q-53 -113 -140 -56q-16 8 5 79q63 186 198 452q23 44 125 81
q65 8 43 -26q-111 -170 -146 -273q62 73 122 150.5t136 139.5q84 68 154 69q67 7 55 -55q-8 -38 -61.5 -122t-88.5 -154q-51 -98 -60 -136q-18 -72 59.5 -13.5t95.5 80.5q4 119 84 219.5t176 172.5q148 112 267 108q42 -3 52 -36q23 -110 -160 -245t-257 -173q1 -71 78 -83
q88 -14 227 111q151 153 170 311q20 145 -90 239q-106 92 -321 129q-139 22 -298 17q-279 -9 -552 -73t-535 -156l-16.5 -5.5t-15.5 -4.5q32 61 57 69zM3007 623q68 31 89 -11q28 -50 -11 -109q-50 -83 -115 -89q-67 -16 -63 52q-1 108 100 157zM3131 657q36 108 129 128
q78 14 66 -64q-10 -63 -58 -119t-111 -38q-51 12 -26 93zM2946 951q120 45 250 198q32 65 30 83q-6 32 -48 20q-192 -65 -232 -301zM724 761q124 152 241 200q84 36 122 -10q31 -41 11 -168q-51 -210 -256 -385q-66 -57 -150 -104t-160 -10q-37 -103 -71 -214t-51 -218
q-2 -13 -6 -15q-11 -1 -31 15q-26 19 -60 58q-28 25 -15 63q54 180 136.5 344.5t150.5 341.5q11 33 13 77q55 31 126 25zM857 813q-114 -99 -124 -245q-35 3 -42 49q-53 -90 -88 -168q-14 -26 -13 -37q-4 -11 9 -20q62 -59 138.5 -7t110.5 97q106 159 115 277q4 59 -18 76
q-31 27 -88 -22z" />
    <glyph glyph-name="bar" unicode="|" horiz-adv-x="514" 
d="M1507 1180l-67 3l-72 1q-159 0 -457 -31q-310 -34 -418 -37q19 9 25 19l-6 6l-127 -21q-81 -21 -158 -147q-9 -14 0 -23q8 -7 33 -4l530 70l-22 -15q-137 -136 -404 -503q-301 -415 -301 -533q0 -42 55 -39q104 3 234 76q13 10 4 10q-41 3 -41 51q0 10 2 22l6 21
q51 157 223 441q178 292 316 448q23 30 67 33q202 13 293 10q25 0 25 -24q0 -36 -27 -53q-13 -8 -10 -17q3 -6 10 -4q42 8 178 100q129 89 129 125q0 15 -20 15z" />
    <glyph glyph-name="braceright" unicode="}" horiz-adv-x="3189" 
d="M1432 1399q226 31 434 36q168 5 168 -39q-2 -124 -186.5 -174t-278.5 -68q15 39 47 63q-186 -13 -378 -61q-48 -13 -108 -74q-55 -57 -166 -178q-165 -171 -260 -286l166 23q35 49 68.5 90t86.5 73q52 26 126 26q39 0 39 -10q3 -5 -25 -35q-153 -167 -203 -241
q231 247 441 407q113 79 222 136q86 35 133 19q48 -39 13.5 -116.5t-88.5 -96.5q-50 26 -119 3q-37 -11 -111 -50q-184 -108 -268 -184q-205 -187 -336 -373q-32 -42 -132 -74q-120 -47 -134 -13q-2 11 21 53q40 71 88.5 136.5t96.5 136.5q-124 -8 -167 -19q-15 -7 -60 -65
q-53 -76 -108 -149.5t-86 -158.5q-29 -66 5 -136q-102 -58 -231 -82q-143 -23 -106 84q40 92 213 305q32 39 67.5 78.5t69.5 82.5q-192 -27 -523 -140q-29 -7 -27 -7q-2 0 5 20q40 103 93 119q297 74 460 97l87 24q18 10 81 81q94 100 142 153q61 60 120 121.5t122 125.5
q-63 105 -13 207q19 32 146 65.5t353 64.5zM3046 1374q69 45 111 6q21 -29 52 -147q-99 -32 -177 -100.5t-151 -131.5q-260 -245 -534 -544q-42 -42 -77.5 -88t-72.5 -88q-13 76 3 110q26 69 134 208q71 98 152.5 189.5t163.5 186.5q60 71 123 139.5t126 139.5
q77 76 147 120zM1312 706q165 132 349 158q140 16 131 -47q-7 -52 -120 -147q-190 -136 -376 -189q-11 -85 50 -92q73 -27 165 23q63 32 105 66q119 255 426 360q110 37 189 26q82 -20 38.5 -81t-74.5 -86q-181 -150 -405 -213q-16 -64 34 -90q52 -29 136 -3q101 37 192 134
q53 50 100 137q24 44 20 -10.5t-22 -115.5q-11 -27 -84 -84q-137 -116 -256 -153q-163 -50 -247 11q-54 36 -54 100q-172 -113 -313 -127q-101 -10 -150 42q-53 66 -3 174q42 94 169 207zM1553 781q-181 -77 -245 -240q135 37 245 119q56 50 79 91q21 50 -29 43
q-19 -3 -50 -13zM2037 778q-171 -79 -229 -231q79 12 195 84q102 71 129 129q15 39 -27 36q-42 -5 -68 -18zM2084 281q58 29 53 -53q-5 -89 -79 -192q-69 -94 -132 -113q-63 -23 -55 48q3 94 82 202q73 89 131 108zM691 120q436 79 862 93q166 0 229 -14q55 -13 55 -44
q0 -29 -52 -116q-38 29 -263.5 37t-722.5 -31q-169 -9 -324 -35q38 74 216 110z" />
    <glyph glyph-name="asciitilde" unicode="~" horiz-adv-x="4286" 
d="M713 1173q212 114 346 121q71 3 100 -27q28 -34 8 -98q-21 -65 -58 -123.5t-71 -115.5q-73 -118 -142.5 -235.5t-132.5 -238.5q-45 -88 -55 -136q12 5 22 21q172 192 318.5 406t310.5 416q100 26 51 -67q-55 -136 -110.5 -272t-99.5 -274q-12 -38 -25.5 -75t-17.5 -76
q-3 -11 7 -5q9 5 22 18q35 34 65.5 74.5t62.5 79.5q39 55 79.5 112t75.5 117q1 226 115 377q54 62 94 81q42 14 42 -21q8 -55 -27 -160q-45 -115 -111 -217.5t-133 -201.5q109 122 259 150q78 15 109 -21q27 -34 -43 -104q-133 -119 -288 -162q1 -71 64 -80q77 -13 168 67
q82 134 164.5 268.5t176.5 262.5q28 50 105 55q49 3 60 -8q-115 -121 -222 -289q-41 -64 -140 -215.5t-96 -222.5q1 -30 47 5q50 32 80 64q-27 36 -17 83q15 101 123 193q108 97 249 116q77 0 93 -43q4 -27 -15 -56t-27 -58q0 -13 13 -8q-78 -56 -111 -59q-30 -7 -31 10
q-9 52 44 83t47 81q-3 24 -85 -6q-140 -62 -172 -196q-16 -74 25 -100q51 -42 135 6q93 54 127 110q91 119 222 170q55 20 84 5q44 32 98 31q48 -3 54 -53q4 -24 -11 -105q8 17 79 132q43 73 144 71q11 0 6 -8q-22 -30 -42.5 -58t-38.5 -55q-9 -12 -41.5 -61.5t-24.5 -46.5
q33 56 105.5 120t123.5 99q77 56 140 25q14 -8 10 -26q-22 -46 -66 -97.5t-60 -94.5q22 33 43 55q92 97 162 151q73 56 137 39q42 -12 15 -52q-41 -59 -84.5 -114.5t-77.5 -116.5q-35 -65 -13 -76q20 -11 83 40q3 10 11 30q27 67 138 163q155 123 309 111q43 -2 50 -28
q7 -37 -37 -87q-49 -48 -84 -72q-140 -97 -249 -123q-6 -77 68 -88q66 -17 150 43q78 58 145 139q11 6 17 -4q8 -14 -6 -33q-55 -60 -118.5 -117.5t-143.5 -84.5q-89 -35 -163 -17q-84 23 -88 128q-97 -72 -151 -82q-57 -8 -60 34q-6 31 31 104q60 103 125 192
q-17 -2 -66 -34q-72 -62 -127 -137t-108 -152q-44 -67 -110 -17q-8 5 3 39q22 53 52.5 102t60.5 100q48 73 52 83q-51 -24 -126 -102q-101 -110 -178 -227q-36 -38 -93 -21q-11 3 -7 23q12 35 50 119q-98 -136 -252 -192q-114 -34 -168 7q-48 35 -27 127q-75 -71 -183 -98
q-80 -20 -138 18q-80 -75 -162 -105q-63 -27 -97 -3q-29 19 23 135q-160 -88 -254 -52q-74 32 -65.5 93.5t33.5 115.5l-137 -162q-87 -97 -176 -164q-79 -55 -114 -23q-17 12 6 100q78 246 179 451q-56 -68 -105 -140t-104 -139q-175 -222 -328 -360q-44 -35 -100 -76.5
t-100 -21.5q-36 16 -9 67q76 158 211 380q64 111 133.5 220.5t140.5 217.5q30 48 64.5 95t54.5 104q15 55 -16 77q-33 17 -105 0q-114 -34 -286 -151q-182 -127 -289 -270q-114 -148 -152 -300q-23 -94 8 -143q32 -54 97 -25q44 21 78 78q13 -23 -15 -61q-74 -96 -177 -120
q-74 -10 -98 20q-37 33 -30 130q11 113 130 298q204 316 557 508zM4295 1156q52 40 87 33q19 -9 43 -37q24 -34 30 -58q-67 -20 -165 -127q-238 -250 -404 -529q-34 -59 -29 -51q-14 -9 -24 17q-10 29 7 75q24 63 70 135q61 105 131.5 206t141.5 201q65 92 112 135z
M3661 793q-137 -54 -181 -199q37 3 94 33q101 53 145 124q20 32 12 47q-15 17 -70 -5zM1584 699q-78 -68 -93 -143q113 34 187 108q67 67 40 85q-39 24 -134 -50zM2548 635q-22 26 -20 67q-130 -55 -176 -173q-26 -64 3 -113q24 -37 95 -17q98 33 162 161q37 91 22 151
q-49 7 -86 -76zM3758 362q38 13 48 -22q14 -66 -33 -147q-38 -64 -84 -78q-55 -17 -42 58q11 131 111 189zM2483 286q220 14 440.5 30t442.5 6q133 -4 178 -44q26 -24 26 -72q-2 -6 -9 -6q-55 7 -146 10q-258 3 -515.5 -7t-513.5 -21q-633 -36 -1181 -74q-95 -7 -190 -13
t-189 -16q-91 -8 -94 -7q-14 4 -9 17q12 20 117 46q112 18 226 30t229 25q296 27 593.5 50.5t594.5 45.5z" />
    <glyph glyph-name="dieresis" unicode="&#xa8;" horiz-adv-x="1024" 
 />
    <glyph glyph-name="copyright" unicode="&#xa9;" horiz-adv-x="1130" 
d="M1006 930q-50 25 -166 14q-84 -12 -162 -41q-71 -26 -140 -78q-76 -58 -118 -125q-57 -94 -16 -160q37 -60 131 -63q85 0 172 39q118 49 188 125l18 21q7 8 14 23q5 13 10 28l5 21q1 8 -2 5q-88 -124 -176 -172q-99 -54 -209 -47l-8 2q-5 1 -8 2l-17 4q-123 45 -73 162
q22 53 80 98q48 38 114 66q92 38 172 46q90 9 144 -21q45 -25 -25 -62q-71 -40 -156 -43l-26 1q-19 1 -34 5q-42 12 -34 37q6 11 16 17q-2 6 -16 -5q-26 -26 -6 -55q21 -31 76 -39q96 -14 184 53q46 37 68 74q31 50 0 68zM855 464q-155 -102 -308 -102q-152 0 -215 102
t2 247q64 142 219 244t307 102q154 0 217 -102q63 -101 -2 -244q-66 -145 -220 -247zM1128 975q-77 110 -253 110q-178 0 -355 -110q-176 -110 -245 -264q-71 -155 6 -265t254 -110q179 0 355 110q176 109 245 265q70 153 -7 264z" />
    <glyph glyph-name="registered" unicode="&#xae;" horiz-adv-x="780" 
d="M161 604q-96 96 -96 230q0 135 96 231t230 96q135 0 231 -96t96 -231q0 -134 -96 -230t-231 -96q-134 0 -230 96zM566 646q72 75 72 188t-72 189q-71 75 -175 75q-103 0 -174 -75q-72 -76 -72 -189t72 -188q71 -75 174 -75q104 0 175 75zM266 1022h137q137 0 137 -111
q0 -91 -98 -98l100 -162h-69l-97 160h-41v-160h-69v371zM335 862h62q74 0 74 56q0 51 -74 51h-62v-107z" />
    <glyph glyph-name="acute" unicode="&#xb4;" horiz-adv-x="1024" 
 />
    <glyph glyph-name="paragraph" unicode="&#xb6;" horiz-adv-x="1024" 
d="M929 1435v-70h-127v-1365h-82v1365h-166v-1365h-84v738q-174 8 -275.5 102.5t-101.5 245.5q0 157 107.5 253t285.5 96h443z" />
    <glyph glyph-name="onequarter" unicode="&#xbc;" horiz-adv-x="1780" 
 />
    <glyph glyph-name="onehalf" unicode="&#xbd;" horiz-adv-x="1780" 
 />
    <glyph glyph-name="threequarters" unicode="&#xbe;" horiz-adv-x="1780" 
 />
    <glyph glyph-name="Agrave" unicode="&#xc0;" 
d="M1723 753q-45 -63 -146 -96q-4 -12 18 -21q11 -4 24 -3q16 1 31 10q-98 -119 -210 -222q-135 -123 -268 -202q-157 -93 -301 -117q-165 -28 -308 35q-158 71 -214 215q-59 155 30 332q69 140 226 232q137 81 322 116q94 17 187 21q104 3 199 -10q225 -32 380 -154
q81 -62 30 -136zM1880 918q7 60 -51 102q-138 101 -370 136q-213 32 -427 -1q-213 -32 -413 -138q-223 -119 -343 -292q-154 -223 -75 -445q76 -215 302 -264q224 -47 436 5q235 59 406 231q-49 -64 -75 -101q-41 -60 -52 -90q-27 -70 64 -59q27 4 96 32q80 33 113 60
q7 8 4 12q-40 62 41 197q49 80 139 194q84 106 143 167l11 6q2 11 -37 18q-37 6 -66 2q52 41 105 119q44 65 49 109zM1483 1331q-65 123 -73 213q-2 16 -1 26q1 12 7 17q1 2 0 5t-2 3q-150 -62 -119 -125q63 -116 143 -192q15 -15 52 -15t24 19z" />
    <glyph glyph-name="Aacute" unicode="&#xc1;" 
d="M1723 753q-45 -63 -146 -96q-4 -12 18 -21q11 -4 24 -3q16 1 31 10q-98 -119 -210 -222q-135 -123 -268 -202q-157 -93 -301 -117q-165 -28 -308 35q-158 71 -214 215q-59 155 30 332q69 140 226 232q137 81 322 116q94 17 187 21q104 3 199 -10q225 -32 380 -154
q81 -62 30 -136zM1880 918q7 60 -51 102q-138 101 -370 136q-213 32 -427 -1q-213 -32 -413 -138q-223 -119 -343 -292q-154 -223 -75 -445q76 -215 302 -264q224 -47 436 5q235 59 406 231q-49 -64 -75 -101q-41 -60 -52 -90q-27 -70 64 -59q27 4 96 32q80 33 113 60
q7 8 4 12q-40 62 41 197q49 80 139 194q84 106 143 167l11 6q2 11 -37 18q-37 6 -66 2q52 41 105 119q44 65 49 109zM1729 1530q-36 -21 -91 -60l-154 -114q-12 -8 -18 -25q-14 -23 -16 -48t11 -13l52 33q82 49 141 65q36 8 33 -22q0 -2 3 -1t5 3q50 59 85 129q39 78 9 79
q-15 0 -60 -26z" />
    <glyph glyph-name="Acircumflex" unicode="&#xc2;" 
d="M1723 753q-45 -63 -146 -96q-4 -12 18 -21q11 -4 24 -3q16 1 31 10q-98 -119 -210 -222q-135 -123 -268 -202q-157 -93 -301 -117q-165 -28 -308 35q-158 71 -214 215q-59 155 30 332q69 140 226 232q137 81 322 116q94 17 187 21q104 3 199 -10q225 -32 380 -154
q81 -62 30 -136zM1880 918q7 60 -51 102q-138 101 -370 136q-213 32 -427 -1q-213 -32 -413 -138q-223 -119 -343 -292q-154 -223 -75 -445q76 -215 302 -264q224 -47 436 5q235 59 406 231q-49 -64 -75 -101q-41 -60 -52 -90q-27 -70 64 -59q27 4 96 32q80 33 113 60
q7 8 4 12q-40 62 41 197q49 80 139 194q84 106 143 167l11 6q2 11 -37 18q-37 6 -66 2q52 41 105 119q44 65 49 109zM1684 1535q-20 -31 -12 -112.5t56 -82.5q-27 -59 -81 -75.5t-84 30.5q-7 12 -11.5 42t2.5 98q-49 -37 -92 -69.5t-121 -68.5q-45 -20 -114 -8q-14 2 -39 11
t-26 19q-1 13 22 10t43 -1q66 13 117.5 35.5t101.5 53.5q53 31 93.5 61.5t91.5 63.5q16 11 35.5 7.5t17.5 -14.5z" />
    <glyph glyph-name="Atilde" unicode="&#xc3;" 
d="M1723 753q-45 -63 -146 -96q-4 -12 18 -21q11 -4 24 -3q16 1 31 10q-98 -119 -210 -222q-135 -123 -268 -202q-157 -93 -301 -117q-165 -28 -308 35q-158 71 -214 215q-59 155 30 332q69 140 226 232q137 81 322 116q94 17 187 21q104 3 199 -10q225 -32 380 -154
q81 -62 30 -136zM1880 918q7 60 -51 102q-138 101 -370 136q-213 32 -427 -1q-213 -32 -413 -138q-223 -119 -343 -292q-154 -223 -75 -445q76 -215 302 -264q224 -47 436 5q235 59 406 231q-49 -64 -75 -101q-41 -60 -52 -90q-27 -70 64 -59q27 4 96 32q80 33 113 60
q7 8 4 12q-40 62 41 197q49 80 139 194q84 106 143 167l11 6q2 11 -37 18q-37 6 -66 2q52 41 105 119q44 65 49 109zM1708 1455q-7 10 -12 -3q-4 -11 -14 -20q-9 -8 -22 -15l-22 -9l-16 -5q-44 -15 -129 12l-69 22q-39 12 -66 13q-52 3 -111 -58q-52 -54 -57 -89
q0 -11 7 -19q7 -9 12 2q4 11 15 20q8 8 21 15l36 14q39 12 87 0q4 0 32 -9l27 -9q17 -5 31 -9q84 -24 117 -16q45 12 93 65q43 49 47 79q0 11 -7 19z" />
    <glyph glyph-name="Egrave" unicode="&#xc8;" horiz-adv-x="1345" 
d="M1905 1300q-132 27 -291 37q-231 18 -500 -34q-175 -33 -378 -124q-218 -97 -316 -198q-111 -113 -97 -204q12 -78 112 -135q85 -47 215 -71q117 -21 214 -14l-140 -29q-96 -22 -174 -49q-100 -36 -175 -81q-88 -55 -141 -124q-112 -147 -4 -231q47 -38 145 -51
q87 -12 205 -5q219 13 387 68q53 18 110 41q79 31 142 64q80 41 127 82q57 47 67 92q23 112 -205 84q-8 0 -6 -8q67 -91 -90 -211q-107 -81 -255 -118q-129 -33 -269 -28q-77 4 -129 24q-63 25 -72 68q-10 50 49 121q58 72 164 129q98 52 221 86q253 68 424 27l10 1
q6 2 11 11q21 43 24 76q3 35 -16 37l-277 18q-52 3 -88 6q-97 7 -167 16q-85 12 -152 29q-135 36 -151 112q-17 82 118 177q87 61 227 111q54 19 114 35q47 13 95 24q284 63 530 56q280 -8 417 -107q73 -54 34 -97q-27 -30 -124 -65q-225 -80 -465 -47l-32 5l-42 10
q-54 13 -95 31q-116 52 -83 122q6 14 24 25q12 8 25 12q-4 20 -45 -4q-96 -59 -51 -152q26 -55 92 -95q44 -27 127 -56q260 -87 551 65q71 37 123 77q62 46 102 97q26 33 38 52q18 27 23 48q13 50 -39 91t-198 71zM1444 1434q-65 122 -74 211q-3 35 6 45q2 0 1 3q-1 4 -3 3
q-150 -60 -118 -123q60 -115 143 -195q15 -13 52 -13t24 17z" />
    <glyph glyph-name="Eacute" unicode="&#xc9;" horiz-adv-x="1345" 
d="M1905 1300q-132 27 -291 37q-231 18 -500 -34q-175 -33 -378 -124q-218 -97 -316 -198q-111 -113 -97 -204q12 -78 112 -135q85 -47 215 -71q117 -21 214 -14l-140 -29q-96 -22 -174 -49q-100 -36 -175 -81q-88 -55 -141 -124q-112 -147 -4 -231q47 -38 145 -51
q87 -12 205 -5q219 13 387 68q53 18 110 41q79 31 142 64q80 41 127 82q57 47 67 92q23 112 -205 84q-8 0 -6 -8q67 -91 -90 -211q-107 -81 -255 -118q-129 -33 -269 -28q-77 4 -129 24q-63 25 -72 68q-10 50 49 121q58 72 164 129q98 52 221 86q253 68 424 27l10 1
q6 2 11 11q21 43 24 76q3 35 -16 37l-277 18q-52 3 -88 6q-97 7 -167 16q-85 12 -152 29q-135 36 -151 112q-17 82 118 177q87 61 227 111q54 19 114 35q47 13 95 24q284 63 530 56q280 -8 417 -107q73 -54 34 -97q-27 -30 -124 -65q-225 -80 -465 -47l-32 5l-42 10
q-54 13 -95 31q-116 52 -83 122q6 14 24 25q12 8 25 12q-4 20 -45 -4q-96 -59 -51 -152q26 -55 92 -95q44 -27 127 -56q260 -87 551 65q71 37 123 77q62 46 102 97q26 33 38 52q18 27 23 48q13 50 -39 91t-198 71zM1536 1633q-36 -22 -91 -61l-155 -114q-11 -8 -18 -24
q-14 -24 -16 -49t12 -13l51 33q83 49 141 65q36 8 33 -22q0 -2 3 -1q4 1 5 3q51 59 86 130q38 77 9 79q-16 0 -60 -26z" />
    <glyph glyph-name="Ecircumflex" unicode="&#xca;" horiz-adv-x="1345" 
d="M1905 1300q-132 27 -291 37q-231 18 -500 -34q-175 -33 -378 -124q-218 -97 -316 -198q-111 -113 -97 -204q12 -78 112 -135q85 -47 215 -71q117 -21 214 -14l-140 -29q-96 -22 -174 -49q-100 -36 -175 -81q-88 -55 -141 -124q-112 -147 -4 -231q47 -38 145 -51
q87 -12 205 -5q219 13 387 68q53 18 110 41q79 31 142 64q80 41 127 82q57 47 67 92q23 112 -205 84q-8 0 -6 -8q67 -91 -90 -211q-107 -81 -255 -118q-129 -33 -269 -28q-77 4 -129 24q-63 25 -72 68q-10 50 49 121q58 72 164 129q98 52 221 86q253 68 424 27l10 1
q6 2 11 11q21 43 24 76q3 35 -16 37l-277 18q-52 3 -88 6q-97 7 -167 16q-85 12 -152 29q-135 36 -151 112q-17 82 118 177q87 61 227 111q54 19 114 35q47 13 95 24q284 63 530 56q280 -8 417 -107q73 -54 34 -97q-27 -30 -124 -65q-225 -80 -465 -47l-32 5l-42 10
q-54 13 -95 31q-116 52 -83 122q6 14 24 25q12 8 25 12q-4 20 -45 -4q-96 -59 -51 -152q26 -55 92 -95q44 -27 127 -56q260 -87 551 65q71 37 123 77q62 46 102 97q26 33 38 52q18 27 23 48q13 50 -39 91t-198 71zM1680.5 1684.5q-19.5 3.5 -36.5 -7.5q-50 -33 -90.5 -63.5
t-93.5 -61.5q-50 -31 -101.5 -53.5t-118.5 -35.5q-20 -2 -43 1t-22 -10q2 -10 26.5 -19t39.5 -11q69 -12 114 8q78 36 120.5 68.5t92.5 69.5q-8 -68 -3 -98t11 -42q31 -47 84.5 -30.5t81.5 75.5q-49 1 -57 82.5t13 112.5q2 11 -17.5 14.5z" />
    <glyph glyph-name="Igrave" unicode="&#xcc;" horiz-adv-x="894" 
d="M1121 1247q-76 2 -166 -11q-79 -10 -130 -26q-195 -58 -391 -180q-105 -66 -181 -136q-86 -78 -129 -155q-8 -14 -2 -57q3 -19 8 -34q5 -17 13 -23q7 -5 12 8q19 48 57 105q48 72 113 136q79 79 176 139q114 71 248 113q65 21 125 28q74 9 123 -5q128 -35 63 -209
q-93 -248 -319 -555q-69 -90 -169 -185q-89 -85 -188 -159q-132 -22 -223 -137q-25 -31 37 -58q64 -29 129 7q213 116 506 495q84 109 164 223q87 123 153 230q74 117 116 203q46 95 50 145q8 94 -195 98zM1077 1352q-65 122 -74 213q-2 15 -1 25q1 12 7 18q1 1 0 5
q-1 3 -2 3q-150 -63 -119 -125q63 -116 143 -193q15 -14 52 -14t24 19z" />
    <glyph glyph-name="Iacute" unicode="&#xcd;" horiz-adv-x="894" 
d="M1121 1247q-76 2 -166 -11q-79 -10 -130 -26q-195 -58 -391 -180q-105 -66 -181 -136q-86 -78 -129 -155q-8 -14 -2 -57q3 -19 8 -34q5 -17 13 -23q7 -5 12 8q19 48 57 105q48 72 113 136q79 79 176 139q114 71 248 113q65 21 125 28q74 9 123 -5q128 -35 63 -209
q-93 -248 -319 -555q-69 -90 -169 -185q-89 -85 -188 -159q-132 -22 -223 -137q-25 -31 37 -58q64 -29 129 7q213 116 506 495q84 109 164 223q87 123 153 230q74 117 116 203q46 95 50 145q8 94 -195 98zM1179 1530q-37 -21 -92 -60l-154 -114q-12 -8 -18 -25
q-14 -23 -16 -48t12 -13l51 33q82 49 141 65q36 8 33 -22q0 -2 3 -1t5 3q50 59 86 129q38 78 8 79q-15 0 -59 -26z" />
    <glyph glyph-name="Ograve" unicode="&#xd2;" horiz-adv-x="1792" 
d="M1587 313q-127 -123 -296 -180q-186 -61 -378 -58q-207 3 -347 83q-144 82 -210 221q-73 155 -1 301q69 139 236 235q145 83 331 117q133 24 281 23q170 -1 313 -35q123 -31 187 -101q68 -77 43 -176q-36 -143 -203 -219l-9 -3l-40 -16q-43 -15 -87 -24q-59 -12 -123 -12
q-77 0 -159 16q-29 -119 125 -133q141 -11 310 87q152 88 227 198q-60 -189 -200 -324zM1889 760q84 168 -54 284q-117 99 -335 123q-225 25 -473 -12q-212 -31 -412 -139q-222 -119 -344 -291q-169 -238 -50 -455q109 -201 382 -270q221 -57 504 0q208 41 386 143
q208 119 322 295q43 65 70 135q34 86 29 144q-3 27 -25 43zM1310 1331q-65 123 -74 213q-2 16 -1 26q1 12 7 17q1 2 0 5q0 3 -2 3q-150 -62 -119 -125q64 -116 144 -192q14 -15 51 -15t24 19z" />
    <glyph glyph-name="Oacute" unicode="&#xd3;" horiz-adv-x="1792" 
d="M1587 313q-127 -123 -296 -180q-186 -61 -378 -58q-207 3 -347 83q-144 82 -210 221q-73 155 -1 301q69 139 236 235q145 83 331 117q133 24 281 23q170 -1 313 -35q123 -31 187 -101q68 -77 43 -176q-36 -143 -203 -219l-9 -3l-40 -16q-43 -15 -87 -24q-59 -12 -123 -12
q-77 0 -159 16q-29 -119 125 -133q141 -11 310 87q152 88 227 198q-60 -189 -200 -324zM1889 760q84 168 -54 284q-117 99 -335 123q-225 25 -473 -12q-212 -31 -412 -139q-222 -119 -344 -291q-169 -238 -50 -455q109 -201 382 -270q221 -57 504 0q208 41 386 143
q208 119 322 295q43 65 70 135q34 86 29 144q-3 27 -25 43zM1473 1530q-36 -21 -91 -60l-154 -114q-12 -8 -19 -25q-14 -23 -16 -48t12 -13l51 33q83 49 142 65q35 8 32 -22q0 -2 4 -1q3 1 5 3q50 59 85 129q39 78 9 79q-16 0 -60 -26z" />
    <glyph glyph-name="Ocircumflex" unicode="&#xd4;" horiz-adv-x="1792" 
d="M1587 313q-127 -123 -296 -180q-186 -61 -378 -58q-207 3 -347 83q-144 82 -210 221q-73 155 -1 301q69 139 236 235q145 83 331 117q133 24 281 23q170 -1 313 -35q123 -31 187 -101q68 -77 43 -176q-36 -143 -203 -219l-9 -3l-40 -16q-43 -15 -87 -24q-59 -12 -123 -12
q-77 0 -159 16q-29 -119 125 -133q141 -11 310 87q152 88 227 198q-60 -189 -200 -324zM1889 760q84 168 -54 284q-117 99 -335 123q-225 25 -473 -12q-212 -31 -412 -139q-222 -119 -344 -291q-169 -238 -50 -455q109 -201 382 -270q221 -57 504 0q208 41 386 143
q208 119 322 295q43 65 70 135q34 86 29 144q-3 27 -25 43zM1621.5 1558.5q-19.5 3.5 -36.5 -7.5q-50 -33 -90.5 -63.5t-93.5 -61.5q-50 -31 -101.5 -53.5t-118.5 -35.5q-20 -2 -43 1t-22 -10q1 -10 26 -19t40 -11q69 -12 114 8q78 36 120.5 68.5t92.5 69.5q-8 -68 -3 -98
t11 -42q31 -47 84.5 -30.5t81.5 75.5q-49 1 -57 82.5t13 112.5q2 11 -17.5 14.5z" />
    <glyph glyph-name="Otilde" unicode="&#xd5;" horiz-adv-x="1792" 
d="M1587 313q-127 -123 -296 -180q-186 -61 -378 -58q-207 3 -347 83q-144 82 -210 221q-73 155 -1 301q69 139 236 235q145 83 331 117q133 24 281 23q170 -1 313 -35q123 -31 187 -101q68 -77 43 -176q-36 -143 -203 -219l-9 -3l-40 -16q-43 -15 -87 -24q-59 -12 -123 -12
q-77 0 -159 16q-29 -119 125 -133q141 -11 310 87q152 88 227 198q-60 -189 -200 -324zM1889 760q84 168 -54 284q-117 99 -335 123q-225 25 -473 -12q-212 -31 -412 -139q-222 -119 -344 -291q-169 -238 -50 -455q109 -201 382 -270q221 -57 504 0q208 41 386 143
q208 119 322 295q43 65 70 135q34 86 29 144q-3 27 -25 43zM1595 1436q-4 -30 -47 -79q-48 -53 -93 -65q-32 -8 -117 16q-14 4 -31 9l-27 9q-27 9 -32 9q-48 12 -87 0l-36 -14q-13 -7 -21 -15q-11 -9 -15 -20q-5 -11 -12 -2q-7 8 -7 19q5 35 57 89q60 61 111 58
q27 -1 66 -13l69 -22q85 -27 129 -12l16 5l22 9q13 7 22 15q11 9 15 20q4 13 12 3q6 -8 6 -19z" />
    <glyph glyph-name="Ugrave" unicode="&#xd9;" horiz-adv-x="1380" 
d="M1696 1012q-33 22 -80 17q-57 -7 -100 -54q-44 -49 -96 -120q-40 -55 -93 -134q-17 -25 -44 -66l-42 -64q-47 -71 -75 -110q-129 -170 -336 -311q-17 -11 -50 -25q-39 -16 -69 -22q-86 -16 -49 59q20 40 112 168q34 48 92 126l211 287l101 141q105 151 146 229
q51 101 -3 128q-39 20 -141 1q-79 -16 -207 -74q-142 -64 -282 -152q-162 -102 -284 -216q-141 -132 -214 -267q-93 -174 29 -182q120 -8 186 92q-107 0 -33 172q65 151 253 302q177 142 345 196q68 20 105 6q50 -18 16 -99q-38 -86 -117 -208q-69 -107 -168 -240
q-83 -112 -185 -238q-82 -102 -171 -207q-108 -126 -15 -173q93 -48 273 49q45 23 107 71q53 40 116 96q109 96 185 179q-86 -119 -110 -231q-26 -125 65 -118q71 5 199 93q124 85 219 190q24 33 10 53q-2 2 -6 -2l-60 -55q-36 -32 -64 -53q-73 -58 -120 -68q-32 -5 -40 27
q-7 27 3 61q59 194 189 375q120 166 307 332l5 1q4 1 5 3q5 12 -25 35zM1600 1331q-65 123 -74 213q-1 16 0 26q1 12 6 17q2 2 1 5t-3 3q-149 -62 -118 -125q63 -116 143 -192q15 -15 52 -15t24 19z" />
    <glyph glyph-name="Uacute" unicode="&#xda;" horiz-adv-x="1380" 
d="M1696 1012q-33 22 -80 17q-57 -7 -100 -54q-44 -49 -96 -120q-40 -55 -93 -134q-17 -25 -44 -66l-42 -64q-47 -71 -75 -110q-129 -170 -336 -311q-17 -11 -50 -25q-39 -16 -69 -22q-86 -16 -49 59q20 40 112 168q34 48 92 126l211 287l101 141q105 151 146 229
q51 101 -3 128q-39 20 -141 1q-79 -16 -207 -74q-142 -64 -282 -152q-162 -102 -284 -216q-141 -132 -214 -267q-93 -174 29 -182q120 -8 186 92q-107 0 -33 172q65 151 253 302q177 142 345 196q68 20 105 6q50 -18 16 -99q-38 -86 -117 -208q-69 -107 -168 -240
q-83 -112 -185 -238q-82 -102 -171 -207q-108 -126 -15 -173q93 -48 273 49q45 23 107 71q53 40 116 96q109 96 185 179q-86 -119 -110 -231q-26 -125 65 -118q71 5 199 93q124 85 219 190q24 33 10 53q-2 2 -6 -2l-60 -55q-36 -32 -64 -53q-73 -58 -120 -68q-32 -5 -40 27
q-7 27 3 61q59 194 189 375q120 166 307 332l5 1q4 1 5 3q5 12 -25 35zM1753 1530q-36 -21 -91 -60l-154 -114q-12 -8 -19 -25q-14 -23 -15 -48q-2 -25 11 -13l52 33q82 49 141 65q35 8 33 -22q0 -2 3 -1t5 3q50 59 85 129q39 78 9 79q-16 0 -60 -26z" />
    <glyph glyph-name="Yacute" unicode="&#xdd;" horiz-adv-x="1314" 
d="M1652 1032q-23 17 -41 17q-12 0 -18 -7q-592 -681 -807 -815q-4 9 -4 15q0 71 188 336q26 35 58 78l176 237q117 160 117 235q0 91 -136 91q-88 0 -194 -30q-96 -27 -205 -77q-156 -74 -308 -185q-143 -105 -241 -210q-135 -145 -135 -275q0 -92 100 -104q78 -8 164 29
q69 31 103 73q11 15 8 29q-62 -61 -125 -61q-38 0 -64 28q-34 43 -19 110q14 58 62 130q39 60 96 122q48 51 89 85q50 41 115 86q77 52 151 91q87 46 158 68q83 25 139 17q59 -10 59 -62q0 -62 -84 -168q-432 -534 -587 -833q-11 -24 -11 -39q0 -49 74 -49q50 0 100 26
q354 233 680 631q7 10 11 6q2 -2 -2 -10q-609 -955 -658 -1100l-3 -14l-1 -12q0 -45 49 -45q59 0 148 55q90 53 127 104q8 15 0 15q-23 0 -23 33q3 180 320 688l391 604q4 12 4 20q0 23 -21 37zM1741 1530q-36 -21 -91 -60l-154 -114q-12 -8 -19 -25q-14 -23 -16 -48
q-1 -25 12 -13l51 33q83 49 142 65q35 8 32 -22q0 -2 4 -1q3 1 5 3q50 59 85 129q39 78 9 79q-16 0 -60 -26z" />
    <glyph glyph-name="agrave" unicode="&#xe0;" horiz-adv-x="602" 
d="M373 317l-41 -53q-52 -63 -132 -82q-93 -23 -91 80q1 99 87 187q80 82 167 94q67 7 80 -43q16 -59 -74 -162l9 -1q6 0 9 1q-7 -11 -14 -21zM654 297q-2 9 -5 10q-3 6 -10 2l-34 -32q-30 -29 -54 -48q-74 -58 -98 -36q-31 30 67 149q11 12 -14 16q-20 2 -49 -2
q75 47 98 121q23 75 -31 103q-119 63 -321 -60q-100 -60 -163 -141q-70 -88 -69 -168q2 -88 76 -106q64 -14 156 24q66 28 113 72q-46 -89 14 -105q42 -11 100 13q45 19 109 65l52 45q39 34 56 51q8 9 8 15t-1 12zM479 711q-65 123 -74 213q-1 16 0 26q1 12 7 17q1 2 0 5
t-2 3q-150 -62 -119 -125q63 -116 143 -192q15 -15 52 -15t24 19z" />
    <glyph glyph-name="aacute" unicode="&#xe1;" horiz-adv-x="602" 
d="M373 317l-41 -53q-52 -63 -132 -82q-93 -23 -91 80q1 99 87 187q80 82 167 94q67 7 80 -43q16 -59 -74 -162l9 -1q6 0 9 1q-7 -11 -14 -21zM654 297q-2 9 -5 10q-3 6 -10 2l-34 -32q-30 -29 -54 -48q-74 -58 -98 -36q-31 30 67 149q11 12 -14 16q-20 2 -49 -2
q75 47 98 121q23 75 -31 103q-119 63 -321 -60q-100 -60 -163 -141q-70 -88 -69 -168q2 -88 76 -106q64 -14 156 24q66 28 113 72q-46 -89 14 -105q42 -11 100 13q45 19 109 65l52 45q39 34 56 51q8 9 8 15t-1 12zM701 910q-37 -21 -92 -60l-154 -114q-11 -8 -18 -25
q-14 -23 -16 -48t12 -13l51 33q82 49 141 65q36 8 33 -22q0 -2 3 -1q4 1 5 3q51 59 86 129q38 78 8 79q-15 0 -59 -26z" />
    <glyph glyph-name="acircumflex" unicode="&#xe2;" horiz-adv-x="602" 
d="M373 317l-41 -53q-52 -63 -132 -82q-93 -23 -91 80q1 99 87 187q80 82 167 94q67 7 80 -43q16 -59 -74 -162l9 -1q6 0 9 1q-7 -11 -14 -21zM654 297q-2 9 -5 10q-3 6 -10 2l-34 -32q-30 -29 -54 -48q-74 -58 -98 -36q-31 30 67 149q11 12 -14 16q-20 2 -49 -2
q75 47 98 121q23 75 -31 103q-119 63 -321 -60q-100 -60 -163 -141q-70 -88 -69 -168q2 -88 76 -106q64 -14 156 24q66 28 113 72q-46 -89 14 -105q42 -11 100 13q45 19 109 65l52 45q39 34 56 51q8 9 8 15t-1 12zM628 848q-14 3 -26 -5q-37 -25 -67 -47t-68 -45
q-37 -22 -74.5 -38.5t-86.5 -26.5q-15 -1 -31.5 1t-15.5 -8q0 -7 18.5 -13.5t28.5 -8.5q51 -8 84 6q57 26 88.5 50t67.5 52q-6 -51 -2.5 -73t8.5 -30q22 -34 61.5 -22.5t59.5 55.5q-35 1 -41 60.5t9 82.5q1 7 -13 10z" />
    <glyph glyph-name="atilde" unicode="&#xe3;" horiz-adv-x="602" 
d="M373 317l-41 -53q-52 -63 -132 -82q-93 -23 -91 80q1 99 87 187q80 82 167 94q67 7 80 -43q16 -59 -74 -162l9 -1q6 0 9 1q-7 -11 -14 -21zM654 297q-2 9 -5 10q-3 6 -10 2l-34 -32q-30 -29 -54 -48q-74 -58 -98 -36q-31 30 67 149q11 12 -14 16q-20 2 -49 -2
q75 47 98 121q23 75 -31 103q-119 63 -321 -60q-100 -60 -163 -141q-70 -88 -69 -168q2 -88 76 -106q64 -14 156 24q66 28 113 72q-46 -89 14 -105q42 -11 100 13q45 19 109 65l52 45q39 34 56 51q8 9 8 15t-1 12zM715 797q-6 8 -10 -3q-3 -8 -12 -16q-7 -7 -18 -12l-19 -8
l-13 -4q-36 -13 -107 10l-57 18q-32 10 -54 11q-43 2 -92 -49q-44 -44 -47 -73q0 -9 5 -16q6 -7 10 2t12 17q7 6 18 12l30 12q32 9 72 0q4 -1 27 -8l22 -7q14 -5 26 -8q69 -20 96 -13q38 10 77 54q36 40 39 65q0 9 -5 16z" />
    <glyph glyph-name="egrave" unicode="&#xe8;" horiz-adv-x="428" 
d="M279 378q-72 -48 -144 -65q24 150 182 217q69 30 85 7q15 -23 -29 -78q-32 -41 -94 -81zM552 381q-6 14 -11 8q-33 -40 -74 -80q-55 -53 -106 -86q-140 -93 -211 -16q-4 4 -7 10l-8 15q-9 23 -8 42q50 5 138 49q83 42 155 97q145 111 92 161q-51 48 -203 -8
q-147 -54 -244 -171q-95 -114 -73 -203q24 -107 141 -106q88 1 187 54q55 31 123 96q58 55 106 113q10 11 3 25zM380 703q-65 123 -73 213q-2 16 -1 25q1 12 7 18q1 1 0 5q-1 3 -2 3q-150 -63 -119 -125q63 -116 143 -192q15 -15 52 -15t24 19z" />
    <glyph glyph-name="eacute" unicode="&#xe9;" horiz-adv-x="428" 
d="M279 378q-72 -48 -144 -65q24 150 182 217q69 30 85 7q15 -23 -29 -78q-32 -41 -94 -81zM552 381q-6 14 -11 8q-33 -40 -74 -80q-55 -53 -106 -86q-140 -93 -211 -16q-4 4 -7 10l-8 15q-9 23 -8 42q50 5 138 49q83 42 155 97q145 111 92 161q-51 48 -203 -8
q-147 -54 -244 -171q-95 -114 -73 -203q24 -107 141 -106q88 1 187 54q55 31 123 96q58 55 106 113q10 11 3 25zM382 693q82 50 141 66q35 8 33 -23q0 -1 3 0t5 2q50 59 85 130q39 78 9 79q-16 0 -60 -26q-36 -21 -91 -60l-154 -114q-12 -8 -18 -25q-14 -23 -16 -48
q-2 -26 11 -13z" />
    <glyph glyph-name="ecircumflex" unicode="&#xea;" horiz-adv-x="428" 
d="M279 378q-72 -48 -144 -65q24 150 182 217q69 30 85 7q15 -23 -29 -78q-32 -41 -94 -81zM552 381q-6 14 -11 8q-33 -40 -74 -80q-55 -53 -106 -86q-140 -93 -211 -16q-4 4 -7 10l-8 15q-9 23 -8 42q50 5 138 49q83 42 155 97q145 111 92 161q-51 48 -203 -8
q-147 -54 -244 -171q-95 -114 -73 -203q24 -107 141 -106q88 1 187 54q55 31 123 96q58 55 106 113q10 11 3 25zM646.5 848q-14.5 3 -26.5 -5q-37 -25 -66.5 -47t-68.5 -45q-37 -22 -74.5 -38.5t-86.5 -26.5q-14 -1 -31 1t-16 -8q1 -7 19 -13.5t29 -8.5q50 -8 83 6
q57 26 88.5 50t67.5 52q-5 -51 -1.5 -73t7.5 -30q23 -34 62 -22.5t60 55.5q-36 1 -42 60.5t9 82.5q2 7 -12.5 10z" />
    <glyph glyph-name="igrave" unicode="&#xec;" horiz-adv-x="278" 
d="M342 573q25 23 -53 12q-78 -10 -98 -38l-44 -64q-39 -57 -69 -106l-62 -102q-40 -70 -47 -107q-9 -50 34 -61q30 -8 79 4q41 7 116 57q70 46 124 98l8 10q2 9 1 19q-1 11 -5 14q-7 4 -12 -2q-34 -35 -87 -78q-25 -20 -43 -33q-20 -14 -28 -16q-49 -17 -37 29q6 29 18 57
q22 58 65 125q30 49 75 107q18 23 37 45zM391 684q-92 136 -106 262q-3 34 6 43q0 6 -2 8q-125 -52 -125 -98q0 -11 6 -27q54 -107 146 -192q11 -12 45 -15q32 -3 32 11q0 6 -2 8z" />
    <glyph glyph-name="iacute" unicode="&#xed;" horiz-adv-x="278" 
d="M342 573q25 23 -53 12q-78 -10 -98 -38l-44 -64q-39 -57 -69 -106l-62 -102q-40 -70 -47 -107q-9 -50 34 -61q30 -8 79 4q41 7 116 57q70 46 124 98l8 10q2 9 1 19q-1 11 -5 14q-7 4 -12 -2q-34 -35 -87 -78q-25 -20 -43 -33q-20 -14 -28 -16q-49 -17 -37 29q6 29 18 57
q22 58 65 125q30 49 75 107q18 23 37 45zM320 693q83 50 141 66q36 8 33 -23q0 -1 3 0q4 1 5 2q51 59 86 130q38 78 9 79q-16 0 -60 -26q-36 -21 -91 -60l-155 -114q-11 -8 -18 -25q-14 -23 -16 -48q-2 -26 12 -13z" />
    <glyph glyph-name="ograve" unicode="&#xf2;" horiz-adv-x="509" 
d="M354 266q-64 -73 -131 -94q-85 -23 -117 31q-28 47 -3 119q24 66 81 124q73 77 143 86q-7 -7 -6 -25q1 -16 6 -32l6 -9q4 -5 6 -5q11 41 54 74q49 40 53 -23q9 -123 -92 -246zM397 586q-24 22 -94 -4q-57 -20 -117 -60q-207 -133 -213 -303q-3 -118 118 -121
q96 -3 187 49q64 38 101 68q61 49 116 121q61 83 76 169q14 85 -29 111q-61 39 -145 -30zM428 751q-65 123 -74 213q-1 16 0 25q1 12 7 18q1 1 0 5q-1 3 -2 3q-150 -63 -119 -125q63 -116 143 -192q15 -15 52 -15t24 19z" />
    <glyph glyph-name="oacute" unicode="&#xf3;" horiz-adv-x="509" 
d="M354 266q-64 -73 -131 -94q-85 -23 -117 31q-28 47 -3 119q24 66 81 124q73 77 143 86q-7 -7 -6 -25q1 -16 6 -32l6 -9q4 -5 6 -5q11 41 54 74q49 40 53 -23q9 -123 -92 -246zM397 586q-24 22 -94 -4q-57 -20 -117 -60q-207 -133 -213 -303q-3 -118 118 -121
q96 -3 187 49q64 38 101 68q61 49 116 121q61 83 76 169q14 85 -29 111q-61 39 -145 -30zM358 703q82 50 141 66q36 8 33 -23q0 -1 3 0t5 2q50 59 86 130q38 78 8 79q-15 0 -59 -26q-37 -21 -92 -60l-154 -114q-12 -8 -18 -25q-14 -23 -16 -48q-2 -26 12 -13z" />
    <glyph glyph-name="ocircumflex" unicode="&#xf4;" horiz-adv-x="499" 
d="M354 266q-64 -73 -131 -94q-85 -23 -117 31q-28 47 -3 119q24 66 81 124q73 77 143 86q-7 -7 -6 -25q1 -16 6 -32l6 -9q4 -5 6 -5q11 41 54 74q49 40 53 -23q9 -123 -92 -246zM397 586q-24 22 -94 -4q-57 -20 -117 -60q-207 -133 -213 -303q-3 -118 118 -121
q96 -3 187 49q64 38 101 68q61 49 116 121q61 83 76 169q14 85 -29 111q-61 39 -145 -30zM631.5 848q-14.5 3 -26.5 -5q-37 -25 -66.5 -47t-68.5 -45q-37 -22 -74.5 -38.5t-86.5 -26.5q-14 -1 -31 1t-16 -8q1 -7 19 -13.5t29 -8.5q50 -8 83 6q57 26 88.5 50t67.5 52
q-5 -51 -1.5 -73t7.5 -30q23 -34 62 -22.5t60 55.5q-36 1 -42 60.5t9 82.5q2 7 -12.5 10z" />
    <glyph glyph-name="otilde" unicode="&#xf5;" horiz-adv-x="509" 
d="M354 266q-64 -73 -131 -94q-85 -23 -117 31q-28 47 -3 119q24 66 81 124q73 77 143 86q-7 -7 -6 -25q1 -16 6 -32l6 -9q4 -5 6 -5q11 41 54 74q49 40 53 -23q9 -123 -92 -246zM397 586q-24 22 -94 -4q-57 -20 -117 -60q-207 -133 -213 -303q-3 -118 118 -121
q96 -3 187 49q64 38 101 68q61 49 116 121q61 83 76 169q14 85 -29 111q-61 39 -145 -30zM291 782q-46 -54 -50 -89q0 -11 6 -19q7 -8 11 3q3 11 13 20q7 8 19 14l31 15q34 11 76 0q4 0 29 -10l24 -8q14 -6 27 -10q74 -24 102 -15q40 11 82 64q38 48 41 79q0 12 -6 20
q-6 9 -10 -3q-4 -11 -13 -20q-8 -8 -19 -15l-20 -9l-14 -5q-38 -16 -113 12l-60 22q-35 11 -58 13q-46 3 -98 -59z" />
    <glyph glyph-name="divide" unicode="&#xf7;" horiz-adv-x="1706" 
 />
    <glyph glyph-name="glyph217" unicode="&#xf9;" horiz-adv-x="534" 
d="M567 584q-77 -10 -98 -37l-110 -170q-40 -62 -96 -118q-63 -64 -107 -77q-48 -12 -37 31q17 63 67 148q41 71 93 137q43 56 63 73q24 24 -53 13q-78 -10 -98 -37q-33 -47 -113 -170l-28 -46q-21 -33 -34 -55q-40 -69 -47 -108q-9 -49 35 -62q29 -8 78 0q94 19 189 113
q-4 -7 -6 -12l-17 -39q-9 -49 34 -62q30 -8 79 0q50 11 124 61q64 43 123 101q9 3 9 13q6 16 -2 28q-7 6 -13 0q-50 -48 -91 -82q-53 -44 -77 -51q-48 -12 -37 33q18 69 68 154q37 64 90 135q38 46 66 73q24 24 -54 13zM463 702q-65 123 -74 213q-2 16 -1 25q1 12 7 18
q2 1 1 5q-1 3 -3 3q-150 -63 -119 -125q64 -116 144 -192q14 -15 51 -15t24 19z" />
    <glyph glyph-name="glyph218" unicode="&#xfa;" horiz-adv-x="534" 
d="M567 584q-77 -10 -98 -37l-110 -170q-40 -62 -96 -118q-63 -64 -107 -77q-48 -12 -37 31q17 63 67 148q41 71 93 137q43 56 63 73q24 24 -53 13q-78 -10 -98 -37q-33 -47 -113 -170l-28 -46q-21 -33 -34 -55q-40 -69 -47 -108q-9 -49 35 -62q29 -8 78 0q94 19 189 113
q-4 -7 -6 -12l-17 -39q-9 -49 34 -62q30 -8 79 0q50 11 124 61q64 43 123 101q9 3 9 13q6 16 -2 28q-7 6 -13 0q-50 -48 -91 -82q-53 -44 -77 -51q-48 -12 -37 33q18 69 68 154q37 64 90 135q38 46 66 73q24 24 -54 13zM484 693q83 50 141 66q36 8 33 -23q0 -1 4 0q3 1 4 2
q51 59 86 130q39 78 9 79q-16 0 -60 -26q-36 -21 -91 -60l-155 -114q-11 -8 -18 -25q-14 -23 -16 -48q-2 -26 12 -13z" />
    <glyph glyph-name="glyph235" unicode="&#xfd;" horiz-adv-x="489" 
d="M598 583q-76 -11 -97 -38q-18 -23 -48 -70l-52 -82q-55 -85 -98 -131q-59 -63 -117 -80q-51 -16 -35 29q14 56 54 129q33 58 79 123q57 79 88 106q24 25 -53 14q-77 -10 -96 -38q-12 -13 -45 -64l-132 -207q-40 -68 -47 -106q-8 -50 36 -62q29 -9 77 0q96 18 189 111
l-3 -4q-22 -47 -67 -124q-52 -90 -115 -185q-110 -173 -252 -238q-215 -94 -282 48q-65 139 84 286q33 34 73 55q7 0 15 4q1 2 -1 2l-8 -2q-5 -1 -6 -2q-257 -68 -296 -263q-38 -195 221 -206q158 -7 339 112q165 109 252 253l143 241l28 50q44 77 77 131q78 120 150 194
q22 26 -55 14zM469 703q82 50 141 66q36 8 33 -23q0 -1 3 0t5 2q50 59 85 130q39 78 9 79q-15 0 -60 -26q-36 -21 -91 -60l-154 -114q-12 -8 -18 -25q-14 -23 -16 -48q-2 -26 11 -13z" />
    <glyph glyph-name="Abreve" unicode="&#x102;" 
d="M1723 753q-45 -63 -146 -96q-4 -12 18 -21q11 -4 24 -3q16 1 31 10q-98 -119 -210 -222q-135 -123 -268 -202q-157 -93 -301 -117q-165 -28 -308 35q-158 71 -214 215q-59 155 30 332q69 140 226 232q137 81 322 116q94 17 187 21q104 3 199 -10q225 -32 380 -154
q81 -62 30 -136zM1880 918q7 60 -51 102q-138 101 -370 136q-213 32 -427 -1q-213 -32 -413 -138q-223 -119 -343 -292q-154 -223 -75 -445q76 -215 302 -264q224 -47 436 5q235 59 406 231q-49 -64 -75 -101q-41 -60 -52 -90q-27 -70 64 -59q27 4 96 32q80 33 113 60
q7 8 4 12q-40 62 41 197q49 80 139 194q84 106 143 167l11 6q2 11 -37 18q-37 6 -66 2q52 41 105 119q44 65 49 109zM1566.5 1244q-132.5 -13 -248.5 53q-22 9 -61.5 52t-11.5 92q45 26 92.5 8.5t66.5 -42.5q-46 -26 -4.5 -68.5t128 -42t150 44.5t78.5 112q68 -3 77.5 -46
t-45.5 -86q-89 -64 -221.5 -77z" />
    <glyph glyph-name="abreve" unicode="&#x103;" horiz-adv-x="602" 
d="M373 317l-41 -53q-52 -63 -132 -82q-93 -23 -91 80q1 99 87 187q80 82 167 94q67 7 80 -43q16 -59 -74 -162l9 -1q6 0 9 1q-7 -11 -14 -21zM654 297q-2 9 -5 10q-3 6 -10 2l-34 -32q-30 -29 -54 -48q-74 -58 -98 -36q-31 30 67 149q11 12 -14 16q-20 2 -49 -2
q75 47 98 121q23 75 -31 103q-119 63 -321 -60q-100 -60 -163 -141q-70 -88 -69 -168q2 -88 76 -106q64 -14 156 24q66 28 113 72q-46 -89 14 -105q42 -11 100 13q45 19 109 65l52 45q39 34 56 51q8 9 8 15t-1 12zM635 691q33 30 27 59t-63 26q-9 -46 -42 -65.5t-78 -19
t-75 21t-3 45.5q-12 17 -40.5 29t-56.5 -6q-16 -41 8.5 -70t37.5 -36q70 -45 150.5 -36t134.5 52z" />
    <glyph glyph-name="Ccaron" unicode="&#x10c;" horiz-adv-x="1274" 
 />
    <glyph glyph-name="ccaron" unicode="&#x10d;" horiz-adv-x="855" 
 />
    <glyph glyph-name="Dslash" unicode="&#x110;" horiz-adv-x="1589" 
d="M1793 995q-84 169 -336 191q-282 23 -657 -133q-201 -82 -359 -196q-169 -122 -270 -269q-69 -95 49 -119q84 -23 156 16q-54 11 -17 98q38 90 146 195q61 59 142 116q95 66 182 101q260 114 493 111q178 -3 265 -113q90 -114 32 -291q-125 -373 -479 -557
q-138 -74 -268 -96q-138 -22 -177 35q-18 30 55 156q62 106 183 270q110 -3 160 -10q34 -5 16 -37q-2 -2 1 -3t7 1q69 29 128 72q67 49 46 67q-16 9 -98 9q-72 0 -190 -7q225 295 319 389q8 8 2 16q-6 7 -21 11q-36 8 -63 -12q-185 -155 -401 -412l-187 -14l-26 -11
q-22 -15 -35 -37q-13 -21 2 -20q38 1 89 2h91q-187 -229 -280 -393q-40 -71 40 -109q76 -35 224 -27q154 8 311 61q177 59 303 159q116 89 207 182q109 109 166 205q133 232 49 403z" />
    <glyph glyph-name="dcroat" unicode="&#x111;" horiz-adv-x="616" 
d="M373 317l-41 -53q-52 -63 -132 -82q-93 -23 -91 80q1 99 90 187q81 82 168 94q116 15 91 -76q-9 -31 -35 -74zM500 810l-42 -35h445l42 35h-445zM985 1016q-19 3 -54 -1q-89 -10 -110 -38l-80 -103q-46 -59 -79 -106l-70 -96q-37 -52 -66 -97q-1 2 -4 3t-4 2
q-117 62 -303 -41q-104 -60 -172 -147q-73 -94 -72 -181q2 -87 73 -106q60 -17 149 18q70 27 123 74l-7 -17q-4 -9 -4 -12q-8 -50 35 -61q29 -7 78 4q99 17 221 135l27 30q3 8 2 19q-2 11 -6 14q-4 4 -11 -2q-33 -35 -86 -78q-25 -20 -44 -33q-21 -14 -29 -16
q-49 -17 -37 29q9 45 52 125q38 71 103 168q55 82 128 182q60 81 128 170q62 84 129 147q11 11 -10 15z" />
    <glyph glyph-name="Itilde" unicode="&#x128;" horiz-adv-x="894" 
d="M1121 1247q-76 2 -166 -11q-79 -10 -130 -26q-195 -58 -391 -180q-105 -66 -181 -136q-86 -78 -129 -155q-8 -14 -2 -57q3 -19 8 -34q5 -17 13 -23q7 -5 12 8q19 48 57 105q48 72 113 136q79 79 176 139q114 71 248 113q65 21 125 28q74 9 123 -5q128 -35 63 -209
q-93 -248 -319 -555q-69 -90 -169 -185q-89 -85 -188 -159q-132 -22 -223 -137q-25 -31 37 -58q64 -29 129 7q213 116 506 495q84 109 164 223q87 123 153 230q74 117 116 203q46 95 50 145q8 94 -195 98zM1447 1533q-4 -30 -48 -79q-47 -53 -92 -65q-33 -8 -117 16
q-14 4 -31 9l-27 9q-28 9 -33 9q-48 12 -86 0l-36 -14q-13 -7 -22 -15q-10 -9 -14 -20q-5 -11 -12 -2q-7 8 -7 19q4 35 57 89q59 61 111 58q27 -1 66 -13l68 -22q86 -27 129 -12l16 5l23 9q13 7 21 15q11 9 15 20q5 13 12 3q7 -8 7 -19z" />
    <glyph glyph-name="itilde" unicode="&#x129;" horiz-adv-x="278" 
d="M342 573q25 23 -53 12q-78 -10 -98 -38l-44 -64q-39 -57 -69 -106l-62 -102q-40 -70 -47 -107q-9 -50 34 -61q30 -8 79 4q41 7 116 57q70 46 124 98l8 10q2 9 1 19q-1 11 -5 14q-7 4 -12 -2q-34 -35 -87 -78q-25 -20 -43 -33q-20 -14 -28 -16q-49 -17 -37 29
q14 61 54 134q33 59 79 122q23 32 53 66zM617 797q-6 8 -10 -3q-3 -8 -12 -16q-7 -7 -18 -12l-18 -8l-14 -4q-36 -13 -107 10l-56 18q-33 10 -55 11q-43 2 -92 -49q-43 -44 -47 -73q0 -9 6 -16t10 2q3 9 12 17q7 6 17 12l30 12q32 9 72 0q4 -1 27 -8l22 -7q14 -5 26 -8
q70 -20 97 -13q37 10 77 54q35 40 39 65q0 9 -6 16z" />
    <glyph glyph-name="Utilde" unicode="&#x168;" horiz-adv-x="1380" 
d="M1696 1012q-33 22 -80 17q-57 -7 -100 -54q-44 -49 -96 -120q-40 -55 -93 -134q-17 -25 -44 -66l-42 -64q-47 -71 -75 -110q-129 -170 -336 -311q-17 -11 -50 -25q-39 -16 -69 -22q-86 -16 -49 59q20 40 112 168q34 48 92 126l211 287l101 141q105 151 146 229
q51 101 -3 128q-39 20 -141 1q-79 -16 -207 -74q-142 -64 -282 -152q-162 -102 -284 -216q-141 -132 -214 -267q-93 -174 29 -182q120 -8 186 92q-107 0 -33 172q65 151 253 302q177 142 345 196q68 20 105 6q50 -18 16 -99q-38 -86 -117 -208q-69 -107 -168 -240
q-83 -112 -185 -238q-82 -102 -171 -207q-108 -126 -15 -173q93 -48 273 49q45 23 107 71q53 40 116 96q109 96 185 179q-86 -119 -110 -231q-26 -125 65 -118q71 5 199 93q124 85 219 190q24 33 10 53q-2 2 -6 -2l-60 -55q-36 -32 -64 -53q-73 -58 -120 -68q-32 -5 -40 27
q-7 27 3 61q59 194 189 375q120 166 307 332l5 1q4 1 5 3q5 12 -25 35zM1859 1533q-5 -30 -48 -79q-47 -53 -92 -65q-33 -8 -117 16q-14 4 -31 9l-27 9q-28 9 -33 9q-48 12 -86 0l-36 -14q-13 -7 -22 -15q-11 -9 -15 -20t-12 -2q-6 8 -6 19q4 35 57 89q59 61 111 58
q26 -1 65 -13l69 -22q85 -27 129 -12l16 5l22 9q13 7 22 15q11 9 15 20q5 13 12 3q7 -8 7 -19z" />
    <glyph glyph-name="utilde" unicode="&#x169;" horiz-adv-x="534" 
d="M567 584q-77 -10 -98 -37l-110 -170q-40 -62 -96 -118q-63 -64 -107 -77q-48 -12 -37 31q17 63 67 148q41 71 93 137q43 56 63 73q24 24 -53 13q-78 -10 -98 -37q-33 -47 -113 -170l-28 -46q-21 -33 -34 -55q-40 -69 -47 -108q-9 -49 35 -62q29 -8 78 0q94 19 189 113
q-4 -7 -6 -12l-17 -39q-9 -49 34 -62q30 -8 79 0q50 11 124 61q64 43 123 101q9 3 9 13q6 16 -2 28q-7 6 -13 0q-50 -48 -91 -82q-53 -44 -77 -51q-48 -12 -37 33q18 69 68 154q37 64 90 135q38 46 66 73q24 24 -54 13zM733 797q-6 8 -10 -3q-3 -8 -12 -16q-7 -7 -18 -12
l-18 -8l-14 -4q-36 -13 -107 10l-56 18q-33 10 -55 11q-43 2 -92 -49q-43 -44 -47 -73q0 -9 6 -16t10 2q3 9 12 17q7 6 17 12l30 12q32 9 72 0q4 -1 27 -8l22 -7q14 -5 26 -8q70 -20 97 -13q37 10 77 54q35 40 39 65q0 9 -6 16z" />
    <glyph glyph-name="Ohorn" unicode="&#x1a0;" horiz-adv-x="1792" 
d="M1587 313q-127 -123 -296 -180q-186 -61 -378 -58q-207 3 -347 83q-144 82 -210 221q-73 155 -1 301q69 139 236 235q145 83 331 117q133 24 281 23q170 -1 313 -35q123 -31 187 -101q68 -77 43 -176q-36 -143 -203 -219l-9 -3l-40 -16q-43 -15 -87 -24q-59 -12 -123 -12
q-77 0 -159 16q-29 -119 125 -133q141 -11 310 87q152 88 227 198q-60 -189 -200 -324zM1889 760q84 168 -54 284q-117 99 -335 123q-225 25 -473 -12q-212 -31 -412 -139q-222 -119 -344 -291q-169 -238 -50 -455q109 -201 382 -270q221 -57 504 0q208 41 386 143
q208 119 322 295q43 65 70 135q34 86 29 144q-3 27 -25 43zM1880 938l-61 -37q9 -11 24 -8q61 8 140 35t136 81q26 25 24.5 54t-26.5 47q-63 40 -147 3q50 -52 39.5 -87t-65.5 -64q-32 -17 -67 -26q1 1 3 2z" />
    <glyph glyph-name="ohorn" unicode="&#x1a1;" horiz-adv-x="499" 
d="M353 266q-63 -73 -131 -94q-84 -23 -117 31q-27 47 -2 119q23 66 80 124q73 77 144 86q-7 -7 -7 -25q1 -16 7 -32l6 -9q3 -5 6 -5q11 41 53 74q50 40 53 -23q10 -123 -92 -246zM542 616q-61 39 -146 -30q-23 22 -94 -4q-56 -20 -117 -60q-207 -133 -213 -303
q-2 -118 119 -121q95 -3 186 49q64 38 102 68q61 49 116 121q61 83 75 169l2 14q20 5 42 13q55 18 94 55q18 18 17 38t-18 32q-44 27 -87 -2q20 -32 12.5 -56t-45.5 -44q-6 -4 -13 -7q-1 49 -32 68z" />
    <glyph glyph-name="Uhorn" unicode="&#x1af;" horiz-adv-x="1380" 
d="M1754 928q79 27 135 81q27 25 25.5 54t-27.5 47q-62 40 -147 3q51 -52 40 -87t-66 -64q-15 -8 -32 -15q15 13 29 26l5 1q4 1 5 3q5 12 -25 35q-33 22 -80 17q-56 -7 -100 -54q-44 -49 -96 -120q-40 -55 -93 -134q-17 -25 -44 -66l-41 -64q-48 -71 -76 -110
q-129 -170 -336 -311q-16 -11 -50 -25q-39 -16 -69 -22q-86 -16 -49 59q20 40 112 168q35 48 92 126l211 287l101 141q105 151 146 229q51 101 -3 128q-39 20 -141 1q-79 -16 -207 -74q-142 -64 -282 -152q-162 -102 -284 -216q-141 -132 -214 -267q-93 -174 29 -182
q121 -8 186 92q-107 0 -32 172q64 151 252 302q177 142 346 196q68 20 105 6q49 -18 15 -99q-38 -86 -117 -208q-69 -107 -168 -240q-83 -112 -185 -238q-82 -102 -171 -207q-108 -126 -15 -173q93 -48 273 49q45 23 107 71q54 40 116 96q109 96 185 179q-86 -119 -109 -231
q-27 -125 64 -118q71 5 199 93q125 85 219 190q24 33 10 53q-2 2 -6 -2l-60 -55q-36 -32 -64 -53q-73 -58 -120 -68q-32 -5 -40 27q-6 27 3 61q59 194 190 375q91 127 222 254q57 9 127 33z" />
    <glyph glyph-name="uhorn" unicode="&#x1b0;" horiz-adv-x="534" 
d="M567 584q-77 -10 -98 -37l-110 -170q-40 -62 -96 -118q-63 -64 -107 -77q-48 -12 -37 31q17 63 67 148q41 71 93 137q43 56 63 73q24 24 -53 13q-78 -10 -98 -37q-33 -47 -113 -170l-28 -46q-21 -33 -34 -55q-40 -69 -47 -108q-9 -49 35 -62q29 -8 78 0q94 19 189 113
q-4 -7 -6 -12l-17 -39q-9 -49 34 -62q30 -8 79 0q50 11 124 61q64 43 123 101q9 3 9 13q6 16 -2 28q-7 6 -13 0q-50 -48 -91 -82q-53 -44 -77 -51q-48 -12 -37 33q18 69 68 154q37 64 90 135q38 46 66 73q24 24 -54 13zM568 538l-42 -26q6 -7 16 -5q43 6 97.5 24.5
t93.5 55.5q19 18 18 38t-19 32q-43 27 -87 -2q20 -32 12.5 -56t-45.5 -44q-22 -12 -46 -18q1 0 2 1z" />
    <glyph glyph-name="uni1EA0" unicode="&#x1ea0;" 
d="M1723 753q-45 -63 -146 -96q-4 -12 18 -21q11 -4 24 -3q16 1 31 10q-98 -119 -210 -222q-135 -123 -268 -202q-157 -93 -301 -117q-165 -28 -308 35q-158 71 -214 215q-59 155 30 332q69 140 226 232q137 81 322 116q94 17 187 21q104 3 199 -10q225 -32 380 -154
q81 -62 30 -136zM1880 918q7 60 -51 102q-138 101 -370 136q-213 32 -427 -1q-213 -32 -413 -138q-223 -119 -343 -292q-154 -223 -75 -445q76 -215 302 -264q224 -47 436 5q235 59 406 231q-49 -64 -75 -101q-41 -60 -52 -90q-27 -70 64 -59q27 4 96 32q80 33 113 60
q7 8 4 12q-40 62 41 197q49 80 139 194q84 106 143 167l11 6q2 11 -37 18q-37 6 -66 2q52 41 105 119q44 65 49 109zM805 -170q-102 -77 -80 -150q25 -67 129 11q106 79 80 149q-23 70 -129 -10z" />
    <glyph glyph-name="uni1EA1" unicode="&#x1ea1;" horiz-adv-x="602" 
d="M373 317l-41 -53q-52 -63 -132 -82q-93 -23 -91 80q1 99 87 187q80 82 167 94q67 7 80 -43q16 -59 -74 -162l9 -1q6 0 9 1q-7 -11 -14 -21zM654 297q-2 9 -5 10q-3 6 -10 2l-34 -32q-30 -29 -54 -48q-74 -58 -98 -36q-31 30 67 149q11 12 -14 16q-20 2 -49 -2
q75 47 98 121q23 75 -31 103q-119 63 -321 -60q-100 -60 -163 -141q-70 -88 -69 -168q2 -88 76 -106q64 -14 156 24q66 28 113 72q-46 -89 14 -105q42 -11 100 13q45 19 109 65l52 45q39 34 56 51q8 9 8 15t-1 12zM145 16q-76 -57 -59 -111q18 -50 95 8q78 58 59 110
q-17 52 -95 -7z" />
    <glyph glyph-name="uni1EA2" unicode="&#x1ea2;" 
d="M1723 753q-45 -63 -146 -96q-4 -12 18 -21q11 -4 24 -3q16 1 31 10q-98 -119 -210 -222q-135 -123 -268 -202q-157 -93 -301 -117q-165 -28 -308 35q-158 71 -214 215q-59 155 30 332q69 140 226 232q137 81 322 116q94 17 187 21q104 3 199 -10q225 -32 380 -154
q81 -62 30 -136zM1880 918q7 60 -51 102q-138 101 -370 136q-213 32 -427 -1q-213 -32 -413 -138q-223 -119 -343 -292q-154 -223 -75 -445q76 -215 302 -264q224 -47 436 5q235 59 406 231q-49 -64 -75 -101q-41 -60 -52 -90q-27 -70 64 -59q27 4 96 32q80 33 113 60
q7 8 4 12q-40 62 41 197q49 80 139 194q84 106 143 167l11 6q2 11 -37 18q-37 6 -66 2q52 41 105 119q44 65 49 109zM1479 1302q19 10 39.5 18.5t41.5 14.5q53 15 89 31.5t58 34.5q31 23 41.5 45.5t12.5 45.5q2 43 -29 58.5t-74 10t-69.5 -30t-23.5 -47.5q3 -29 39 -31
t79 21q16 12 17 2t-5 -22q-14 -13 -50 -27t-68.5 -18.5t-68.5 7t-34.5 48t58.5 75t131 48.5q27 3 63.5 1.5t68 -12.5t49 -33.5t14.5 -61t-36.5 -67t-81.5 -47.5q-42 -17 -85 -31t-65.5 -22.5t-15.5 -23t28 -19.5q-15 -26 -63 -28.5t-68 16.5t8 44z" />
    <glyph glyph-name="uni1EA3" unicode="&#x1ea3;" horiz-adv-x="602" 
d="M373 317l-41 -53q-52 -63 -132 -82q-93 -23 -91 80q1 99 87 187q80 82 167 94q67 7 80 -43q16 -59 -74 -162l9 -1q6 0 9 1q-7 -11 -14 -21zM654 297q-2 9 -5 10q-3 6 -10 2l-34 -32q-30 -29 -54 -48q-74 -58 -98 -36q-31 30 67 149q11 12 -14 16q-20 2 -49 -2
q75 47 98 121q23 75 -31 103q-119 63 -321 -60q-100 -60 -163 -141q-70 -88 -69 -168q2 -88 76 -106q64 -14 156 24q66 28 113 72q-46 -89 14 -105q42 -11 100 13q45 19 109 65l52 45q39 34 56 51q8 9 8 15t-1 12zM477.5 652q40.5 2 53.5 26q-18 5 -24 18.5t13 21t56 20.5
t72 28q40 18 68.5 43.5t31.5 61t-12 56t-41.5 30.5t-57.5 11.5t-54 -1.5q-63 -9 -111.5 -44t-50 -68.5t29 -44t58.5 -6t58.5 17t42.5 24.5q5 10 4.5 19.5t-14.5 -1.5q-37 -21 -67.5 -19t-33.5 28q-2 21 20.5 43.5t59 27.5t63 -9t24.5 -54q-2 -20 -10.5 -41t-35.5 -42
q-18 -16 -49 -31t-76 -29q-17 -6 -34.5 -13.5t-33.5 -16.5q-24 -23 -7 -40.5t57.5 -15.5z" />
    <glyph glyph-name="uni1EA4" unicode="&#x1ea4;" 
d="M1723 753q-45 -63 -146 -96q-4 -12 18 -21q11 -4 24 -3q16 1 31 10q-98 -119 -210 -222q-135 -123 -268 -202q-157 -93 -301 -117q-165 -28 -308 35q-158 71 -214 215q-59 155 30 332q69 140 226 232q137 81 322 116q94 17 187 21q104 3 199 -10q225 -32 380 -154
q81 -62 30 -136zM1880 918q7 60 -51 102q-138 101 -370 136q-213 32 -427 -1q-213 -32 -413 -138q-223 -119 -343 -292q-154 -223 -75 -445q76 -215 302 -264q224 -47 436 5q235 59 406 231q-49 -64 -75 -101q-41 -60 -52 -90q-27 -70 64 -59q27 4 96 32q80 33 113 60
q7 8 4 12q-40 62 41 197q49 80 139 194q84 106 143 167l11 6q2 11 -37 18q-37 6 -66 2q52 41 105 119q44 65 49 109zM1684 1535q-20 -31 -12 -112.5t56 -82.5q-27 -59 -81 -75.5t-84 30.5q-7 12 -11.5 42t2.5 98q-49 -37 -92 -69.5t-121 -68.5q-45 -20 -114 -8q-14 2 -39 11
t-26 19q-1 13 22 10t43 -1q66 13 117.5 35.5t101.5 53.5q53 31 93.5 61.5t91.5 63.5q16 11 35.5 7.5t17.5 -14.5zM2055 1711q30 -1 -9 -79q-35 -70 -85 -129q-2 -2 -5 -3t-3 1q2 30 -33 22q-59 -16 -141 -65l-52 -33q-13 -12 -11 13t15 48q7 17 19 25l154 114q55 39 91 60
q44 26 60 26z" />
    <glyph glyph-name="uni1EA5" unicode="&#x1ea5;" horiz-adv-x="602" 
d="M373 317l-41 -53q-52 -63 -132 -82q-93 -23 -91 80q1 99 87 187q80 82 167 94q67 7 80 -43q16 -59 -74 -162l9 -1q6 0 9 1q-7 -11 -14 -21zM654 297q-2 9 -5 10q-3 6 -10 2l-34 -32q-30 -29 -54 -48q-74 -58 -98 -36q-31 30 67 149q11 12 -14 16q-20 2 -49 -2
q75 47 98 121q23 75 -31 103q-119 63 -321 -60q-100 -60 -163 -141q-70 -88 -69 -168q2 -88 76 -106q64 -14 156 24q66 28 113 72q-46 -89 14 -105q42 -11 100 13q45 19 109 65l52 45q39 34 56 51q8 9 8 15t-1 12zM953 1027q-37 -21 -92 -60l-154 -114q-11 -8 -18 -25
q-14 -23 -16 -48t12 -13l51 33q82 49 141 65q36 8 33 -22q0 -2 3 -1q4 1 5 3q51 59 86 129q38 78 8 79q-15 0 -59 -26zM628 848q-14 3 -26 -5q-37 -25 -67 -47t-68 -45q-37 -22 -74.5 -38.5t-86.5 -26.5q-15 -1 -31.5 1t-15.5 -8q0 -7 18.5 -13.5t28.5 -8.5q51 -8 84 6
q57 26 88.5 50t67.5 52q-6 -51 -2.5 -73t8.5 -30q22 -34 61.5 -22.5t59.5 55.5q-35 1 -41 60.5t9 82.5q1 7 -13 10z" />
    <glyph glyph-name="uni1EA6" unicode="&#x1ea6;" 
d="M1723 753q-45 -63 -146 -96q-4 -12 18 -21q11 -4 24 -3q16 1 31 10q-98 -119 -210 -222q-135 -123 -268 -202q-157 -93 -301 -117q-165 -28 -308 35q-158 71 -214 215q-59 155 30 332q69 140 226 232q137 81 322 116q94 17 187 21q104 3 199 -10q225 -32 380 -154
q81 -62 30 -136zM1880 918q7 60 -51 102q-138 101 -370 136q-213 32 -427 -1q-213 -32 -413 -138q-223 -119 -343 -292q-154 -223 -75 -445q76 -215 302 -264q224 -47 436 5q235 59 406 231q-49 -64 -75 -101q-41 -60 -52 -90q-27 -70 64 -59q27 4 96 32q80 33 113 60
q7 8 4 12q-40 62 41 197q49 80 139 194q84 106 143 167l11 6q2 11 -37 18q-37 6 -66 2q52 41 105 119q44 65 49 109zM1684 1535q-20 -31 -12 -112.5t56 -82.5q-27 -59 -81 -75.5t-84 30.5q-7 12 -11.5 42t2.5 98q-49 -37 -92 -69.5t-121 -68.5q-45 -20 -114 -8q-14 2 -39 11
t-26 19q-1 13 22 10t43 -1q66 13 117.5 35.5t101.5 53.5q53 31 93.5 61.5t91.5 63.5q16 11 35.5 7.5t17.5 -14.5zM1838 1534q13 -19 -24 -19t-52 15q-80 76 -143 192q-31 63 119 125q1 0 2 -3t0 -5q-6 -5 -7 -17q-1 -10 0 -26q9 -90 74 -213z" />
    <glyph glyph-name="uni1EA7" unicode="&#x1ea7;" horiz-adv-x="602" 
d="M373 317l-41 -53q-52 -63 -132 -82q-93 -23 -91 80q1 99 87 187q80 82 167 94q67 7 80 -43q16 -59 -74 -162l9 -1q6 0 9 1q-7 -11 -14 -21zM654 297q-2 9 -5 10q-3 6 -10 2l-34 -32q-30 -29 -54 -48q-74 -58 -98 -36q-31 30 67 149q11 12 -14 16q-20 2 -49 -2
q75 47 98 121q23 75 -31 103q-119 63 -321 -60q-100 -60 -163 -141q-70 -88 -69 -168q2 -88 76 -106q64 -14 156 24q66 28 113 72q-46 -89 14 -105q42 -11 100 13q45 19 109 65l52 45q39 34 56 51q8 9 8 15t-1 12zM740 866q-65 123 -74 213q-1 16 0 26q1 12 7 17q1 2 0 5
t-2 3q-150 -62 -119 -125q63 -116 143 -192q15 -15 52 -15t24 19zM628 848q-14 3 -26 -5q-37 -25 -67 -47t-68 -45q-37 -22 -74.5 -38.5t-86.5 -26.5q-15 -1 -31.5 1t-15.5 -8q0 -7 18.5 -13.5t28.5 -8.5q51 -8 84 6q57 26 88.5 50t67.5 52q-6 -51 -2.5 -73t8.5 -30
q22 -34 61.5 -22.5t59.5 55.5q-35 1 -41 60.5t9 82.5q1 7 -13 10z" />
    <glyph glyph-name="uni1EA8" unicode="&#x1ea8;" 
d="M1723 753q-45 -63 -146 -96q-4 -12 18 -21q11 -4 24 -3q16 1 31 10q-98 -119 -210 -222q-135 -123 -268 -202q-157 -93 -301 -117q-165 -28 -308 35q-158 71 -214 215q-59 155 30 332q69 140 226 232q137 81 322 116q94 17 187 21q104 3 199 -10q225 -32 380 -154
q81 -62 30 -136zM1880 918q7 60 -51 102q-138 101 -370 136q-213 32 -427 -1q-213 -32 -413 -138q-223 -119 -343 -292q-154 -223 -75 -445q76 -215 302 -264q224 -47 436 5q235 59 406 231q-49 -64 -75 -101q-41 -60 -52 -90q-27 -70 64 -59q27 4 96 32q80 33 113 60
q7 8 4 12q-40 62 41 197q49 80 139 194q84 106 143 167l11 6q2 11 -37 18q-37 6 -66 2q52 41 105 119q44 65 49 109zM1684 1535q-20 -31 -12 -112.5t56 -82.5q-27 -59 -81 -75.5t-84 30.5q-7 12 -11.5 42t2.5 98q-49 -37 -92 -69.5t-121 -68.5q-45 -20 -114 -8q-14 2 -39 11
t-26 19q-1 13 22 10t43 -1q66 13 117.5 35.5t101.5 53.5q53 31 93.5 61.5t91.5 63.5q16 11 35.5 7.5t17.5 -14.5zM1740 1475q19 10 39.5 18.5t41.5 14.5q53 15 89 31.5t58 34.5q31 23 41.5 45.5t12.5 45.5q2 43 -29 58.5t-74 10t-69.5 -30t-23.5 -47.5q3 -29 39 -31t79 21
q16 12 17 2t-5 -22q-14 -13 -50 -27t-68.5 -18.5t-68.5 7t-34.5 48t58.5 75t131 48.5q27 3 63.5 1.5t68 -12.5t49 -33.5t14.5 -61t-36.5 -67t-81.5 -47.5q-42 -17 -85 -31t-65.5 -22.5t-15.5 -23t28 -19.5q-15 -26 -63 -28.5t-68 16.5t8 44z" />
    <glyph glyph-name="uni1EA9" unicode="&#x1ea9;" horiz-adv-x="602" 
d="M373 317l-41 -53q-52 -63 -132 -82q-93 -23 -91 80q1 99 87 187q80 82 167 94q67 7 80 -43q16 -59 -74 -162l9 -1q6 0 9 1q-7 -11 -14 -21zM654 297q-2 9 -5 10q-3 6 -10 2l-34 -32q-30 -29 -54 -48q-74 -58 -98 -36q-31 30 67 149q11 12 -14 16q-20 2 -49 -2
q75 47 98 121q23 75 -31 103q-119 63 -321 -60q-100 -60 -163 -141q-70 -88 -69 -168q2 -88 76 -106q64 -14 156 24q66 28 113 72q-46 -89 14 -105q42 -11 100 13q45 19 109 65l52 45q39 34 56 51q8 9 8 15t-1 12zM718.5 731q40.5 2 53.5 26q-18 5 -24 18.5t13 21t56 20.5
t72 28q40 18 68.5 43.5t31.5 61t-12 56t-41.5 30.5t-57.5 11.5t-54 -1.5q-63 -9 -111.5 -44t-50 -68.5t29 -44t58.5 -6t58.5 17t42.5 24.5q5 10 4.5 19.5t-14.5 -1.5q-37 -21 -67.5 -19t-33.5 28q-2 21 20.5 43.5t59 27.5t63 -9t24.5 -54q-2 -20 -10.5 -41t-35.5 -42
q-18 -16 -49 -31t-76 -29q-17 -6 -34.5 -13.5t-33.5 -16.5q-24 -23 -7 -40.5t57.5 -15.5zM628 848q-14 3 -26 -5q-37 -25 -67 -47t-68 -45q-37 -22 -74.5 -38.5t-86.5 -26.5q-15 -1 -31.5 1t-15.5 -8q0 -7 18.5 -13.5t28.5 -8.5q51 -8 84 6q57 26 88.5 50t67.5 52
q-6 -51 -2.5 -73t8.5 -30q22 -34 61.5 -22.5t59.5 55.5q-35 1 -41 60.5t9 82.5q1 7 -13 10z" />
    <glyph glyph-name="uni1EAA" unicode="&#x1eaa;" 
d="M1723 753q-45 -63 -146 -96q-4 -12 18 -21q11 -4 24 -3q16 1 31 10q-98 -119 -210 -222q-135 -123 -268 -202q-157 -93 -301 -117q-165 -28 -308 35q-158 71 -214 215q-59 155 30 332q69 140 226 232q137 81 322 116q94 17 187 21q104 3 199 -10q225 -32 380 -154
q81 -62 30 -136zM1880 918q7 60 -51 102q-138 101 -370 136q-213 32 -427 -1q-213 -32 -413 -138q-223 -119 -343 -292q-154 -223 -75 -445q76 -215 302 -264q224 -47 436 5q235 59 406 231q-49 -64 -75 -101q-41 -60 -52 -90q-27 -70 64 -59q27 4 96 32q80 33 113 60
q7 8 4 12q-40 62 41 197q49 80 139 194q84 106 143 167l11 6q2 11 -37 18q-37 6 -66 2q52 41 105 119q44 65 49 109zM1684 1535q-20 -31 -12 -112.5t56 -82.5q-27 -59 -81 -75.5t-84 30.5q-7 12 -11.5 42t2.5 98q-49 -37 -92 -69.5t-121 -68.5q-45 -20 -114 -8q-14 2 -39 11
t-26 19q-1 13 22 10t43 -1q66 13 117.5 35.5t101.5 53.5q53 31 93.5 61.5t91.5 63.5q16 11 35.5 7.5t17.5 -14.5zM1985 1707q-4 -30 -47 -79q-48 -53 -93 -65q-33 -8 -117 16q-14 4 -31 9l-27 9q-28 9 -32 9q-48 12 -87 0l-36 -14q-13 -7 -21 -15q-11 -9 -15 -20
q-5 -11 -12 -2q-7 8 -7 19q5 35 57 89q59 61 111 58q27 -1 66 -13l69 -22q85 -27 129 -12l16 5l22 9q13 7 22 15q10 9 14 20q5 13 12 3q7 -8 7 -19z" />
    <glyph glyph-name="uni1EAB" unicode="&#x1eab;" horiz-adv-x="602" 
d="M373 317l-41 -53q-52 -63 -132 -82q-93 -23 -91 80q1 99 87 187q80 82 167 94q67 7 80 -43q16 -59 -74 -162l9 -1q6 0 9 1q-7 -11 -14 -21zM654 297q-2 9 -5 10q-3 6 -10 2l-34 -32q-30 -29 -54 -48q-74 -58 -98 -36q-31 30 67 149q11 12 -14 16q-20 2 -49 -2
q75 47 98 121q23 75 -31 103q-119 63 -321 -60q-100 -60 -163 -141q-70 -88 -69 -168q2 -88 76 -106q64 -14 156 24q66 28 113 72q-46 -89 14 -105q42 -11 100 13q45 19 109 65l52 45q39 34 56 51q8 9 8 15t-1 12zM896 984q-6 8 -10 -3q-3 -8 -12 -16q-7 -7 -18 -12l-19 -8
l-13 -4q-36 -13 -107 10l-57 18q-32 10 -54 11q-43 2 -92 -49q-44 -44 -47 -73q0 -9 5 -16q6 -7 10 2t12 17q7 6 18 12l30 12q32 9 72 0q4 -1 27 -8l22 -7q14 -5 26 -8q69 -20 96 -13q38 10 77 54q36 40 39 65q0 9 -5 16zM628 848q-14 3 -26 -5q-37 -25 -67 -47t-68 -45
q-37 -22 -74.5 -38.5t-86.5 -26.5q-15 -1 -31.5 1t-15.5 -8q0 -7 18.5 -13.5t28.5 -8.5q51 -8 84 6q57 26 88.5 50t67.5 52q-6 -51 -2.5 -73t8.5 -30q22 -34 61.5 -22.5t59.5 55.5q-35 1 -41 60.5t9 82.5q1 7 -13 10z" />
    <glyph glyph-name="uni1EAC" unicode="&#x1eac;" 
d="M1723 753q-45 -63 -146 -96q-4 -12 18 -21q11 -4 24 -3q16 1 31 10q-98 -119 -210 -222q-135 -123 -268 -202q-157 -93 -301 -117q-165 -28 -308 35q-158 71 -214 215q-59 155 30 332q69 140 226 232q137 81 322 116q94 17 187 21q104 3 199 -10q225 -32 380 -154
q81 -62 30 -136zM1880 918q7 60 -51 102q-138 101 -370 136q-213 32 -427 -1q-213 -32 -413 -138q-223 -119 -343 -292q-154 -223 -75 -445q76 -215 302 -264q224 -47 436 5q235 59 406 231q-49 -64 -75 -101q-41 -60 -52 -90q-27 -70 64 -59q27 4 96 32q80 33 113 60
q7 8 4 12q-40 62 41 197q49 80 139 194q84 106 143 167l11 6q2 11 -37 18q-37 6 -66 2q52 41 105 119q44 65 49 109zM1684 1535q-20 -31 -12 -112.5t56 -82.5q-27 -59 -81 -75.5t-84 30.5q-7 12 -11.5 42t2.5 98q-49 -37 -92 -69.5t-121 -68.5q-45 -20 -114 -8q-14 2 -39 11
t-26 19q-1 13 22 10t43 -1q66 13 117.5 35.5t101.5 53.5q53 31 93.5 61.5t91.5 63.5q16 11 35.5 7.5t17.5 -14.5zM858 -170q-103 -77 -80 -150q25 -67 129 11q106 79 80 149q-23 70 -129 -10z" />
    <glyph glyph-name="uni1EAD" unicode="&#x1ead;" horiz-adv-x="602" 
d="M373 317l-41 -53q-52 -63 -132 -82q-93 -23 -91 80q1 99 87 187q80 82 167 94q67 7 80 -43q16 -59 -74 -162l9 -1q6 0 9 1q-7 -11 -14 -21zM654 297q-2 9 -5 10q-3 6 -10 2l-34 -32q-30 -29 -54 -48q-74 -58 -98 -36q-31 30 67 149q11 12 -14 16q-20 2 -49 -2
q75 47 98 121q23 75 -31 103q-119 63 -321 -60q-100 -60 -163 -141q-70 -88 -69 -168q2 -88 76 -106q64 -14 156 24q66 28 113 72q-46 -89 14 -105q42 -11 100 13q45 19 109 65l52 45q39 34 56 51q8 9 8 15t-1 12zM145 16q-76 -57 -59 -111q18 -50 95 8q78 58 59 110
q-17 52 -95 -7zM628 848q-14 3 -26 -5q-37 -25 -67 -47t-68 -45q-37 -22 -74.5 -38.5t-86.5 -26.5q-15 -1 -31.5 1t-15.5 -8q0 -7 18.5 -13.5t28.5 -8.5q51 -8 84 6q57 26 88.5 50t67.5 52q-6 -51 -2.5 -73t8.5 -30q22 -34 61.5 -22.5t59.5 55.5q-35 1 -41 60.5t9 82.5
q1 7 -13 10z" />
    <glyph glyph-name="uni1EAE" unicode="&#x1eae;" 
d="M1723 753q-45 -63 -146 -96q-4 -12 18 -21q11 -4 24 -3q16 1 31 10q-98 -119 -210 -222q-135 -123 -268 -202q-157 -93 -301 -117q-165 -28 -308 35q-158 71 -214 215q-59 155 30 332q69 140 226 232q137 81 322 116q94 17 187 21q104 3 199 -10q225 -32 380 -154
q81 -62 30 -136zM1880 918q7 60 -51 102q-138 101 -370 136q-213 32 -427 -1q-213 -32 -413 -138q-223 -119 -343 -292q-154 -223 -75 -445q76 -215 302 -264q224 -47 436 5q235 59 406 231q-49 -64 -75 -101q-41 -60 -52 -90q-27 -70 64 -59q27 4 96 32q80 33 113 60
q7 8 4 12q-40 62 41 197q49 80 139 194q84 106 143 167l11 6q2 11 -37 18q-37 6 -66 2q52 41 105 119q44 65 49 109zM1566.5 1244q-132.5 -13 -248.5 53q-22 9 -61.5 52t-11.5 92q45 26 92.5 8.5t66.5 -42.5q-46 -26 -4.5 -68.5t128 -42t150 44.5t78.5 112q68 -3 77.5 -46
t-45.5 -86q-89 -64 -221.5 -77zM1861 1711q30 -1 -9 -79q-35 -70 -85 -129q-2 -2 -5 -3t-3 1q2 30 -33 22q-59 -16 -141 -65l-52 -33q-13 -12 -11 13t15 48q7 17 19 25l154 114q55 39 91 60q44 26 60 26z" />
    <glyph glyph-name="uni1EAF" unicode="&#x1eaf;" horiz-adv-x="602" 
d="M373 317l-41 -53q-52 -63 -132 -82q-93 -23 -91 80q1 99 87 187q80 82 167 94q67 7 80 -43q16 -59 -74 -162l9 -1q6 0 9 1q-7 -11 -14 -21zM654 297q-2 9 -5 10q-3 6 -10 2l-34 -32q-30 -29 -54 -48q-74 -58 -98 -36q-31 30 67 149q11 12 -14 16q-20 2 -49 -2
q75 47 98 121q23 75 -31 103q-119 63 -321 -60q-100 -60 -163 -141q-70 -88 -69 -168q2 -88 76 -106q64 -14 156 24q66 28 113 72q-46 -89 14 -105q42 -11 100 13q45 19 109 65l52 45q39 34 56 51q8 9 8 15t-1 12zM766 1027q-37 -21 -92 -60l-154 -114q-11 -8 -18 -25
q-14 -23 -16 -48t12 -13l51 33q82 49 141 65q36 8 33 -22q0 -2 3 -1q4 1 5 3q51 59 86 129q38 78 8 79q-15 0 -59 -26zM633 691q33 30 27 59t-63 26q-9 -46 -42.5 -65.5t-78.5 -19t-74.5 21t-2.5 45.5q-12 17 -41 29t-56 -6q-16 -41 8 -70t38 -36q70 -45 150.5 -36t134.5 52
z" />
    <glyph glyph-name="uni1EB0" unicode="&#x1eb0;" 
d="M1723 753q-45 -63 -146 -96q-4 -12 18 -21q11 -4 24 -3q16 1 31 10q-98 -119 -210 -222q-135 -123 -268 -202q-157 -93 -301 -117q-165 -28 -308 35q-158 71 -214 215q-59 155 30 332q69 140 226 232q137 81 322 116q94 17 187 21q104 3 199 -10q225 -32 380 -154
q81 -62 30 -136zM1880 918q7 60 -51 102q-138 101 -370 136q-213 32 -427 -1q-213 -32 -413 -138q-223 -119 -343 -292q-154 -223 -75 -445q76 -215 302 -264q224 -47 436 5q235 59 406 231q-49 -64 -75 -101q-41 -60 -52 -90q-27 -70 64 -59q27 4 96 32q80 33 113 60
q7 8 4 12q-40 62 41 197q49 80 139 194q84 106 143 167l11 6q2 11 -37 18q-37 6 -66 2q52 41 105 119q44 65 49 109zM1566.5 1244q-132.5 -13 -248.5 53q-22 9 -61.5 52t-11.5 92q45 26 92.5 8.5t66.5 -42.5q-46 -26 -4.5 -68.5t128 -42t150 44.5t78.5 112q68 -3 77.5 -46
t-45.5 -86q-89 -64 -221.5 -77zM1586 1476q13 -19 -24 -19t-52 15q-80 76 -143 192q-31 63 119 125q1 0 2 -3t0 -5q-6 -5 -7 -17q-1 -10 0 -26q9 -90 74 -213z" />
    <glyph glyph-name="uni1EB1" unicode="&#x1eb1;" horiz-adv-x="602" 
d="M373 317l-41 -53q-52 -63 -132 -82q-93 -23 -91 80q1 99 87 187q80 82 167 94q67 7 80 -43q16 -59 -74 -162l9 -1q6 0 9 1q-7 -11 -14 -21zM654 297q-2 9 -5 10q-3 6 -10 2l-34 -32q-30 -29 -54 -48q-74 -58 -98 -36q-31 30 67 149q11 12 -14 16q-20 2 -49 -2
q75 47 98 121q23 75 -31 103q-119 63 -321 -60q-100 -60 -163 -141q-70 -88 -69 -168q2 -88 76 -106q64 -14 156 24q66 28 113 72q-46 -89 14 -105q42 -11 100 13q45 19 109 65l52 45q39 34 56 51q8 9 8 15t-1 12zM487 831q-65 123 -74 213q-1 16 0 26q1 12 7 17q1 2 0 5
t-2 3q-150 -62 -119 -125q63 -116 143 -192q15 -15 52 -15t24 19zM633 691q33 30 27 59t-63 26q-9 -46 -42.5 -65.5t-78.5 -19t-74.5 21t-2.5 45.5q-12 17 -41 29t-56 -6q-16 -41 8 -70t38 -36q70 -45 150.5 -36t134.5 52z" />
    <glyph glyph-name="uni1EB2" unicode="&#x1eb2;" 
d="M1723 753q-45 -63 -146 -96q-4 -12 18 -21q11 -4 24 -3q16 1 31 10q-98 -119 -210 -222q-135 -123 -268 -202q-157 -93 -301 -117q-165 -28 -308 35q-158 71 -214 215q-59 155 30 332q69 140 226 232q137 81 322 116q94 17 187 21q104 3 199 -10q225 -32 380 -154
q81 -62 30 -136zM1880 918q7 60 -51 102q-138 101 -370 136q-213 32 -427 -1q-213 -32 -413 -138q-223 -119 -343 -292q-154 -223 -75 -445q76 -215 302 -264q224 -47 436 5q235 59 406 231q-49 -64 -75 -101q-41 -60 -52 -90q-27 -70 64 -59q27 4 96 32q80 33 113 60
q7 8 4 12q-40 62 41 197q49 80 139 194q84 106 143 167l11 6q2 11 -37 18q-37 6 -66 2q52 41 105 119q44 65 49 109zM1566.5 1244q-132.5 -13 -248.5 53q-22 9 -61.5 52t-11.5 92q45 26 92.5 8.5t66.5 -42.5q-46 -26 -4.5 -68.5t128 -42t150 44.5t78.5 112q68 -3 77.5 -46
t-45.5 -86q-89 -64 -221.5 -77zM1508 1475q19 10 39.5 18.5t41.5 14.5q53 15 89 31.5t58 34.5q31 23 41.5 45.5t12.5 45.5q2 43 -29 58.5t-74 10t-69.5 -30t-23.5 -47.5q3 -29 39 -31t79 21q16 12 17 2t-5 -22q-14 -13 -50 -27t-68.5 -18.5t-68.5 7t-34.5 48t58.5 75
t131 48.5q27 3 63.5 1.5t68 -12.5t49 -33.5t14.5 -61t-36.5 -67t-81.5 -47.5q-42 -17 -85 -31t-65.5 -22.5t-15.5 -23t28 -19.5q-15 -26 -63 -28.5t-68 16.5t8 44z" />
    <glyph glyph-name="uni1EB3" unicode="&#x1eb3;" horiz-adv-x="602" 
d="M373 317l-41 -53q-52 -63 -132 -82q-93 -23 -91 80q1 99 87 187q80 82 167 94q67 7 80 -43q16 -59 -74 -162l9 -1q6 0 9 1q-7 -11 -14 -21zM654 297q-2 9 -5 10q-3 6 -10 2l-34 -32q-30 -29 -54 -48q-74 -58 -98 -36q-31 30 67 149q11 12 -14 16q-20 2 -49 -2
q75 47 98 121q23 75 -31 103q-119 63 -321 -60q-100 -60 -163 -141q-70 -88 -69 -168q2 -88 76 -106q64 -14 156 24q66 28 113 72q-46 -89 14 -105q42 -11 100 13q45 19 109 65l52 45q39 34 56 51q8 9 8 15t-1 12zM497.5 736q40.5 2 53.5 26q-18 5 -24 18.5t13 21t56 20.5
t72 28q40 18 68.5 43.5t31.5 61t-12 56t-41.5 30.5t-57.5 11.5t-54 -1.5q-63 -9 -111.5 -44t-50 -68.5t29 -44t58.5 -6t58.5 17t42.5 24.5q5 10 4.5 19.5t-14.5 -1.5q-37 -21 -67.5 -19t-33.5 28q-2 21 20.5 43.5t59 27.5t63 -9t24.5 -54q-2 -20 -10.5 -41t-35.5 -42
q-18 -16 -49 -31t-76 -29q-17 -6 -34.5 -13.5t-33.5 -16.5q-24 -23 -7 -40.5t57.5 -15.5zM633 691q33 30 27 59t-63 26q-9 -46 -42.5 -65.5t-78.5 -19t-74.5 21t-2.5 45.5q-12 17 -41 29t-56 -6q-16 -41 8 -70t38 -36q70 -45 150.5 -36t134.5 52z" />
    <glyph glyph-name="uni1EB4" unicode="&#x1eb4;" 
d="M1723 753q-45 -63 -146 -96q-4 -12 18 -21q11 -4 24 -3q16 1 31 10q-98 -119 -210 -222q-135 -123 -268 -202q-157 -93 -301 -117q-165 -28 -308 35q-158 71 -214 215q-59 155 30 332q69 140 226 232q137 81 322 116q94 17 187 21q104 3 199 -10q225 -32 380 -154
q81 -62 30 -136zM1880 918q7 60 -51 102q-138 101 -370 136q-213 32 -427 -1q-213 -32 -413 -138q-223 -119 -343 -292q-154 -223 -75 -445q76 -215 302 -264q224 -47 436 5q235 59 406 231q-49 -64 -75 -101q-41 -60 -52 -90q-27 -70 64 -59q27 4 96 32q80 33 113 60
q7 8 4 12q-40 62 41 197q49 80 139 194q84 106 143 167l11 6q2 11 -37 18q-37 6 -66 2q52 41 105 119q44 65 49 109zM1566.5 1244q-132.5 -13 -248.5 53q-22 9 -61.5 52t-11.5 92q45 26 92.5 8.5t66.5 -42.5q-46 -26 -4.5 -68.5t128 -42t150 44.5t78.5 112q68 -3 77.5 -46
t-45.5 -86q-89 -64 -221.5 -77zM1966 1629q-4 -30 -47 -79q-48 -53 -93 -65q-33 -8 -117 16q-14 4 -31 9l-27 9q-28 9 -32 9q-48 12 -87 0l-36 -14q-13 -7 -21 -15q-11 -9 -15 -20q-5 -11 -12 -2q-7 8 -7 19q5 35 57 89q59 61 111 58q27 -1 66 -13l69 -22q85 -27 129 -12
l16 5l22 9q13 7 22 15q10 9 14 20q5 13 12 3q7 -8 7 -19z" />
    <glyph glyph-name="uni1EB5" unicode="&#x1eb5;" horiz-adv-x="602" 
d="M373 317l-41 -53q-52 -63 -132 -82q-93 -23 -91 80q1 99 87 187q80 82 167 94q67 7 80 -43q16 -59 -74 -162l9 -1q6 0 9 1q-7 -11 -14 -21zM654 297q-2 9 -5 10q-3 6 -10 2l-34 -32q-30 -29 -54 -48q-74 -58 -98 -36q-31 30 67 149q11 12 -14 16q-20 2 -49 -2
q75 47 98 121q23 75 -31 103q-119 63 -321 -60q-100 -60 -163 -141q-70 -88 -69 -168q2 -88 76 -106q64 -14 156 24q66 28 113 72q-46 -89 14 -105q42 -11 100 13q45 19 109 65l52 45q39 34 56 51q8 9 8 15t-1 12zM830 939q-6 8 -10 -3q-3 -8 -12 -16q-7 -7 -18 -12l-19 -8
l-13 -4q-36 -13 -107 10l-57 18q-32 10 -54 11q-43 2 -92 -49q-44 -44 -47 -73q0 -9 5 -16q6 -7 10 2t12 17q7 6 18 12l30 12q32 9 72 0q4 -1 27 -8l22 -7q14 -5 26 -8q69 -20 96 -13q38 10 77 54q36 40 39 65q0 9 -5 16zM633 691q33 30 27 59t-63 26q-9 -46 -42.5 -65.5
t-78.5 -19t-74.5 21t-2.5 45.5q-12 17 -41 29t-56 -6q-16 -41 8 -70t38 -36q70 -45 150.5 -36t134.5 52z" />
    <glyph glyph-name="uni1EB6" unicode="&#x1eb6;" 
d="M1723 753q-45 -63 -146 -96q-4 -12 18 -21q11 -4 24 -3q16 1 31 10q-98 -119 -210 -222q-135 -123 -268 -202q-157 -93 -301 -117q-165 -28 -308 35q-158 71 -214 215q-59 155 30 332q69 140 226 232q137 81 322 116q94 17 187 21q104 3 199 -10q225 -32 380 -154
q81 -62 30 -136zM1880 918q7 60 -51 102q-138 101 -370 136q-213 32 -427 -1q-213 -32 -413 -138q-223 -119 -343 -292q-154 -223 -75 -445q76 -215 302 -264q224 -47 436 5q235 59 406 231q-49 -64 -75 -101q-41 -60 -52 -90q-27 -70 64 -59q27 4 96 32q80 33 113 60
q7 8 4 12q-40 62 41 197q49 80 139 194q84 106 143 167l11 6q2 11 -37 18q-37 6 -66 2q52 41 105 119q44 65 49 109zM1566.5 1244q-132.5 -13 -248.5 53q-22 9 -61.5 52t-11.5 92q45 26 92.5 8.5t66.5 -42.5q-46 -26 -4.5 -68.5t128 -42t150 44.5t78.5 112q68 -3 77.5 -46
t-45.5 -86q-89 -64 -221.5 -77zM858 -170q-103 -77 -80 -150q25 -67 129 11q106 79 80 149q-23 70 -129 -10z" />
    <glyph glyph-name="uni1EB7" unicode="&#x1eb7;" horiz-adv-x="602" 
d="M373 317l-41 -53q-52 -63 -132 -82q-93 -23 -91 80q1 99 87 187q80 82 167 94q67 7 80 -43q16 -59 -74 -162l9 -1q6 0 9 1q-7 -11 -14 -21zM654 297q-2 9 -5 10q-3 6 -10 2l-34 -32q-30 -29 -54 -48q-74 -58 -98 -36q-31 30 67 149q11 12 -14 16q-20 2 -49 -2
q75 47 98 121q23 75 -31 103q-119 63 -321 -60q-100 -60 -163 -141q-70 -88 -69 -168q2 -88 76 -106q64 -14 156 24q66 28 113 72q-46 -89 14 -105q42 -11 100 13q45 19 109 65l52 45q39 34 56 51q8 9 8 15t-1 12zM145 16q-76 -57 -59 -111q18 -50 95 8q78 58 59 110
q-17 52 -95 -7zM633 691q33 30 27 59t-63 26q-9 -46 -42.5 -65.5t-78.5 -19t-74.5 21t-2.5 45.5q-12 17 -41 29t-56 -6q-16 -41 8 -70t38 -36q70 -45 150.5 -36t134.5 52z" />
    <glyph glyph-name="uni1EB8" unicode="&#x1eb8;" horiz-adv-x="1345" 
d="M1905 1300q-132 27 -291 37q-231 18 -500 -34q-175 -33 -378 -124q-218 -97 -316 -198q-111 -113 -97 -204q12 -78 112 -135q85 -47 215 -71q117 -21 214 -14l-140 -29q-96 -22 -174 -49q-100 -36 -175 -81q-88 -55 -141 -124q-112 -147 -4 -231q47 -38 145 -51
q87 -12 205 -5q219 13 387 68q53 18 110 41q79 31 142 64q80 41 127 82q57 47 67 92q23 112 -205 84q-8 0 -6 -8q67 -91 -90 -211q-107 -81 -255 -118q-129 -33 -269 -28q-77 4 -129 24q-63 25 -72 68q-10 50 49 121q58 72 164 129q98 52 221 86q253 68 424 27l10 1
q6 2 11 11q21 43 24 76q3 35 -16 37l-277 18q-52 3 -88 6q-97 7 -167 16q-85 12 -152 29q-135 36 -151 112q-17 82 118 177q87 61 227 111q54 19 114 35q47 13 95 24q284 63 530 56q280 -8 417 -107q73 -54 34 -97q-27 -30 -124 -65q-225 -80 -465 -47l-32 5l-42 10
q-54 13 -95 31q-116 52 -83 122q6 14 24 25q12 8 25 12q-4 20 -45 -4q-96 -59 -51 -152q26 -55 92 -95q44 -27 127 -56q260 -87 551 65q71 37 123 77q62 46 102 97q26 33 38 52q18 27 23 48q13 50 -39 91t-198 71zM523 -170q-103 -77 -80 -150q25 -67 129 11q106 79 80 149
q-23 70 -129 -10z" />
    <glyph glyph-name="uni1EB9" unicode="&#x1eb9;" horiz-adv-x="428" 
d="M279 378q-72 -48 -144 -65q24 150 182 217q69 30 85 7q15 -23 -29 -78q-32 -41 -94 -81zM552 381q-6 14 -11 8q-33 -40 -74 -80q-55 -53 -106 -86q-140 -93 -211 -16q-4 4 -7 10l-8 15q-9 23 -8 42q50 5 138 49q83 42 155 97q145 111 92 161q-51 48 -203 -8
q-147 -54 -244 -171q-95 -114 -73 -203q24 -107 141 -106q88 1 187 54q55 31 123 96q58 55 106 113q10 11 3 25zM163 16q-76 -57 -59 -111q19 -50 96 8q78 58 59 110q-18 52 -96 -7z" />
    <glyph glyph-name="uni1EBA" unicode="&#x1eba;" horiz-adv-x="1345" 
d="M1905 1300q-132 27 -291 37q-231 18 -500 -34q-175 -33 -378 -124q-218 -97 -316 -198q-111 -113 -97 -204q12 -78 112 -135q85 -47 215 -71q117 -21 214 -14l-140 -29q-96 -22 -174 -49q-100 -36 -175 -81q-88 -55 -141 -124q-112 -147 -4 -231q47 -38 145 -51
q87 -12 205 -5q219 13 387 68q53 18 110 41q79 31 142 64q80 41 127 82q57 47 67 92q23 112 -205 84q-8 0 -6 -8q67 -91 -90 -211q-107 -81 -255 -118q-129 -33 -269 -28q-77 4 -129 24q-63 25 -72 68q-10 50 49 121q58 72 164 129q98 52 221 86q253 68 424 27l10 1
q6 2 11 11q21 43 24 76q3 35 -16 37l-277 18q-52 3 -88 6q-97 7 -167 16q-85 12 -152 29q-135 36 -151 112q-17 82 118 177q87 61 227 111q54 19 114 35q47 13 95 24q284 63 530 56q280 -8 417 -107q73 -54 34 -97q-27 -30 -124 -65q-225 -80 -465 -47l-32 5l-42 10
q-54 13 -95 31q-116 52 -83 122q6 14 24 25q12 8 25 12q-4 20 -45 -4q-96 -59 -51 -152q26 -55 92 -95q44 -27 127 -56q260 -87 551 65q71 37 123 77q62 46 102 97q26 33 38 52q18 27 23 48q13 50 -39 91t-198 71zM1378 1377.5q48 2.5 63 28.5q-22 5 -29 19.5t15.5 23
t66 22.5t84.5 31q48 19 81.5 47.5t36.5 67t-14 61t-48.5 33.5t-68 12.5t-64.5 -1.5q-73 -10 -130.5 -48.5t-59 -75t34.5 -48t68.5 -7t68.5 18.5t51 27q5 12 4.5 22t-16.5 -2q-44 -23 -80 -21t-39 31q-3 23 24 47.5t70 30t74 -10t28 -58.5q-1 -23 -11.5 -45.5t-41.5 -45.5
q-22 -18 -58 -34.5t-90 -31.5q-20 -6 -41 -14.5t-39 -18.5q-28 -25 -8 -44t68 -16.5z" />
    <glyph glyph-name="uni1EBB" unicode="&#x1ebb;" horiz-adv-x="428" 
d="M279 378q-72 -48 -144 -65q24 150 182 217q69 30 85 7q15 -23 -29 -78q-32 -41 -94 -81zM552 381q-6 14 -11 8q-33 -40 -74 -80q-55 -53 -106 -86q-140 -93 -211 -16q-4 4 -7 10l-8 15q-9 23 -8 42q50 5 138 49q83 42 155 97q145 111 92 161q-51 48 -203 -8
q-147 -54 -244 -171q-95 -114 -73 -203q24 -107 141 -106q88 1 187 54q55 31 123 96q58 55 106 113q10 11 3 25zM496.5 652q40.5 2 52.5 26q-17 5 -23.5 18.5t13 21t56 20.5t71.5 28q41 18 69.5 43.5t31 61t-12.5 56t-41.5 30.5t-57.5 11.5t-54 -1.5q-63 -9 -111 -44
t-49.5 -68.5t29 -44t58 -6t58 17t42.5 24.5q5 10 4.5 19.5t-14.5 -1.5q-36 -21 -67 -19t-33 28q-3 21 19.5 43.5t59.5 27.5t63 -9t24 -54q-1 -20 -10 -41t-35 -42q-19 -16 -49.5 -31t-75.5 -29q-18 -6 -35.5 -13.5t-33.5 -16.5q-24 -23 -6.5 -40.5t58 -15.5z" />
    <glyph glyph-name="uni1EBC" unicode="&#x1ebc;" horiz-adv-x="1345" 
d="M1905 1300q-132 27 -291 37q-231 18 -500 -34q-175 -33 -378 -124q-218 -97 -316 -198q-111 -113 -97 -204q12 -78 112 -135q85 -47 215 -71q117 -21 214 -14l-140 -29q-96 -22 -174 -49q-100 -36 -175 -81q-88 -55 -141 -124q-112 -147 -4 -231q47 -38 145 -51
q87 -12 205 -5q219 13 387 68q53 18 110 41q79 31 142 64q80 41 127 82q57 47 67 92q23 112 -205 84q-8 0 -6 -8q67 -91 -90 -211q-107 -81 -255 -118q-129 -33 -269 -28q-77 4 -129 24q-63 25 -72 68q-10 50 49 121q58 72 164 129q98 52 221 86q253 68 424 27l10 1
q6 2 11 11q21 43 24 76q3 35 -16 37l-277 18q-52 3 -88 6q-97 7 -167 16q-85 12 -152 29q-135 36 -151 112q-17 82 118 177q87 61 227 111q54 19 114 35q47 13 95 24q284 63 530 56q280 -8 417 -107q73 -54 34 -97q-27 -30 -124 -65q-225 -80 -465 -47l-32 5l-42 10
q-54 13 -95 31q-116 52 -83 122q6 14 24 25q12 8 25 12q-4 20 -45 -4q-96 -59 -51 -152q26 -55 92 -95q44 -27 127 -56q260 -87 551 65q71 37 123 77q62 46 102 97q26 33 38 52q18 27 23 48q13 50 -39 91t-198 71zM1776 1581q-4 -30 -48 -79q-47 -53 -92 -65q-33 -8 -117 16
q-14 4 -31 9l-27 9q-28 9 -33 9q-48 12 -86 0l-36 -14q-13 -7 -22 -15q-10 -9 -14 -20q-5 -11 -12 -2q-7 8 -7 19q4 35 57 89q59 61 111 58q27 -1 66 -13l68 -22q86 -27 129 -12l16 5l23 9q13 7 21 15q11 9 15 20q5 13 12 3q7 -8 7 -19z" />
    <glyph glyph-name="uni1EBD" unicode="&#x1ebd;" horiz-adv-x="428" 
d="M279 378q-72 -48 -144 -65q24 150 182 217q69 30 85 7q15 -23 -29 -78q-32 -41 -94 -81zM552 381q-6 14 -11 8q-33 -40 -74 -80q-55 -53 -106 -86q-140 -93 -211 -16q-4 4 -7 10l-8 15q-9 23 -8 42q50 5 138 49q83 42 155 97q145 111 92 161q-51 48 -203 -8
q-147 -54 -244 -171q-95 -114 -73 -203q24 -107 141 -106q88 1 187 54q55 31 123 96q58 55 106 113q10 11 3 25zM733 797q-6 8 -10 -3q-3 -8 -12 -16q-7 -7 -18 -12l-18 -8l-13 -4q-37 -13 -107 10l-57 18q-33 10 -55 11q-43 2 -92 -49q-43 -44 -47 -73q0 -9 6 -16t10 2
q3 9 12 17q7 6 18 12l30 12q31 9 71 0q4 -1 27 -8l22 -7q14 -5 26 -8q70 -20 97 -13q37 10 77 54q35 40 39 65q0 9 -6 16z" />
    <glyph glyph-name="uni1EBE" unicode="&#x1ebe;" horiz-adv-x="1345" 
d="M1905 1300q-132 27 -291 37q-231 18 -500 -34q-175 -33 -378 -124q-218 -97 -316 -198q-111 -113 -97 -204q12 -78 112 -135q85 -47 215 -71q117 -21 214 -14l-140 -29q-96 -22 -174 -49q-100 -36 -175 -81q-88 -55 -141 -124q-112 -147 -4 -231q47 -38 145 -51
q87 -12 205 -5q219 13 387 68q53 18 110 41q79 31 142 64q80 41 127 82q57 47 67 92q23 112 -205 84q-8 0 -6 -8q67 -91 -90 -211q-107 -81 -255 -118q-129 -33 -269 -28q-77 4 -129 24q-63 25 -72 68q-10 50 49 121q58 72 164 129q98 52 221 86q253 68 424 27l10 1
q6 2 11 11q21 43 24 76q3 35 -16 37l-277 18q-52 3 -88 6q-97 7 -167 16q-85 12 -152 29q-135 36 -151 112q-17 82 118 177q87 61 227 111q54 19 114 35q47 13 95 24q284 63 530 56q280 -8 417 -107q73 -54 34 -97q-27 -30 -124 -65q-225 -80 -465 -47l-32 5l-42 10
q-54 13 -95 31q-116 52 -83 122q6 14 24 25q12 8 25 12q-4 20 -45 -4q-96 -59 -51 -152q26 -55 92 -95q44 -27 127 -56q260 -87 551 65q71 37 123 77q62 46 102 97q26 33 38 52q18 27 23 48q13 50 -39 91t-198 71zM1680.5 1684.5q-19.5 3.5 -36.5 -7.5q-50 -33 -90.5 -63.5
t-93.5 -61.5q-50 -31 -101.5 -53.5t-118.5 -35.5q-20 -2 -43 1t-22 -10q2 -10 26.5 -19t39.5 -11q69 -12 114 8q78 36 120.5 68.5t92.5 69.5q-8 -68 -3 -98t11 -42q31 -47 84.5 -30.5t81.5 75.5q-49 1 -57 82.5t13 112.5q2 11 -17.5 14.5zM2078 1847q30 -1 -9 -79
q-35 -70 -86 -129q-1 -2 -4 -3q-4 -1 -4 1q3 30 -32 22q-59 -16 -142 -65l-51 -33q-14 -12 -12 13t16 48q7 17 19 25l154 114q55 39 91 60q44 26 60 26z" />
    <glyph glyph-name="uni1EBF" unicode="&#x1ebf;" horiz-adv-x="428" 
d="M279 378q-72 -48 -144 -65q24 150 182 217q69 30 85 7q15 -23 -29 -78q-32 -41 -94 -81zM552 381q-6 14 -11 8q-33 -40 -74 -80q-55 -53 -106 -86q-140 -93 -211 -16q-4 4 -7 10l-8 15q-9 23 -8 42q50 5 138 49q83 42 155 97q145 111 92 161q-51 48 -203 -8
q-147 -54 -244 -171q-95 -114 -73 -203q24 -107 141 -106q88 1 187 54q55 31 123 96q58 55 106 113q10 11 3 25zM563 862q82 50 141 66q35 8 33 -23q0 -1 3 0t5 2q50 59 85 130q39 78 9 79q-16 0 -60 -26q-36 -21 -91 -60l-154 -114q-12 -8 -18 -25q-14 -23 -16 -48
q-2 -26 11 -13zM646.5 848q-14.5 3 -26.5 -5q-37 -25 -66.5 -47t-68.5 -45q-37 -22 -74.5 -38.5t-86.5 -26.5q-14 -1 -31 1t-16 -8q1 -7 19 -13.5t29 -8.5q50 -8 83 6q57 26 88.5 50t67.5 52q-5 -51 -1.5 -73t7.5 -30q23 -34 62 -22.5t60 55.5q-36 1 -42 60.5t9 82.5
q2 7 -12.5 10z" />
    <glyph glyph-name="uni1EC0" unicode="&#x1ec0;" horiz-adv-x="1345" 
d="M1905 1300q-132 27 -291 37q-231 18 -500 -34q-175 -33 -378 -124q-218 -97 -316 -198q-111 -113 -97 -204q12 -78 112 -135q85 -47 215 -71q117 -21 214 -14l-140 -29q-96 -22 -174 -49q-100 -36 -175 -81q-88 -55 -141 -124q-112 -147 -4 -231q47 -38 145 -51
q87 -12 205 -5q219 13 387 68q53 18 110 41q79 31 142 64q80 41 127 82q57 47 67 92q23 112 -205 84q-8 0 -6 -8q67 -91 -90 -211q-107 -81 -255 -118q-129 -33 -269 -28q-77 4 -129 24q-63 25 -72 68q-10 50 49 121q58 72 164 129q98 52 221 86q253 68 424 27l10 1
q6 2 11 11q21 43 24 76q3 35 -16 37l-277 18q-52 3 -88 6q-97 7 -167 16q-85 12 -152 29q-135 36 -151 112q-17 82 118 177q87 61 227 111q54 19 114 35q47 13 95 24q284 63 530 56q280 -8 417 -107q73 -54 34 -97q-27 -30 -124 -65q-225 -80 -465 -47l-32 5l-42 10
q-54 13 -95 31q-116 52 -83 122q6 14 24 25q12 8 25 12q-4 20 -45 -4q-96 -59 -51 -152q26 -55 92 -95q44 -27 127 -56q260 -87 551 65q71 37 123 77q62 46 102 97q26 33 38 52q18 27 23 48q13 50 -39 91t-198 71zM1680.5 1684.5q-19.5 3.5 -36.5 -7.5q-50 -33 -90.5 -63.5
t-93.5 -61.5q-50 -31 -101.5 -53.5t-118.5 -35.5q-20 -2 -43 1t-22 -10q2 -10 26.5 -19t39.5 -11q69 -12 114 8q78 36 120.5 68.5t92.5 69.5q-8 -68 -3 -98t11 -42q31 -47 84.5 -30.5t81.5 75.5q-49 1 -57 82.5t13 112.5q2 11 -17.5 14.5zM1860 1622q14 -19 -24 -19
q-36 0 -51 15q-80 76 -144 192q-31 63 119 125q2 0 3 -3t-1 -5q-5 -5 -7 -17q-1 -10 1 -26q9 -90 74 -213z" />
    <glyph glyph-name="uni1EC1" unicode="&#x1ec1;" horiz-adv-x="428" 
d="M279 378q-72 -48 -144 -65q24 150 182 217q69 30 85 7q15 -23 -29 -78q-32 -41 -94 -81zM552 381q-6 14 -11 8q-33 -40 -74 -80q-55 -53 -106 -86q-140 -93 -211 -16q-4 4 -7 10l-8 15q-9 23 -8 42q50 5 138 49q83 42 155 97q145 111 92 161q-51 48 -203 -8
q-147 -54 -244 -171q-95 -114 -73 -203q24 -107 141 -106q88 1 187 54q55 31 123 96q58 55 106 113q10 11 3 25zM742 908q-65 123 -73 213q-2 16 -1 25q1 12 7 18q1 1 0 5q-1 3 -2 3q-150 -63 -119 -125q63 -116 143 -192q15 -15 52 -15t24 19zM646.5 848q-14.5 3 -26.5 -5
q-37 -25 -66.5 -47t-68.5 -45q-37 -22 -74.5 -38.5t-86.5 -26.5q-14 -1 -31 1t-16 -8q1 -7 19 -13.5t29 -8.5q50 -8 83 6q57 26 88.5 50t67.5 52q-5 -51 -1.5 -73t7.5 -30q23 -34 62 -22.5t60 55.5q-36 1 -42 60.5t9 82.5q2 7 -12.5 10z" />
    <glyph glyph-name="uni1EC2" unicode="&#x1ec2;" horiz-adv-x="1345" 
d="M1905 1300q-132 27 -291 37q-231 18 -500 -34q-175 -33 -378 -124q-218 -97 -316 -198q-111 -113 -97 -204q12 -78 112 -135q85 -47 215 -71q117 -21 214 -14l-140 -29q-96 -22 -174 -49q-100 -36 -175 -81q-88 -55 -141 -124q-112 -147 -4 -231q47 -38 145 -51
q87 -12 205 -5q219 13 387 68q53 18 110 41q79 31 142 64q80 41 127 82q57 47 67 92q23 112 -205 84q-8 0 -6 -8q67 -91 -90 -211q-107 -81 -255 -118q-129 -33 -269 -28q-77 4 -129 24q-63 25 -72 68q-10 50 49 121q58 72 164 129q98 52 221 86q253 68 424 27l10 1
q6 2 11 11q21 43 24 76q3 35 -16 37l-277 18q-52 3 -88 6q-97 7 -167 16q-85 12 -152 29q-135 36 -151 112q-17 82 118 177q87 61 227 111q54 19 114 35q47 13 95 24q284 63 530 56q280 -8 417 -107q73 -54 34 -97q-27 -30 -124 -65q-225 -80 -465 -47l-32 5l-42 10
q-54 13 -95 31q-116 52 -83 122q6 14 24 25q12 8 25 12q-4 20 -45 -4q-96 -59 -51 -152q26 -55 92 -95q44 -27 127 -56q260 -87 551 65q71 37 123 77q62 46 102 97q26 33 38 52q18 27 23 48q13 50 -39 91t-198 71zM1680.5 1684.5q-19.5 3.5 -36.5 -7.5q-50 -33 -90.5 -63.5
t-93.5 -61.5q-50 -31 -101.5 -53.5t-118.5 -35.5q-20 -2 -43 1t-22 -10q2 -10 26.5 -19t39.5 -11q69 -12 114 8q78 36 120.5 68.5t92.5 69.5q-8 -68 -3 -98t11 -42q31 -47 84.5 -30.5t81.5 75.5q-49 1 -57 82.5t13 112.5q2 11 -17.5 14.5zM1734 1611q18 10 39 18.5t41 14.5
q54 15 90 31.5t58 34.5q31 23 41.5 45.5t11.5 45.5q3 43 -28 58.5t-74 10t-70 -30t-24 -47.5q3 -29 39 -31t80 21q16 12 16.5 2t-4.5 -22q-15 -13 -51 -27t-68.5 -18.5t-68.5 7t-34.5 48t59 75t130.5 48.5q28 3 64.5 1.5t68 -12.5t48.5 -33.5t14 -61t-36.5 -67t-81.5 -47.5
q-41 -17 -84.5 -31t-66 -22.5t-15.5 -23t29 -19.5q-15 -26 -63 -28.5t-68 16.5t8 44z" />
    <glyph glyph-name="uni1EC3" unicode="&#x1ec3;" horiz-adv-x="428" 
d="M279 378q-72 -48 -144 -65q24 150 182 217q69 30 85 7q15 -23 -29 -78q-32 -41 -94 -81zM552 381q-6 14 -11 8q-33 -40 -74 -80q-55 -53 -106 -86q-140 -93 -211 -16q-4 4 -7 10l-8 15q-9 23 -8 42q50 5 138 49q83 42 155 97q145 111 92 161q-51 48 -203 -8
q-147 -54 -244 -171q-95 -114 -73 -203q24 -107 141 -106q88 1 187 54q55 31 123 96q58 55 106 113q10 11 3 25zM484.5 791q40.5 2 52.5 26q-17 5 -23.5 18.5t13 21t56 20.5t71.5 28q41 18 69.5 43.5t31 61t-12.5 56t-41.5 30.5t-57.5 11.5t-54 -1.5q-63 -9 -111 -44
t-49.5 -68.5t29 -44t58 -6t58 17t42.5 24.5q5 10 4.5 19.5t-14.5 -1.5q-36 -21 -67 -19t-33 28q-3 21 19.5 43.5t59.5 27.5t63 -9t24 -54q-1 -20 -10 -41t-35 -42q-19 -16 -49.5 -31t-75.5 -29q-18 -6 -35.5 -13.5t-33.5 -16.5q-24 -23 -6.5 -40.5t58 -15.5zM646.5 848
q-14.5 3 -26.5 -5q-37 -25 -66.5 -47t-68.5 -45q-37 -22 -74.5 -38.5t-86.5 -26.5q-14 -1 -31 1t-16 -8q1 -7 19 -13.5t29 -8.5q50 -8 83 6q57 26 88.5 50t67.5 52q-5 -51 -1.5 -73t7.5 -30q23 -34 62 -22.5t60 55.5q-36 1 -42 60.5t9 82.5q2 7 -12.5 10z" />
    <glyph glyph-name="uni1EC4" unicode="&#x1ec4;" horiz-adv-x="1345" 
d="M1905 1300q-132 27 -291 37q-231 18 -500 -34q-175 -33 -378 -124q-218 -97 -316 -198q-111 -113 -97 -204q12 -78 112 -135q85 -47 215 -71q117 -21 214 -14l-140 -29q-96 -22 -174 -49q-100 -36 -175 -81q-88 -55 -141 -124q-112 -147 -4 -231q47 -38 145 -51
q87 -12 205 -5q219 13 387 68q53 18 110 41q79 31 142 64q80 41 127 82q57 47 67 92q23 112 -205 84q-8 0 -6 -8q67 -91 -90 -211q-107 -81 -255 -118q-129 -33 -269 -28q-77 4 -129 24q-63 25 -72 68q-10 50 49 121q58 72 164 129q98 52 221 86q253 68 424 27l10 1
q6 2 11 11q21 43 24 76q3 35 -16 37l-277 18q-52 3 -88 6q-97 7 -167 16q-85 12 -152 29q-135 36 -151 112q-17 82 118 177q87 61 227 111q54 19 114 35q47 13 95 24q284 63 530 56q280 -8 417 -107q73 -54 34 -97q-27 -30 -124 -65q-225 -80 -465 -47l-32 5l-42 10
q-54 13 -95 31q-116 52 -83 122q6 14 24 25q12 8 25 12q-4 20 -45 -4q-96 -59 -51 -152q26 -55 92 -95q44 -27 127 -56q260 -87 551 65q71 37 123 77q62 46 102 97q26 33 38 52q18 27 23 48q13 50 -39 91t-198 71zM1680.5 1684.5q-19.5 3.5 -36.5 -7.5q-50 -33 -90.5 -63.5
t-93.5 -61.5q-50 -31 -101.5 -53.5t-118.5 -35.5q-20 -2 -43 1t-22 -10q2 -10 26.5 -19t39.5 -11q69 -12 114 8q78 36 120.5 68.5t92.5 69.5q-8 -68 -3 -98t11 -42q31 -47 84.5 -30.5t81.5 75.5q-49 1 -57 82.5t13 112.5q2 11 -17.5 14.5zM2011 1852q-7 10 -12 -3
q-4 -11 -15 -20q-8 -8 -21 -15l-23 -9l-16 -5q-43 -15 -129 12l-68 22q-39 12 -66 13q-52 3 -111 -58q-53 -54 -57 -89q0 -11 7 -19q7 -9 12 2q4 11 14 20q9 8 22 15l36 14q38 12 86 0q5 0 33 -9l27 -9q17 -5 31 -9q84 -24 117 -16q45 12 92 65q44 49 48 79q0 11 -7 19z" />
    <glyph glyph-name="uni1EC5" unicode="&#x1ec5;" horiz-adv-x="428" 
d="M279 378q-72 -48 -144 -65q24 150 182 217q69 30 85 7q15 -23 -29 -78q-32 -41 -94 -81zM552 381q-6 14 -11 8q-33 -40 -74 -80q-55 -53 -106 -86q-140 -93 -211 -16q-4 4 -7 10l-8 15q-9 23 -8 42q50 5 138 49q83 42 155 97q145 111 92 161q-51 48 -203 -8
q-147 -54 -244 -171q-95 -114 -73 -203q24 -107 141 -106q88 1 187 54q55 31 123 96q58 55 106 113q10 11 3 25zM884 990q-6 8 -10 -3q-3 -8 -12 -16q-7 -7 -18 -12l-18 -8l-13 -4q-37 -13 -107 10l-57 18q-33 10 -55 11q-43 2 -92 -49q-43 -44 -47 -73q0 -9 6 -16t10 2
q3 9 12 17q7 6 18 12l30 12q31 9 71 0q4 -1 27 -8l22 -7q14 -5 26 -8q70 -20 97 -13q37 10 77 54q35 40 39 65q0 9 -6 16zM646.5 848q-14.5 3 -26.5 -5q-37 -25 -66.5 -47t-68.5 -45q-37 -22 -74.5 -38.5t-86.5 -26.5q-14 -1 -31 1t-16 -8q1 -7 19 -13.5t29 -8.5q50 -8 83 6
q57 26 88.5 50t67.5 52q-5 -51 -1.5 -73t7.5 -30q23 -34 62 -22.5t60 55.5q-36 1 -42 60.5t9 82.5q2 7 -12.5 10z" />
    <glyph glyph-name="uni1EC6" unicode="&#x1ec6;" horiz-adv-x="1345" 
d="M1905 1300q-132 27 -291 37q-231 18 -500 -34q-175 -33 -378 -124q-218 -97 -316 -198q-111 -113 -97 -204q12 -78 112 -135q85 -47 215 -71q117 -21 214 -14l-140 -29q-96 -22 -174 -49q-100 -36 -175 -81q-88 -55 -141 -124q-112 -147 -4 -231q47 -38 145 -51
q87 -12 205 -5q219 13 387 68q53 18 110 41q79 31 142 64q80 41 127 82q57 47 67 92q23 112 -205 84q-8 0 -6 -8q67 -91 -90 -211q-107 -81 -255 -118q-129 -33 -269 -28q-77 4 -129 24q-63 25 -72 68q-10 50 49 121q58 72 164 129q98 52 221 86q253 68 424 27l10 1
q6 2 11 11q21 43 24 76q3 35 -16 37l-277 18q-52 3 -88 6q-97 7 -167 16q-85 12 -152 29q-135 36 -151 112q-17 82 118 177q87 61 227 111q54 19 114 35q47 13 95 24q284 63 530 56q280 -8 417 -107q73 -54 34 -97q-27 -30 -124 -65q-225 -80 -465 -47l-32 5l-42 10
q-54 13 -95 31q-116 52 -83 122q6 14 24 25q12 8 25 12q-4 20 -45 -4q-96 -59 -51 -152q26 -55 92 -95q44 -27 127 -56q260 -87 551 65q71 37 123 77q62 46 102 97q26 33 38 52q18 27 23 48q13 50 -39 91t-198 71zM1680.5 1684.5q-19.5 3.5 -36.5 -7.5q-50 -33 -90.5 -63.5
t-93.5 -61.5q-50 -31 -101.5 -53.5t-118.5 -35.5q-20 -2 -43 1t-22 -10q2 -10 26.5 -19t39.5 -11q69 -12 114 8q78 36 120.5 68.5t92.5 69.5q-8 -68 -3 -98t11 -42q31 -47 84.5 -30.5t81.5 75.5q-49 1 -57 82.5t13 112.5q2 11 -17.5 14.5zM584 -170q-102 -77 -79 -150
q25 -67 129 11q105 79 80 149q-24 70 -130 -10z" />
    <glyph glyph-name="uni1EC7" unicode="&#x1ec7;" horiz-adv-x="428" 
d="M279 378q-72 -48 -144 -65q24 150 182 217q69 30 85 7q15 -23 -29 -78q-32 -41 -94 -81zM552 381q-6 14 -11 8q-33 -40 -74 -80q-55 -53 -106 -86q-140 -93 -211 -16q-4 4 -7 10l-8 15q-9 23 -8 42q50 5 138 49q83 42 155 97q145 111 92 161q-51 48 -203 -8
q-147 -54 -244 -171q-95 -114 -73 -203q24 -107 141 -106q88 1 187 54q55 31 123 96q58 55 106 113q10 11 3 25zM163 16q-76 -57 -59 -111q19 -50 96 8q78 58 59 110q-18 52 -96 -7zM646.5 848q-14.5 3 -26.5 -5q-37 -25 -66.5 -47t-68.5 -45q-37 -22 -74.5 -38.5
t-86.5 -26.5q-14 -1 -31 1t-16 -8q1 -7 19 -13.5t29 -8.5q50 -8 83 6q57 26 88.5 50t67.5 52q-5 -51 -1.5 -73t7.5 -30q23 -34 62 -22.5t60 55.5q-36 1 -42 60.5t9 82.5q2 7 -12.5 10z" />
    <glyph glyph-name="uni1EC8" unicode="&#x1ec8;" horiz-adv-x="894" 
d="M1121 1247q-76 2 -166 -11q-79 -10 -130 -26q-195 -58 -391 -180q-105 -66 -181 -136q-86 -78 -129 -155q-8 -14 -2 -57q3 -19 8 -34q5 -17 13 -23q7 -5 12 8q19 48 57 105q48 72 113 136q79 79 176 139q114 71 248 113q65 21 125 28q74 9 123 -5q128 -35 63 -209
q-93 -248 -319 -555q-69 -90 -169 -185q-89 -85 -188 -159q-132 -22 -223 -137q-25 -31 37 -58q64 -29 129 7q213 116 506 495q84 109 164 223q87 123 153 230q74 117 116 203q46 95 50 145q8 94 -195 98zM1188 1380q19 10 39.5 18.5t41.5 14.5q53 15 89 31.5t58 34.5
q31 23 41.5 45.5t12.5 45.5q2 43 -29 58.5t-74 10t-69.5 -30t-23.5 -47.5q3 -29 39 -31t79 21q16 12 17 2t-5 -22q-14 -13 -50 -27t-68.5 -18.5t-68.5 7t-34.5 48t58.5 75t131 48.5q27 3 63.5 1.5t68 -12.5t49 -33.5t14.5 -61t-36.5 -67t-81.5 -47.5q-42 -17 -85 -31
t-65.5 -22.5t-15.5 -23t28 -19.5q-15 -26 -63 -28.5t-68 16.5t8 44z" />
    <glyph glyph-name="uni1EC9" unicode="&#x1ec9;" horiz-adv-x="278" 
d="M342 573q25 23 -53 12q-78 -10 -98 -38l-44 -64q-39 -57 -69 -106l-62 -102q-40 -70 -47 -107q-9 -50 34 -61q30 -8 79 4q41 7 116 57q70 46 124 98l8 10q2 9 1 19q-1 11 -5 14q-7 4 -12 -2q-34 -35 -87 -78q-25 -20 -43 -33q-20 -14 -28 -16q-49 -17 -37 29
q14 61 54 134q33 59 79 122q23 32 53 66zM370.5 652q40.5 2 52.5 26q-18 5 -24 18.5t13.5 21t56 20.5t71.5 28q41 18 69.5 43.5t31 61t-12.5 56t-41.5 30.5t-57.5 11.5t-54 -1.5q-63 -9 -111.5 -44t-49.5 -68.5t29.5 -44t58 -6t58 17t42.5 24.5q5 10 4.5 19.5t-14.5 -1.5
q-37 -21 -67.5 -19t-32.5 28q-3 21 19.5 43.5t59.5 27.5t63 -9t24 -54q-1 -20 -10 -41t-35 -42q-19 -16 -49.5 -31t-75.5 -29q-18 -6 -35.5 -13.5t-33.5 -16.5q-24 -23 -6.5 -40.5t58 -15.5z" />
    <glyph glyph-name="uni1ECA" unicode="&#x1eca;" horiz-adv-x="894" 
d="M1121 1247q-76 2 -166 -11q-79 -10 -130 -26q-195 -58 -391 -180q-105 -66 -181 -136q-86 -78 -129 -155q-8 -14 -2 -57q3 -19 8 -34q5 -17 13 -23q7 -5 12 8q19 48 57 105q48 72 113 136q79 79 176 139q114 71 248 113q65 21 125 28q74 9 123 -5q128 -35 63 -209
q-93 -248 -319 -555q-69 -90 -169 -185q-89 -85 -188 -159q-132 -22 -223 -137q-25 -31 37 -58q64 -29 129 7q213 116 506 495q84 109 164 223q87 123 153 230q74 117 116 203q46 95 50 145q8 94 -195 98zM523 -170q-103 -77 -80 -150q25 -67 129 11q106 79 80 149
q-23 70 -129 -10z" />
    <glyph glyph-name="uni1ECB" unicode="&#x1ecb;" horiz-adv-x="278" 
d="M342 573q25 23 -53 12q-78 -10 -98 -38l-45 -64q-38 -57 -68 -106l-62 -102q-40 -70 -47 -107q-9 -50 34 -61q30 -8 79 4q41 7 116 57q70 46 124 98l8 10q2 9 1 19q-1 11 -5 14q-7 4 -13 -2q-33 -35 -86 -78q-25 -20 -43 -33q-20 -14 -28 -16q-49 -17 -37 29
q14 61 54 134q33 59 79 122q23 32 53 66zM448 727q-13 47 -67 53q-66 11 -109 -28q-42 -39 -26 -82q16 -41 67 -49q61 -9 107 26q42 33 28 80zM18 16q-76 -57 -59 -111q18 -50 95 8q79 58 59 110q-17 52 -95 -7z" />
    <glyph glyph-name="uni1ECC" unicode="&#x1ecc;" horiz-adv-x="1792" 
d="M1587 313q-127 -123 -296 -180q-186 -61 -378 -58q-207 3 -347 83q-144 82 -210 221q-73 155 -1 301q69 139 236 235q145 83 331 117q133 24 281 23q170 -1 313 -35q123 -31 187 -101q68 -77 43 -176q-36 -143 -203 -219l-9 -3l-40 -16q-43 -15 -87 -24q-59 -12 -123 -12
q-77 0 -159 16q-29 -119 125 -133q141 -11 310 87q152 88 227 198q-60 -189 -200 -324zM1889 760q84 168 -54 284q-117 99 -335 123q-225 25 -473 -12q-212 -31 -412 -139q-222 -119 -344 -291q-169 -238 -50 -455q109 -201 382 -270q221 -57 504 0q208 41 386 143
q208 119 322 295q43 65 70 135q34 86 29 144q-3 27 -25 43zM593 -170q-102 -77 -79 -150q24 -67 129 11q105 79 79 149q-23 70 -129 -10z" />
    <glyph glyph-name="uni1ECD" unicode="&#x1ecd;" horiz-adv-x="499" 
d="M353 266q-63 -73 -131 -94q-84 -23 -116 31q-28 47 -3 119q23 66 80 124q73 77 144 86q-7 -7 -6 -25q0 -16 6 -32l6 -9q4 -5 6 -5q11 41 53 74q50 40 54 -23q9 -123 -93 -246zM396 586q-23 22 -93 -4q-57 -20 -117 -60q-207 -133 -213 -303q-3 -118 118 -121
q96 -3 187 49q64 38 101 68q61 49 116 121q61 83 76 169q14 85 -29 111q-61 39 -146 -30zM23 16q-76 -57 -59 -111q18 -50 95 8q79 58 59 110q-17 52 -95 -7z" />
    <glyph glyph-name="uni1ECE" unicode="&#x1ece;" horiz-adv-x="1792" 
d="M1587 313q-127 -123 -296 -180q-186 -61 -378 -58q-207 3 -347 83q-144 82 -210 221q-73 155 -1 301q69 139 236 235q145 83 331 117q133 24 281 23q170 -1 313 -35q123 -31 187 -101q68 -77 43 -176q-36 -143 -203 -219l-9 -3l-40 -16q-43 -15 -87 -24q-59 -12 -123 -12
q-77 0 -159 16q-29 -119 125 -133q141 -11 310 87q152 88 227 198q-60 -189 -200 -324zM1889 760q84 168 -54 284q-117 99 -335 123q-225 25 -473 -12q-212 -31 -412 -139q-222 -119 -344 -291q-169 -238 -50 -455q109 -201 382 -270q221 -57 504 0q208 41 386 143
q208 119 322 295q43 65 70 135q34 86 29 144q-3 27 -25 43zM1288 1322q18 10 39 18.5t41 14.5q54 15 90 31.5t58 34.5q31 23 41.5 45.5t11.5 45.5q3 43 -28 58.5t-74.5 10t-70 -30t-23.5 -47.5q3 -29 39 -31t80 21q16 12 16.5 2t-4.5 -22q-15 -13 -51 -27t-68.5 -18.5
t-68.5 7t-34.5 48t58.5 75t131 48.5q28 3 64.5 1.5t68 -12.5t48.5 -33.5t14 -61t-36.5 -67t-81.5 -47.5q-41 -17 -84.5 -31t-66 -22.5t-15.5 -23t28 -19.5q-14 -26 -62 -28.5t-68 16.5t8 44z" />
    <glyph glyph-name="uni1ECF" unicode="&#x1ecf;" horiz-adv-x="499" 
d="M354 266q-64 -73 -131 -94q-85 -23 -117 31q-28 47 -3 119q24 66 81 124q73 77 143 86q-7 -7 -6 -25q1 -16 6 -32l6 -9q4 -5 6 -5q11 41 54 74q49 40 53 -23q9 -123 -92 -246zM397 586q-24 22 -94 -4q-57 -20 -117 -60q-207 -133 -213 -303q-3 -118 118 -121
q96 -3 187 49q64 38 101 68q61 49 116 121q61 83 76 169q14 85 -29 111q-61 39 -145 -30zM394.5 652q40.5 2 52.5 26q-18 5 -24 18.5t13.5 21t56 20.5t71.5 28q41 18 69.5 43.5t31 61t-12.5 56t-41.5 30.5t-57.5 11.5t-54 -1.5q-63 -9 -111.5 -44t-49.5 -68.5t29.5 -44
t58 -6t58 17t42.5 24.5q5 10 4.5 19.5t-14.5 -1.5q-36 -21 -67 -19t-33 28q-3 21 19.5 43.5t59.5 27.5t63 -9t24 -54q-1 -20 -10 -41t-35 -42q-19 -16 -49.5 -31t-75.5 -29q-18 -6 -35.5 -13.5t-33.5 -16.5q-24 -23 -6.5 -40.5t58 -15.5z" />
    <glyph glyph-name="uni1ED0" unicode="&#x1ed0;" horiz-adv-x="1792" 
d="M1587 313q-127 -123 -296 -180q-186 -61 -378 -58q-207 3 -347 83q-144 82 -210 221q-73 155 -1 301q69 139 236 235q145 83 331 117q133 24 281 23q170 -1 313 -35q123 -31 187 -101q68 -77 43 -176q-36 -143 -203 -219l-9 -3l-40 -16q-43 -15 -87 -24q-59 -12 -123 -12
q-77 0 -159 16q-29 -119 125 -133q141 -11 310 87q152 88 227 198q-60 -189 -200 -324zM1889 760q84 168 -54 284q-117 99 -335 123q-225 25 -473 -12q-212 -31 -412 -139q-222 -119 -344 -291q-169 -238 -50 -455q109 -201 382 -270q221 -57 504 0q208 41 386 143
q208 119 322 295q43 65 70 135q34 86 29 144q-3 27 -25 43zM1957 1695q-36 -21 -91 -60l-154 -114q-12 -8 -19 -25q-14 -23 -16 -48t12 -13l51 33q83 49 142 65q35 8 32 -22q0 -2 4 -1q3 1 5 3q50 59 85 129q39 78 9 79q-16 0 -60 -26zM1621.5 1558.5q-19.5 3.5 -36.5 -7.5
q-50 -33 -90.5 -63.5t-93.5 -61.5q-50 -31 -101.5 -53.5t-118.5 -35.5q-20 -2 -43 1t-22 -10q1 -10 26 -19t40 -11q69 -12 114 8q78 36 120.5 68.5t92.5 69.5q-8 -68 -3 -98t11 -42q31 -47 84.5 -30.5t81.5 75.5q-49 1 -57 82.5t13 112.5q2 11 -17.5 14.5z" />
    <glyph glyph-name="uni1ED1" unicode="&#x1ed1;" horiz-adv-x="509" 
d="M354 266q-64 -73 -131 -94q-85 -23 -117 31q-28 47 -3 119q24 66 81 124q73 77 143 86q-7 -7 -6 -25q1 -16 6 -32l6 -9q4 -5 6 -5q11 41 54 74q49 40 53 -23q9 -123 -92 -246zM397 586q-24 22 -94 -4q-57 -20 -117 -60q-207 -133 -213 -303q-3 -118 118 -121
q96 -3 187 49q64 38 101 68q61 49 116 121q61 83 76 169q14 85 -29 111q-61 39 -145 -30zM533 842q82 50 141 66q36 8 33 -23q0 -1 3 0t5 2q50 59 86 130q38 78 8 79q-15 0 -59 -26q-37 -21 -92 -60l-154 -114q-12 -8 -18 -25q-14 -23 -16 -48q-2 -26 12 -13zM631.5 848
q-14.5 3 -26.5 -5q-37 -25 -66.5 -47t-68.5 -45q-37 -22 -74.5 -38.5t-86.5 -26.5q-14 -1 -31 1t-16 -8q1 -7 19 -13.5t29 -8.5q50 -8 83 6q57 26 88.5 50t67.5 52q-5 -51 -1.5 -73t7.5 -30q23 -34 62 -22.5t60 55.5q-36 1 -42 60.5t9 82.5q2 7 -12.5 10z" />
    <glyph glyph-name="uni1ED2" unicode="&#x1ed2;" horiz-adv-x="1792" 
d="M1587 313q-127 -123 -296 -180q-186 -61 -378 -58q-207 3 -347 83q-144 82 -210 221q-73 155 -1 301q69 139 236 235q145 83 331 117q133 24 281 23q170 -1 313 -35q123 -31 187 -101q68 -77 43 -176q-36 -143 -203 -219l-9 -3l-40 -16q-43 -15 -87 -24q-59 -12 -123 -12
q-77 0 -159 16q-29 -119 125 -133q141 -11 310 87q152 88 227 198q-60 -189 -200 -324zM1889 760q84 168 -54 284q-117 99 -335 123q-225 25 -473 -12q-212 -31 -412 -139q-222 -119 -344 -291q-169 -238 -50 -455q109 -201 382 -270q221 -57 504 0q208 41 386 143
q208 119 322 295q43 65 70 135q34 86 29 144q-3 27 -25 43zM1765 1564q-65 123 -74 213q-2 16 -1 26q1 12 7 17q1 2 0 5q0 3 -2 3q-150 -62 -119 -125q64 -116 144 -192q14 -15 51 -15t24 19zM1621.5 1558.5q-19.5 3.5 -36.5 -7.5q-50 -33 -90.5 -63.5t-93.5 -61.5
q-50 -31 -101.5 -53.5t-118.5 -35.5q-20 -2 -43 1t-22 -10q1 -10 26 -19t40 -11q69 -12 114 8q78 36 120.5 68.5t92.5 69.5q-8 -68 -3 -98t11 -42q31 -47 84.5 -30.5t81.5 75.5q-49 1 -57 82.5t13 112.5q2 11 -17.5 14.5z" />
    <glyph glyph-name="uni1ED3" unicode="&#x1ed3;" horiz-adv-x="509" 
d="M354 266q-64 -73 -131 -94q-85 -23 -117 31q-28 47 -3 119q24 66 81 124q73 77 143 86q-7 -7 -6 -25q1 -16 6 -32l6 -9q4 -5 6 -5q11 41 54 74q49 40 53 -23q9 -123 -92 -246zM397 586q-24 22 -94 -4q-57 -20 -117 -60q-207 -133 -213 -303q-3 -118 118 -121
q96 -3 187 49q64 38 101 68q61 49 116 121q61 83 76 169q14 85 -29 111q-61 39 -145 -30zM736 890q-65 123 -74 213q-1 16 0 25q1 12 7 18q1 1 0 5q-1 3 -2 3q-150 -63 -119 -125q63 -116 143 -192q15 -15 52 -15t24 19zM631.5 848q-14.5 3 -26.5 -5q-37 -25 -66.5 -47
t-68.5 -45q-37 -22 -74.5 -38.5t-86.5 -26.5q-14 -1 -31 1t-16 -8q1 -7 19 -13.5t29 -8.5q50 -8 83 6q57 26 88.5 50t67.5 52q-5 -51 -1.5 -73t7.5 -30q23 -34 62 -22.5t60 55.5q-36 1 -42 60.5t9 82.5q2 7 -12.5 10z" />
    <glyph glyph-name="uni1ED4" unicode="&#x1ed4;" horiz-adv-x="1792" 
d="M1587 313q-127 -123 -296 -180q-186 -61 -378 -58q-207 3 -347 83q-144 82 -210 221q-73 155 -1 301q69 139 236 235q145 83 331 117q133 24 281 23q170 -1 313 -35q123 -31 187 -101q68 -77 43 -176q-36 -143 -203 -219l-9 -3l-40 -16q-43 -15 -87 -24q-59 -12 -123 -12
q-77 0 -159 16q-29 -119 125 -133q141 -11 310 87q152 88 227 198q-60 -189 -200 -324zM1889 760q84 168 -54 284q-117 99 -335 123q-225 25 -473 -12q-212 -31 -412 -139q-222 -119 -344 -291q-169 -238 -50 -455q109 -201 382 -270q221 -57 504 0q208 41 386 143
q208 119 322 295q43 65 70 135q34 86 29 144q-3 27 -25 43zM1727 1429.5q48 2.5 62 28.5q-21 5 -28 19.5t15.5 23t66 22.5t84.5 31q48 19 81.5 47.5t36.5 67t-14 61t-48.5 33.5t-68 12.5t-64.5 -1.5q-74 -10 -131 -48.5t-58.5 -75t34.5 -48t68.5 -7t68.5 18.5t51 27
q5 12 4.5 22t-16.5 -2q-44 -23 -80 -21t-39 31q-3 23 23.5 47.5t70 30t74.5 -10t28 -58.5q-1 -23 -11.5 -45.5t-41.5 -45.5q-22 -18 -58 -34.5t-90 -31.5q-20 -6 -41 -14.5t-39 -18.5q-28 -25 -8 -44t68 -16.5zM1621.5 1558.5q-19.5 3.5 -36.5 -7.5q-50 -33 -90.5 -63.5
t-93.5 -61.5q-50 -31 -101.5 -53.5t-118.5 -35.5q-20 -2 -43 1t-22 -10q1 -10 26 -19t40 -11q69 -12 114 8q78 36 120.5 68.5t92.5 69.5q-8 -68 -3 -98t11 -42q31 -47 84.5 -30.5t81.5 75.5q-49 1 -57 82.5t13 112.5q2 11 -17.5 14.5z" />
    <glyph glyph-name="uni1ED5" unicode="&#x1ed5;" horiz-adv-x="499" 
d="M354 266q-64 -73 -131 -94q-85 -23 -117 31q-28 47 -3 119q24 66 81 124q73 77 143 86q-7 -7 -6 -25q1 -16 6 -32l6 -9q4 -5 6 -5q11 41 54 74q49 40 53 -23q9 -123 -92 -246zM397 586q-24 22 -94 -4q-57 -20 -117 -60q-207 -133 -213 -303q-3 -118 118 -121
q96 -3 187 49q64 38 101 68q61 49 116 121q61 83 76 169q14 85 -29 111q-61 39 -145 -30zM481.5 807q40.5 2 52.5 26q-18 5 -24 18.5t13.5 21t56 20.5t71.5 28q41 18 69.5 43.5t31 61t-12.5 56t-41.5 30.5t-57.5 11.5t-54 -1.5q-63 -9 -111.5 -44t-49.5 -68.5t29.5 -44
t58 -6t58 17t42.5 24.5q5 10 4.5 19.5t-14.5 -1.5q-36 -21 -67 -19t-33 28q-3 21 19.5 43.5t59.5 27.5t63 -9t24 -54q-1 -20 -10 -41t-35 -42q-19 -16 -49.5 -31t-75.5 -29q-18 -6 -35.5 -13.5t-33.5 -16.5q-24 -23 -6.5 -40.5t58 -15.5zM631.5 848q-14.5 3 -26.5 -5
q-37 -25 -66.5 -47t-68.5 -45q-37 -22 -74.5 -38.5t-86.5 -26.5q-14 -1 -31 1t-16 -8q1 -7 19 -13.5t29 -8.5q50 -8 83 6q57 26 88.5 50t67.5 52q-5 -51 -1.5 -73t7.5 -30q23 -34 62 -22.5t60 55.5q-36 1 -42 60.5t9 82.5q2 7 -12.5 10z" />
    <glyph glyph-name="uni1ED6" unicode="&#x1ed6;" horiz-adv-x="1792" 
d="M1587 313q-127 -123 -296 -180q-186 -61 -378 -58q-207 3 -347 83q-144 82 -210 221q-73 155 -1 301q69 139 236 235q145 83 331 117q133 24 281 23q170 -1 313 -35q123 -31 187 -101q68 -77 43 -176q-36 -143 -203 -219l-9 -3l-40 -16q-43 -15 -87 -24q-59 -12 -123 -12
q-77 0 -159 16q-29 -119 125 -133q141 -11 310 87q152 88 227 198q-60 -189 -200 -324zM1889 760q84 168 -54 284q-117 99 -335 123q-225 25 -473 -12q-212 -31 -412 -139q-222 -119 -344 -291q-169 -238 -50 -455q109 -201 382 -270q221 -57 504 0q208 41 386 143
q208 119 322 295q43 65 70 135q34 86 29 144q-3 27 -25 43zM1930 1716q-8 10 -12 -3q-4 -11 -15 -20q-9 -8 -22 -15l-22 -9l-16 -5q-44 -15 -129 12l-69 22q-39 12 -66 13q-51 3 -111 -58q-52 -54 -57 -89q0 -11 7 -19q7 -9 12 2q4 11 15 20q8 8 21 15l36 14q39 12 87 0
q5 0 32 -9l27 -9q17 -5 31 -9q85 -24 117 -16q45 12 93 65q43 49 47 79q0 11 -6 19zM1621.5 1558.5q-19.5 3.5 -36.5 -7.5q-50 -33 -90.5 -63.5t-93.5 -61.5q-50 -31 -101.5 -53.5t-118.5 -35.5q-20 -2 -43 1t-22 -10q1 -10 26 -19t40 -11q69 -12 114 8q78 36 120.5 68.5
t92.5 69.5q-8 -68 -3 -98t11 -42q31 -47 84.5 -30.5t81.5 75.5q-49 1 -57 82.5t13 112.5q2 11 -17.5 14.5z" />
    <glyph glyph-name="uni1ED7" unicode="&#x1ed7;" horiz-adv-x="509" 
d="M354 266q-64 -73 -131 -94q-85 -23 -117 31q-28 47 -3 119q24 66 81 124q73 77 143 86q-7 -7 -6 -25q1 -16 6 -32l6 -9q4 -5 6 -5q11 41 54 74q49 40 53 -23q9 -123 -92 -246zM397 586q-24 22 -94 -4q-57 -20 -117 -60q-207 -133 -213 -303q-3 -118 118 -121
q96 -3 187 49q64 38 101 68q61 49 116 121q61 83 76 169q14 85 -29 111q-61 39 -145 -30zM524 947q-46 -54 -50 -89q0 -11 6 -19q7 -8 11 3q3 11 13 20q7 8 19 14l31 15q34 11 76 0q4 0 29 -10l24 -8q14 -6 27 -10q74 -24 102 -15q40 11 82 64q38 48 41 79q0 12 -6 20
q-6 9 -10 -3q-4 -11 -13 -20q-8 -8 -19 -15l-20 -9l-14 -5q-38 -16 -113 12l-60 22q-35 11 -58 13q-46 3 -98 -59zM631.5 848q-14.5 3 -26.5 -5q-37 -25 -66.5 -47t-68.5 -45q-37 -22 -74.5 -38.5t-86.5 -26.5q-14 -1 -31 1t-16 -8q1 -7 19 -13.5t29 -8.5q50 -8 83 6
q57 26 88.5 50t67.5 52q-5 -51 -1.5 -73t7.5 -30q23 -34 62 -22.5t60 55.5q-36 1 -42 60.5t9 82.5q2 7 -12.5 10z" />
    <glyph glyph-name="uni1ED8" unicode="&#x1ed8;" horiz-adv-x="1792" 
d="M1587 313q-127 -123 -296 -180q-186 -61 -378 -58q-207 3 -347 83q-144 82 -210 221q-73 155 -1 301q69 139 236 235q145 83 331 117q133 24 281 23q170 -1 313 -35q123 -31 187 -101q68 -77 43 -176q-36 -143 -203 -219l-9 -3l-40 -16q-43 -15 -87 -24q-59 -12 -123 -12
q-77 0 -159 16q-29 -119 125 -133q141 -11 310 87q152 88 227 198q-60 -189 -200 -324zM1889 760q84 168 -54 284q-117 99 -335 123q-225 25 -473 -12q-212 -31 -412 -139q-222 -119 -344 -291q-169 -238 -50 -455q109 -201 382 -270q221 -57 504 0q208 41 386 143
q208 119 322 295q43 65 70 135q34 86 29 144q-3 27 -25 43zM593 -170q-102 -77 -79 -150q24 -67 129 11q105 79 79 149q-23 70 -129 -10zM1621.5 1558.5q-19.5 3.5 -36.5 -7.5q-50 -33 -90.5 -63.5t-93.5 -61.5q-50 -31 -101.5 -53.5t-118.5 -35.5q-20 -2 -43 1t-22 -10
q1 -10 26 -19t40 -11q69 -12 114 8q78 36 120.5 68.5t92.5 69.5q-8 -68 -3 -98t11 -42q31 -47 84.5 -30.5t81.5 75.5q-49 1 -57 82.5t13 112.5q2 11 -17.5 14.5z" />
    <glyph glyph-name="uni1ED9" unicode="&#x1ed9;" horiz-adv-x="499" 
d="M353 266q-63 -73 -131 -94q-84 -23 -116 31q-28 47 -3 119q23 66 80 124q73 77 144 86q-7 -7 -6 -25q0 -16 6 -32l6 -9q4 -5 6 -5q11 41 53 74q50 40 54 -23q9 -123 -93 -246zM396 586q-23 22 -93 -4q-57 -20 -117 -60q-207 -133 -213 -303q-3 -118 118 -121
q96 -3 187 49q64 38 101 68q61 49 116 121q61 83 76 169q14 85 -29 111q-61 39 -146 -30zM23 16q-76 -57 -59 -111q18 -50 95 8q79 58 59 110q-17 52 -95 -7zM631 848q-14 3 -26 -5q-37 -25 -66.5 -47t-68.5 -45q-37 -22 -74.5 -38.5t-86.5 -26.5q-14 -1 -31 1t-16 -8
q1 -7 19 -13.5t29 -8.5q50 -8 83 6q57 26 88.5 50t67.5 52q-6 -51 -2 -73t8 -30q22 -34 61.5 -22.5t59.5 55.5q-35 1 -41 60.5t9 82.5q1 7 -13 10z" />
    <glyph glyph-name="uni1EDA" unicode="&#x1eda;" horiz-adv-x="1792" 
d="M1587 313q-127 -123 -295 -180q-186 -61 -378 -58q-207 3 -347 83q-145 82 -210 221q-74 155 -1 301q69 139 236 235q145 83 331 117q132 24 280 23q170 -1 314 -35q123 -31 186 -101q68 -77 43 -176q-35 -143 -202 -219l-9 -3l-41 -16q-42 -15 -86 -24q-60 -12 -123 -12
q-77 0 -159 16q-29 -119 125 -133q140 -11 309 87q152 88 227 198q-60 -189 -200 -324zM1473 1530q-36 -21 -91 -60l-154 -114q-12 -8 -18 -25q-14 -23 -16 -48t12 -13l51 33q82 49 141 65q36 8 33 -22q0 -2 3 -1t5 3q50 59 86 129q38 78 8 79q-15 0 -60 -26zM1984 928
q79 27 135 81q27 25 25.5 54t-27.5 47q-62 40 -147 3q51 -52 40 -87t-66 -64q-17 -9 -35 -16q-20 53 -73 98q-118 99 -335 123q-225 25 -474 -12q-211 -31 -411 -139q-222 -119 -344 -291q-170 -238 -51 -455q109 -201 382 -270q221 -57 504 0q209 41 387 143
q207 119 322 295q42 65 70 135q34 86 28 144q-3 27 -24 43q40 80 29 148q31 8 65 20z" />
    <glyph glyph-name="uni1EDB" unicode="&#x1edb;" horiz-adv-x="509" 
d="M353 266q-63 -73 -131 -94q-84 -23 -117 31q-27 47 -2 119q23 66 80 124q73 77 144 86q-7 -7 -7 -25q1 -16 7 -32l6 -9q3 -5 6 -5q11 41 53 74q50 40 53 -23q10 -123 -92 -246zM357 703q83 50 142 66q35 8 32 -23q0 -1 4 0q3 1 5 2q50 59 85 130q39 78 9 79
q-16 0 -60 -26q-36 -21 -91 -60l-154 -114q-12 -8 -19 -25q-14 -23 -16 -48q-1 -26 12 -13zM542 616q-61 39 -146 -30q-23 22 -94 -4q-56 -20 -117 -60q-207 -133 -213 -303q-2 -118 119 -121q95 -3 186 49q64 38 102 68q61 49 116 121q61 83 75 169l2 14q20 5 42 13
q55 18 94 55q18 18 17 38t-18 32q-44 27 -87 -2q20 -32 12.5 -56t-45.5 -44q-6 -4 -13 -7q-1 49 -32 68z" />
    <glyph glyph-name="uni1EDC" unicode="&#x1edc;" horiz-adv-x="1792" 
d="M1587 313q-127 -123 -295 -180q-186 -61 -378 -58q-207 3 -347 83q-145 82 -210 221q-74 155 -1 301q69 139 236 235q145 83 331 117q132 24 280 23q170 -1 314 -35q123 -31 186 -101q68 -77 43 -176q-35 -143 -202 -219l-9 -3l-41 -16q-42 -15 -86 -24q-60 -12 -123 -12
q-77 0 -159 16q-29 -119 125 -133q140 -11 309 87q152 88 227 198q-60 -189 -200 -324zM1310 1331q-65 123 -74 213q-1 16 0 26q1 12 6 17q2 2 1 5t-3 3q-149 -62 -118 -125q63 -116 143 -192q15 -15 52 -15t24 19zM1984 928q79 27 135 81q27 25 25.5 54t-27.5 47
q-62 40 -147 3q51 -52 40 -87t-66 -64q-17 -9 -35 -16q-20 53 -73 98q-118 99 -335 123q-225 25 -474 -12q-211 -31 -411 -139q-222 -119 -344 -291q-170 -238 -51 -455q109 -201 382 -270q221 -57 504 0q209 41 387 143q207 119 322 295q42 65 70 135q34 86 28 144
q-3 27 -24 43q40 80 29 148q31 8 65 20z" />
    <glyph glyph-name="uni1EDD" unicode="&#x1edd;" horiz-adv-x="509" 
d="M353 266q-63 -73 -131 -94q-84 -23 -117 31q-27 47 -2 119q23 66 80 124q73 77 144 86q-7 -7 -7 -25q1 -16 7 -32l6 -9q3 -5 6 -5q11 41 53 74q50 40 53 -23q10 -123 -92 -246zM428 751q-65 123 -74 213q-2 16 -1 25q2 12 7 18q2 1 1 5q-1 3 -3 3q-150 -63 -119 -125
q64 -116 144 -192q15 -15 51 -15q38 0 24 19zM542 616q-61 39 -146 -30q-23 22 -94 -4q-56 -20 -117 -60q-207 -133 -213 -303q-2 -118 119 -121q95 -3 186 49q64 38 102 68q61 49 116 121q61 83 75 169l2 14q20 5 42 13q55 18 94 55q18 18 17 38t-18 32q-44 27 -87 -2
q20 -32 12.5 -56t-45.5 -44q-6 -4 -13 -7q-1 49 -32 68z" />
    <glyph glyph-name="uni1EDE" unicode="&#x1ede;" horiz-adv-x="1792" 
d="M1587 313q-127 -123 -295 -180q-186 -61 -378 -58q-207 3 -347 83q-145 82 -210 221q-74 155 -1 301q69 139 236 235q145 83 331 117q132 24 280 23q170 -1 314 -35q123 -31 186 -101q68 -77 43 -176q-35 -143 -202 -219l-9 -3l-41 -16q-42 -15 -86 -24q-60 -12 -123 -12
q-77 0 -159 16q-29 -119 125 -133q140 -11 309 87q152 88 227 198q-60 -189 -200 -324zM1288 1322q19 10 39.5 18.5t41.5 14.5q53 15 89 31.5t58 34.5q31 23 41.5 45.5t12.5 45.5q2 43 -29 58.5t-74 10t-69.5 -30t-23.5 -47.5q3 -29 39 -31t79 21q16 12 17 2t-5 -22
q-14 -13 -50 -27t-68.5 -18.5t-68.5 7t-34.5 48t58.5 75t131 48.5q27 3 63.5 1.5t68 -12.5t49 -33.5t14.5 -61t-36.5 -67t-81.5 -47.5q-42 -17 -85 -31t-65.5 -22.5t-15.5 -23t28 -19.5q-15 -26 -63 -28.5t-68 16.5t8 44zM1984 928q79 27 135 81q27 25 25.5 54t-27.5 47
q-62 40 -147 3q51 -52 40 -87t-66 -64q-17 -9 -35 -16q-20 53 -73 98q-118 99 -335 123q-225 25 -474 -12q-211 -31 -411 -139q-222 -119 -344 -291q-170 -238 -51 -455q109 -201 382 -270q221 -57 504 0q209 41 387 143q207 119 322 295q42 65 70 135q34 86 28 144
q-3 27 -24 43q40 80 29 148q31 8 65 20z" />
    <glyph glyph-name="uni1EDF" unicode="&#x1edf;" horiz-adv-x="499" 
d="M353 266q-63 -73 -131 -94q-84 -23 -117 31q-27 47 -2 119q23 66 80 124q73 77 144 86q-7 -7 -7 -25q1 -16 7 -32l6 -9q3 -5 6 -5q11 41 53 74q50 40 53 -23q10 -123 -92 -246zM393.5 652q40.5 2 53.5 26q-18 5 -24 18.5t13 21t56 20.5t72 28q40 18 68.5 43.5t31.5 61
t-12 56t-41.5 30.5t-57.5 11.5t-54 -1.5q-63 -9 -111.5 -44t-50 -68.5t29 -44t58.5 -6t58.5 17t42.5 24.5q5 10 4.5 19.5t-14.5 -1.5q-37 -21 -67.5 -19t-33.5 28q-2 21 20.5 43.5t59 27.5t63 -9t24.5 -54q-2 -20 -10.5 -41t-35.5 -42q-18 -16 -49 -31t-76 -29
q-17 -6 -34.5 -13.5t-33.5 -16.5q-24 -23 -7 -40.5t57.5 -15.5zM542 616q-61 39 -146 -30q-23 22 -94 -4q-56 -20 -117 -60q-207 -133 -213 -303q-2 -118 119 -121q95 -3 186 49q64 38 102 68q61 49 116 121q61 83 75 169l2 14q20 5 42 13q55 18 94 55q18 18 17 38t-18 32
q-44 27 -87 -2q20 -32 12.5 -56t-45.5 -44q-6 -4 -13 -7q-1 49 -32 68z" />
    <glyph glyph-name="uni1EE0" unicode="&#x1ee0;" horiz-adv-x="1792" 
d="M1587 313q-127 -123 -295 -180q-186 -61 -378 -58q-207 3 -347 83q-145 82 -210 221q-74 155 -1 301q69 139 236 235q145 83 331 117q132 24 280 23q170 -1 314 -35q123 -31 186 -101q68 -77 43 -176q-35 -143 -202 -219l-9 -3l-41 -16q-42 -15 -86 -24q-60 -12 -123 -12
q-77 0 -159 16q-29 -119 125 -133q140 -11 309 87q152 88 227 198q-60 -189 -200 -324zM1596 1436q-4 -30 -48 -79q-47 -53 -92 -65q-33 -8 -117 16q-14 4 -31 9l-27 9q-28 9 -33 9q-48 12 -86 0l-36 -14q-13 -7 -22 -15q-10 -9 -14 -20q-5 -11 -12 -2q-7 8 -7 19
q4 35 57 89q59 61 111 58q27 -1 66 -13l68 -22q86 -27 129 -12l16 5l23 9q13 7 21 15q11 9 15 20q5 13 12 3q7 -8 7 -19zM1984 928q79 27 135 81q27 25 25.5 54t-27.5 47q-62 40 -147 3q51 -52 40 -87t-66 -64q-17 -9 -35 -16q-20 53 -73 98q-118 99 -335 123
q-225 25 -474 -12q-211 -31 -411 -139q-222 -119 -344 -291q-170 -238 -51 -455q109 -201 382 -270q221 -57 504 0q209 41 387 143q207 119 322 295q42 65 70 135q34 86 28 144q-3 27 -24 43q40 80 29 148q31 8 65 20z" />
    <glyph glyph-name="uni1EE1" unicode="&#x1ee1;" horiz-adv-x="509" 
d="M353 266q-63 -73 -131 -94q-84 -23 -117 31q-27 47 -2 119q23 66 80 124q73 77 144 86q-7 -7 -7 -25q1 -16 7 -32l6 -9q3 -5 6 -5q11 41 53 74q50 40 53 -23q10 -123 -92 -246zM291 782q-46 -54 -50 -89q0 -11 6 -19t10 3t13 20q8 8 19 14l32 15q34 11 76 0q4 0 28 -10
l24 -8q15 -6 27 -10q74 -24 103 -15q40 11 81 64q38 48 42 79q0 12 -6 20q-6 9 -11 -3q-3 -11 -12 -20q-8 -8 -20 -15l-19 -9l-14 -5q-39 -16 -114 12l-60 22q-34 11 -58 13q-45 3 -97 -59zM542 616q-61 39 -146 -30q-23 22 -94 -4q-56 -20 -117 -60q-207 -133 -213 -303
q-2 -118 119 -121q95 -3 186 49q64 38 102 68q61 49 116 121q61 83 75 169l2 14q20 5 42 13q55 18 94 55q18 18 17 38t-18 32q-44 27 -87 -2q20 -32 12.5 -56t-45.5 -44q-6 -4 -13 -7q-1 49 -32 68z" />
    <glyph glyph-name="uni1EE2" unicode="&#x1ee2;" horiz-adv-x="1792" 
d="M1587 313q-127 -123 -295 -180q-186 -61 -378 -58q-207 3 -347 83q-145 82 -210 221q-74 155 -1 301q69 139 236 235q145 83 331 117q132 24 280 23q170 -1 314 -35q123 -31 186 -101q68 -77 43 -176q-35 -143 -202 -219l-9 -3l-41 -16q-42 -15 -86 -24q-60 -12 -123 -12
q-77 0 -159 16q-29 -119 125 -133q140 -11 309 87q152 88 227 198q-60 -189 -200 -324zM594 -170q-103 -77 -80 -150q25 -67 129 11q106 79 80 149q-23 70 -129 -10zM1984 928q79 27 135 81q27 25 25.5 54t-27.5 47q-62 40 -147 3q51 -52 40 -87t-66 -64q-17 -9 -35 -16
q-20 53 -73 98q-118 99 -335 123q-225 25 -474 -12q-211 -31 -411 -139q-222 -119 -344 -291q-170 -238 -51 -455q109 -201 382 -270q221 -57 504 0q209 41 387 143q207 119 322 295q42 65 70 135q34 86 28 144q-3 27 -24 43q40 80 29 148q31 8 65 20z" />
    <glyph glyph-name="uni1EE3" unicode="&#x1ee3;" horiz-adv-x="499" 
d="M353 266q-63 -73 -131 -94q-84 -23 -116 31q-28 47 -3 119q23 66 80 124q73 77 144 86q-7 -7 -6 -25q0 -16 6 -32l6 -9q4 -5 6 -5q11 41 53 74q50 40 54 -23q9 -123 -93 -246zM23 16q-76 -57 -59 -111q18 -50 95 8q79 58 59 110q-17 52 -95 -7zM542 616q-61 39 -146 -30
q-23 22 -94 -4q-56 -20 -117 -60q-207 -133 -213 -303q-2 -118 119 -121q95 -3 186 49q64 38 102 68q61 49 116 121q61 83 75 169l2 14q20 5 42 13q55 18 94 55q18 18 17 38t-18 32q-44 27 -87 -2q20 -32 12.5 -56t-45.5 -44q-6 -4 -13 -7q-1 49 -32 68z" />
    <glyph glyph-name="uni1EE4" unicode="&#x1ee4;" horiz-adv-x="1380" 
d="M1696 1012q-33 22 -80 17q-57 -7 -100 -54q-44 -49 -96 -120q-40 -55 -93 -134q-17 -25 -44 -66l-42 -64q-47 -71 -75 -110q-129 -170 -336 -311q-17 -11 -50 -25q-39 -16 -69 -22q-86 -16 -49 59q20 40 112 168q34 48 92 126l211 287l101 141q105 151 146 229
q51 101 -3 128q-39 20 -141 1q-79 -16 -207 -74q-142 -64 -282 -152q-162 -102 -284 -216q-141 -132 -214 -267q-93 -174 29 -182q120 -8 186 92q-107 0 -33 172q65 151 253 302q177 142 345 196q68 20 105 6q50 -18 16 -99q-38 -86 -117 -208q-69 -107 -168 -240
q-83 -112 -185 -238q-82 -102 -171 -207q-108 -126 -15 -173q93 -48 273 49q45 23 107 71q53 40 116 96q109 96 185 179q-86 -119 -110 -231q-26 -125 65 -118q71 5 199 93q124 85 219 190q24 33 10 53q-2 2 -6 -2l-60 -55q-36 -32 -64 -53q-73 -58 -120 -68q-32 -5 -40 27
q-7 27 3 61q59 194 189 375q120 166 307 332l5 1q4 1 5 3q5 12 -25 35zM722 -170q-103 -77 -80 -150q25 -67 129 11q106 79 80 149q-24 70 -129 -10z" />
    <glyph glyph-name="uni1EE5" unicode="&#x1ee5;" horiz-adv-x="534" 
d="M567 584q-77 -10 -98 -37l-110 -170q-40 -62 -96 -118q-63 -64 -107 -77q-48 -12 -37 31q17 63 67 148q41 71 93 137q43 56 63 73q24 24 -53 13q-78 -10 -98 -37q-33 -47 -113 -170l-28 -46q-21 -33 -34 -55q-40 -69 -47 -108q-9 -49 35 -62q29 -8 78 0q94 19 189 113
q-4 -7 -6 -12l-17 -39q-9 -49 34 -62q30 -8 79 0q50 11 124 61q64 43 123 101q9 3 9 13q6 16 -2 28q-7 6 -13 0q-50 -48 -91 -82q-53 -44 -77 -51q-48 -12 -37 33q18 69 68 154q37 64 90 135q38 46 66 73q24 24 -54 13zM115 16q-76 -57 -59 -111q19 -50 95 8q79 58 60 110
q-18 52 -96 -7z" />
    <glyph glyph-name="uni1EE6" unicode="&#x1ee6;" horiz-adv-x="1380" 
d="M1696 1012q-33 22 -80 17q-57 -7 -100 -54q-44 -49 -96 -120q-40 -55 -93 -134q-17 -25 -44 -66l-42 -64q-47 -71 -75 -110q-129 -170 -336 -311q-17 -11 -50 -25q-39 -16 -69 -22q-86 -16 -49 59q20 40 112 168q34 48 92 126l211 287l101 141q105 151 146 229
q51 101 -3 128q-39 20 -141 1q-79 -16 -207 -74q-142 -64 -282 -152q-162 -102 -284 -216q-141 -132 -214 -267q-93 -174 29 -182q120 -8 186 92q-107 0 -33 172q65 151 253 302q177 142 345 196q68 20 105 6q50 -18 16 -99q-38 -86 -117 -208q-69 -107 -168 -240
q-83 -112 -185 -238q-82 -102 -171 -207q-108 -126 -15 -173q93 -48 273 49q45 23 107 71q53 40 116 96q109 96 185 179q-86 -119 -110 -231q-26 -125 65 -118q71 5 199 93q124 85 219 190q24 33 10 53q-2 2 -6 -2l-60 -55q-36 -32 -64 -53q-73 -58 -120 -68q-32 -5 -40 27
q-7 27 3 61q59 194 189 375q120 166 307 332l5 1q4 1 5 3q5 12 -25 35zM1514 1293q18 10 39 18.5t42 14.5q53 15 89 31.5t58 34.5q31 23 41.5 45.5t12.5 45.5q2 43 -29 58.5t-74 10t-70 -30t-23 -47.5q3 -29 39 -31t79 21q16 12 16.5 2t-4.5 -22q-14 -13 -50 -27t-69 -18.5
t-69 7t-34.5 48t59 75t131.5 48.5q27 3 63.5 1.5t68 -12.5t49 -33.5t14 -61t-37 -67t-80.5 -47.5q-42 -17 -85 -31t-66 -22.5t-15.5 -23t28.5 -19.5q-15 -26 -63 -28.5t-68 16.5t8 44z" />
    <glyph glyph-name="uni1EE7" unicode="&#x1ee7;" horiz-adv-x="534" 
d="M567 584q-77 -10 -98 -37l-110 -170q-40 -62 -96 -118q-63 -64 -107 -77q-48 -12 -37 31q17 63 67 148q41 71 93 137q43 56 63 73q24 24 -53 13q-78 -10 -98 -37q-33 -47 -113 -170l-28 -46q-21 -33 -34 -55q-40 -69 -47 -108q-9 -49 35 -62q29 -8 78 0q94 19 189 113
q-4 -7 -6 -12l-17 -39q-9 -49 34 -62q30 -8 79 0q50 11 124 61q64 43 123 101q9 3 9 13q6 16 -2 28q-7 6 -13 0q-50 -48 -91 -82q-53 -44 -77 -51q-48 -12 -37 33q18 69 68 154q37 64 90 135q38 46 66 73q24 24 -54 13zM457.5 633q40.5 2 52.5 26q-18 5 -24 18.5t13.5 21
t56 20.5t71.5 28q41 18 69.5 43.5t31 61t-12.5 56t-41.5 30.5t-57.5 11.5t-54 -1.5q-63 -9 -111.5 -44t-49.5 -68.5t29.5 -44t58 -6t58 17t42.5 24.5q5 10 4.5 19.5t-14.5 -1.5q-37 -21 -67.5 -19t-32.5 28q-3 21 19.5 43.5t59.5 27.5t63 -9t24 -54q-1 -20 -10 -41t-35 -42
q-19 -16 -49.5 -31t-75.5 -29q-18 -6 -35.5 -13.5t-33.5 -16.5q-24 -23 -6.5 -40.5t58 -15.5z" />
    <glyph glyph-name="uni1EE8" unicode="&#x1ee8;" horiz-adv-x="1380" 
d="M1753 1530q-36 -21 -91 -60l-154 -114q-12 -8 -18 -25q-14 -23 -16 -48t12 -13l51 33q82 49 141 65q36 8 33 -22q0 -2 3 -1t5 3q50 59 86 129q38 78 8 79q-15 0 -60 -26zM1754 928q79 27 135 81q27 25 25.5 54t-27.5 47q-62 40 -147 3q51 -52 40 -87t-66 -64
q-15 -8 -32 -15q15 13 29 26l5 1q4 1 5 3q5 12 -25 35q-33 22 -80 17q-56 -7 -100 -54q-44 -49 -96 -120q-40 -55 -93 -134q-17 -25 -44 -66l-41 -64q-48 -71 -76 -110q-129 -170 -336 -311q-16 -11 -50 -25q-39 -16 -69 -22q-86 -16 -49 59q20 40 112 168q35 48 92 126
l211 287l101 141q105 151 146 229q51 101 -3 128q-39 20 -141 1q-79 -16 -207 -74q-142 -64 -282 -152q-162 -102 -284 -216q-141 -132 -214 -267q-93 -174 29 -182q121 -8 186 92q-107 0 -32 172q64 151 252 302q177 142 346 196q68 20 105 6q49 -18 15 -99
q-38 -86 -117 -208q-69 -107 -168 -240q-83 -112 -185 -238q-82 -102 -171 -207q-108 -126 -15 -173q93 -48 273 49q45 23 107 71q54 40 116 96q109 96 185 179q-86 -119 -109 -231q-27 -125 64 -118q71 5 199 93q125 85 219 190q24 33 10 53q-2 2 -6 -2l-60 -55
q-36 -32 -64 -53q-73 -58 -120 -68q-32 -5 -40 27q-6 27 3 61q59 194 190 375q91 127 222 254q57 9 127 33z" />
    <glyph glyph-name="uni1EE9" unicode="&#x1ee9;" horiz-adv-x="534" 
d="M484 693q82 50 141 66q36 8 33 -23q0 -1 3 0t5 2q50 59 86 130q38 78 8 79q-15 0 -60 -26q-36 -21 -91 -60l-154 -114q-12 -8 -18 -25q-14 -23 -16 -48q-2 -26 12 -13zM620 571q24 24 -53 13q-77 -10 -98 -37l-111 -170q-39 -62 -95 -118q-63 -64 -108 -77
q-47 -12 -36 31q17 63 66 148q42 71 93 137q43 56 64 73q24 24 -54 13q-77 -10 -98 -37q-32 -47 -112 -170l-29 -46q-21 -33 -33 -55q-40 -69 -47 -108q-9 -49 34 -62q30 -8 79 0q94 19 188 113q-3 -7 -6 -12l-16 -39q-10 -49 34 -62q30 -8 78 0q50 11 124 61q64 43 124 101
q8 3 8 13q7 16 -2 28q-6 6 -12 0q-51 -48 -91 -82q-54 -44 -77 -51q-48 -12 -37 33q18 69 67 154q38 64 91 135q6 7 11 13q33 7 73 21q55 18 94 55q18 18 17 38t-18 32q-44 27 -87 -2q20 -32 12.5 -56t-45.5 -44q-7 -4 -14 -7q12 13 22 23z" />
    <glyph glyph-name="uni1EEA" unicode="&#x1eea;" horiz-adv-x="1380" 
d="M1600 1331q-65 123 -73 213q-2 16 -1 26q1 12 7 17q1 2 0 5t-2 3q-150 -62 -119 -125q63 -116 143 -192q15 -15 52 -15t24 19zM1754 928q79 27 135 81q27 25 25.5 54t-27.5 47q-62 40 -147 3q51 -52 40 -87t-66 -64q-15 -8 -32 -15q15 13 29 26l5 1q4 1 5 3q5 12 -25 35
q-33 22 -80 17q-56 -7 -100 -54q-44 -49 -96 -120q-40 -55 -93 -134q-17 -25 -44 -66l-41 -64q-48 -71 -76 -110q-129 -170 -336 -311q-16 -11 -50 -25q-39 -16 -69 -22q-86 -16 -49 59q20 40 112 168q35 48 92 126l211 287l101 141q105 151 146 229q51 101 -3 128
q-39 20 -141 1q-79 -16 -207 -74q-142 -64 -282 -152q-162 -102 -284 -216q-141 -132 -214 -267q-93 -174 29 -182q121 -8 186 92q-107 0 -32 172q64 151 252 302q177 142 346 196q68 20 105 6q49 -18 15 -99q-38 -86 -117 -208q-69 -107 -168 -240q-83 -112 -185 -238
q-82 -102 -171 -207q-108 -126 -15 -173q93 -48 273 49q45 23 107 71q54 40 116 96q109 96 185 179q-86 -119 -109 -231q-27 -125 64 -118q71 5 199 93q125 85 219 190q24 33 10 53q-2 2 -6 -2l-60 -55q-36 -32 -64 -53q-73 -58 -120 -68q-32 -5 -40 27q-6 27 3 61
q59 194 190 375q91 127 222 254q57 9 127 33z" />
    <glyph glyph-name="uni1EEB" unicode="&#x1eeb;" horiz-adv-x="534" 
d="M462 702q-65 123 -73 213q-2 16 -1 25q1 12 7 18q1 1 0 5q-1 3 -2 3q-150 -63 -119 -125q63 -116 143 -192q15 -15 52 -15t24 19zM620 571q24 24 -53 13q-77 -10 -98 -37l-111 -170q-39 -62 -95 -118q-63 -64 -108 -77q-47 -12 -36 31q17 63 66 148q42 71 93 137
q43 56 64 73q24 24 -54 13q-77 -10 -98 -37q-32 -47 -112 -170l-29 -46q-21 -33 -33 -55q-40 -69 -47 -108q-9 -49 34 -62q30 -8 79 0q94 19 188 113q-3 -7 -6 -12l-16 -39q-10 -49 34 -62q30 -8 78 0q50 11 124 61q64 43 124 101q8 3 8 13q7 16 -2 28q-6 6 -12 0
q-51 -48 -91 -82q-54 -44 -77 -51q-48 -12 -37 33q18 69 67 154q38 64 91 135q6 7 11 13q33 7 73 21q55 18 94 55q18 18 17 38t-18 32q-44 27 -87 -2q20 -32 12.5 -56t-45.5 -44q-7 -4 -14 -7q12 13 22 23z" />
    <glyph glyph-name="uni1EEC" unicode="&#x1eec;" horiz-adv-x="1380" 
d="M1514 1293q19 10 39.5 18.5t41.5 14.5q53 15 89 31.5t58 34.5q31 23 41.5 45.5t12.5 45.5q2 43 -29 58.5t-74 10t-69.5 -30t-23.5 -47.5q3 -29 39 -31t79 21q16 12 17 2t-5 -22q-14 -13 -50 -27t-68.5 -18.5t-68.5 7t-34.5 48t58.5 75t131 48.5q27 3 63.5 1.5t68 -12.5
t49 -33.5t14.5 -61t-36.5 -67t-81.5 -47.5q-42 -17 -85 -31t-65.5 -22.5t-15.5 -23t28 -19.5q-15 -26 -63 -28.5t-68 16.5t8 44zM1754 928q79 27 135 81q27 25 25.5 54t-27.5 47q-62 40 -147 3q51 -52 40 -87t-66 -64q-15 -8 -32 -15q15 13 29 26l5 1q4 1 5 3q5 12 -25 35
q-33 22 -80 17q-56 -7 -100 -54q-44 -49 -96 -120q-40 -55 -93 -134q-17 -25 -44 -66l-41 -64q-48 -71 -76 -110q-129 -170 -336 -311q-16 -11 -50 -25q-39 -16 -69 -22q-86 -16 -49 59q20 40 112 168q35 48 92 126l211 287l101 141q105 151 146 229q51 101 -3 128
q-39 20 -141 1q-79 -16 -207 -74q-142 -64 -282 -152q-162 -102 -284 -216q-141 -132 -214 -267q-93 -174 29 -182q121 -8 186 92q-107 0 -32 172q64 151 252 302q177 142 346 196q68 20 105 6q49 -18 15 -99q-38 -86 -117 -208q-69 -107 -168 -240q-83 -112 -185 -238
q-82 -102 -171 -207q-108 -126 -15 -173q93 -48 273 49q45 23 107 71q54 40 116 96q109 96 185 179q-86 -119 -109 -231q-27 -125 64 -118q71 5 199 93q125 85 219 190q24 33 10 53q-2 2 -6 -2l-60 -55q-36 -32 -64 -53q-73 -58 -120 -68q-32 -5 -40 27q-6 27 3 61
q59 194 190 375q91 127 222 254q57 9 127 33z" />
    <glyph glyph-name="uni1EED" unicode="&#x1eed;" horiz-adv-x="534" 
d="M456.5 633q40.5 2 53.5 26q-18 5 -24 18.5t13 21t56 20.5t72 28q40 18 68.5 43.5t31.5 61t-12 56t-41.5 30.5t-57.5 11.5t-54 -1.5q-63 -9 -111.5 -44t-50 -68.5t29 -44t58.5 -6t58.5 17t42.5 24.5q5 10 4.5 19.5t-14.5 -1.5q-37 -21 -67.5 -19t-33.5 28q-2 21 20.5 43.5
t59 27.5t63 -9t24.5 -54q-2 -20 -10.5 -41t-35.5 -42q-18 -16 -49 -31t-76 -29q-17 -6 -34.5 -13.5t-33.5 -16.5q-24 -23 -7 -40.5t57.5 -15.5zM620 571q24 24 -53 13q-77 -10 -98 -37l-111 -170q-39 -62 -95 -118q-63 -64 -108 -77q-47 -12 -36 31q17 63 66 148
q42 71 93 137q43 56 64 73q24 24 -54 13q-77 -10 -98 -37q-32 -47 -112 -170l-29 -46q-21 -33 -33 -55q-40 -69 -47 -108q-9 -49 34 -62q30 -8 79 0q94 19 188 113q-3 -7 -6 -12l-16 -39q-10 -49 34 -62q30 -8 78 0q50 11 124 61q64 43 124 101q8 3 8 13q7 16 -2 28
q-6 6 -12 0q-51 -48 -91 -82q-54 -44 -77 -51q-48 -12 -37 33q18 69 67 154q38 64 91 135q6 7 11 13q33 7 73 21q55 18 94 55q18 18 17 38t-18 32q-44 27 -87 -2q20 -32 12.5 -56t-45.5 -44q-7 -4 -14 -7q12 13 22 23z" />
    <glyph glyph-name="uni1EEE" unicode="&#x1eee;" horiz-adv-x="1380" 
d="M1754 928q79 27 135 81q27 25 25.5 54t-27.5 47q-62 40 -147 3q51 -52 40 -87t-66 -64q-15 -8 -32 -15q15 13 29 26l5 1q4 1 5 3q5 12 -25 35q-33 22 -80 17q-56 -7 -100 -54q-44 -49 -96 -120q-40 -55 -93 -134q-17 -25 -44 -66l-41 -64q-48 -71 -76 -110
q-129 -170 -336 -311q-16 -11 -50 -25q-39 -16 -69 -22q-86 -16 -49 59q20 40 112 168q35 48 92 126l211 287l101 141q105 151 146 229q51 101 -3 128q-39 20 -141 1q-79 -16 -207 -74q-142 -64 -282 -152q-162 -102 -284 -216q-141 -132 -214 -267q-93 -174 29 -182
q121 -8 186 92q-107 0 -32 172q64 151 252 302q177 142 346 196q68 20 105 6q49 -18 15 -99q-38 -86 -117 -208q-69 -107 -168 -240q-83 -112 -185 -238q-82 -102 -171 -207q-108 -126 -15 -173q93 -48 273 49q45 23 107 71q54 40 116 96q109 96 185 179q-86 -119 -109 -231
q-27 -125 64 -118q71 5 199 93q125 85 219 190q24 33 10 53q-2 2 -6 -2l-60 -55q-36 -32 -64 -53q-73 -58 -120 -68q-32 -5 -40 27q-6 27 3 61q59 194 190 375q91 127 222 254q57 9 127 33zM1859 1533q-4 -30 -48 -79q-47 -53 -92 -65q-33 -8 -117 16q-14 4 -31 9l-27 9
q-28 9 -33 9q-48 12 -86 0l-36 -14q-13 -7 -22 -15q-10 -9 -14 -20q-5 -11 -12 -2q-7 8 -7 19q4 35 57 89q59 61 111 58q27 -1 66 -13l68 -22q86 -27 129 -12l16 5l23 9q13 7 21 15q11 9 15 20q5 13 12 3q7 -8 7 -19z" />
    <glyph glyph-name="uni1EEF" unicode="&#x1eef;" horiz-adv-x="534" 
d="M733 797q-6 8 -10 -3q-3 -8 -12 -16q-7 -7 -18 -12l-19 -8l-13 -4q-36 -13 -107 10l-57 18q-32 10 -54 11q-43 2 -92 -49q-44 -44 -47 -73q0 -9 5 -16q6 -7 10 2t12 17q7 6 18 12l30 12q32 9 72 0q4 -1 27 -8l22 -7q14 -5 26 -8q69 -20 96 -13q38 10 77 54q36 40 39 65
q0 9 -5 16zM620 571q24 24 -53 13q-77 -10 -98 -37l-111 -170q-39 -62 -95 -118q-63 -64 -108 -77q-47 -12 -36 31q17 63 66 148q42 71 93 137q43 56 64 73q24 24 -54 13q-77 -10 -98 -37q-32 -47 -112 -170l-29 -46q-21 -33 -33 -55q-40 -69 -47 -108q-9 -49 34 -62
q30 -8 79 0q94 19 188 113q-3 -7 -6 -12l-16 -39q-10 -49 34 -62q30 -8 78 0q50 11 124 61q64 43 124 101q8 3 8 13q7 16 -2 28q-6 6 -12 0q-51 -48 -91 -82q-54 -44 -77 -51q-48 -12 -37 33q18 69 67 154q38 64 91 135q6 7 11 13q33 7 73 21q55 18 94 55q18 18 17 38
t-18 32q-44 27 -87 -2q20 -32 12.5 -56t-45.5 -44q-7 -4 -14 -7q12 13 22 23z" />
    <glyph glyph-name="uni1EF0" unicode="&#x1ef0;" horiz-adv-x="1380" 
d="M722 -170q-103 -77 -80 -150q25 -67 129 11q106 79 80 149q-23 70 -129 -10zM1754 928q79 27 135 81q27 25 25.5 54t-27.5 47q-62 40 -147 3q51 -52 40 -87t-66 -64q-15 -8 -32 -15q15 13 29 26l5 1q4 1 5 3q5 12 -25 35q-33 22 -80 17q-56 -7 -100 -54q-44 -49 -96 -120
q-40 -55 -93 -134q-17 -25 -44 -66l-41 -64q-48 -71 -76 -110q-129 -170 -336 -311q-16 -11 -50 -25q-39 -16 -69 -22q-86 -16 -49 59q20 40 112 168q35 48 92 126l211 287l101 141q105 151 146 229q51 101 -3 128q-39 20 -141 1q-79 -16 -207 -74q-142 -64 -282 -152
q-162 -102 -284 -216q-141 -132 -214 -267q-93 -174 29 -182q121 -8 186 92q-107 0 -32 172q64 151 252 302q177 142 346 196q68 20 105 6q49 -18 15 -99q-38 -86 -117 -208q-69 -107 -168 -240q-83 -112 -185 -238q-82 -102 -171 -207q-108 -126 -15 -173q93 -48 273 49
q45 23 107 71q54 40 116 96q109 96 185 179q-86 -119 -109 -231q-27 -125 64 -118q71 5 199 93q125 85 219 190q24 33 10 53q-2 2 -6 -2l-60 -55q-36 -32 -64 -53q-73 -58 -120 -68q-32 -5 -40 27q-6 27 3 61q59 194 190 375q91 127 222 254q57 9 127 33z" />
    <glyph glyph-name="uni1EF1" unicode="&#x1ef1;" horiz-adv-x="534" 
d="M115 16q-76 -57 -59 -111q18 -50 95 8q78 58 59 110q-17 52 -95 -7zM620 571q24 24 -53 13q-77 -10 -98 -37l-111 -170q-39 -62 -95 -118q-63 -64 -108 -77q-47 -12 -36 31q17 63 66 148q42 71 93 137q43 56 64 73q24 24 -54 13q-77 -10 -98 -37q-32 -47 -112 -170
l-29 -46q-21 -33 -33 -55q-40 -69 -47 -108q-9 -49 34 -62q30 -8 79 0q94 19 188 113q-3 -7 -6 -12l-16 -39q-10 -49 34 -62q30 -8 78 0q50 11 124 61q64 43 124 101q8 3 8 13q7 16 -2 28q-6 6 -12 0q-51 -48 -91 -82q-54 -44 -77 -51q-48 -12 -37 33q18 69 67 154
q38 64 91 135q6 7 11 13q33 7 73 21q55 18 94 55q18 18 17 38t-18 32q-44 27 -87 -2q20 -32 12.5 -56t-45.5 -44q-7 -4 -14 -7q12 13 22 23z" />
    <glyph glyph-name="Ygrave" unicode="&#x1ef2;" horiz-adv-x="1314" 
d="M1652 1032q-23 17 -41 17q-12 0 -18 -7q-592 -681 -807 -815q-4 9 -4 15q0 71 188 336q26 35 58 78l176 237q117 160 117 235q0 91 -136 91q-88 0 -194 -30q-96 -27 -205 -77q-156 -74 -308 -185q-143 -105 -241 -210q-135 -145 -135 -275q0 -92 100 -104q78 -8 164 29
q69 31 103 73q11 15 8 29q-62 -61 -125 -61q-38 0 -64 28q-34 43 -19 110q14 58 62 130q39 60 96 122q48 51 89 85q50 41 115 86q77 52 151 91q87 46 158 68q83 25 139 17q59 -10 59 -62q0 -62 -84 -168q-432 -534 -587 -833q-11 -24 -11 -39q0 -49 74 -49q50 0 100 26
q354 233 680 631q7 10 11 6q2 -2 -2 -10q-609 -955 -658 -1100l-3 -14l-1 -12q0 -45 49 -45q59 0 148 55q90 53 127 104q8 15 0 15q-23 0 -23 33q3 180 320 688l391 604q4 12 4 20q0 23 -21 37zM1501 1331q-65 123 -74 213q-2 16 -1 26q1 12 7 17q2 2 1 5t-3 3
q-150 -62 -119 -125q64 -116 144 -192q14 -15 51 -15t24 19z" />
    <glyph glyph-name="ygrave" unicode="&#x1ef3;" horiz-adv-x="489" 
d="M598 583q-76 -11 -97 -38q-18 -23 -48 -70l-52 -82q-55 -85 -98 -131q-59 -63 -117 -80q-51 -16 -35 29q14 56 54 129q33 58 79 123q57 79 88 106q24 25 -53 14q-77 -10 -96 -38q-12 -13 -45 -64l-132 -207q-40 -68 -47 -106q-8 -50 36 -62q29 -9 77 0q96 18 189 111
l-3 -4q-22 -47 -67 -124q-52 -90 -115 -185q-110 -173 -252 -238q-215 -94 -282 48q-65 139 84 286q33 34 73 55q7 0 15 4q1 2 -1 2l-8 -2q-5 -1 -6 -2q-257 -68 -296 -263q-38 -195 221 -206q158 -7 339 112q165 109 252 253l143 241l28 50q44 77 77 131q78 120 150 194
q22 26 -55 14zM462 751q-65 123 -74 213q-1 16 0 25q1 12 6 18q2 1 1 5q-1 3 -3 3q-149 -63 -118 -125q63 -116 143 -192q15 -15 52 -15t24 19z" />
    <glyph glyph-name="uni1EF4" unicode="&#x1ef4;" horiz-adv-x="1314" 
d="M1652 1032q-23 17 -41 17q-12 0 -18 -7q-592 -681 -807 -815q-4 9 -4 15q0 71 188 336q26 35 58 78l176 237q117 160 117 235q0 91 -136 91q-88 0 -194 -30q-96 -27 -205 -77q-156 -74 -308 -185q-143 -105 -241 -210q-135 -145 -135 -275q0 -92 100 -104q78 -8 164 29
q69 31 103 73q11 15 8 29q-62 -61 -125 -61q-38 0 -64 28q-34 43 -19 110q14 58 62 130q39 60 96 122q48 51 89 85q50 41 115 86q77 52 151 91q87 46 158 68q83 25 139 17q59 -10 59 -62q0 -62 -84 -168q-432 -534 -587 -833q-11 -24 -11 -39q0 -49 74 -49q50 0 100 26
q354 233 680 631q7 10 11 6q2 -2 -2 -10q-609 -955 -658 -1100l-3 -14l-1 -12q0 -45 49 -45q59 0 148 55q90 53 127 104q8 15 0 15q-23 0 -23 33q3 180 320 688l391 604q4 12 4 20q0 23 -21 37zM1123 -170q-102 -77 -79 -150q25 -67 129 11q105 79 79 149q-23 70 -129 -10z
" />
    <glyph glyph-name="uni1EF5" unicode="&#x1ef5;" horiz-adv-x="489" 
d="M598 583q-76 -11 -97 -38q-18 -23 -48 -70l-52 -82q-55 -85 -98 -131q-59 -63 -117 -80q-51 -16 -35 29q14 56 54 129q33 58 79 123q57 79 88 106q24 25 -53 14q-77 -10 -96 -38q-12 -13 -45 -64l-132 -207q-40 -68 -47 -106q-8 -50 36 -62q29 -9 77 0q96 18 189 111
l-3 -4q-22 -47 -67 -124q-52 -90 -115 -185q-110 -173 -252 -238q-215 -94 -282 48q-65 139 84 286q33 34 73 55q7 0 15 4q1 2 -1 2l-8 -2q-5 -1 -6 -2q-257 -68 -296 -263q-38 -195 221 -206q158 -7 339 112q165 109 252 253l143 241l28 50q44 77 77 131q78 120 150 194
q22 26 -55 14zM357 16q-76 -57 -59 -111q19 -50 96 8q78 58 59 110q-18 52 -96 -7z" />
    <glyph glyph-name="uni1EF6" unicode="&#x1ef6;" horiz-adv-x="1314" 
d="M1652 1032q-23 17 -41 17q-12 0 -18 -7q-592 -681 -807 -815q-4 9 -4 15q0 71 188 336q26 35 58 78l176 237q117 160 117 235q0 91 -136 91q-88 0 -194 -30q-96 -27 -205 -77q-156 -74 -308 -185q-143 -105 -241 -210q-135 -145 -135 -275q0 -92 100 -104q78 -8 164 29
q69 31 103 73q11 15 8 29q-62 -61 -125 -61q-38 0 -64 28q-34 43 -19 110q14 58 62 130q39 60 96 122q48 51 89 85q50 41 115 86q77 52 151 91q87 46 158 68q83 25 139 17q59 -10 59 -62q0 -62 -84 -168q-432 -534 -587 -833q-11 -24 -11 -39q0 -49 74 -49q50 0 100 26
q354 233 680 631q7 10 11 6q2 -2 -2 -10q-609 -955 -658 -1100l-3 -14l-1 -12q0 -45 49 -45q59 0 148 55q90 53 127 104q8 15 0 15q-23 0 -23 33q3 180 320 688l391 604q4 12 4 20q0 23 -21 37zM1460 1322q18 10 39 18.5t41 14.5q54 15 90 31.5t58 34.5q31 23 41.5 45.5
t11.5 45.5q3 43 -28 58.5t-74 10t-70 -30t-24 -47.5q3 -29 39 -31t80 21q16 12 16.5 2t-4.5 -22q-15 -13 -51 -27t-68.5 -18.5t-68.5 7t-34.5 48t58.5 75t131 48.5q28 3 64.5 1.5t68 -12.5t48.5 -33.5t14 -61t-36.5 -67t-81.5 -47.5q-41 -17 -84.5 -31t-66 -22.5t-15.5 -23
t29 -19.5q-15 -26 -63 -28.5t-68 16.5t8 44z" />
    <glyph glyph-name="uni1EF7" unicode="&#x1ef7;" horiz-adv-x="489" 
d="M598 583q-76 -11 -97 -38q-18 -23 -48 -70l-52 -82q-55 -85 -98 -131q-59 -63 -117 -80q-51 -16 -35 29q14 56 54 129q33 58 79 123q57 79 88 106q24 25 -53 14q-77 -10 -96 -38q-12 -13 -45 -64l-132 -207q-40 -68 -47 -106q-8 -50 36 -62q29 -9 77 0q96 18 189 111
l-3 -4q-22 -47 -67 -124q-52 -90 -115 -185q-110 -173 -252 -238q-215 -94 -282 48q-65 139 84 286q33 34 73 55q7 0 15 4q1 2 -1 2l-8 -2q-5 -1 -6 -2q-257 -68 -296 -263q-38 -195 221 -206q158 -7 339 112q165 109 252 253l143 241l28 50q44 77 77 131q78 120 150 194
q22 26 -55 14zM496.5 652q40.5 2 52.5 26q-18 5 -24 18.5t13.5 21t56 20.5t71.5 28q41 18 69.5 43.5t31 61t-12.5 56t-41.5 30.5t-57.5 11.5t-54 -1.5q-63 -9 -111.5 -44t-49.5 -68.5t29.5 -44t58 -6t58 17t42.5 24.5q5 10 4.5 19.5t-14.5 -1.5q-37 -21 -67.5 -19t-32.5 28
q-3 21 19.5 43.5t59 27.5t63 -9t24.5 -54q-2 -20 -10.5 -41t-34.5 -42q-19 -16 -49.5 -31t-76.5 -29q-17 -6 -34.5 -13.5t-33.5 -16.5q-24 -23 -6.5 -40.5t58 -15.5z" />
    <glyph glyph-name="uni1EF8" unicode="&#x1ef8;" horiz-adv-x="1314" 
d="M1652 1032q-23 17 -41 17q-12 0 -18 -7q-592 -681 -807 -815q-4 9 -4 15q0 71 188 336q26 35 58 78l176 237q117 160 117 235q0 91 -136 91q-88 0 -194 -30q-96 -27 -205 -77q-156 -74 -308 -185q-143 -105 -241 -210q-135 -145 -135 -275q0 -92 100 -104q78 -8 164 29
q69 31 103 73q11 15 8 29q-62 -61 -125 -61q-38 0 -64 28q-34 43 -19 110q14 58 62 130q39 60 96 122q48 51 89 85q50 41 115 86q77 52 151 91q87 46 158 68q83 25 139 17q59 -10 59 -62q0 -62 -84 -168q-432 -534 -587 -833q-11 -24 -11 -39q0 -49 74 -49q50 0 100 26
q354 233 680 631q7 10 11 6q2 -2 -2 -10q-609 -955 -658 -1100l-3 -14l-1 -12q0 -45 49 -45q59 0 148 55q90 53 127 104q8 15 0 15q-23 0 -23 33q3 180 320 688l391 604q4 12 4 20q0 23 -21 37zM1872 1436q-4 -30 -47 -79q-48 -53 -93 -65q-32 -8 -117 16q-14 4 -30 9l-27 9
q-28 9 -33 9q-48 12 -87 0l-36 -14q-13 -7 -21 -15q-11 -9 -15 -20q-5 -11 -12 -2q-6 8 -6 19q4 35 56 89q60 61 111 58q27 -1 66 -13l69 -22q85 -27 129 -12l16 5l22 9q13 7 22 15q11 9 15 20q4 13 12 3q6 -8 6 -19z" />
    <glyph glyph-name="uni1EF9" unicode="&#x1ef9;" horiz-adv-x="489" 
d="M598 583q-76 -11 -97 -38q-18 -23 -48 -70l-52 -82q-55 -85 -98 -131q-59 -63 -117 -80q-51 -16 -35 29q14 56 54 129q33 58 79 123q57 79 88 106q24 25 -53 14q-77 -10 -96 -38q-12 -13 -45 -64l-132 -207q-40 -68 -47 -106q-8 -50 36 -62q29 -9 77 0q96 18 189 111
l-3 -4q-22 -47 -67 -124q-52 -90 -115 -185q-110 -173 -252 -238q-215 -94 -282 48q-65 139 84 286q33 34 73 55q7 0 15 4q1 2 -1 2l-8 -2q-5 -1 -6 -2q-257 -68 -296 -263q-38 -195 221 -206q158 -7 339 112q165 109 252 253l143 241l28 50q44 77 77 131q78 120 150 194
q22 26 -55 14zM373 782q-46 -54 -50 -89q0 -11 6 -19t11 3q3 11 12 20q8 8 19 14l32 15q34 11 76 0q4 0 29 -10l23 -8q15 -6 28 -10q73 -24 102 -15q40 11 82 64q38 48 41 79q0 12 -6 20q-6 9 -10 -3q-4 -11 -13 -20q-8 -8 -19 -15l-20 -9l-14 -5q-38 -16 -113 12l-61 22
q-34 11 -57 13q-46 3 -98 -59z" />
    <glyph glyph-name="quoteleft" unicode="&#x2018;" horiz-adv-x="32" 
d="M233 1145q-6 2 -18 -2q-38 -17 -82 -62q-46 -46 -68 -80q-18 -33 -18 -61q0 -40 33 -49q44 -13 86 33q42 45 39 92l-8 24q-7 16 -7 23q0 35 47 76q6 3 -4 6z" />
    <glyph glyph-name="quoteright" unicode="&#x2019;" horiz-adv-x="28" 
d="M408 1145q-46 9 -88 -35q-40 -47 -34 -90q0 -11 6 -27q6 -15 6 -20q0 -40 -47 -78q-6 -3 4 -6q6 -2 18 2q101 50 152 145q16 28 16 60q0 40 -33 49z" />
    <glyph glyph-name="quotedblleft" unicode="&#x201c;" horiz-adv-x="368" 
d="M208 890q47 -9 88 35q40 46 37 90l-12 47q0 42 45 78q6 3 -4 6t-18 -2q-93 -45 -150 -146q-18 -30 -18 -59q0 -40 32 -49zM53 890q44 -12 88 35q43 46 37 90q0 11 -6 26q-7 16 -7 21q0 39 45 78q9 3 -2 6q-7 2 -20 -2q-97 -50 -150 -146q-16 -32 -16 -59q0 -43 31 -49z
" />
    <glyph glyph-name="quotedblright" unicode="&#x201d;" horiz-adv-x="407" 
d="M192 1145q-46 9 -88 -35q-39 -46 -36 -90l12 -47q0 -42 -45 -78q-6 -3 4 -6q10 -4 18 2q93 45 150 145q18 31 18 60q0 40 -33 49zM348 1145q-44 12 -88 -35q-43 -46 -37 -90q0 -11 6 -27q6 -15 6 -20q0 -39 -45 -78q-8 -3 2 -6q8 -3 21 2q97 50 149 145q17 33 17 60
q0 43 -31 49z" />
    <glyph glyph-name="ellipsis" unicode="&#x2026;" horiz-adv-x="954" 
d="M272 322q-17 10 -35 10q-57 0 -102 -64q-33 -44 -33 -92q0 -67 59 -67q57 0 103 63q33 45 33 92q0 39 -25 58zM551 322q-13 10 -35 10q-59 0 -105 -64q-30 -43 -30 -92q0 -67 57 -67t102 63q33 45 33 92q0 38 -22 58zM792 332q-57 0 -102 -64q-33 -44 -33 -92
q0 -67 59 -67q57 0 103 63q33 45 33 92q0 68 -60 68z" />
    <glyph glyph-name="glyph42" horiz-adv-x="1175" 
d="M1506 1208q-53 22 -152 28q-79 5 -182 -1q-72 -4 -148 -12q-130 -16 -260 -50q-116 -30 -226 -73q-196 -78 -313 -168q-41 -31 -65 -59q-34 -40 -35 -78q-3 -63 97 -69q94 -6 153 34q-59 44 -1 123q21 29 55 58l26 22q12 10 22 16q184 121 508 174q74 11 125 11
q72 1 118 -17q122 -47 70 -225q-20 -68 -80 -161q-53 -84 -137 -188l-475 2q-26 0 -45 -8q-32 -9 -76 -39q-37 -24 -57 -45q-6 -4 -5 -9t9 -5q289 28 598 41q-160 -187 -406 -365q-254 -183 -442 -241q-45 -14 -4 -51q42 -36 96 -33q27 2 51 7q30 7 58 21q126 62 360 261
q243 206 422 409l137 8q5 0 11 4l41 25q7 4 5 9q-1 5 -9 5l-138 2q149 173 241 317q99 155 110 242q5 51 -57 78z" />
    <glyph glyph-name="ugrave" horiz-adv-x="582" 
 />
    <glyph glyph-name="uacute" horiz-adv-x="580" 
 />
    <glyph glyph-name="yacute" horiz-adv-x="629" 
 />
    </font>
</defs>
</svg>
