<svg xmlns="http://www.w3.org/2000/svg">
<defs>
<font id="UTMWeddingK_T" horiz-adv-x="1953" >
  <font-face 
    font-family="UTMWeddingK_T"
    font-weight="400"
    font-stretch="normal"
    units-per-em="2048"
    panose-1="2 4 6 3 5 5 6 2 2 4"
    ascent="1638"
    descent="-410"
    x-height="610"
    cap-height="1694"
    bbox="-661 -913 10933 2343"
    underline-thickness="109"
    underline-position="-143"
    unicode-range="U+0020-2026"
  />
<missing-glyph horiz-adv-x="5040" 
d="M3351 2045h10q37 -10 37 -52q0 -12 -32 -57h-28q0 24 28 54l2 10q-5 13 -10 15h-9q-8 0 -10 -19h-30q6 49 42 49zM2019 2016l29 -31q0 -16 -40 -30h-19l-59 12l-11 -12l-28 25q11 29 43 29h11l42 -11h2q10 0 30 18zM468 1980h142v-60h-94v-75h89v-59h-89v-129l-5 -5h-49
v323zM1155 1980h43l6 -5v-78h30v-52h-30v-188l-6 -5h-49v193h-25v52h25v78zM1621 1980h42l4 -5v-94h3q23 24 54 24h2q58 0 83 -71l2 -39v-143h-52v115q0 80 -42 80h-7q-43 0 -43 -86v-109h-51v323zM2200 1980h49l5 -5v-222q10 -51 45 -51q44 7 44 59v214l5 5h49v-216
q0 -85 -66 -112q-15 -8 -35 -8q-47 0 -82 55q-14 24 -14 57v224zM2435 1980h159v-60h-56v-268h-53v268h-55v55zM2621 1980h71q7 -4 83 -251h2l80 251h73v-328h-54v242h-2l-74 -242h-44q-4 0 -58 182l-19 60h-3v-242h-55v328zM3760 1980h52v-328h-45l-5 5v11l3 2l-3 14
q-29 -40 -78 -40q-67 0 -100 91l-5 39v3q0 94 92 125l23 3q35 0 63 -32h3v107zM2057 1928h36l4 -6v-49h-45v-221h-48v23q-23 -31 -59 -31q-89 14 -89 97v156h51v-104q0 -79 26 -86l18 -5h6q26 0 39 36l3 26v133h53v25zM3476 1928v-55h-31v-221h-47v25h-2q-15 -33 -57 -33
q-68 0 -86 78l-3 29v146h52v-120q0 -50 19 -68l21 -7h9q42 0 42 69v126h27q4 0 4 28l3 3h49zM758 1905q68 0 103 -77q9 -18 12 -54q0 -88 -90 -127l-32 -3q-63 0 -101 73q-12 22 -12 52v10q0 94 101 126h19zM1011 1905h3q74 0 83 -101v-152h-51v119q0 76 -42 76h-5
q-44 0 -44 -76v-119h-52v245h46v-21q30 29 62 29zM1466 1905h7q72 0 105 -89h-60q-16 31 -42 31h-17q-53 -14 -53 -61l-3 -15q12 -69 61 -69h9q22 0 47 27h40l2 3h3l2 -3l2 3l3 -3l2 3l2 -7q-33 -81 -110 -81q-76 0 -110 94l-4 36v3q0 85 77 120q15 8 37 8zM3141 1905h2

<glyph glyph-name=".notdef" horiz-adv-x="5040" 
d="M3351 2045h10q37 -10 37 -52q0 -12 -32 -57h-28q0 24 28 54l2 10q-5 13 -10 15h-9q-8 0 -10 -19h-30q6 49 42 49zM2019 2016l29 -31q0 -16 -40 -30h-19l-59 12l-11 -12l-28 25q11 29 43 29h11l42 -11h2q10 0 30 18zM468 1980h142v-60h-94v-75h89v-59h-89v-129l-5 -5h-49
v323zM1155 1980h43l6 -5v-78h30v-52h-30v-188l-6 -5h-49v193h-25v52h25v78zM1621 1980h42l4 -5v-94h3q23 24 54 24h2q58 0 83 -71l2 -39v-143h-52v115q0 80 -42 80h-7q-43 0 -43 -86v-109h-51v323zM2200 1980h49l5 -5v-222q10 -51 45 -51q44 7 44 59v214l5 5h49v-216
q0 -85 -66 -112q-15 -8 -35 -8q-47 0 -82 55q-14 24 -14 57v224zM2435 1980h159v-60h-56v-268h-53v268h-55v55zM2621 1980h71q7 -4 83 -251h2l80 251h73v-328h-54v242h-2l-74 -242h-44q-4 0 -58 182l-19 60h-3v-242h-55v328zM3760 1980h52v-328h-45l-5 5v11l3 2l-3 14
q-29 -40 -78 -40q-67 0 -100 91l-5 39v3q0 94 92 125l23 3q35 0 63 -32h3v107zM2057 1928h36l4 -6v-49h-45v-221h-48v23q-23 -31 -59 -31q-89 14 -89 97v156h51v-104q0 -79 26 -86l18 -5h6q26 0 39 36l3 26v133h53v25zM3476 1928v-55h-31v-221h-47v25h-2q-15 -33 -57 -33
q-68 0 -86 78l-3 29v146h52v-120q0 -50 19 -68l21 -7h9q42 0 42 69v126h27q4 0 4 28l3 3h49zM758 1905q68 0 103 -77q9 -18 12 -54q0 -88 -90 -127l-32 -3q-63 0 -101 73q-12 22 -12 52v10q0 94 101 126h19zM1011 1905h3q74 0 83 -101v-152h-51v119q0 76 -42 76h-5
q-44 0 -44 -76v-119h-52v245h46v-21q30 29 62 29zM1466 1905h7q72 0 105 -89h-60q-16 31 -42 31h-17q-53 -14 -53 -61l-3 -15q12 -69 61 -69h9q22 0 47 27h40l2 3h3l2 -3l2 3l3 -3l2 3l2 -7q-33 -81 -110 -81q-76 0 -110 94l-4 36v3q0 85 77 120q15 8 37 8zM3141 1905h2
q49 0 70 -60v-14h-52q0 16 -16 16h-4q-14 0 -19 -13v-13q0 -9 68 -35q30 -19 30 -59q0 -58 -61 -80l-23 -3q-76 12 -76 83h54q0 -20 27 -25h4q19 0 24 23q0 22 -68 44q-34 27 -34 59q0 66 74 77zM4203 1905q55 0 77 -63q7 -18 7 -65v-125h-52v112q0 83 -40 83h-11
q-33 0 -40 -54v-141h-52v5h-2l2 2v238h47v-21q25 29 64 29zM4432 1905h5q40 0 69 -40v18l-3 3l3 11h47v-208q0 -97 -85 -132l-33 -4h-7q-70 0 -104 80h59q24 -22 45 -23h13q22 0 43 22q15 13 22 52h-3q-32 -40 -73 -40q-57 0 -96 70q-10 18 -14 63q0 88 87 125zM3851 1897
h53v-136q6 -59 40 -59h7q46 0 46 93v102h51v-245h-47l-3 10h3l-3 3v5l3 2v3h-4q0 -23 -57 -31h-3q-59 0 -84 75l-2 85v93zM690 1771q10 -69 63 -69h7q59 14 59 65v15q-13 65 -59 65h-5q-58 0 -65 -76zM3630 1774q13 -72 61 -72h5q58 0 66 75q0 49 -51 70h-22q-37 0 -56 -57z
M4374 1774q8 -72 65 -72h5q59 12 59 72q0 61 -59 73h-14q-56 -16 -56 -62v-11zM3928 1620h52v-57h-52v57zM1054 1402q43 -11 43 -49v-4q0 -17 -32 -60h-28q0 25 31 57v7q0 12 -7 15h-12q-10 -4 -10 -19h-28v6q0 32 33 44zM3349 1339q92 0 138 -99h-60q-37 42 -80 42
q-55 0 -87 -68q-10 -22 -10 -47q0 -78 81 -110l18 -1q36 0 75 39h61q-44 -97 -138 -97q-93 0 -141 112q-10 31 -10 62q0 97 90 152q29 15 63 15zM3664 1339q57 0 103 -47q46 -51 46 -115v-20q0 -89 -91 -146q-33 -13 -63 -13q-89 0 -138 101q-13 33 -13 60v18q0 98 98 151
q29 11 58 11zM2261 1337h2l47 -11h3q11 0 26 11l18 -36q-18 -19 -35 -19h-3l-54 10l-20 -7l-20 36q18 16 36 16zM716 1334h19q118 0 129 -26q25 -26 25 -62q-10 -57 -30 -57v-6q47 -23 47 -66v-18q0 -63 -69 -88l-54 -5h-67v328zM2550 1334h53v-217q6 -61 45 -61q29 0 44 39
l3 30v203l4 6h45l5 -6v-171q0 -118 -40 -133q-24 -26 -64 -26q-55 0 -91 76l-4 54v206zM2805 1334h59q4 0 122 -237h4v237h50l4 -6v-322h-58q-29 48 -125 238h-3v-238h-53v328zM3101 1334h54v-328h-54v328zM3859 1334h8q155 0 174 -40q23 -11 47 -75l4 -36v-11l3 -2
q0 -94 -82 -149q-35 -15 -99 -15h-55v328zM4141 1334h153v-60h-103v-75h101v-57h-101v-74l4 -5h99v-57h-157v322zM3563 1175v-10q0 -76 79 -108l19 -1q68 0 96 86l3 20v15q0 61 -60 94q-12 8 -39 11q-66 0 -96 -83zM770 1274v-67h9q54 0 54 28l3 14q-11 25 -29 25h-37z
M3912 1274v-206l2 -3v-2q104 0 122 76l2 15v29q0 34 -32 68q-25 23 -78 23h-16zM1041 1259h5q38 0 71 -40v32h49v-245h-49v32q-36 -40 -80 -40q-75 0 -101 97l-5 36q0 89 85 125zM1314 1259h3q74 0 83 -102v-151h-51v128q0 67 -42 67h-10q-34 0 -39 -62v-133h-52v245h47v-21
q28 29 61 29zM1543 1259h5q45 0 71 -40v32h47v-219q0 -95 -104 -126h-16q-74 0 -108 82h59q26 -25 44 -25h14q52 0 64 77q-33 -42 -76 -42q-60 0 -101 81l-7 44v16q0 79 85 117zM1912 1259h2q43 0 61 -37h2q32 37 69 37h4q57 0 79 -55q8 -25 8 -45v-153h-52v138q0 44 -23 55
l-12 2h-15q-32 0 -36 -65v-130h-52v136q0 59 -43 59h-8q-32 0 -36 -57v-138h-54v245h50v-21h2q6 24 54 29zM2282 1259q47 0 75 -42v34h47v-245h-47v32q-36 -40 -78 -40q-74 0 -102 92l-6 41q0 90 85 125zM985 1117q0 -48 61 -61h4q45 0 62 46l3 15v22q-12 62 -57 62h-14
q-41 0 -59 -57v-27zM1487 1128q0 -48 43 -68l18 -4h5q47 0 63 57v23q-11 65 -58 65h-12q-50 0 -59 -73zM2225 1131v-14q15 -61 57 -61h14q58 12 58 64v11q0 45 -37 65l-18 5h-10q-64 -8 -64 -70zM770 1150v-82q0 -5 7 -5q77 0 77 45q0 34 -47 42h-37zM2966 753l24 -28
l-51 -55q-18 12 -27 26zM1524 727l85 -54q0 -15 -21 -42l-87 54q18 41 23 42zM2850 693h38l55 -60h-54l-21 26l-23 -26h-54q54 60 59 60zM3422 693h40l56 -60h-54l-24 26h-1q0 -5 -19 -26h-54zM622 685h52q8 -4 47 -137l34 -110q9 8 34 100l48 147h54v-2l-112 -326h-44z
M1159 685h51v-54h-51v54zM1354 685h46l6 -5v-323h-52v328zM2317 685h45l4 -5v-78h31v-52h-31v-193h-53v193h-26v52h26v78zM2425 685h52v-98h2q23 23 54 23h3q57 0 81 -71l3 -38v-144h-52v115q0 81 -39 81h-10q-42 0 -42 -87v-109h-52v328zM2664 685h52v-54h-52v54zM3028 685
h44l6 -5v-78h29v-52h-29v-193h-54v193h-27v52h27v78zM3234 685h52v-328h-52v328zM3957 685h52v-328h-52v328zM4316 685h51v-54h-51v54zM1555 610h5q83 0 110 -102l3 -23v-11q0 -83 -85 -120l-35 -5q-76 0 -111 97l-4 32q0 97 93 130zM1811 610h4q53 0 78 -60q7 -25 7 -81
v-112h-54v146q-7 50 -37 50h-10q-38 0 -42 -57v-139h-54v245h49v-21q26 29 59 29zM2046 610h4q45 0 63 -39h3v31h49v-206q0 -102 -89 -135l-28 -3h-5q-73 0 -106 81h52l37 -20l15 -3h14q50 0 61 72q-33 -39 -73 -39q-62 0 -98 76q-11 23 -12 60q0 85 86 123zM2866 610h2
q82 0 111 -104l2 -25l-2 -27h-172q15 -45 45 -45l14 -3q29 0 49 22h57v-3q-35 -76 -108 -76q-77 0 -111 97l-1 28v8q0 49 32 89q34 39 82 39zM3429 610h5q41 0 70 -39h2v31h47v-245h-47v31h-2q-35 -39 -77 -39q-71 0 -101 89l-5 36v14q0 86 84 120zM3711 610h7
q88 0 107 -128l-2 -1v-15q0 -65 -66 -106q-21 -11 -46 -11q-34 0 -64 32v-99l-5 -5h-49v325h49v-28q31 36 69 36zM4151 610q44 0 75 -39v31h49v-245h-49v31q-35 -39 -77 -39q-92 0 -108 132q0 84 73 121q15 8 37 8zM922 602h50v-136q3 -60 42 -60h5q44 0 44 87v109h52v-245
h-47v24h-5q0 -23 -56 -32h-3q-55 0 -82 68q-4 35 -4 99v81zM1159 602h51v-245h-51v245zM2664 602h52v-245h-52v245zM4316 602h51v-245h-51v245zM1492 488v-16q13 -66 59 -66h4q59 0 66 76q-13 71 -59 71h-11q-59 -16 -59 -65zM1987 472q15 -66 59 -66h11q48 0 59 75v1
q-13 71 -59 71h-14q-39 0 -56 -57v-24zM2805 506h122v2q-16 45 -59 45h-7q-35 0 -56 -47zM3373 474q13 -68 61 -68h5q52 0 65 63v12q-10 72 -57 72h-16q-56 -14 -56 -63zM3642 478q12 -72 61 -72h3q50 0 65 60v22q0 43 -49 65h-22q-47 0 -58 -72v-3zM4095 472q10 -66 66 -66
q43 0 61 48l2 15v16q0 54 -52 68h-18q-42 0 -59 -60v-21zM3416 321h51v-52h-51v52zM4137 321h51v-52h-51v52zM2733 133h4q35 0 43 -50v-2q0 -16 -24 -41l-10 -17h-28q0 25 28 56l3 2v2q-3 19 -9 19h-10q-8 0 -9 -19h-30q6 50 42 50zM1546 116l52 -60l-26 -19l-52 52zM352 79
h4q75 -48 85 -60l-20 -37q-88 49 -88 58zM3490 79l86 -58l-18 -39q-10 0 -91 55q15 36 23 42zM4578 76l19 -42l-91 -52l-20 39l92 58v-3zM1204 53h51v-19l5 -5h14v-36h-14l-5 -5v-279h-46v31q-34 -40 -81 -40q-72 0 -102 105l-3 26q0 102 101 131h14q33 0 66 -33v59l-6 5
h-43v36h49v24zM1480 45h40l56 -61h-53l-23 27l-23 -27h-53zM2641 45h33q12 0 63 -61h-54l-23 27q-19 -21 -19 -27h-58v4zM49 37h160v-60h-56v-268h-50l-4 5v245l2 3v2l-2 2l2 3l-2 2l2 3l-2 3h-54v54zM699 37h47v-73l2 -2l-2 -3v-3l2 -2l-2 -3v-3l2 -2v-2l-2 -3l2 -3h3
q17 24 51 24h3q53 0 77 -58q7 -17 7 -42v-153h-52v127q0 68 -40 68h-8q-43 0 -43 -86v-109h-52v322zM1297 37h47l5 -6v-49h-52v55zM1987 37h52v-198l70 115h62l-78 -118l90 -125v-2h-70q-10 22 -74 115v-115h-52v328zM2271 37v-99q24 24 53 24q57 0 80 -56q10 -19 10 -77
v-120h-54v133q0 62 -41 62h-11q-31 0 -37 -55v-140h-53v314l-1 3v3l1 2l-1 3l1 3h53zM2458 37h51v-55h-51v55zM3148 37h51v-108q27 33 68 33h3q75 0 105 -94l5 -37q0 -75 -64 -120q-30 -11 -49 -11q-41 0 -72 40v-31h-47v328zM4275 37h52v-99h2q23 24 54 24h3q60 0 82 -74
l2 -41v-138h-52v111q0 82 -32 82l-10 2h-12q-37 0 -37 -80v-115h-52v328zM329 -38h3v-58h-5q-42 0 -42 -57v-138h-53v245h47v-21q18 29 50 29zM564 -38q71 0 86 -87v-166h-51v136q-6 59 -41 59h-6q-45 0 -45 -84v-111h-52v245h50v-21q25 29 59 29zM1504 -38q72 0 105 -94
l5 -39q-2 -24 -7 -24h-169q17 -47 62 -47q24 0 48 21h57q-33 -79 -108 -79q-82 0 -113 105v37q0 81 89 117zM2657 -38h5q77 0 107 -97l3 -26v-21l-3 -13h-170q18 -47 53 -47h12q21 0 42 21h59q-34 -79 -105 -79q-84 0 -115 102l-2 29q0 93 91 128zM2915 -38h4q54 0 78 -60
q7 -25 7 -82v-111h-54v138q0 48 -35 57h-11q-38 0 -43 -57v-138h-54v245h50v-21q25 29 58 29zM3508 -38h6q40 0 70 -40h2v32h47v-245h-47v31h-2q-34 -40 -78 -40q-71 0 -101 90l-4 37v12q0 82 77 117q11 6 30 6zM3781 -38h4q62 0 82 -78l3 -84v-91h-54v138q0 48 -38 57h-9
q-38 0 -42 -52v-143h-54v245h49v-21q26 29 59 29zM4133 -38h1q74 0 104 -93l4 -40q0 -88 -84 -126l-25 -3q-41 0 -68 34v-106h-52v326h47v-29q30 37 73 37zM4714 -38h5q34 0 63 -37q27 37 69 37h6q56 0 79 -66l6 -51v-136h-52v122q0 73 -39 73h-7q-35 0 -41 -50v-140l-5 -5
h-48v140q0 42 -31 55h-17q-40 0 -40 -77v-118h-51v245h47v-21q22 29 56 29zM359 -46h49l5 -6v-234l-5 -5h-49v245zM1297 -46h52v-245h-52v245zM1649 -46h52v-136q4 -60 43 -60h4q44 0 44 81v115h52v-245h-47v24h-5q-12 -33 -59 -33q-52 0 -79 63q-5 12 -5 34v157zM2458 -46
h51v-245h-51v245zM4515 -46h51v-245h-51v245zM1077 -169q0 -53 51 -73h12q54 0 66 66v10q0 53 -54 70h-17q-38 0 -58 -57v-16zM1438 -143h122q-18 47 -53 47h-7q-43 0 -62 -44v-3zM2599 -143h122q-21 47 -54 47h-7q-46 0 -61 -47zM3196 -158v-11q10 -73 61 -73h5q64 8 64 71
v5q0 45 -38 65l-18 5h-14q-60 -14 -60 -62zM3452 -173q14 -69 62 -69h11q41 0 59 60v13q-8 73 -56 73h-17q-47 0 -59 -73v-4zM4062 -158v-22q0 -47 59 -62h9q50 0 61 76q-13 70 -58 70h-15q-56 -17 -56 -62z" />
    <glyph glyph-name=".null" horiz-adv-x="0" 
 />
    <glyph glyph-name="nonmarkingreturn" horiz-adv-x="571" 
 />
    <glyph glyph-name="space" unicode=" " horiz-adv-x="450" 
 />
    <glyph glyph-name="exclam" unicode="!" horiz-adv-x="337" 
d="M851 1026q21 27 21 61q0 52 -39 52q-47 0 -98 -99q-52 -96 -103 -190t-102 -191q-168 -315 -168 -344v-4q16 -12 88 90q74 101 203 314q65 106 114.5 184t83.5 127zM212 -35q41 0 78 34t37 75q0 53 -63 53q-45 0 -79 -36t-34 -73q0 -53 61 -53z" />
    <glyph glyph-name="quotedbl" unicode="&#x22;" horiz-adv-x="872" 
d="M981 1184q12 -29 -39 -101q-68 -96 -322 -426q-6 -8 -18 -6q-4 11 -4 17q104 196 246 442q55 98 96 98q29 0 41 -24zM733 1182q12 -29 -39 -99q-67 -96 -321 -426q-7 -8 -19 -6q-6 8 -6 17q98 190 246 442q55 98 96 98q31 0 43 -26z" />
    <glyph glyph-name="numbersign" unicode="#" horiz-adv-x="1460" 
d="M1460 1018h-451l158 395h-55l-158 -395h-276l157 395h-57l-158 -395h-448l-23 -53h451l-105 -260h-459l-20 -56h459l-178 -442h57l176 442h277l-177 -442h58l176 442h440l23 56h-443l105 260h450zM931 965l-102 -260h-276l102 260h276z" />
    <glyph glyph-name="dollar" unicode="$" horiz-adv-x="636" 
d="M598 1149q-4 92 -88 123l18 49q8 18 -14 22q-25 0 -27 -12q-10 -16 -20 -49q-66 16 -138 -22q-112 -58 -112 -177q0 -82 63 -133q12 -10 105 -67q39 -27 60.5 -43.5t29.5 -24.5q37 -47 37 -110q0 -82 -45 -127q-101 -101 -205 -101q-80 0 -129 54.5t-43 140.5
q8 88 71 145q58 51 127 51q109 0 109 -90q0 -61 -47 -125q-47 -61 -98 -49q-19 2 -19 41q0 43 20.5 45t20.5 25q0 35 -41 16q-45 -20 -45 -76q0 -65 55 -80q21 -4 35 -4q33 0 62.5 14.5t51 39t35 56.5t13.5 67q0 55 -37 98q-49 57 -127 57q-88 0 -164 -67q-73 -66 -84 -160
q-12 -150 113 -207q-19 -31 -19 -51q0 -19 15 -21q29 -12 47 58q31 -9 72 -9q157 0 258 113q71 82 71 189q0 90 -53 143q-65 53 -116.5 93t-86.5 65q-32 26 -32 79q0 66 55 101q33 20 76 20q49 0 86 -26.5t41 -71.5q2 -47 -22.5 -81t-53.5 -34q-37 0 -39 49q-2 21 18 21
q2 0 2 -4q5 -12 21 -17q18 -2 24 15q5 16 -10.5 36.5t-40.5 18.5q-65 -10 -65 -76q2 -73 82 -73q57 0 93 43t34 100z" />
    <glyph glyph-name="percent" unicode="%" horiz-adv-x="985" 
d="M1007 1370h-78l-204 -346q-47 -55 -97 -55q-18 0 -32 10q45 55 67 145q13 52 13 95q0 79 -43 122q-37 37 -97 37q-104 0 -185 -80.5t-112 -224.5q-6 -31 -6 -63q0 -78 35 -136q43 -63 117 -63q110 0 196 145q47 -28 105 2l-631 -964h78zM848 307q4 23 7 43.5t3 40.5
q0 82 -49 125q-41 37 -103 37q-102 0 -182 -80q-88 -84 -115 -227q-8 -27 -8 -64q0 -73 31 -125q35 -59 94 -69q10 -2 18.5 -3t18.5 -1q100 0 184 110q70 86 101 213zM647 1208q-35 4 -47 -2q-64 -28 -66 -116q-2 -66 27 -115q-86 -135 -166 -135q-10 0 -27 4
q-47 16 -47 133q0 55 15 106q32 115 104 193q76 78 139 63q31 -6 47.5 -31.5t16.5 -41.5q2 -15 3 -28t1 -30zM749 512q68 -16 68 -102q0 -129 -88 -267q-84 -129 -168 -129q-17 0 -23 2q-47 17 -47 136q0 55 15 104q32 117 104 195q74 77 139 61z" />
    <glyph glyph-name="ampersand" unicode="&#x26;" horiz-adv-x="1255" 
d="M1765 700q8 56 -28 99t-93 43q-27 2 -27 -17q0 -14 21 -14q37 -2 66.5 -36t23.5 -70q-25 -123 -319 -123q-35 0 -76 1t-88 3q-17 2 -71 6t-150 14q-78 8 -141.5 11.5t-110.5 3.5q-183 0 -279 -46q-80 -38 -129 -116t-49 -160q0 -131 113 -193q57 -30 124 -30
q84 0 141.5 47t49.5 123q-2 20 -21 20q-20 0 -16 -24q6 -52 -49 -90q-51 -39 -119 -39q-49 0 -82 26q-57 45 -57 117q0 66 47 129.5t127 101.5q129 60 248 60q207 0 207 -176q0 -41 -13 -92q-37 -144 -190 -248q-162 -107 -348 -99q-154 7 -244 109q-82 94 -82 235
q0 56 12 109q86 334 478 406q100 -74 221 -70q67 2 67 47t-80 57q-53 9 -103 11t-97 0q-8 10 -13.5 16t-7.5 10q-41 64 -30 135q116 -123 315 -123q113 0 188.5 55.5t75.5 149.5q0 148 -151 191q6 20 6 45q0 39 -18.5 72.5t-51.5 58t-75 39t-91 14.5q-59 2 -115.5 -22.5
t-100.5 -66.5t-70.5 -97.5t-24.5 -112.5q0 -88 59 -160q-8 -137 54 -209q-224 -24 -373 -149q-146 -117 -191 -291q-14 -49 -14 -106q0 -160 106 -267q121 -120 326 -127q221 -6 408 99q198 110 243 284q13 45 13 91q0 129 -88 184q28 0 75 -2t115 -6q123 -6 193 -6
q325 0 354 165zM993 1278q-25 4 -49.5 6t-49.5 2q-229 0 -323 -184q-16 43 -16 88q0 160 122 225q70 35 136 35q77 0 129.5 -41t52.5 -102q0 -19 -2 -29zM1110 1100q0 -74 -58.5 -128t-152.5 -54q-64 0 -140 28q-116 45 -153 105q18 94 114 153q82 49 195 49q35 0 66 -6
q-41 -102 -148 -102q-63 0 -63 37q2 20 -15 20q-20 0 -24 -28q0 -31 33.5 -50.5t80.5 -17.5q117 10 166 131q94 -27 99 -137zM876 772q-10 -18 -57 -18q-70 0 -133 43q63 8 122 6q11 0 46 -10q32 -11 22 -21z" />
    <glyph glyph-name="quotesingle" unicode="'" horiz-adv-x="325" 
d="M396 999q0 70 -63 70q-29 0 -54.5 -21.5t-25.5 -50.5q0 -65 53 -65q25 0 45 14q-47 -139 -161 -162q-23 0 -23 -12q0 -18 27 -18q90 14 153 106q49 74 49 139z" />
    <glyph glyph-name="parenleft" unicode="(" horiz-adv-x="626" 
d="M1036 1364q35 10 35 31q0 20 -29 20q-10 0 -16 -2q-353 -88 -629 -344q-279 -256 -348 -547q-31 -121 -31 -252q0 -262 111 -430q129 -198 374 -198q39 0 39 24q0 17 -28 17q-193 0 -295 170q-92 149 -92 385q0 139 34 274q66 254 275 483q256 281 600 369z" />
    <glyph glyph-name="parenright" unicode=")" horiz-adv-x="1120" 
d="M1024 539q29 127 29 252q0 260 -111 430q-129 198 -373 198q-41 0 -41 -22q0 -19 31 -19q191 0 295 -170q90 -151 90 -385q0 -139 -35 -274q-65 -252 -272 -483q-256 -281 -600 -369q-37 -10 -37 -31q0 -20 29 -20q10 0 16 2q352 88 631 346q278 256 348 545z" />
    <glyph glyph-name="asterisk" unicode="*" horiz-adv-x="720" 
d="M633 1036q-6 11 -74 11l-135 -3q106 76 141 123q19 27 0 33q-10 4 -180 -117q8 45 14 93.5t13 101.5q2 8 -7.5 23.5t-17.5 13.5q-18 -41 -25 -70l-34 -155l-107 135q-29 22 -41 22t-12 -14q0 -23 35 -70q22 -33 40.5 -60.5t34.5 -49.5l-180 -9q-53 -10 -47 -28
q6 -25 82 -23l129 -2l-133 -98q-27 -27 -27 -41q0 -12 17 -12q24 0 69 32l109 78l-29 -155q-4 -17 0 -27q2 -27 17 -27q14 2 26 33q2 2 15 43q24 70 36 129q33 -35 54.5 -59.5t31.5 -34.5q58 -61 86 -61q9 0 11 8t-37 61l-96 131q41 2 69 2q29 0 49 2q66 4 97 23q14 8 6 18z
" />
    <glyph glyph-name="plus" unicode="+" horiz-adv-x="686" 
d="M648 489h-209l54 152q-4 4 -23 4q-20 0 -24 -4l-54 -152h-209q-4 -4 -12 -24.5t-4 -24.5h207l-53 -155q0 -4 20 -4q19 0 27 4l55 155h209q4 4 12 24.5t4 24.5z" />
    <glyph glyph-name="comma" unicode="," horiz-adv-x="466" 
d="M347 70q0 80 -63 80q-33 0 -64.5 -24t-40.5 -60q0 -78 54 -78q16 0 41 10q-82 -145 -211 -174q-25 0 -25 -17q0 -20 29 -20q110 18 200 121q80 92 80 162z" />
    <glyph glyph-name="hyphen" unicode="-" horiz-adv-x="557" 
d="M729 395q0 17 -117 33q-57 8 -112.5 12t-108.5 4q-78 0 -102 -10q-23 -16 -23 -35q0 -28 35 -45q26 -12 57 -8q8 2 195 19q155 14 172 24z" />
    <glyph glyph-name="hyphen" unicode="&#x2010;" horiz-adv-x="557" 
d="M729 395q0 17 -117 33q-57 8 -112.5 12t-108.5 4q-78 0 -102 -10q-23 -16 -23 -35q0 -28 35 -45q26 -12 57 -8q8 2 195 19q155 14 172 24z" />
    <glyph glyph-name="period" unicode="." horiz-adv-x="460" 
d="M348 35q4 39 -20.5 62.5t-59.5 23.5q-68 0 -74 -70q-2 -39 22.5 -62.5t57.5 -23.5q68 0 74 70z" />
    <glyph glyph-name="slash" unicode="/" horiz-adv-x="1273" 
d="M1274 1364h-66l-1196 -1559h66z" />
    <glyph glyph-name="zero" unicode="0" horiz-adv-x="989" 
d="M45 168q0 -131 77 -202.5t206 -71.5q176 0 350 149q158 131 266.5 338t108.5 367q0 79 -22.5 142.5t-64.5 107.5t-98.5 69t-124.5 25q-149 0 -256 -113q-102 -107 -94 -219q-147 -101 -248 -271q-100 -167 -100 -321zM958 811q0 -287 -172 -565q-200 -320 -483 -320
q-74 0 -123 66q-47 65 -47 149q0 146 82 310q82 159 192 256q35 -72 103 -86q24 -7 24 6q0 8 -14 16q-53 27 -76 92q109 78 215 78q86 0 119 -57q10 -21 13.5 -44.5t9.5 -23.5q14 2 12 33q0 27 -6 45q-29 80 -160 80q-37 0 -67 -6q-72 -13 -140 -49q6 96 100.5 184t202.5 80
q215 -19 215 -244z" />
    <glyph glyph-name="one" unicode="1" horiz-adv-x="663" 
d="M832 1059q-7 0 -211 -148q-213 -149 -262 -172q-17 -10 -17 -16q0 -25 55 -25q23 0 39 11q45 36 77 63t50 43q39 27 67 46.5t44 31.5q-227 -385 -354 -587t-156 -228q-29 -25 -70 -41q-14 -8 -75 -27q-25 -14 -9 -24q2 0 21.5 1t60.5 3t76 2h64q45 0 79.5 -1t61.5 -3
q24 4 0 20q-10 4 -21.5 8t-21.5 9q-41 16 -47 45q0 10 235 389q125 203 190.5 311.5t76.5 124.5q53 100 53 145q0 15 -6 19z" />
    <glyph glyph-name="two" unicode="2" horiz-adv-x="1034" 
d="M1123 791q0 141 -84 230t-226 89q-122 0 -243 -63q-123 -62 -197 -166q-80 -115 -80 -232q0 -82 48 -126t116 -44q37 0 74 12.5t67.5 34t53 50t32.5 59.5q4 16 4 18q0 11 -6 11q-12 0 -18 -21q-55 -117 -162 -117q-53 0 -89 36t-36 100q0 32 8 59q39 149 148 248
q110 98 248 98q28 0 59 -6q150 -25 150 -205q0 -188 -134 -401q-133 -209 -424 -363q-55 -31 -124 -49q-136 49 -209 49q-113 2 -113 -49q0 -68 145 -68q74 0 140 17q63 -41 108 -67.5t72 -41.5q102 -51 201 -51q188 0 276 125q35 47 19 90q-9 27 -23 27q-8 0 -8 -13
q0 -4 4 -16q4 -16 -5 -40.5t-34 -37.5q-74 -35 -156 -35q-114 0 -360 91q227 86 467 292q291 254 291 476zM217 25q-63 -15 -131 -7q-34 5 -34 27q0 18 36 23q52 0 129 -43z" />
    <glyph glyph-name="three" unicode="3" horiz-adv-x="917" 
d="M815 657q92 45 153 125q54 72 54 144q0 143 -183 143q-151 0 -248 -115q-49 -59 -49 -114q0 -66 68 -66q35 0 68.5 21.5t46.5 48.5q4 10 -7 16q-10 4 -12 -8q-20 -51 -76 -51q-34 0 -34 47q0 14 6 33q14 57 82 104q69 47 131 47q116 -4 116 -102q0 -72 -61 -148
q-51 -65 -123 -106q-67 12 -162 0q-28 -2 -57 -23q-37 -22 -37 -45q0 -22 41 -26q90 -4 225 49q121 -49 121 -172q0 -172 -186 -340q-193 -180 -402 -170q-94 4 -144 56t-50 130q0 62 26 117q27 67 101 121q76 53 131 53q49 0 49 -51q0 -21 -8 -43q-2 -15 6 -17q10 -2 14 9
q13 36 13 63q0 72 -86 76q-80 4 -164 -51q-92 -56 -133 -152q-29 -63 -29 -117q0 -104 81 -165.5t210 -61.5q262 0 473 174q203 166 203 346q0 152 -168 221zM690 647l-42.5 -17t-27.5 -12q-41 -10 -59 -10q-43 0 -15 25q27 24 76 24q4 0 20.5 -3t47.5 -7z" />
    <glyph glyph-name="four" unicode="4" horiz-adv-x="847" 
d="M999 987q9 14 -24 33q-33 20 -60 20q-8 0 -16 -4q-184 -182 -399 -344q-111 -86 -204 -145.5t-171 -97.5q-4 -13 -4 -21q0 -27 18.5 -51.5t40.5 -24.5q6 0 17 6q18 29 98 29q27 0 67.5 -3t96.5 -11q-66 -105 -118 -176.5t-87 -116.5q-45 -25 -84 -39q-84 -35 -74 -49
l4 -4q2 0 17.5 1t36 3t45 4t45.5 2q141 6 219 -8q12 12 0 22q-17 4 -30 8.5t-28 8.5q-36 20 -36 30q0 9 2 11q45 94 168 292q159 -22 239 -12q62 8 100.5 46t38.5 81t-36 72q-13 8 -25 6q-10 -2 -8 -10q22 -29 22 -53q0 -74 -159 -86q-39 -3 -146 0q307 477 434 581z
M836 905q-105 -137 -193 -261t-160 -234q-32 4 -63 6t-64 4q-86 6 -123 0q205 112 603 485z" />
    <glyph glyph-name="five" unicode="5" horiz-adv-x="966" 
d="M1196 881q55 32 55 98q0 94 -92 111q-29 6 -60 6q-96 0 -323 -68q-78 -22 -99 -22q-32 0 -57 14t-31 14q-22 -45 -82.5 -127t-160.5 -202q-7 0 -7 -5q0 -6 7.5 -17t17.5 -22.5t21.5 -18.5t19.5 -7q113 65 227 65q115 0 178 -63q72 -72 62 -207q-19 -213 -166 -371
q-164 -172 -405 -172q-48 0 -86.5 18.5t-66.5 49.5t-43 72t-15 84q0 34 8 59q35 121 127 205q86 76 164 71q90 -4 90 -88q0 -20 -6 -41q-7 -14 4 -14q14 0 20 21.5t6 42.5q0 53 -41 85.5t-100 32.5q-111 0 -213 -102q-92 -94 -119 -207q-8 -39 -8 -80q0 -123 102 -188
q76 -49 166 -49q299 0 500 194q174 168 197 381q12 141 -88 228q-103 86 -254 86q-101 0 -193 -39q27 45 94 143q82 117 94 119q41 -6 107 0q16 2 52 6t93 14q45 8 81 11.5t65 3.5q22 0 49 -4.5t50.5 -12.5t38.5 -22.5t15 -34.5q0 -8 -9 -22.5t-9 -24.5q0 -8 8 -8q2 0 15 4z
" />
    <glyph glyph-name="six" unicode="6" horiz-adv-x="987" 
d="M1229 1049q30 -19 30 6q0 6 -6 12q-35 55 -168 55q-241 0 -532 -204q-269 -193 -377 -406q-82 -162 -82 -299q0 -147 92 -236q84 -77 201 -73q141 4 278 98q156 104 201 252q14 43 14 92q0 98 -57 163.5t-156 65.5q-131 0 -256 -100q-100 -80 -153 -182q-4 -12 -4 -14
q0 -11 8 -11q10 0 18 15q43 79 123 147q125 107 256 92q148 -16 148 -157q0 -56 -25 -123q-43 -121 -164 -213q-121 -90 -229 -90q-94 0 -151.5 65.5t-57.5 177.5q0 140 90 316q103 200 305 372q256 217 514 217q70 0 140 -38z" />
    <glyph glyph-name="seven" unicode="7" horiz-adv-x="843" 
d="M1194 956q112 13 112 66q0 29 -47 29q-65 0 -160 -56q-55 13 -223 74q-133 51 -227 51q-35 0 -68 -6q-94 -16 -176 -67q-100 -64 -100 -148q0 -68 37 -68q20 0 12 27q-8 14 0 39q47 133 303 133h39t37 -2q106 -18 185 -33.5t130 -29.5q-106 -70 -220 -170.5t-236 -235.5
q-246 -270 -304 -434q-18 -49 -18 -92q0 -64 37 -103q31 -32 67 -32q29 0 29 16q0 12 -14 20q-31 19 -31 70q0 27 10 74q62 244 434 639q64 65 135.5 126.5t157.5 114.5q49 -8 99 -2z" />
    <glyph glyph-name="eight" unicode="8" horiz-adv-x="808" 
d="M852 897q2 78 -39 126t-119 48q-82 0 -151 -51q-80 -57 -107 -148q-8 -24 -8 -57q0 -59 68 -197q-133 -88 -210 -140t-99 -72q-168 -144 -181 -308q-12 -149 138 -155q182 -6 344 106q182 127 182 313q0 109 -78 240q258 152 260 295zM766 887q-10 -84 -209 -225
q-76 124 -76 190q0 68 56 121q55 55 123 55q51 0 82.5 -36t23.5 -105zM520 561q29 -74 29 -139q0 -78 -33 -156q-20 -47 -56 -94t-89 -92q-119 -103 -223 -103q-105 0 -101 117q4 154 170 287q92 74 303 180z" />
    <glyph glyph-name="nine" unicode="9" horiz-adv-x="868" 
d="M891 434q76 160 76 326q0 149 -68 239q-76 101 -225 101q-166 0 -313 -105q-179 -121 -220 -340q-6 -34 -6 -65q0 -113 76 -180q66 -64 166 -64q197 0 291 150q20 28 14 45h-2l-2 2q-10 0 -27 -29q-28 -49 -114 -88t-156 -37q-70 6 -112 60.5t-42 140.5q0 37 11 84
q34 164 155 278q125 115 277 115q194 0 194 -252q0 -176 -82 -385q-65 -166 -288 -373q-252 -237 -512 -313q-47 -16 -58 -27q-12 -12 15 -12q20 0 45 8q264 76 526 277q274 213 381 444z" />
    <glyph glyph-name="colon" unicode=":" horiz-adv-x="337" 
d="M430 436q39 0 69.5 30t30.5 69q0 61 -65 61q-43 0 -71 -32t-28 -68q0 -60 64 -60zM292 86q41 0 73 30.5t32 71.5q0 58 -66 58q-43 0 -72.5 -33t-29.5 -70q0 -57 63 -57z" />
    <glyph glyph-name="semicolon" unicode=";" horiz-adv-x="303" 
d="M487 451q12 86 -72 86q-43 0 -68.5 -31t-25.5 -70q0 -71 71 -71q82 0 95 86zM388 70q0 80 -59 80q-35 0 -66.5 -24t-40.5 -60q0 -78 56 -78q16 0 41 10q-88 -150 -211 -174q-27 0 -27 -17q0 -20 31 -20q108 18 198 121q80 88 80 162h-2z" />
    <glyph glyph-name="less" unicode="&#x3c;" horiz-adv-x="516" 
d="M59 459q-12 -10 -12 -49q0 -41 12 -48q248 -163 301 -186q13 -4 15 -4q12 0 12 14q0 29 -27 41l-213 207q195 209 213 240q9 8 11 24q2 19 0 31t-11 8q-135 -123 -209.5 -192.5t-91.5 -85.5z" />
    <glyph glyph-name="equal" unicode="=" horiz-adv-x="686" 
d="M649 489h-465q-4 -4 -12.5 -24.5t-4.5 -24.5h465q4 4 12.5 24.5t4.5 24.5zM556 225h-465q-4 -4 -12 -24.5t-4 -24.5h465q6 4 12 24.5t4 24.5z" />
    <glyph glyph-name="greater" unicode="&#x3e;" horiz-adv-x="516" 
d="M434 459l-299 278q-9 4 -11 -8q-4 -12 0 -31q2 -16 11 -24q59 -70 111.5 -129.5t99.5 -110.5l-211 -207q-29 -12 -29 -41q0 -14 14 -14q2 0 15 4q88 53 162.5 99.5t136.5 86.5q14 7 14 48t-14 49z" />
    <glyph glyph-name="question" unicode="?" horiz-adv-x="892" 
d="M1314 870q48 84 48 152q0 80 -59.5 128t-176.5 48q-143 0 -281 -78q-151 -90 -200 -227q-17 -53 -17 -86q0 -68 49 -100q33 -25 80 -25q54 10 121 53q80 51 80 96q0 19 -16 19q-21 0 -21 -27q-8 -26 -65 -65q-54 -39 -90 -39q-52 0 -52 67q0 41 25 97q53 116 158 192
q106 76 217 80q112 2 112 -102q0 -90 -75 -209q-68 -105 -228 -195q-98 -53 -160.5 -94t-91.5 -68q-131 -125 -147 -206q0 -52 37 -39q26 8 40.5 46t16.5 58q12 41 76 105q24 24 58 48.5t79 47.5q66 33 133.5 65.5t132.5 65.5q156 88 217 192zM454 -20q35 0 67 28.5t32 65.5
q0 39 -50 45q-43 4 -72.5 -26t-29.5 -64q0 -49 53 -49zM503 102q31 0 31 -28q0 -27 -23.5 -51.5t-56.5 -24.5q-20 0 -30 16q-11 15 0 37q22 53 79 51z" />
    <glyph glyph-name="at" unicode="@" horiz-adv-x="1488" 
d="M968 59q225 0 430 164t250 393q14 68 -10 68q-25 0 -30 -26.5t-7 -41.5q-43 -210 -233 -366q-189 -158 -398 -158q-203 0 -319 117q-115 119 -115 305q0 33 3 67.5t11 69.5q50 223 244.5 387t419.5 164q166 0 256 -87t90 -236q0 -58 -12 -119q-23 -109 -90 -201
q-54 -72 -125 -129q-90 -65 -152 -65q-61 0 -51 49q18 86 135 250l211 292l-10 13q-66 -43 -96 -43q-15 0 -17 8h-14l-109 -152q15 43 15 78q0 74 -74 74q-103 0 -227 -98q-117 -93 -166 -192t-49 -175q0 -117 88 -117q108 0 266 195q-15 -51 -15 -101q0 -120 121 -120
q119 0 250 114q117 105 162 230q37 100 37 196q0 86 -30 156t-85 118t-132 74.5t-171 26.5q-262 0 -475 -164q-221 -170 -277 -426q-18 -86 -18 -159q0 -211 136 -322t382 -111zM1171 899q55 0 37 -88q-15 -78 -80 -162q-207 -268 -299 -268q-35 0 -19 65q19 84 76 185
q45 84 125 164q98 104 160 104z" />
    <glyph glyph-name="A" unicode="A" 
d="M1577 1143q-114 -133 -270 -332l-238 -10q27 78 27 149q0 135 -92 219q-90 78 -232 78q-143 0 -284 -86q-156 -94 -269 -274q-18 266 195 483q238 244 621 223q223 -12 368 -127q156 -123 174 -323zM1528 827q-29 -4 -58.5 -6t-62.5 -4q47 60 89 111t79 96
q-8 -92 -47 -197zM1043 801q-174 -10 -281 -19q-301 -30 -383 -192q-114 74 -147 215q143 252 352 354q188 90 336 23q149 -64 149 -238q0 -70 -26 -143zM998 705q-84 -144 -264 -250q-113 -70 -197 -70q-94 0 -94 72q0 32 24 67q80 -24 185 -20q20 0 20 10t-22 10
q-93 -2 -168 19q106 121 376 149q56 6 140 13zM1239 725q-186 -242 -298.5 -384t-151.5 -189q-45 -56 -80 -99t-62 -71q-47 -7 -90 -7q-102 0 -188 37q-252 107 -252 394q0 161 86 344q53 -121 164 -185q-8 -24 -8 -55q0 -64 48 -108t128 -44q100 0 215 72q190 119 278 279
q99 8 151 12t60 4zM1499 754q-18 -41 -39.5 -82t-48.5 -82q-286 -467 -663 -584q45 47 94 107q166 204 290 359t210 263q43 4 83 9.5t74 9.5zM1903 846q92 33 174 72.5t156 91.5q311 213 311 413q0 93 -70.5 149t-181.5 56q-141 0 -285 -86q-163 -94 -391 -352
q-31 199 -192 321q-160 117 -385 125q-396 15 -650 -219q-223 -209 -223 -483q0 -64 15 -115q-107 -198 -107 -393q0 -317 283 -442q118 -50 260 -35q-228 -252 -424 -334q-117 -49 -254 -49q-146 0 -242 59q-108 66 -108 191q0 10 1 19t3 20q2 14 -13 14q-12 0 -14 -12
q-6 -35 -6 -66q0 -135 104 -199q91 -59 238 -59q160 0 301 57q240 95 506 373q430 100 747 623q56 92 91 176q104 14 196 37q-264 -348 -268 -623q0 -82 39 -135t117 -53q184 0 524 469q6 8 6 14q0 16 -18 16q-15 0 -21 -12q-125 -190 -264 -321q-135 -129 -213 -129
q-66 0 -66 88q0 196 273 649q12 20 24.5 40.5t26.5 43.5zM2323 1440l-252 -264q-86 -89 -153.5 -164.5t-121.5 -141.5q-102 -22 -221 -36q45 129 49 245q250 287 416 385q158 90 289 90q86 0 138 -39.5t52 -109.5q0 -178 -311 -375q-123 -76 -264 -121q223 338 397 512
q8 6 8 17q0 6 -6 10q-6 2 -20 -8z" />
    <glyph glyph-name="B" unicode="B" horiz-adv-x="1857" 
d="M1524 825q-139 -96 -282 -96q-146 0 -148 55q6 13 12.5 25t12.5 22q57 56 164 56q143 0 241 -62zM1141 872q301 558 512 558q21 0 39 -7q8 -2 12 9q2 8 -6 12q-24 8 -59 8q-305 0 -780 -856q-115 -205 -181.5 -323.5t-87.5 -153.5q-49 88 -49 196q0 58 14.5 114t40 105.5
t62.5 88.5t80 63q10 4 4 12q-4 11 -14 4q-91 -45 -150 -157q-57 -107 -57 -232q0 -123 55 -217q-53 -86 -104.5 -157.5t-102.5 -131.5q-246 230 -246 637q0 461 308 809q346 389 917 389q236 0 356 -98q107 -86 107 -231q0 -60 -17.5 -120t-50 -119.5t-76.5 -115
t-100 -100.5q-123 49 -284 49q-78 0 -142 -35zM1575 786q117 -108 117 -292q0 -230 -170 -410q-194 -197 -493 -188q-217 6 -347 110q78 111 149 232.5t130 261.5q29 69 59.5 133.5t61.5 124.5q31 -49 160 -49q172 0 333 77zM953 -401q12 0 8 10q0 10 -10 10
q-295 -16 -498 121q115 108 217 248q131 -107 359 -113q370 -10 602 186q207 177 207 412q0 229 -199 348q70 43 127 98.5t97 117t61.5 127t21.5 126.5q0 162 -139 260q-156 113 -459 113q-403 0 -713 -188q-276 -170 -430 -457q-143 -268 -143 -567q0 -435 283 -674
q-218 -244 -437 -312q-96 -28 -190 -28q-146 0 -242 59q-106 68 -106 193v20q0 8 2 19q2 14 -13 14q-12 2 -14 -12q-6 -35 -6 -66q0 -252 352 -252q39 0 80 3t82 12q307 49 573 290q195 -120 457 -120h35t35 2z" />
    <glyph glyph-name="C" unicode="C" horiz-adv-x="1454" 
d="M292 246q161 -86 356 -86q256 0 438 137q193 143 193 373q0 65 -19 139q70 27 137 61q193 105 308 246q106 131 106 248q0 88 -64.5 141.5t-189.5 53.5q-143 0 -348 -78q-147 -56 -303 -148q-260 211 -524 211q-156 0 -250 -80t-94 -198q0 -86 57 -181l-2 -4
q-123 -153 -123 -348q0 -221 172 -381q-2 -16 -3 -32.5t-1 -32.5q0 -201 127 -322q119 -112 315 -112q199 0 400 118q47 29 111.5 78t144.5 121q190 172 190 240q0 14 -14 14q-10 0 -12 -6q-140 -240 -443 -414q-201 -117 -362 -117q-144 0 -225 93.5t-78 265.5zM1252 840
q-70 243 -291 446q66 45 130.5 81t129.5 65q205 90 342 90q199 0 199 -160q0 -156 -180 -318q-148 -133 -330 -204zM1223 829q-184 -63 -383 -63q-186 0 -348 59q170 248 430 435q230 -195 301 -431zM298 319q26 240 172 472q159 -58 356 -58q205 0 406 66q8 -33 11 -65
t3 -62q0 -209 -166 -340q-156 -125 -387 -125q-213 0 -395 112zM115 1053q91 -127 234 -207q-148 -193 -195 -412q-133 146 -133 330q0 151 86 278zM474 1198q22 -10 22 8q0 8 -8 11q-55 22 -106 22q-138 0 -250 -113q-37 68 -37 131q0 99 84 160.5t219 61.5q225 0 463 -172
q-293 -189 -485 -426q-140 82 -224 209l-4 6q107 116 240 116q49 0 86 -14z" />
    <glyph glyph-name="D" unicode="D" horiz-adv-x="2121" 
d="M244 649q88 168 304 168q118 0 227 -59q-17 -51 -48.5 -91t-71.5 -68t-87 -41t-94 -13q-152 2 -230 104zM988 541q125 -211 125 -439q0 -114 -31 -213q-35 -4 -68.5 -7t-68.5 -1q-152 6 -305 66q114 104 202 278q13 23 49.5 100.5t96.5 215.5zM920 686q-53 57 -116 98
q6 27 6 54q2 18 -9 18q-6 0 -16 -59q-131 77 -268 77q-205 0 -309 -149q-17 55 -17 111q0 170 117 348q127 196 342 315q244 137 553 143q330 7 543 -176q231 -202 231 -565q0 -346 -262 -649q-258 -291 -600 -356q28 98 28 206q0 248 -139 473q174 381 334 603
q180 252 317 252q19 0 37 -7q9 -2 13 9q2 8 -7 12q-24 8 -59 8q-211 0 -477 -365q-119 -159 -242 -401zM537 -8q-157 86 -245 211q-99 137 -86 301q2 39 12 74q100 -74 264 -70q102 2 188 63q93 64 125 177q62 -37 109 -91q-82 -159 -143.5 -279t-102.5 -202
q-59 -110 -121 -184zM72 -244q45 -135 179 -219q124 -76 288 -76q181 0 332 97q166 106 234 301q397 53 692 348q313 309 334 702q20 359 -265 578q-262 201 -657 194q-352 -6 -623 -143q-235 -119 -374 -317q-127 -183 -127 -361q0 -139 75 -229q-16 -60 -18 -123
q-2 -174 104 -322q48 -67 114.5 -122.5t152.5 -100.5q-99 -110 -224 -151q-98 -29 -192 -23q-10 51 -10 92q0 33 12 51q6 11 23.5 20t17.5 13q0 15 -25 15q-59 0 -59 -99q0 -22 2 -44.5t6 -43.5q-229 27 -229 207v16q0 9 2 17t-14 12q-17 0 -17 -10q-6 -29 -6 -51
q0 -201 272 -228zM263 -236q201 35 346 156q172 -70 342 -72q59 0 119 7q-64 -168 -217 -263q-140 -84 -305 -84q-152 0 -267 64q-125 68 -172 182q72 -2 154 10z" />
    <glyph glyph-name="E" unicode="E" horiz-adv-x="1536" 
d="M615 -254q318 51 567 289q177 170 254 364q39 97 39 166q0 127 -125 127q-59 0 -133 -30q2 14 3 28.5t1 28.5q0 164 -73 334q413 63 544 278q31 51 31 103q0 45 -25.5 83.5t-71.5 67.5t-110.5 45.5t-144.5 16.5q-309 0 -594 -144q-229 174 -432 174q-64 0 -116 -17.5
t-89 -49t-57.5 -73.5t-20.5 -91q0 -96 76 -180q90 -99 248 -156l-4 -10q-19 -53 -19 -103q0 -90 60 -161q-217 -95 -359 -248q-153 -170 -170 -373q-12 -182 142 -326q165 -153 405 -155q70 -4 141 6q-2 -19 -3 -37t-1 -35q0 -131 66.5 -208.5t171.5 -77.5q113 0 233 90
q7 2 7 12q0 16 -15 16q-6 0 -10 -4q-107 -82 -215 -82q-92 0 -150.5 63.5t-58.5 180.5q0 41 8 88zM621 -213q31 141 109 301q248 45 399 295q68 113 86 246q64 30 109 30q71 0 71 -79q0 -68 -45 -177q-45 -112 -117.5 -210.5t-172.5 -186.5q-207 -178 -439 -219zM552 854
q112 35 256 39q53 4 94 -6q74 -15 70 -53q-5 -41 -58 -67t-125 -26q-168 0 -237 113zM1133 1087q-96 205 -301 373q248 156 549 156q111 0 167 -44t56 -112q0 -108 -120 -213q-134 -117 -351 -160zM744 1487q-266 -146 -348 -350q-276 98 -276 276q0 43 19 80t54 64.5t84 43
t109 15.5q170 0 358 -129zM1103 1081q-50 -8 -100 -12t-103 -4q-211 0 -363 33q58 205 267 346l4 -4q194 -158 295 -359zM746 123q183 344 434 487q-18 -118 -75 -211q-136 -225 -359 -276zM412 373q11 22 -14 22q-10 0 -14 -10q-21 -47 -21 -92q0 -47 21.5 -86t59.5 -67.5
t89 -44t113 -15.5h22q13 0 23 2q-72 -150 -100 -301q-21 -2 -39.5 -3t-36.5 -1q-201 0 -320 143q-110 135 -110 332q0 172 88 315q94 160 270 246q115 -108 311 -108q56 0 101 11t77.5 30.5t51 43t18.5 48.5q0 90 -194 86q-133 -4 -269 -45q-24 55 -18 129q2 16 4 30.5
t6 30.5q168 -35 369 -35q53 0 107.5 3t109.5 12q74 -166 74 -330q0 -19 -1 -37t-3 -37q-142 -70 -279 -229q-59 -70 -109.5 -144.5t-91.5 -156.5q-16 -2 -31.5 -3t-31.5 -1q-107 0 -178.5 50t-71.5 132q0 39 18 80z" />
    <glyph glyph-name="F" unicode="F" horiz-adv-x="1880" 
d="M175 582q201 -207 551 -207q256 0 426 135q154 125 154 289q0 10 -1 22.5t-3 22.5q86 -2 219 -41l-43 -74q-238 -430 -307 -534q-213 -332 -428 -488q-256 37 -414 207q-178 190 -178 508q0 76 24 160zM188 621q73 196 250 335q174 142 364 142q311 0 406 -174
q-117 -23 -168 -99q-39 -57 -39 -129q0 -16 16 -16q15 0 15 16q0 140 204 148q2 -10 3 -21.5t1 -21.5q0 -152 -137 -269q-151 -126 -377 -126q-364 0 -538 215zM1875 1333q-73 -88 -154 -205.5t-169 -269.5q-168 72 -262 72h-17q-110 198 -471 198q-186 0 -372.5 -129
t-282.5 -317q-72 127 -72 295q0 235 250 381q223 131 532 131q213 0 510 -53q129 -27 254 -51.5t254 -51.5zM2887 1528q-4 16 -16 14q-17 0 -15 -14q2 -107 -110 -176q-107 -64 -252 -64q-209 0 -498 82q156 191 277 191q10 0 18 -1t18 -4q11 -4 15 6.5t-6 14.5q-25 8 -60 8
q-147 0 -332 -194q-133 41 -264 80.5t-264 80.5q-313 84 -530 84q-336 0 -588 -202.5t-252 -468.5q0 -187 98 -324q-47 -117 -47 -219q0 -326 187 -524q163 -177 434 -217q-176 -111 -357 -111q-8 0 -12 -10.5t8 -10.5q242 0 465 121q318 -12 549 156q254 180 254 475
q0 14 -16 14q-15 0 -15 -14q0 -270 -225 -442q-209 -160 -496 -160q433 266 725 934q15 35 29 67.5t31 67.5q207 -63 338 -53q-86 -154 -80 -234q2 -14 16 -14q17 4 15 16q-7 82 92 238q39 8 86 49q49 39 49 76q0 26 -31 26q-6 0 -14 -4q-62 -41 -113 -120q-10 -3 -19 -4
t-20 -1q-133 0 -299 68q76 160 149.5 285t145.5 223q320 -62 539 -62q153 0 268 68q129 76 125 203z" />
    <glyph glyph-name="G" unicode="G" horiz-adv-x="1996" 
d="M846 1188q-280 -260 -371 -574q-229 68 -366 205q-125 125 -125 256q0 105 84 166q88 70 254 70q119 0 278 -41q62 -17 123.5 -36.5t122.5 -45.5zM1377 610q-203 -59 -431 -59q-77 0 -155 6t-156 21q4 22 11.5 44.5t15.5 45.5q170 75 360 75q240 0 355 -133zM1428 197
q-262 -185 -486 -185q-151 0 -237 90q-96 97 -96 287q0 64 16 141q156 -18 297 -18q258 0 479 66q57 -84 57 -205q0 -88 -30 -176zM49 -211q7 201 115 406q113 211 297 352q-16 -78 -16 -146q-4 -225 116 -344q107 -106 297 -106q265 0 547 190q-137 -307 -473 -428
q-186 -65 -391 -65q-324 0 -492 141zM678 713q90 229 271 428q278 -137 339 -262q11 -17 23 -17t12 15q0 4 -4 20q-65 129 -346 270q74 78 155 143.5t169 119.5q258 153 458 153q148 0 238 -84q82 -80 82 -207q0 -196 -180 -377q-201 -200 -469 -288q-129 147 -404 147
q-178 0 -344 -61zM1827 596q-125 -184 -328 -346q15 59 15 125q0 129 -64 219q236 82 418 252q252 233 252 461q0 137 -96 221q-103 86 -275 86q-202 0 -446 -119q-123 -59 -229.5 -129t-198.5 -152q-129 58 -266 93q-148 39 -275 39q-194 0 -303 -89q-102 -83 -102 -208
q0 -142 123 -271q137 -143 368 -207q-178 -137 -293 -333q-112 -195 -131 -394q-61 80 -61 181q0 57 22 129q4 16 -10 18q-16 6 -18 -8q-27 -78 -27 -148q0 -133 92 -227q-6 -242 137 -391q160 -166 467 -166q406 0 748 342q274 276 479 745q178 408 354 656
q195 274 338 274q21 0 39 -6q8 -2 12.5 8.5t-4.5 12.5q-24 8 -59 8q-213 0 -492 -389l7 14q4 8 4 12q0 13 -11 13q-8 0 -14 -17q-29 -71 -63 -137q-35 -57 -62.5 -100t-46.5 -72zM1725 416q-125 -223 -193.5 -343t-79.5 -139q-188 -305 -368 -466q-232 -211 -484 -211
q-268 0 -411 143q-129 123 -140 342q175 -125 484 -125q219 0 409 68q205 71 349 215q137 135 192 297q70 53 133.5 114.5t122.5 130.5z" />
    <glyph glyph-name="H" unicode="H" horiz-adv-x="2007" 
d="M1715 1317q106 110 190 110q17 0 33 -6t16 -20q0 -25 -24 -39q-58 -41 -215 -45zM861 111q-230 -310 -463 -379q-82 -27 -164 -27q-135 0 -216 72.5t-81 183.5q0 203 242 381q215 -236 622 -233h31t29 2zM1305 858q-20 -33 -38.5 -66.5t-39.5 -68.5q-387 -31 -651 -127
q-2 143 162 238q137 81 295 81q160 0 272 -57zM1449 735q-25 0 -48.5 -1t-46.5 -3q15 33 35 72q37 -33 60 -68zM1041 164q141 188 293 524q33 2 67.5 3t69.5 3q25 -55 25 -116q0 -138 -111 -244q-125 -125 -344 -170zM209 362q35 25 72 46q144 84 273 135q30 -115 176 -189
q22 -10 22 15q0 12 -8 14q-133 68 -162 170q260 100 621 129q-111 -199 -188.5 -333t-129.5 -206q-20 -2 -40.5 -3t-43.5 -1q-401 -2 -592 223zM1616 1290q-65 -69 -139 -167.5t-151 -229.5q-129 53 -293 53q-174 0 -324 -92q-176 -109 -164 -270q-204 -80 -360 -189
q-94 131 -94 301q0 181 104 338q107 168 299 258q213 101 440 101q134 0 342 -43q130 -27 213.5 -41.5t126.5 -18.5zM1946 1444q-10 4 -14 0q-10 2 -19.5 3t-19.5 1q-113 0 -248 -129q-20 2 -35.5 3t-29.5 3q-95 21 -187 39t-186 39q-215 43 -363 43q-225 0 -424 -92
q-186 -88 -297 -260q-100 -156 -100 -344q0 -211 129 -377q-262 -195 -262 -410q0 -280 305 -280q35 0 73 3t81 11q366 61 661 428q273 39 424 176q137 119 137 272q0 64 -24 123h213q63 0 147 8.5t189 24.5q272 39 301 102q6 13 -6 19q-15 4 -17 -8q-24 -47 -293 -78
q-98 -10 -178 -16.5t-145 -6.5h-125q-57 0 -111 -2q-20 33 -49 59.5t-63 49.5q71 143 141 252.5t135 185.5q41 0 80 3t76 7q135 21 135 103q0 28 -31 45zM2643 1659q-95 -109 -187 -215.5t-184 -214.5q-256 -305 -391 -527q-181 -296 -181 -507q0 -140 56 -228
q55 -96 147 -96q80 0 170 76q68 57 131 153q27 45 44.5 83t27.5 73q6 20 -8 20q-15 0 -19 -16q-32 -121 -151 -240q-90 -90 -164 -90q-59 0 -92 58q-31 51 -31 135q0 45 12 98q66 266 357 742q266 436 485 677q8 7 8 17q0 16 -12 16q-10 0 -18 -14z" />
    <glyph glyph-name="I" unicode="I" horiz-adv-x="1691" 
d="M1647 1163q174 -69 174 -245q0 -130 -115 -232q-135 -117 -363 -143q29 53 68 130t86 179q51 111 88 187.5t62 123.5zM1913 1556q108 115 200 115q48 0 48 -31q0 -32 -58 -57q-67 -31 -190 -27zM1577 1214q-21 3 -41 3h-41q-516 0 -758 -375q-16 55 -16 108q0 129 74 250
q75 127 215 211q237 143 563 143q51 0 111.5 -3t132.5 -11q-105 -110 -240 -326zM1176 541q-328 26 -426 262q247 407 808 381q-126 -211 -221.5 -372t-160.5 -271zM782 43q-139 150 -139 383q0 178 86 342q127 -219 432 -250q-104 -162 -197.5 -280.5t-181.5 -194.5z
M416 629q20 12 20 22q0 6 -8 6q-12 0 -33 -12q-170 -100 -274 -221q-119 -143 -119 -287q0 -295 346 -295q82 0 166 15q158 26 303 110q131 -100 315 -100q142 0 259 51q118 49 147 123q10 22 -6 22q-10 0 -12 -12q-25 -59 -140 -106q-110 -45 -248 -45q-165 0 -284 86
q268 166 479 530q254 21 414 150q137 116 137 262q0 190 -215 264q59 111 116.5 196t110.5 144q51 -4 97.5 0t89.5 14q108 29 108 96q0 52 -90 52q-125 0 -256 -131q-147 16 -247.5 24t-153.5 8q-291 0 -490 -118q-137 -82 -215 -226q-69 -127 -69 -274q0 -92 28 -174
q-80 -178 -80 -377q0 -250 117 -406q-90 -92 -197 -126q-81 -27 -163 -27q-72 0 -130.5 21.5t-99.5 58.5t-63.5 89t-22.5 114q0 120 84 241q94 131 279 238z" />
    <glyph glyph-name="J" unicode="J" horiz-adv-x="1896" 
d="M2108 1524q123 123 221 123q23 0 42.5 -7.5t19.5 -23.5q0 -25 -27 -43q-70 -51 -256 -49zM1143 160q-163 -262 -309 -445q-203 74 -223 230q-2 14 -14 14q-19 0 -15 -18q23 -166 234 -248q-277 -332 -504 -402q-105 -32 -201 -32q-168 0 -268 92q-100 88 -100 229
q0 137 102 283q113 155 334 287q198 116 391 178q223 -172 571 -168h2zM1543 219q71 -82 71 -188q0 -170 -165 -269q-146 -88 -359 -88q-33 0 -63.5 2t-61.5 7q98 104 190.5 227t180.5 264q55 8 107.5 18.5t99.5 26.5zM1549 268q-45 43 -115 74q41 76 77 149.5t69 147.5
q39 90 79.5 175t85.5 171q150 -111 150 -287q0 -127 -86 -239q-92 -123 -260 -191zM1358 213q17 25 31 49.5t29 48.5q53 -28 90 -59q-66 -23 -150 -39zM611 340q184 53 348 53q172 0 305 -31q-26 -45 -51 -87t-49 -82h-23q-323 -7 -530 147zM1987 1499q-158 -149 -325 -420
q-121 43 -271 43q-184 0 -342 -94q-186 -110 -186 -280q0 -164 200 -267q25 -12 25 8q0 9 -8 11q-184 92 -184 243q0 158 176 261q151 83 319 83q139 0 250 -43q-80 -129 -160 -282q-59 -111 -108 -203t-90 -166q-138 33 -324 33q-188 0 -387 -55q-201 178 -201 458
q0 205 111 383q121 189 325 287q234 109 476 109q135 0 336 -37q92 -17 180 -35t180 -35zM2380 1663q-2 2 -8 2q-29 6 -57 6q-135 0 -295 -141q-10 2 -19 2q-8 0 -16 2q-102 22 -202.5 42.5t-202.5 41.5q-236 47 -392 47q-247 0 -460 -100q-207 -99 -322 -287
q-108 -180 -108 -389q0 -322 233 -531q-192 -59 -365 -159q-208 -121 -337 -271q-152 -176 -152 -344q0 -356 397 -356q88 0 193 18q330 54 674 412q88 -16 170 -16q227 0 376 94q170 108 170 295q0 114 -75 202q192 70 297 203q98 119 98 258q0 213 -207 336
q162 303 307 461q105 -4 191 12q39 6 84 51q49 45 49 80q0 15 -17 25z" />
    <glyph glyph-name="K" unicode="K" horiz-adv-x="2013" 
d="M1158 168q-66 -14 -129.5 -21.5t-124.5 -7.5q-45 0 -87 4t-83 13q78 112 134 196t95 142q66 -109 114 -190t81 -136zM996 625q407 934 672 934q20 0 47.5 -10.5t40.5 -10.5q39 0 39 31q0 33 -70 33h-109q-36 2 -65 2h-45q-453 0 -742 -74q-309 -76 -510 -244
q-247 -205 -247 -487q0 -234 166 -414q155 -168 389 -235q-383 -574 -803 -574q-139 0 -234 55q-114 66 -114 197q0 10 2 18v21q0 14 -13 14q-18 0 -18 -78q0 -254 350 -254q551 0 975 570q39 -4 78 -7t80 -3q155 0 307 36q57 -92 111.5 -158.5t107.5 -111.5
q143 -123 313 -123q156 0 238 101q80 94 80 249q0 58 -14 142q-15 112 -39 112q-15 0 -15 -14q0 -37 21 -121q20 -82 20 -133q0 -111 -45 -180q-53 -80 -158 -80q-202 0 -477 360q160 60 322 195q199 166 199 301q0 14 -17 14q-10 0 -14 -10q-17 -41 -29 -69.5t-20 -45.5
q-140 -251 -457 -364q-90 125 -155.5 217t-110.5 154q116 143 259.5 285.5t315.5 287.5q414 352 678 428q105 33 207 33q100 0 180 -37q105 -47 105 -135q0 -148 -265 -260q-34 -15 -62 -24t-46 -15q-19 -10 -19 -21q0 -12 19 -12q6 0 18 4q385 146 385 356q0 117 -121 189
q-102 55 -229 55q-98 0 -186 -26q-287 -86 -695 -455q-170 -154 -312 -307.5t-261 -309.5zM619 856q-29 0 -59 -8q-48 -12 -48 -29q0 -8 9 -8q8 0 25.5 4t25.5 4q125 0 280 -174q-163 -301 -262 -452q-204 73 -329 235q-136 172 -136 379q0 266 220 461q178 157 469 235
q135 35 300.5 53.5t364.5 16.5l107 -2q-283 -109 -691 -846q-149 131 -276 131z" />
    <glyph glyph-name="L" unicode="L" horiz-adv-x="1654" 
d="M1618 813q-14 105 -44 196t-75 169q275 477 473 477q66 0 111 -45t45 -127q0 -211 -148 -391q-135 -166 -362 -279zM1417 1221q-57 -84 -116.5 -182.5t-124.5 -215.5l-93 -168q-34 -4 -67 -6t-66 -2q-358 0 -563 166q-178 143 -178 354q0 176 129 299q139 133 369 133
q209 0 397 -100q194 -102 313 -278zM1569 788q-154 -67 -311 -104q137 307 215 442q38 -75 62 -159t34 -179zM1129 -102l-289 141q227 240 401 612q86 17 169 44.5t161 62.5q2 -21 3 -40.5t1 -39.5q0 -248 -119 -453q-123 -209 -327 -327zM696 47q-147 -178 -297 -272
q-157 32 -249 127q-82 82 -82 174q0 65 46 108t128 43q53 0 125 -22q143 -45 329 -158zM1016 -160q-203 -84 -432 -84q-27 0 -51.5 1t-47.5 3q162 88 306 228q75 -49 130.5 -86t94.5 -62zM2249 -33q-4 10 -15 10q-24 0 -14 -22q23 -61 23 -105q0 -196 -318 -196
q-198 0 -420 82q-145 53 -329 137q215 129 333.5 335t118.5 460q0 53 -6 112q244 119 379 285q158 192 158 418q0 100 -58 151q-53 47 -133 47q-227 0 -524 -419q-129 172 -330 270t-407 98q-271 0 -433 -143q-149 -129 -149 -318q0 -223 201 -376q229 -177 624 -177
q56 0 115 7q-94 -172 -177 -304.5t-157 -228.5q-102 47 -190 83t-166 60q-182 60 -287 9q-98 -47 -98 -154q0 -102 90 -192q102 -103 281 -146q-158 -86 -328 -86q-146 0 -242 60q-106 67 -106 192v21q0 8 2 18t-11 14q-14 0 -16 -12q-2 -16 -3 -32.5t-1 -33.5
q0 -253 350 -253q221 0 430 98q37 -4 77 -7t81 -3q254 0 463 88q112 -70 208.5 -120t182.5 -81q240 -84 430 -84q191 0 297.5 76t106.5 211q0 73 -33 151z" />
    <glyph glyph-name="M" unicode="M" horiz-adv-x="2418" 
d="M1571 399q25 2 49.5 4.5t49.5 6.5q-181 -285 -299 -328q141 129 200 317zM1704 1548q-151 -86 -331 -334q-48 11 -96 17t-99 6q-207 0 -348 -92q-158 -105 -170 -297q-17 -227 280 -356q-116 -211 -223.5 -368t-208.5 -261q-209 47 -327 209q-117 155 -117 377
q0 129 47 264q154 442 641 663q420 193 952 172zM1545 1153q-41 21 -86 37q172 276 317 354q10 -2 18 -2q11 0 21 -2q-117 -49 -209 -215q-41 -68 -61 -172zM1770 455q86 129 170 258t170 258q205 313 377 485q225 225 381 225q139 0 139 -165q0 -142 -115 -324
q-129 -207 -366 -397q-127 -103 -279 -179q227 547 473 861q6 6 6 14q0 18 -14 18q-10 0 -18 -12q-78 -104 -155 -208.5t-155 -209.5q-229 -317 -338 -549q-67 -22 -135.5 -41.5t-140.5 -33.5zM1356 1192q-65 -92 -135 -205t-145 -250l-115 -209q-227 121 -213 320
q12 180 154 274q122 86 307 86q71 0 147 -16zM1538 1128q-4 -26 -9 -53.5t-9 -58.5q-8 -70 -15 -139.5t-16 -139.5q-22 -192 -49 -311q-184 0 -342 47q21 41 40.5 83t37.5 85q131 307 270 528q25 -10 47.5 -20t44.5 -21zM1723 850q0 -16 16 -16q15 -3 15 14q10 139 -117 242
q12 192 61 280q27 45 48.5 77t41.5 52q52 47 119 51q12 0 14 8.5t0 14.5q2 8 -6 12q-63 17 -131 -2q-1423 12 -1726 -854q-45 -127 -45 -260q0 -227 127 -403q129 -177 344 -228q-172 -172 -359 -231q-96 -29 -190 -29q-148 0 -244 60q-106 67 -106 192v20q0 9 2 19
q2 14 -11 14q-14 0 -16 -12q-2 -16 -3 -32.5t-1 -33.5q0 -251 350 -251q39 0 80 3t82 11q285 47 532 254q152 -10 273 59q127 70 168 207q4 16 -10 18q-17 5 -19 -10q-16 -59 -52 -104t-86 -77t-111.5 -48.5t-129.5 -16.5q256 226 449 592q86 -22 173 -33.5t179 -13.5
q-72 -282 -221 -383q-10 -10 -8 -16q4 -10 16 -10q199 -13 524 436q72 12 142.5 29.5t140.5 40.5q-94 -207 -94 -353q0 -166 88 -284.5t205 -118.5q82 0 151 63q31 29 58.5 67t50.5 85q39 86 49 153q2 21 -12 21q-13 0 -17 -16q-16 -123 -117 -236q-73 -86 -145 -86
q-76 0 -123 90q-45 86 -35 203q15 182 140 489q215 97 366 222q457 376 457 702q0 123 -69.5 192.5t-180.5 69.5q-217 0 -432 -242q-80 -92 -170 -222t-193 -304q-77 -137 -157 -272t-160 -273q-51 -8 -107 -12q35 129 46 318l4 154t6 155q92 -92 86 -207z" />
    <glyph glyph-name="N" unicode="N" horiz-adv-x="1746" 
d="M918 406q117 -127 117 -318q0 -192 -121 -324q-139 -145 -369 -133q-98 7 -172 39q318 258 545 736zM285 -285q-239 160 -239 512q0 115 30 236q113 432 549 692q377 223 885 264q-268 -133 -651 -823l-45 -82q-84 39 -191 39q-119 0 -213 -98q-96 -97 -96 -222
q0 -65 41 -135q45 -75 106 -73q15 0 15 16q0 14 -17 14q-39 -2 -78 58q-36 57 -36 120q0 111 86 201q90 90 192 90q98 0 176 -37q-297 -553 -514 -772zM-147 -573q260 43 498 225q92 -35 192 -41q256 -17 406 133q131 131 131 334q0 219 -148 358q93 197 161.5 335
t117.5 224q227 387 405 430h66q6 0 10 -2q2 -4 8 2h13q-127 -65 -203 -202q-55 -95 -84 -308q-14 -133 -26.5 -264t-24.5 -264q-51 -332 -207 -446q-17 2 -19 -13h-2q-6 -4 2 -6q2 -8 11 -10q22 -4 43.5 -7t44.5 -3q178 0 329 182q56 66 102 150.5t85 189.5
q69 186 129.5 325.5t112 231.5t112 177t131.5 163q133 145 256 219q174 102 324 102q98 0 153.5 -41.5t55.5 -111.5q0 -168 -299 -359q-13 -10 -13 -20q0 -29 39 -2q287 201 287 389q0 51 -23.5 94t-65.5 74t-98.5 47.5t-123.5 16.5q-166 0 -322 -95q-213 -127 -358 -331
q-115 -158 -209 -412q-41 -113 -81 -225.5t-81 -227.5q-41 -112 -82 -196t-82 -142q-133 -182 -307 -168q31 15 62 41q208 168 258 619q4 49 6 115v143q0 74 2 145q10 187 57 271q51 90 88 120q51 46 119 44q12 0 12 16q0 29 -20 27q-88 -5 -173 -11t-171 -16
q-1223 -150 -1438 -973q-14 -57 -21.5 -112.5t-7.5 -112.5q0 -178 72 -323.5t203 -227.5q-176 -176 -359 -232q-96 -28 -190 -28q-146 0 -242 59q-106 68 -106 193v20q0 8 2 19q2 14 -13 14q-12 2 -14 -12q-6 -35 -6 -66q0 -252 352 -252q39 0 79 3t83 12z" />
    <glyph glyph-name="O" unicode="O" horiz-adv-x="1894" 
d="M1831 1348q17 55 17 102q0 117 -78 190q-84 78 -227 78q-138 0 -316 -78q-170 -75 -323 -223q-203 64 -404 64q-239 0 -385 -97q-135 -90 -135 -221q0 -129 145 -239l-2 -4q-41 -99 -41 -197q0 -154 86 -279q95 -139 277 -217q41 -186 164 -282q133 -107 360 -97
q248 9 494 197q225 176 372.5 436t147.5 498q0 233 -152 369zM654 168q82 -12 166 -12q317 0 565 170q246 168 246 403q0 133 -99 272q209 140 281 299q84 -114 84 -290q0 -232 -131 -492q-129 -262 -326 -434q-215 -188 -424 -190q-268 -5 -362 274zM1512 1030
q-186 232 -528 361q63 65 130.5 117.5t143.5 86.5q168 80 301 80q117 0 180.5 -61.5t63.5 -159.5q0 -41 -8 -76q-84 64 -119 64q-17 0 -17 -12q0 -9 11 -13q59 -28 112 -78q-61 -163 -270 -309zM1481 1012q-176 -115 -387 -172q-225 -62 -436 -49q88 327 289 561
q360 -121 534 -340zM633 240q-10 47 -16 98t-6 106q0 148 37 306q452 -19 856 233q90 -127 90 -256q0 -213 -217 -362.5t-516 -149.5q-115 0 -228 25zM160 899q146 -100 336 -133q-65 -203 -65 -381v-39q0 -18 2 -37q-150 74 -230 199q-69 108 -69 240q0 67 22 139z
M508 1145q23 0 23 14q0 8 -14 10q-113 11 -210.5 -42.5t-156.5 -151.5q-100 82 -100 178q0 115 137 190q139 78 354 78q156 0 322 -45q-232 -243 -351 -567q-186 37 -323 137l-6 4q47 94 134 147.5t191 47.5z" />
    <glyph glyph-name="P" unicode="P" horiz-adv-x="2017" 
d="M1977 1636q-233 70 -526 70q-553 0 -954 -223q-459 -256 -459 -686q0 -246 162 -389q-111 -201 -111 -379q0 -144 73 -231t214 -87q309 0 565 201q180 -80 400 -74q186 6 329 111q152 114 152 266q0 18 -1 33.5t-18 13.5q-16 0 -12 -16q16 -148 -125 -258
q-137 -113 -325 -119q-205 -6 -371 68q160 137 266 329q150 309 305 623q248 487 430 676q336 -146 336 -416q0 -223 -266 -397t-608 -174q-29 0 -29 -13q0 -12 29 -12q393 0 706 178q312 178 322 412q10 325 -432 475q90 76 172 76q24 0 49 -6q16 -7 18 8q6 16 -10 20
q-31 10 -61 10q-99 0 -220 -90zM861 -4q-161 110 -245 293q296 28 434 243q123 189 63 390q-61 204 -258 204q-131 0 -222 -101t-124 -261q-88 -70 -159.5 -147.5t-125.5 -170.5q-120 134 -120 342q0 422 413 668q359 217 864 217q304 0 537 -86q-53 -49 -108.5 -110.5
t-110.5 -137.5q-127 -172 -295 -473q-133 -235 -201.5 -356t-72.5 -129q-154 -254 -269 -385zM228 385q144 -106 334 -98q86 -197 275 -318q-219 -227 -461 -227q-121 0 -188 80q-64 72 -64 203q0 170 104 360zM501 711q-6 -49 -6 -99q0 -161 57 -303q-178 -4 -301 111
q92 160 250 291zM855 1100q55 0 100.5 -22.5t76 -61.5t47 -92.5t16.5 -114.5q0 -182 -119 -322q-139 -161 -369 -176q-65 160 -65 326q0 29 2 57.5t6 57.5q47 34 96 66t103 61q30 14 30 28q0 11 -16 11q-12 0 -27 -9q-47 -22 -91 -50t-85 -56q31 135 108 216t187 81z" />
    <glyph glyph-name="Q" unicode="Q" horiz-adv-x="1882" 
d="M584 207q88 -19 192 -19q295 0 490 191q184 180 184 436q0 117 -47 234q127 75 205 172q100 -150 100 -414q0 -422 -219 -682q-196 -231 -463 -231q-143 0 -258 77q-123 84 -184 236zM1635 1319q-132 106 -320 106q-104 0 -190 -32q-48 34 -102 64t-118 56
q220 213 502 213q99 0 187 -69q92 -68 92 -148q0 -100 -51 -190zM1391 1077q-78 170 -238 293q68 23 135 23q185 0 299 -146q-71 -94 -196 -170zM1342 1047q-82 -46 -172 -81.5t-193 -62.5q-184 -49 -330 -49h-41q-18 0 -38 2q86 389 307 627q119 -45 207 -109
q-177 -84 -177 -233q0 -17 17 -17q14 0 14 17q0 135 172 213q166 -127 234 -307zM572 240q-43 122 -43 276q0 156 32 311q21 -2 42.5 -3t43.5 -1q127 0 320 47q217 54 385 148q31 -96 31 -197q0 -248 -162 -418q-172 -184 -445 -184q-114 0 -204 21zM133 997
q119 -112 291 -151q-49 -170 -49 -330q0 -117 31 -221q-158 76 -242 229q-72 133 -72 295q0 84 41 178zM482 1239q14 -2 16 12q4 17 -12 17q-76 10 -172 -39q-117 -60 -183 -164q-65 94 -65 192q0 136 108 222q123 96 328 88q143 -4 313 -62q-268 -250 -383 -628
q-176 43 -278 159q112 205 289 205h18q10 0 21 -2zM344 -76q-10 -10 -6 -20t17 0q38 26 98 26q127 0 309 -125q80 -53 270.5 -231t296.5 -248q174 -112 328 -112q145 0 248 79q108 86 108 232q0 156 -129 356q-6 6 -14 6q-14 0 -14 -14q0 -6 2 -8q131 -199 131 -342
q0 -98 -60.5 -151.5t-158.5 -53.5q-131 0 -314 109q-59 34 -140 91.5t-185 137.5q-109 86 -180.5 139t-110.5 76q86 -23 174 -23q326 0 559 242q264 270 264 729q0 316 -178 479q57 101 57 211q0 113 -104 185q-90 63 -205 63q-301 0 -557 -223q-196 76 -377 88
q-209 14 -338 -63q-145 -86 -143 -273q4 -145 115 -262q-45 -90 -45 -205q0 -178 82 -321q98 -166 274 -242q64 -188 221 -295q-67 21 -129 21q-102 0 -166 -58z" />
    <glyph glyph-name="R" unicode="R" horiz-adv-x="1992" 
d="M783 203q96 143 172 303q39 -62 66.5 -109t47.5 -80q-141 -94 -286 -114zM1012 633q88 203 175 361.5t175 281.5q88 -115 88 -295q0 -172 -88 -336q-164 -22 -350 -12zM1344 612q-72 -123 -176 -217q-51 72 -89 124t-65 83q88 -4 170 -2t160 12zM1381 616q377 54 585 232
q189 160 189 366q0 209 -191 355q-204 155 -553 155q-426 0 -796 -266q-398 -287 -443 -690q-2 -23 -3 -45.5t-1 -44.5q0 -219 125 -352q115 -127 303 -152q-315 -491 -641 -590q-96 -28 -192 -28q-146 0 -242 59q-106 68 -106 192v21q0 8 2 18.5t-11 14.5q-14 0 -16 -13
q-2 -16 -3 -32.5t-1 -32.5q0 -254 350 -254q39 0 80 3t82 11q492 84 866 629q168 21 320 121q149 -258 256 -369q166 -172 364 -172q136 0 224 84q94 94 94 266q0 113 -39 242q-2 14 -19 10q-14 -2 -10 -18q41 -146 41 -248q0 -131 -61 -201q-54 -61 -148 -59
q-149 4 -317 178q-101 105 -285 363q117 106 197 247zM902 1001q22 -12 22 15q0 10 -8 12q-60 35 -60 105q0 88 84 172q88 84 211 84q88 0 160 -60q-180 -207 -405 -612q-158 139 -287 139q-51 0 -94 -20q-15 -9 -13 -17q0 -10 17 -6q20 6 43 6q129 0 289 -186
q-164 -295 -246 -430q-158 28 -250 141q-102 125 -102 320q0 45 6 92q45 420 395 688q330 250 760 250q270 0 440 -152q156 -143 156 -344q0 -194 -150 -338q-172 -166 -473 -211q84 172 84 340q0 193 -98 316q180 241 315 241q10 0 19.5 -1t19.5 -3q10 -4 14.5 6.5
t-6.5 14.5q-24 8 -59 8q-160 0 -352 -217q-82 65 -183 65q-139 0 -235 -96q-90 -90 -90 -190q0 -93 76 -132z" />
    <glyph glyph-name="S" unicode="S" horiz-adv-x="1611" 
d="M987 479q-227 -166 -508 -166q-88 0 -162 23q5 57 19 115q63 270 285 454q178 -41 274 -162q92 -114 92 -264zM645 926q211 161 399 161q218 0 218 -180q0 -47 -17.5 -100t-50.5 -106.5t-79 -105.5t-103 -97q-6 147 -99 262q-102 123 -268 166zM983 422
q-20 -160 -152 -285q-139 -135 -370 -182q-148 127 -146 344q70 -20 164 -20q285 0 504 143zM268 354q-168 76 -168 246q0 127 99 219q108 103 284 103q49 0 90 -9q-221 -178 -286 -452q-13 -58 -19 -107zM1788 1493q18 -18 33 -18q24 0 24 32q0 39 -37 76q-53 53 -157 53
q-144 0 -236 -96q-100 -100 -100 -252q0 -80 35 -219q39 -160 43 -203q12 -96 12 -184q0 -356 -168 -580q-147 -194 -371 -239q-213 -43 -372 67q235 52 374 203q125 135 142 307q131 95 209 222q71 120 71 231q0 96 -59 156q-64 63 -187 63q-88 0 -200 -43
q-129 -47 -244 -135q-244 45 -401 -70q-142 -102 -142 -266q0 -201 209 -283q-10 -227 142 -368q-80 -13 -166 -13q-133 0 -174 39q-9 9 -17 0.5t0 -16.5q60 -53 191 -53q53 0 101 4t95 12q158 -127 393 -127q283 0 490 176q231 201 231 539q0 160 -55 342
q-20 53 -38.5 108.5t-39.5 108.5q-47 141 -47 233q0 132 82 213q53 54 145 54q123 0 189 -74z" />
    <glyph glyph-name="T" unicode="T" horiz-adv-x="1957" 
d="M2039 1382q-57 -86 -326 -643q-213 -442 -405 -653q-275 -299 -623 -299q-209 0 -321 135q-107 125 -107 328q0 18 1 36.5t3 39.5q152 -78 365 -78q415 0 676 217q225 188 225 426q0 135 -86 219q-96 90 -264 90q-125 0 -275 -49q-219 -74 -389 -221q-106 84 -133 213
q188 110 420 137q16 4 14 18q-4 15 -18 13q-117 -15 -222.5 -49.5t-199.5 -87.5q-6 32 -2 69q12 162 205 262q184 99 448 99q203 0 510 -84q248 -68 374 -102t130 -36zM343 1155q-303 -186 -303 -473q0 -199 150 -311q-5 -31 -8 -60.5t-3 -58.5q0 -219 125 -350
q139 -146 381 -146q514 0 801 295q196 205 326 629q77 262 126.5 405.5t65.5 176t33.5 60.5t34.5 54q235 -47 393 -47q233 0 366 96q109 80 127 224q4 16 -14 16q-14 2 -16 -12q-17 -135 -121 -207q-82 -57 -232 -57q-165 0 -442 73q96 117 188 148q15 2 11 18q-2 14 -21 10
q-106 -32 -211 -168q-16 5 -140 43.5t-355 110.5q-277 88 -404 100q-47 5 -92 7t-86 2q-631 0 -682 -492q-6 -43 2 -86zM489 907q-228 -211 -289 -493q-129 106 -129 270q0 260 278 440q33 -129 140 -217zM976 836q14 2 10 18q-2 14 -18 10q-97 -24 -183 -24q-135 0 -235 63
q156 150 362 217q129 45 244 45q152 0 234 -82q75 -75 75 -200q0 -221 -204 -402q-232 -205 -603 -205q-229 0 -391 91q45 290 260 514q113 -72 258 -72q93 0 191 27z" />
    <glyph glyph-name="U" unicode="U" horiz-adv-x="1630" 
d="M331 121q-10 -2 -26 -2q-111 0 -178 92q-78 106 -78 301q0 211 98 436q115 262 320 410q223 -68 290 -352q-145 -197 -236 -340.5t-130 -241.5q-62 -148 -62 -262v-21q0 -10 2 -20zM1329 512q49 248 141 512q39 113 70.5 194.5t60.5 135.5q92 174 146 174q18 0 18 -39
q0 -62 -45 -195q-131 -395 -391 -782zM776 893q12 -119 -2 -244q-23 -176 -117 -313q-88 -123 -205 -180q2 178 111 393q35 69 88 154t125 190zM501 1382q193 123 355 123q116 0 116 -92q0 -90 -110 -262q-10 -16 -28.5 -42t-45.5 -60q-63 260 -287 333zM182 1331
q-4 -4 -4 -10q0 -16 16 -16q6 0 10 6q62 65 156 65q27 0 61 -6q-188 -149 -303 -405q-100 -228 -100 -453q0 -205 84 -319q76 -105 203 -105q20 0 30 2q41 -194 254 -194q146 0 314 94q157 92 317 260q-6 -66 -6 -121q0 -424 328 -424q14 0 14 10q0 9 -14 9q-258 0 -258 397
q0 49 4 103.5t12 113.5q379 446 545 971q26 82 26 153q0 127 -98 115t-203 -207q-39 -76 -80.5 -175t-89.5 -226q-59 -162 -100 -308.5t-63 -277.5q-189 -250 -369 -360q-152 -95 -256 -95q-150 0 -160 195q129 57 225 190q105 142 127 332q19 166 5 293q71 98 108 150.5
t41 56.5q109 170 109 268q0 131 -175 131q-98 0 -223 -43q-125 -45 -215 -106q-14 4 -28.5 6t-30.5 4q-131 14 -213 -74z" />
    <glyph glyph-name="V" unicode="V" horiz-adv-x="2041" 
d="M1497 481q37 -2 75 -1t79 3q-256 -434 -393 -483q190 168 239 481zM1460 1169q-16 -45 -29.5 -104t-23.5 -131q-16 -133 -27.5 -235.5t-19.5 -176.5q-194 31 -307 119q-119 94 -111 231q8 152 131 236q107 74 267 74q59 0 120 -13zM1880 885q-71 -125 -125.5 -218.5
t-89.5 -154.5q-41 -4 -83 -5t-83 1q4 35 8.5 111.5t6.5 199.5q2 111 9 194t17 136q205 -68 340 -264zM1993 575q-59 -18 -116.5 -31.5t-117.5 -21.5l175 266q51 -106 59 -213zM1950 813q129 197 233.5 336t190.5 225q235 232 387 232q125 0 125 -148q0 -127 -98 -289
q-115 -182 -316 -344q-98 -77 -210.5 -138.5t-244.5 -102.5q-12 114 -67 229zM1544 1174q15 67 41 116q52 88 90 127q52 47 119 51q17 0 17 15q0 12 -17 16q-176 6 -344 0q-659 -26 -1014 -287q-270 -196 -399 -565q-45 -127 -45 -268q0 -279 166 -483q176 -220 448 -220
q146 0 256 68q121 72 158 201q4 16 -10 18q-17 4 -19 -10q-34 -119 -145 -184q-102 -62 -240 -62q-256 0 -413 201q-150 186 -150 450q0 138 47 273q148 428 561 645q363 190 850 190q52 0 101 -2t100 -6q-117 -49 -209 -215q-14 -22 -24 -53q-82 16 -156 16
q-182 0 -301 -80q-135 -88 -148 -254q-10 -151 142 -251q131 -91 350 -125q-64 -433 -256 -566q-10 -10 -8 -16q4 -10 16 -10q227 -17 633 590q129 18 254 55v-23q0 -127 -47 -215q-58 -106 -178 -106q-70 0 -76 18q-4 13 -14 10q-13 -2 -9 -16q9 -37 99 -37q96 0 164 70
q86 88 86 276v31q307 96 512 264q251 209 344 420q79 189 16 313q-57 125 -207 125q-213 0 -430 -247q-158 -185 -362 -525q-138 199 -349 267z" />
    <glyph glyph-name="W" unicode="W" horiz-adv-x="2105" 
d="M719 88q-125 70 -203 205q-78 133 -78 276q0 203 100 316q93 102 232 102q55 0 114 -18q-14 -117 -26 -230.5t-25 -230.5q-32 -272 -114 -420zM831 10q25 -4 49.5 -7t47.5 -3q100 0 188 45q-72 -164 -205 -254q-125 -82 -272 -82q-234 0 -396 180q-180 195 -180 521
q0 354 277 643q311 323 839 405q-118 -49 -211 -215q-53 -96 -79 -246q-62 19 -125 19q-158 0 -262 -111q-115 -121 -115 -336q0 -157 88 -297q92 -141 225 -213q-53 -77 -123 -129q-12 -10 -10 -16q4 -10 16 -10q113 -8 248 106zM1192 479q2 -8 2 -16v-17q0 -200 -58 -352
q-100 -63 -213 -63q-16 0 -31.5 1t-31.5 3q143 137 332 444zM766 31l14 -6q-27 -17 -45 -25zM997 907q154 -121 189 -348q-246 -401 -377 -512q-4 2 -10.5 4t-10.5 4q140 158 183 410q10 59 16 168.5t10 273.5zM1272 1499q-627 -65 -969 -409q-293 -297 -293 -689
q0 -325 203 -530q188 -188 438 -188q170 0 307 96q150 108 219 303q41 29 117 115q82 90 82 127q0 14 -14 14q-13 0 -15 -8q-69 -123 -153 -193q41 142 41 309q0 46 -6 93q90 149 178 298.5t180 299.5q192 293 326 321q-129 -47 -209 -221q-64 -135 -84 -305
q-11 -88 -21 -175t-20 -175q-27 -232 -80 -377q-66 -191 -189 -275q-10 -10 -8 -16q4 -10 17 -10q219 -17 499 409q127 205 252 410t252 410q318 464 598 522q101 20 142 -15q12 -10 20 -2q4 4 -4 21q-64 78 -178 82q-246 2 -434 -248q-72 -98 -162 -244.5t-203 -345.5
q-131 -235 -215 -380.5t-121 -205.5q-178 -274 -295 -317q176 158 230 432q22 121 32 477q7 273 66 381q47 86 88 127q51 47 121 51q14 0 14 15q2 12 -14 16q-117 4 -271 -108q-38 -27 -93.5 -100.5t-131.5 -196.5t-149.5 -242t-145.5 -242q-49 221 -217 334q6 246 64 346
q24 45 46.5 76t43.5 51q51 47 119 51q16 0 16 15q0 12 -16 16z" />
    <glyph glyph-name="X" unicode="X" horiz-adv-x="1329" 
d="M360 152q-294 280 -294 757q0 226 139 394q133 157 299 157q115 0 201 -90q94 -96 131 -293q10 -47 16 -125t10 -186q-198 -248 -323 -400.5t-179 -213.5zM864 692q4 -127 14.5 -222t26.5 -161q49 -200 170 -305q-102 -59 -233 -59q-242 0 -455 182q158 186 276.5 326.5
t200.5 238.5zM1937 1346q-77 147 -225 147q-104 0 -231 -72q-109 -63 -199 -159q-72 -76 -149.5 -167t-165.5 -198q-11 78 -22 136.5t-25 96.5q-91 275 -320 336q-213 56 -393 -98q-193 -166 -193 -459q0 -499 320 -788q-29 -33 -57.5 -64.5t-57.5 -60.5q-98 -107 -207 -172
q-127 -82 -231 -82q-119 0 -180 113q-6 12 -19 4q-10 -6 -4 -19q72 -139 207 -139q193 0 430 240q66 69 145 157q218 -184 476 -184q151 0 264 70q108 -78 215 -78q123 0 215 98q106 115 151 334q2 14 -12 18q-14 2 -16 -10q-84 -399 -289 -399q-100 0 -182 100
q153 150 153 420q0 72 -47 141q-41 62 -92 76q-16 4 -18 -10q-4 -17 10 -19q37 -12 76 -65q41 -60 41 -123q0 -256 -142 -397q-80 114 -127 346q-10 47 -24.5 149.5t-34.5 261.5q217 260 352 402q213 225 395 225q123 0 191 -123q6 -10 18 -4q11 6 4 19z" />
    <glyph glyph-name="Y" unicode="Y" horiz-adv-x="1683" 
d="M582 342q27 49 71 114.5t104 147.5q65 90 109 154.5t69 105.5q2 -16 3 -32.5t1 -32.5q0 -168 -92 -297q-103 -140 -265 -160zM453 346q-247 51 -290 397q-43 328 120 627q175 326 472 326q143 0 227 -105q78 -100 78 -252q0 -133 -138 -325q-94 205 -268 205
q-61 0 -119 -33q-6 -4 -6 -12q0 -17 15 -17q2 2 18 8t43 14.5t49 8.5q76 0 142.5 -55.5t105.5 -147.5q-16 -22 -71.5 -93t-153.5 -187q-138 -170 -183 -259q-12 -26 -22 -50.5t-19 -49.5zM1105 307q-269 -287 -430 -293q-117 -4 -148 74q303 182 578 219zM910 -369
q-278 -346 -489 -442q-144 -66 -258 -66q-117 0 -185.5 63.5t-68.5 170.5q0 133 100 283q113 167 326 321q37 27 73.5 51.5t71.5 46.5q68 -79 197 -73q184 6 475 325q112 13 190 4q-170 -350 -413 -659q-195 37 -207 178q0 14 -15 12q-12 -4 -12 -20q14 -148 215 -195z
M1180 346q193 217 431 565q-86 -188 -146.5 -322t-95.5 -218l-10 -23q-88 6 -179 -2zM1475 291q183 -60 172 -232q-10 -194 -217 -313q-184 -102 -385 -100q236 276 430 645zM2518 1458q0 64 -105 111q-88 43 -159 39q-211 -6 -432 -328q-9 -4 -11 -6q-418 -649 -676 -934
q-155 -16 -308.5 -69.5t-309.5 -141.5q-6 72 47 180q186 15 301 166q105 137 105 322q0 51 -11 108q142 248 142 434q0 162 -90 271q-97 116 -256 116q-277 0 -500 -282q-211 -266 -211 -545q0 -233 123 -395q112 -150 278 -187q-16 -61 -16 -108q0 -64 29 -115
q-35 -20 -68 -42.5t-66 -45.5q-198 -145 -321 -299q-148 -184 -154 -342q-12 -278 252 -278q117 0 277 51q315 102 643 479q33 -2 63 0q226 10 406 125q198 129 209 324q8 192 -207 258q86 168 162 348q69 172 138.5 312t141.5 255q211 344 377 344q102 0 182 -133
q4 -8 14.5 -4t10.5 12z" />
    <glyph glyph-name="Z" unicode="Z" horiz-adv-x="2252" 
d="M1952 1393q-77 41 -133.5 70.5t-95.5 49.5q197 125 410 173q82 18 155 18q142 0 219 -72q68 -61 68 -153q0 -47 -19.5 -85t-51 -63.5t-76 -40t-93.5 -14.5q-123 0 -307 80q41 33 84 62.5t84 58.5q90 57 33 57q-23 0 -47 -10q-119 -56 -230 -131zM1111 537q-2 28 1 57
t7 61q37 224 168 426q65 101 144 189t177 164q92 -29 160 -51.5t113 -39.5q-287 -206 -576 -563q-63 -78 -111.5 -139t-82.5 -104zM621 49q-198 -137 -385 -141q-104 -2 -159.5 39t-55.5 96q0 51 49 88t137 37q19 0 38.5 -2t39.5 -6q140 -25 336 -111zM2208 344q-2 8 -10 8
q-31 0 -20 -24q16 -45 16 -84q0 -156 -184 -256q-176 -99 -418 -99q-43 0 -86 3.5t-84 11.5q-148 24 -332 73q-84 21 -321 93q77 59 162 137t178 176q45 -107 147 -162q92 -51 205 -49q123 2 239.5 71.5t192.5 192.5q96 150 96 289q0 90 -41 168q-45 88 -112 88
q-33 0 -66 -20q-10 -5 -10 -15q0 -14 12 -14q4 0 22.5 8t34.5 8q54 0 91 -69q39 -66 39 -154q0 -184 -146 -348q-151 -172 -348 -174q-105 -2 -193 47q-98 61 -137 164q88 100 151.5 174t104.5 121q176 206 321.5 357t264.5 249q246 -72 364 -72q117 0 205 57q99 68 99 179
q0 100 -84 172q-97 78 -256 78q-82 0 -170 -21q-236 -53 -443 -180q-184 92 -332 117q-77 12 -153 12q-275 0 -459 -154q-176 -147 -176 -350q0 -57 14 -106q2 -9 9 -9q26 0 20 25q-4 20 -7 38.5t-3 37.5q0 161 170 272q168 111 393 111q141 0 405 -78q-411 -320 -489 -791
q-16 -84 -6 -155q-111 -136 -209 -235t-186 -169q-117 33 -211.5 56.5t-171.5 39.5q-25 5 -48.5 8t-46.5 3q-106 0 -168.5 -50.5t-62.5 -119.5q0 -72 61 -117q72 -57 189 -59q221 -7 471 161q135 -59 213 -95t104 -46q95 -39 180 -63.5t160 -38.5q105 -19 203 -19
q297 0 490 144q184 135 184 327q0 64 -21 119z" />
    <glyph glyph-name="bracketleft" unicode="[" horiz-adv-x="1198" 
d="M1171 1401q2 14 2 20v6q0 43 -207 43q-84 0 -137 -34q-201 -140 -467 -645q-264 -508 -264 -752q0 -74 221 -74q230 0 230 29q0 24 -60 24q-12 0 -32.5 -2t-43 -3t-44 -3t-33.5 -2q-158 0 -158 115q0 186 223 596q98 180 186.5 316t169.5 235q82 96 125 123q23 14 113 14
q12 0 31.5 -1t41 -3t42 -3t32.5 -1q21 0 29 2z" />
    <glyph glyph-name="backslash" unicode="\" horiz-adv-x="1128" 
d="M1017 -238q54 0 54 66q0 248 -279 719q-100 168 -214 332.5t-243 328.5q-137 172 -188 215q-51 41 -98 41q-27 0 -29 -12q178 -182 333.5 -374.5t295.5 -397.5q368 -551 368 -877v-41z" />
    <glyph glyph-name="bracketright" unicode="]" horiz-adv-x="1138" 
d="M1101 1391q0 59 -51 71q-12 4 -98 4q-158 0 -223 -65q22 4 102 6q31 2 55.5 3t44.5 1q54 0 82 -18q8 -33 8 -76q0 -223 -170 -623q-161 -375 -321 -565q-94 -113 -293 -113h-92q-33 -6 -80 -47q16 -2 47 -3t78 -1q272 0 358 90q213 226 381 629q172 408 172 707z" />
    <glyph glyph-name="asciicircum" unicode="^" horiz-adv-x="757" 
d="M688 678l-10 20q-178 136 -256 222l-12 4q-27 -2 -154 -109q-125 -100 -125 -123q0 -20 16 -20q27 0 234 172q18 -21 55 -47.5t90 -61.5q107 -67 154 -71z" />
    <glyph glyph-name="underscore" unicode="_" horiz-adv-x="10981" 
d="M4017 1597h41q71 0 407 -114q37 67 82 67v-10l-66 -76l170 -28q132 18 132 123l8 10h8l8 -10q0 -82 -106 -152l8 -29q-21 -147 -203 -344l-8 -39h16q37 86 82 86q29 -6 33 -37l-57 -229v-10h8q39 0 137 219q84 68 147 68l25 -11v-18h-25q-163 -43 -163 -248l8 -10h16
q53 41 123 239l57 9v-9q-73 -153 -73 -210v-29q51 10 172 268l8 8h41q16 0 16 -47h8q43 47 80 47l17 -28v-19l-58 -229h17q67 20 205 459q71 151 131 151h8l24 -29v-8q0 -123 -188 -325l-25 -58h17q35 86 98 86l16 -28v-19l-57 -229h17q47 33 114 182h17v-10
q-84 -201 -156 -201h-16l-25 29v18l66 211l-9 10q-41 0 -139 -258h-33l17 76v10h-9q-40 -96 -96 -96h-16l-25 29v18l64 221h-8q-54 -36 -138 -258l-41 -10l-8 10v9l90 249h-24q-105 -268 -189 -268q-14 0 -32 58h-9q-28 -58 -73 -58h-9q-22 0 -32 68h-9q-55 -68 -88 -68h-16
l-25 29v29q0 40 66 210h-16q-58 -36 -131 -258h-25l-8 9h-8q92 399 221 602l8 10h-8l-8 -10l-172 18q-164 -618 -269 -657q-114 -86 -237 -86h-58q-157 0 -186 209v77q-57 70 -57 152q0 117 112 211h8v18q0 258 263 258zM990 1587h16q131 -12 131 -133q-74 -151 -172 -151v8
q145 92 148 125v8q0 74 -82 86h-25q-217 0 -577 -477q38 -47 96 -162q94 0 213 219l8 -29q-37 -118 -188 -200h-9v-19q105 -151 189 -151q65 18 65 112l-16 125l8 10h8q8 -53 25 -57q45 127 98 180h31l16 -18v-19l-55 -229v-10h8q41 8 146 276l49 11v-11q-45 -100 -90 -276
q65 39 114 162h17v-9q-31 -104 -156 -210q-111 -345 -170 -345h-41l-16 21v18q0 115 178 316q33 45 33 86q-56 -68 -88 -68h-9l-24 29v10l63 238q-112 -148 -112 -267q0 -84 -123 -124q-121 0 -213 182l-137 -10h-58q-160 -259 -350 -259h-66q-106 13 -106 97v57h16
q0 -133 107 -133h24q162 0 310 248q-213 129 -213 295v10q0 391 669 391h33l17 -18l-17 -21h-24l-9 10q-102 0 -243 -391q348 467 553 467zM3331 1579q106 0 106 -86q0 -207 -211 -354v-9q0 -282 -172 -391v-20q182 -86 268 -86h58q82 12 82 86l-9 57h9q16 0 24 -76
q-22 -133 -115 -133h-73q-135 0 -301 123q-109 -37 -205 -37h-31l-8 9q-84 -48 -156 -48h-49q-115 0 -115 105v47h17q0 -133 139 -133q105 12 107 39q-68 0 -131 133v47q18 57 81 57h9q71 0 211 -75v10q114 186 114 229h-82q-209 0 -276 219v58q24 200 227 200h17
q143 0 286 -164q86 146 179 193zM6708 1569l8 -10v-9q-125 -155 -236 -401h17q43 0 96 39h8v-21h8l25 21h8q66 -55 66 -96l-9 -11h-8l-57 68q-49 -59 -107 -68v11l58 57h-8q-129 -25 -129 -76q-64 -119 -74 -221v-8q0 -74 33 -86l65 28l-16 58q43 237 145 237h17l32 -47
q0 -88 -65 -190h24q41 45 131 229l9 8h41q16 0 16 -47h8l58 47h16l24 -28v-19l-57 -229h17q49 33 112 182h17v-10q-86 -201 -154 -201h-16l-25 29v18q0 45 66 211v10q-50 0 -148 -258l-41 -10l-8 10v9q45 92 90 249h-8q-21 -12 -107 -192q-28 -37 -90 -37q0 -31 -80 -49
q0 -29 -82 -47q-63 0 -81 162q14 127 73 229h-24l-33 -8l-33 8h-33l9 -47v-10q0 -152 -228 -219q-135 -201 -336 -201q-114 0 -114 133v20q49 162 98 162l-41 154v76q0 190 246 276l73 10h9q100 0 293 -57l24 8l8 -8q39 57 82 57h33l16 -20v-19q0 -30 -131 -57
q-90 -149 -90 -190l41 -39h148q86 170 301 430zM3177 1339v-10l49 -151q186 131 186 276v29q0 67 -57 67q-74 0 -178 -211zM2663 1339v-28q0 -183 285 -219h41l139 258v8q-123 172 -271 172q-165 0 -194 -191zM3771 1350h8q104 47 164 47h8v-19q-80 0 -172 -67
q27 -74 41 -76h16q125 115 263 115h8q129 -17 129 -144v-10q0 -184 -228 -276q-36 -19 -106 -19h-57q-60 0 -115 29v-21q0 -219 172 -219q264 0 498 688q18 0 24 47q-289 105 -399 105q-254 -29 -254 -180zM68 1167q0 -178 156 -276h32l91 201q-62 67 -131 75v11l8 10h49
q39 0 98 -58q25 82 84.5 175.5t159.5 205.5h-74q-381 0 -473 -294v-50zM6357 1415v-8q41 0 66 37h-16q-50 0 -50 -29zM5688 1130v-38q0 -74 41 -115q0 14 82 57l49 39q0 131 203 162l114 -29q0 31 99 172v8l-228 39h-74q-143 0 -253 -172q-33 -77 -33 -123zM4531 1110v-8
q123 135 153 266l-8 29q-39 0 -145 -287zM5460 1397q-61 -70 -139 -295h8q148 176 148 284l-8 11h-9zM3853 1206l49 -18h65l41 8l9 -8v-10l-66 -19h-8q-90 0 -98 29q-107 -101 -107 -221q0 -47 148 -47h8q209 0 301 210l8 76q0 97 -113 115h-16q-121 0 -221 -115zM3658 1120
v-18q12 -105 41 -107h8q0 80 105 222q-49 36 -49 86q-105 -80 -105 -183zM9669 1311q129 -19 129 -152v-10q0 -162 -276 -344h-9q52 -47 132 -47q65 0 65 65h16l9 -28q-37 -95 -131 -95q-52 0 -148 76l-82 -10q-31 12 -33 29v28l41 11l99 -19q145 62 237 248l25 125
q-17 94 -82 94q-119 0 -156 -190v-19q4 -18 41 -39q19 0 74 58h8v-11q-35 -75 -90 -75h-8q-41 0 -66 47v49q0 160 205 209zM3152 1292l-65 -172h8q98 25 98 47l-32 125h-9zM7875 1303q90 0 113 -173q0 -190 -211 -382l-82 -19q-115 12 -115 115v18q0 154 139 287
q0 129 156 154zM8813 1303q98 0 113 -144v-29q0 -235 -236 -391l-65 -10q-82 0 -107 133q0 133 139 287q31 154 156 154zM10060 1303q101 0 123 -154v-10q0 -226 -221 -391l-82 -19q-92 0 -106 133v19q0 123 139 268q0 123 147 154zM10460 1303q63 0 114 -107v-66
q0 -223 -221 -382l-82 -19q-104 0 -104 143q0 113 145 295q0 111 148 136zM10818 1303h16q86 0 99 -136v-47q0 -235 -301 -430q-31 -28 -115 -47v19q367 178 367 477v57q0 53 -58 86q-147 0 -186 -229q6 -54 57 -86q64 12 121 77l8 -10q-37 -96 -129 -96q-98 25 -98 115
q0 213 219 250zM8299 1292q74 -18 74 -75q0 -52 -74 -125v-11q41 0 57 -104q-80 -238 -278 -238q-66 0 -115 76v37q19 154 131 154h17l24 -39l-8 -29h-16v39h-25q-82 -35 -82 -125v-8q0 -78 82 -78q141 0 221 221q-12 86 -49 86l-74 -20h-16l-16 20q0 29 122 47q50 56 50 97
v18q0 14 -41 29q-60 -19 -82 -68v-8l16 -21l25 21l8 -10v-11l-58 -28l-24 49q35 104 131 104zM7752 1167l74 21q41 0 65 -49v-29h-16q0 49 -25 49h-32l-74 -29l33 -49l-8 -8h-9l-41 29q-98 -129 -98 -258q0 -49 49 -86h25q170 0 244 362v68q0 69 -80 86q-107 -19 -107 -107z
M8690 1167h8l66 21h8q66 0 66 -78h-9l-41 49h-16q-80 -12 -82 -39q19 0 25 -47h-17l-24 29q-107 -107 -107 -221v-47q0 -76 66 -76q188 0 252 391v29q0 96 -105 96q-45 0 -90 -107zM9229 1282l8 -8v-10q0 -37 -221 -449q39 -12 41 -29l-8 -10h-140v10q92 66 148 209l90 172
h-8l-66 -57h-24l-17 20zM9946 1167h8l73 21q41 0 66 -49l-8 -29h-17q0 49 -24 49h-33q-59 -12 -65 -39l24 -39v-8h-16l-33 29q-107 -119 -107 -258q0 -49 50 -86h24q174 0 246 362l8 47q0 95 -98 107q-98 -35 -98 -107zM10337 1167h8l74 21q65 -6 65 -78h-8l-25 39l-8 10
h-41q-47 0 -65 -49l24 -29v-8h-16l-33 29q-96 -119 -96 -221v-47q0 -76 63 -76q191 0 254 401v19q0 84 -98 96h-8q-53 -29 -82 -78zM1113 1245h8l16 -20v-37q0 -21 -74 -49v10l50 57v19h-17q-16 0 -16 -37h-25v18q12 39 58 39zM3404 1245l90 -39l41 19l9 -8v-11l-41 -28
l-99 39l-41 -21v10q4 19 41 39zM4807 1235l115 -96v-9h-8q-117 50 -131 76zM1774 1217h16l25 -29v-21l-25 -28h-24l-17 20v29zM5884 1073l252 66l25 49l-98 18q-179 -22 -179 -133zM1960 1188l66 -78v-18h-16l-50 47l-104 -58l-8 11v10zM3412 1188l66 -78v-18h-16l-50 47
l-106 -58l-8 11v10zM2915 805l106 -57q172 120 172 354v28h-8q-129 -45 -131 -77q-45 -121 -139 -248zM6071 872h8q156 56 156 181v49h-50zM5884 1044v-10l66 -76l-8 -10h-8q-31 6 -74 76h-8q-111 -57 -115 -76q86 -96 246 -96q24 0 129 240h-17q-78 0 -211 -48zM1422 1081
h33q16 0 16 -47h8q43 47 82 47l16 -28v-19l-57 -219l8 -10q39 0 164 268l41 8h8q25 0 25 -37l-66 -229v-10h9q43 29 169 258l58 18h16q13 -8 19 -14q14 -16 14 -43q-25 -133 -98 -133h-31l-8 -47v-21q0 -24 30 -28q58 6 189 278l8 8h41q16 0 16 -47h9q43 47 82 47l16 -57
l65 57h17l22 -28v-19l-55 -229h16q41 35 121 182h8v-10q-83 -201 -153 -201h-16l-25 29v18q0 41 65 211h-16q-37 -6 -131 -248l-41 -10l-8 10q90 215 90 258h-8q-47 -12 -139 -258l-41 -10l-9 10v9l90 249l-8 9h-8q-121 -277 -197 -277h-16q-63 0 -63 96q-60 -96 -107 -96
h-16q-19 0 -25 39q0 57 66 229h-8q-25 -14 -107 -200q-49 -68 -106 -68l-25 29v39l65 200h-8q-47 -14 -137 -258l-41 -10l-8 10v9q80 196 80 249h-17q-67 -172 -88 -172h-8v9q74 170 113 200zM3388 1081h16q21 0 33 -65q-31 -125 -106 -125q-29 0 -33 -19v-49q0 -26 33 -28
q65 24 147 192h8v-10q-31 -96 -131 -201h-65q-33 17 -33 68v47q37 190 131 190zM1862 909h16q41 0 82 135l-16 19q-82 -78 -82 -154zM3314 909h8q41 0 90 115v20l-16 19q-82 -78 -82 -154zM6505 852v-8q65 110 80 114h8l8 -10h8l17 86l-17 29q-49 0 -104 -211zM330 862
l25 -10q102 0 106 29l-65 114q-74 -102 -74 -133h8zM7263 995h41l123 -8v-29l-156 -20l-33 29zM5712 938q-90 -94 -90 -180q35 -105 115 -105q119 0 237 170v11h-24q-139 0 -238 104zM2606 844v-29q0 -82 122 -125q56 31 105 105v20q-107 62 -170 76q-49 -19 -57 -47z
M6544 881l-31 -76q41 16 47 39l-8 37h-8zM8420 844h24q13 0 25 -39q-12 -35 -25 -39h-24l-25 29v20zM9262 844h24q23 0 23 -39l-23 -39h-24q-25 10 -25 57zM9374 815l17 -20h8v20h-25zM2874 766l-82 -84h41l131 29q-47 55 -90 55zM1823 748h8l25 -29v-19l-16 -18h-25l-16 18
v19zM803 432l8 -8h9q73 80 129 287q-146 -168 -146 -279zM6144 510h25q107 0 399 -125q48 76 91 76h8l-74 -86l180 -29q131 37 131 135h8v-28q-28 -144 -196 -144l-164 19v-11l-137 -456q-129 -277 -367 -277h-74q-172 29 -172 228v49q-57 67 -57 162q0 112 123 229
q0 258 276 258zM7875 510h25q102 0 374 -115h25q53 62 88 66v-8q0 -21 -55 -50v-28l170 -29q123 25 123 125h24q-35 -143 -115 -143l17 -47q0 -91 -203 -334l-8 -39q74 86 96 86q31 -12 33 -29l-57 -219v-29h8q51 19 164 267l41 10h8l16 -19v-20l-57 -229v-9h8
q59 19 156 277l49 10q-82 -223 -82 -268v-19h8q49 19 162 267l41 10h8l16 -19v-20l-57 -219v-19h8q74 58 148 277l49 10v-10q-90 -242 -90 -287q49 37 131 182v-20q0 -51 -156 -219q-104 -334 -186 -334h-17l-24 29q0 114 178 323q16 0 33 86q-55 -65 -90 -65h-8l-25 28v9
l65 229h-8q-12 0 -104 -201q-53 -65 -107 -65q-16 20 -16 75q-64 -75 -98 -75h-17l-24 28v9l65 229h-8q-10 0 -115 -209q-53 -57 -90 -57h-8l-22 28v29l63 209h-16q-68 -59 -129 -258h-25l-8 10h-8q104 434 211 592l8 10l-178 19v-11l-148 -467q-110 -266 -358 -266h-74
q-80 0 -126 62.5t-46 185.5v37q-57 61 -57 154q0 102 123 229q0 258 278 258zM4555 500q146 0 146 -115q0 -111 -162 -172l-8 10v8q145 68 145 115v39q-25 57 -88 57h-16q-209 0 -572 -467v-10q74 -141 107 -162q129 62 178 191l24 29v-19q0 -90 -178 -211h-16v-10
q94 -162 194 -162q58 29 58 96l-17 144h25l8 -49l90 172l41 10h8q25 0 25 -39l-66 -229v-9h17q53 47 147 238q33 39 80 39h8q33 -17 33 -68q-24 -123 -98 -123h-31l-8 -67l22 -29q68 0 189 277l41 10h8q25 0 25 -47h8q41 45 65 47q31 -12 33 -29v-10l-57 -219v-19h8
q39 25 131 191l8 -10q-86 -209 -164 -209h-8l-24 28v47l65 183l-8 8h-8q-43 -18 -131 -248l-41 -18l-8 8v10l81 240v18q-30 -26 -106 -201q-64 -75 -98 -75h-31q-41 0 -41 104q-66 -104 -115 -104h-8q-31 18 -33 47l66 229q-12 0 -115 -201l8 -10q-18 -170 -98 -170l-33 -10
q-116 0 -211 180l-123 -8h-57q-190 -258 -366 -258h-66q-106 0 -106 104v48h16q0 -134 139 -134q154 0 293 240l8 29h-8q-203 90 -203 305q0 268 400 352q37 8 99 14.5t136 6.5h58l24 -29l-8 -10h-33l-8 10q-94 0 -244 -391q357 467 555 467zM2296 489q375 -43 375 -342
q0 -284 -270 -469q-154 -55 -154 -75q-67 -162 -221 -162q-115 0 -195 143q-98 0 -98 94v39h16q0 -106 82 -106q0 74 25 78l14 -21l-14 -18v-47q96 0 154 75q-140 97 -140 240l-8 8l8 39v10l-22 95v57q0 156 211 297q61 43 237 65zM1895 70v-19q51 58 131 58h8q41 0 82 -29
l25 10v-10q0 -25 41 -47l41 86v8l-66 -29l-8 11v18q0 14 115 57q108 191 186 191h49v-19h-25q-55 0 -147 -153v-19h16l33 11q49 -13 49 -29l-8 -10h-41l-8 10q-88 0 -88 -68q-12 0 -57 -133q49 -104 49 -201v-86l-8 -10v-8h16q141 37 260 229q29 64 43 116t14 104v10
q0 280 -245 334l-48 8q-239 0 -376 -238q-33 -86 -33 -153zM5884 270v-18q97 57 170 57v-20q-45 0 -161 -58q0 -32 41 -94q145 123 260 123q155 0 155 -151q0 -199 -262 -287l-72 -10h-57q-63 0 -115 28v-57q25 -180 156 -180q277 0 498 649l39 86q-295 104 -400 104
q-252 -30 -252 -172zM7613 260h8l139 49h33v-20q-55 0 -172 -58q0 -45 49 -94q123 123 269 123q139 -12 139 -151q0 -215 -293 -297h-98q-64 0 -115 28v-28q0 -146 106 -201l58 -8q268 0 489 649q37 57 41 86q-295 104 -399 104q-254 -28 -254 -182zM3634 80
q0 -189 178 -287l98 191q-12 49 -98 96l-8 -10h-9l-16 20l8 8h41q51 0 107 -57q63 168 221 362q24 0 24 21h-73q-473 -41 -473 -344zM3380 328h32q13 0 25 -47q0 -95 -195 -326l-16 -47v-10h8q47 96 88 96q31 -12 33 -29l-57 -239v-9h8q59 27 115 181h16q-68 -209 -156 -209
h-8l-22 28v47l63 191h-16q-60 -47 -129 -248l-8 -10h-17l-8 10h-8l8 47v10q-51 -75 -98 -75h-9q-14 2 -32 47l73 219h-16q-33 0 -131 -248l-41 -18l-8 8v10q82 215 82 258q-31 -35 -131 -239l-72 -37h-16l-25 28v19l66 229l-115 -190l-8 8q84 211 137 211h8l25 -29l-64 -239
l8 -9q70 50 162 267l41 10h8q25 0 25 -47l74 47q30 -12 32 -29l-57 -239v-9h8q88 56 180 392q80 186 138 219zM3257 12q117 121 147 258v39q-61 -35 -147 -297zM8373 12q145 168 145 258v39q-45 0 -145 -297zM5387 309h24v-10l-8 -76h8l58 37l8 -8v-10l-41 -47l65 -11
q-6 -28 -49 -28h-24v-19q32 -43 32 -76h-8l-65 66l-17 -86h-24v29l8 49h-8l-41 -29h-8l-17 19l49 38v9h-65v28l57 11h17v8l-33 67l8 11h8l49 -58zM5966 119l66 -21h72l8 11h8l8 -11v-8q-35 -20 -88 -20q-80 8 -82 28q-47 0 -115 -219q52 -47 156 -47q244 0 318 258l-9 8v11
l9 10q-23 112 -99 112h-49q-98 0 -203 -112zM7695 119l65 -21h74l8 11h8l9 -11v-8l-66 -20h-24l-99 28q-90 -131 -90 -219q0 -33 156 -47q254 0 309 277q-16 122 -98 122h-25q-127 0 -227 -112zM5770 70v-76q0 -47 41 -86q16 92 106 211q-37 57 -41 94q-61 -37 -106 -143z
M7498 33v-39q17 -86 41 -86q31 115 115 219q-49 35 -49 86q-107 -76 -107 -180zM6937 184h8l105 -114l-9 -9h-8l-112 105zM8805 156h8l25 -29v-18l-74 -68l-8 10v10l49 58v18h-8q-15 0 -17 -28l-8 -11h-8l-17 21q13 37 58 37zM2833 127h16l25 -29v-18l-25 -29h-24l-17 19v28
zM4580 127l16 -29v-18l-24 -29h-25l-16 19v28q6 29 49 29zM4742 98l65 -75v-19h-16l-49 47l-105 -57l-8 10v8zM6962 98q16 0 71 -86v-8h-16l-55 57q-47 -57 -90 -57v-10h24l25 10l32 -10v-19h-32q-123 0 -156 -249l8 -9h17q51 37 122 238l58 10v-10q-74 -154 -74 -209v-29
q47 9 170 267l8 10h41q17 0 17 -57q47 57 90 57l16 -29v-39l-57 -209h16q12 0 123 181h8v-9q-92 -200 -155 -200h-17l-24 28q0 86 57 201l8 37h-8q-43 -6 -139 -258l-41 -8l-8 8v10l90 248h-25q-104 -266 -186 -266q-15 0 -33 57h-8q-29 -57 -74 -57h-8q-33 0 -33 75h-16
q0 -57 -99 -75l-24 28v29l65 219h-8q-41 0 -65 -96l-58 -86l-6 10l72 162l-17 57v29l17 20h16l17 -20v-57h8l33 10l32 -29l-57 -219v-29h8q35 0 139 220q54 43 82 47l-8 10v10zM1919 4q0 -31 82 -49q62 0 115 78q0 37 -65 37h-33q-64 0 -99 -66zM2001 -74l-98 29v-57
q0 -107 115 -191h8q41 33 139 305l-24 21q-35 -53 -68 -80t-72 -27zM4645 -168l6 -10h9q82 57 82 133l-9 10v10q-43 0 -88 -143zM2083 -322v-10l107 -18h57l8 104q0 33 -8 69t-33 103q-96 -202 -131 -248zM3894 -225l24 -11l107 11l-58 143q-77 -113 -81 -143h8zM2042 -360
q-49 -37 -73 -37q0 -19 -91 -19l-8 -10v-10q70 -94 156 -94q205 53 205 151h-25l-164 29v-10zM8788 -655l9 -11h8q37 0 129 287q-146 -168 -146 -276z" />
    <glyph glyph-name="grave" unicode="`" horiz-adv-x="538" 
d="M440 786q0 15 -29 37q-96 70 -105 80q-59 51 -73 105q-8 32 -58 32q-18 0 -38.5 -15t-20.5 -34q0 -22 39 -47q14 -8 28.5 -16t28.5 -17q29 -18 56.5 -36.5t56.5 -34.5q90 -58 110 -58q5 0 5 4z" />
    <glyph glyph-name="a" unicode="a" horiz-adv-x="649" 
d="M798 399q4 17 -12 17q-2 0 -6 -4q-109 -213 -203 -308q-68 -69 -107 -69q-28 0 -26 63q8 101 71 226q56 110 88.5 173.5t42.5 80.5q-32 -15 -66 -26t-73 -20q-35 -69 -56.5 -115t-31.5 -69q-160 -328 -244 -328q-53 0 -53 89q0 149 115 313q133 188 313 188q74 0 74 13
q0 6 -41 10q-14 2 -30.5 3t-37.5 1q-129 0 -244.5 -74t-181.5 -209q-59 -129 -59 -231q0 -133 121 -133q61 0 135 90q63 78 86 145q-18 -55 -18 -114q0 -119 79 -119q76 0 175 106q38 41 80 106.5t90 155.5q8 17 13 26t7 13z" />
    <glyph glyph-name="b" unicode="b" horiz-adv-x="569" 
d="M725 412q12 22 -10 22q-6 0 -8 -6q-164 -326 -261 -326q-28 0 -55 27q94 131 92 262q-4 66 -32 66q-48 0 -86 -92q-27 -60 -27 -127q0 -76 27 -115q-56 -127 -138 -115q-63 12 -63 123q0 125 67 320q74 63 197 221q64 78 117 154.5t100 150.5q115 182 115 287
q0 82 -68 82q-100 0 -207 -148q-118 -164 -254 -506q-145 -370 -145 -555q0 -164 115 -164q112 0 180 133q27 -32 65 -32q72 0 162 133q21 29 49.5 81t67.5 124zM621 1004q-142 -232 -375 -508q82 217 154.5 381.5t138.5 281.5q82 150 143 150q33 0 33 -54q0 -96 -94 -251z
" />
    <glyph glyph-name="c" unicode="c" horiz-adv-x="473" 
d="M632 420q2 6 -6 12q-10 6 -14 0q-99 -217 -211 -328q-88 -88 -164 -92q-76 -2 -76 109q0 88 47 213q101 270 187 270q45 0 45 -49q0 -27 -23 -78q-20 -47 -20 -74q0 -34 28 -34q27 0 50.5 29.5t27.5 80.5q12 146 -121 146q-172 0 -278 -271q-35 -88 -35 -176
q0 -198 162 -198q88 0 188 106q60 59 113 143t100 191z" />
    <glyph glyph-name="d" unicode="d" horiz-adv-x="657" 
d="M548 610l-129 -262q-160 -328 -244 -328q-53 0 -53 91q0 151 113 309q131 186 313 190zM1031 1339q-51 -22 -149 -45l-322 -657q-71 6 -139.5 -10.5t-130 -52t-113 -91t-86.5 -129.5q-61 -127 -61 -231q0 -133 121 -133q59 0 137 90q29 39 50.5 74.5t33.5 70.5
q-18 -55 -18 -114q0 -119 82 -119q77 0 172 106q38 41 80 106.5t90 155.5q20 35 22 39q0 17 -14 17q-4 0 -4 -4q-113 -215 -205 -308q-66 -65 -109 -65q-35 0 -35 55q0 131 187 506q10 6 10 14v4q139 259 238.5 438t162.5 283z" />
    <glyph glyph-name="e" unicode="e" horiz-adv-x="473" 
d="M632 420l-6 12q-8 6 -14 0q-99 -215 -211 -328q-45 -45 -85 -68.5t-79 -23.5q-76 0 -76 109q0 53 19 127q30 -21 65 -21q96 0 180 97q76 88 76 190q0 111 -102 111q-97 0 -185 -95q-71 -77 -108 -170.5t-37 -181.5q0 -198 162 -198q84 0 188 106q58 57 113 143
q49 78 100 191zM456 485q-33 -88 -95.5 -156.5t-125.5 -68.5q-23 0 -47 12l8 31l12 31q35 92 97.5 180t119.5 88q39 0 39 -65q0 -29 -8 -52z" />
    <glyph glyph-name="f" unicode="f" horiz-adv-x="438" 
d="M207 80q6 -47 6 -96q0 -152 -47 -357q-43 -176 -104 -309q-31 -66 -49 -80q-17 -12 -24 15.5t-7 80.5q0 70 6 138.5t16 136.5q15 80 47.5 204t86.5 293q14 -16 69 -26zM181 244q20 59 37.5 110.5t33.5 96.5q74 63 197 221q63 78 116.5 154.5t100.5 150.5q111 174 111 278
q0 91 -78 91q-107 0 -213 -148q-35 -51 -81 -141t-104 -226q-57 -133 -109 -273t-101 -292q-37 -6 -37 -55q0 -23 6 -37q-162 -518 -162 -782q0 -195 88 -195q92 0 182 299q80 273 80 504q0 49 -6 84q125 -10 203 74q24 26 119 190q6 10 -2 19q-9 6 -15 -5
q-76 -139 -129 -195t-117 -56q-24 0 -61 10q-4 72 -59 123zM641 1004q-141 -232 -374 -508q100 270 168.5 435t103.5 228q82 150 150 150q40 0 40 -64q0 -96 -88 -241z" />
    <glyph glyph-name="g" unicode="g" horiz-adv-x="612" 
d="M756 389q7 12 -4 17q-10 6 -16 -5q-47 -86 -82 -143t-57 -90q-80 -102 -211 -184q61 166 95 258t42 108q70 152 139 230q-31 -15 -68.5 -26t-84.5 -22q-35 -69 -56.5 -115t-31.5 -69q-160 -328 -244 -328q-53 0 -53 89q0 149 114 313q133 188 314 188q73 0 73 13
q0 6 -41 10q-14 2 -30.5 3t-36.5 1q-129 0 -245 -74t-181 -209q-60 -129 -60 -231q0 -133 121 -133q101 0 230 235q-41 -116 -64.5 -185t-34.5 -95q-77 -41 -209 -191q-65 -78 -117.5 -152.5t-93.5 -146.5q-63 -112 -63 -188q0 -86 72 -86q102 0 204 145q60 86 134.5 239.5
t162.5 383.5q144 86 228 190q28 35 68 97.5t87 152.5zM271 -100q-111 -295 -246 -535q-88 -156 -147 -156q-33 0 -33 58q0 67 49 166q33 65 78 135t102 141q113 141 197 191z" />
    <glyph glyph-name="h" unicode="h" horiz-adv-x="618" 
d="M780 420q2 6 -6 12q-12 10 -16 0q-142 -274 -234 -354q-61 -55 -92 -55q-26 0 -26 40q0 64 71 236q80 186 80 252q0 67 -76 67q-63 0 -155 -102q-41 -45 -76 -98t-68 -115q35 123 57.5 191.5t32.5 87.5q72 34 207 188q133 156 213 299q64 113 64 191q0 83 -72 83
q-102 0 -205 -145q-149 -209 -280 -577q-21 -52 -70 -205.5t-129 -415.5q33 4 65.5 9t43.5 46q32 123 135 295q123 215 205 215q28 0 28 -28q0 -35 -45 -119q-35 -68 -72 -131q-57 -121 -57 -201q0 -96 86 -96q100 0 193 108q32 41 82.5 120t115.5 202zM662 1092
q-33 -66 -78 -135.5t-103 -141.5q-114 -141 -196 -190q110 295 245 534q91 158 146 158q35 0 35 -57q0 -70 -49 -168z" />
    <glyph glyph-name="i" unicode="i" horiz-adv-x="452" 
d="M531 831q2 33 -18.5 54.5t-51.5 21.5t-54.5 -21.5t-25.5 -54.5q-4 -30 16.5 -51.5t51.5 -21.5q30 0 53.5 21.5t28.5 51.5zM612 420q3 6 -6 12q-10 6 -14 0q-139 -270 -233 -354q-58 -51 -89 -51q-30 0 -30 47q0 43 20 98q76 190 117 283q27 71 27 110q0 64 -78 64
q-62 0 -113 -68q-29 -39 -74 -131q-79 -158 -145 -250q8 -8 20 -14q68 96 146 252q82 162 127 162q16 0 16 -23q0 -25 -24 -86l-80 -178q-47 -111 -53 -176q-17 -127 77 -127q103 0 193 108q72 88 196 322z" />
    <glyph glyph-name="j" unicode="j" horiz-adv-x="292" 
d="M432 831q2 33 -18.5 54.5t-50.5 21.5q-31 0 -54.5 -21.5t-25.5 -54.5q-4 -30 16.5 -51.5t50.5 -21.5q31 0 54.5 21.5t27.5 51.5zM434 389q7 12 -4 12q-12 0 -18 -10q-45 -82 -79 -138t-60 -89q-39 -47 -91.5 -93t-117.5 -87q215 583 299 673q-66 -28 -154 -49
q-158 -411 -246 -663q-77 -41 -209 -193q-133 -151 -215 -299q-61 -115 -61 -186q0 -86 72 -86q100 0 204 145q119 168 297 623q144 86 228 190q28 35 68 97.5t87 152.5zM-51 -100q-109 -283 -240 -523q-92 -165 -155 -165q-35 0 -35 53q0 63 53 170q68 131 182.5 274.5
t194.5 190.5z" />
    <glyph glyph-name="k" unicode="k" horiz-adv-x="587" 
d="M205 377q53 180 67 205q72 34 207 188q133 156 213 299q64 113 64 191q0 83 -72 83q-102 0 -205 -145q-149 -209 -280 -577q-21 -52 -70 -205.5t-129 -415.5q33 4 65.5 9t43.5 46q12 41 27.5 93.5t33.5 111.5q23 51 57.5 100.5t79.5 100.5q80 86 144 125q32 20 59 20
q45 0 45 -45q0 -55 -66 -86q-147 -72 -206 -67q-39 -115 -39 -224q0 -194 143 -194q72 0 162 108q37 47 87 126t114 196q2 4 -9 12q-10 10 -14 0q-145 -278 -233 -354q-52 -45 -86 -45q-68 0 -68 145q0 109 37 230q133 0 211 61q63 53 53 119q-8 63 -82 63t-170 -78
q-108 -84 -184 -196zM662 1092q-33 -66 -78 -135.5t-103 -141.5q-114 -141 -196 -190q110 295 245 534q91 158 146 158q35 0 35 -57q0 -70 -49 -168z" />
    <glyph glyph-name="l" unicode="l" horiz-adv-x="387" 
d="M645 977q114 182 114 287q0 82 -67 82q-101 0 -205 -146q-102 -141 -260 -522q-168 -406 -166 -555q2 -141 98 -141q60 0 111 45q88 71 151 178q107 174 121 213q2 6 -6 12q-10 6 -12 -2q-14 -29 -43 -81t-76 -128q-63 -104 -149 -172q-54 -43 -84 -43q-39 0 -39 70
q0 114 98 377q74 63 197 221q63 78 116.5 154.5t100.5 150.5zM620 1004q-141 -232 -375 -508q82 217 155 381.5t138 281.5q82 150 144 150q32 0 32 -54q0 -96 -94 -251z" />
    <glyph glyph-name="m" unicode="m" horiz-adv-x="999" 
d="M1159 420q2 6 -6 12q-10 8 -12 0q-146 -276 -236 -354q-61 -55 -92 -55q-24 0 -24 40q0 70 69 236q80 186 80 252q0 67 -74 67q-90 0 -221 -184q27 62 27 109q0 75 -78 75q-90 0 -221 -184q31 82 31 127q0 68 -76 68q-62 0 -113 -68q-29 -39 -74 -131q-79 -158 -145 -250
q8 -8 20 -14q68 96 146 252q82 162 127 162q20 0 20 -31q0 -49 -88 -252q-49 -113 -82.5 -187.5t-52.5 -115.5l38 4t37.5 7t33 15.5t22.5 28.5q58 154 139 299q123 217 205 217q31 0 31 -33q0 -32 -37 -112l-61 -123q-49 -113 -83 -187.5t-53 -115.5q19 2 38.5 4t38 7
t32.5 15.5t23 28.5q57 154 139 299q123 217 205 217q26 0 26 -28q0 -35 -45 -119q-35 -68 -71 -131q-58 -121 -58 -201q0 -96 86 -96q101 0 191 108q67 80 198 322z" />
    <glyph glyph-name="n" unicode="n" horiz-adv-x="727" 
d="M889 420q2 4 -8 12t-13 0q-145 -276 -235 -354q-117 -105 -117 -21q0 58 127 377q27 62 27 109q0 75 -78 75q-90 0 -221 -184q31 82 31 127q0 68 -76 68q-62 0 -113 -68q-29 -39 -74 -131q-79 -156 -145 -250q8 -8 20 -14q68 96 146 252q82 162 127 162q20 0 20 -31
q0 -49 -88 -252q-49 -113 -82.5 -187.5t-52.5 -115.5l38 4t37.5 7t33 15.5t22.5 28.5q58 154 139 299q123 217 205 217q27 0 27 -28q0 -35 -45 -119q-17 -33 -35 -66t-35 -65q-59 -125 -59 -201q0 -96 86 -96q100 0 190 108q64 76 201 322z" />
    <glyph glyph-name="o" unicode="o" horiz-adv-x="501" 
d="M656 412q13 22 -10 22q-6 0 -8 -6q-164 -326 -258 -326q-25 0 -47 17q55 71 108 180q54 111 54 209q0 121 -103 121q-73 0 -153 -74q-88 -80 -140 -201q-59 -141 -59 -233q0 -131 119 -131q74 0 160 108q24 -24 55 -24q45 0 95 46t110 146q10 21 29.5 56.5t47.5 89.5z
M407 598q59 0 59 -78q0 -82 -66 -229q2 8 2 20q0 47 -36 47q-50 0 -76 -79q-14 -37 -14 -78q0 -49 24 -80q-74 -101 -117 -101q-57 0 -57 78q0 121 104 310q105 190 177 190z" />
    <glyph glyph-name="p" unicode="p" horiz-adv-x="737" 
d="M341 287q153 305 233 305q54 0 54 -74q0 -88 -56 -219q-47 -104 -108 -174q-82 -94 -168 -94q-45 0 -62 35q33 65 54.5 112t35.5 74q13 0 33 -4q11 16 -16 39zM-163 -788q37 81 74 163l74 164q71 158 120.5 264.5t77.5 163.5l33 64q61 -54 190 -51q181 2 310 147
q32 35 78.5 109.5t105.5 187.5q6 10 -4 14q-12 2 -19 -6q-104 -196 -170 -274q-127 -154 -280 -154h-19q-8 0 -18 2q180 68 268 254q62 125 62 229q0 136 -121 136q-62 0 -135 -93q-62 -73 -86 -143q18 51 18 115q0 119 -82 119q-49 0 -119 -105q-24 -35 -62 -100.5
t-89 -163.5q-16 -31 -23 -39q0 -12 7 -14q10 -6 12 2q63 110 108 187t74 120q45 70 80 70q20 0 20 -39q0 -68 -73 -254l-6 -2q-35 -19 -56.5 -70t-13.5 -104q-53 -123 -119.5 -262.5t-148.5 -299.5q-70 -133 -119 -224t-80 -144q90 24 131 31z" />
    <glyph glyph-name="q" unicode="q" horiz-adv-x="651" 
d="M151 -10q59 0 125 65q55 60 76 119q-54 -178 -90.5 -297t-53.5 -184q-67 -244 -67 -363q0 -133 75 -133q86 0 160 240q70 221 70 438q0 35 -3 65.5t-7 55.5q12 -4 22 -4q121 0 315 362q7 8 0 19q-6 8 -12 -4q-186 -340 -299 -340q-16 0 -22 2q-9 53 -19 82
q101 256 225 465q-32 -15 -66 -26t-73 -20q-35 -69 -56.5 -115t-31.5 -69q-160 -328 -244 -328q-53 0 -53 89q0 149 115 313q133 188 313 188q74 0 74 13q0 6 -41 10q-14 2 -30.5 3t-37.5 1q-129 0 -244.5 -74t-181.5 -209q-59 -129 -59 -231q0 -133 121 -133zM261 -391
q31 133 138 403q14 -45 14 -143q0 -131 -29 -287q-35 -166 -86 -264q-45 -82 -65 -82q-17 0 -17 57q0 136 45 316z" />
    <glyph glyph-name="r" unicode="r" horiz-adv-x="499" 
d="M660 420q2 6 -7 12q-10 6 -14 0q-139 -270 -233 -354q-66 -55 -93 -55q-26 0 -26 40q0 70 69 236q80 186 80 254t-73 65q-41 -4 -72 -7t-51 -7q4 25 7 47.5t3 44.5q0 84 -43 84q-66 0 -66 -84q0 -100 66 -125q-12 -32 -76 -157q-82 -158 -137 -234q12 -4 20 -6
q60 84 115 181.5t103 211.5q86 27 104 25q27 -2 27 -33q0 -39 -50 -133q-16 -35 -34.5 -69.5t-36.5 -69.5q-60 -125 -60 -201q0 -96 86 -96q103 0 195 108q72 88 197 322z" />
    <glyph glyph-name="s" unicode="s" horiz-adv-x="538" 
d="M701 424q6 10 -4 14q-12 2 -19 -6q-53 -100 -94 -167.5t-69 -104.5q-119 -150 -256 -150h-21q-8 0 -18 2q53 15 98 68t63 108q13 43 13 99q0 53 -23 149q-20 88 -20 127q0 51 29.5 83t68.5 22q27 -6 27 14q0 14 -33 27q-23 8 -45 8q-121 0 -258 -289q-29 -59 -80 -147
q-27 -9 -53.5 -56t-26.5 -98q0 -152 227 -147q181 2 310 147q32 35 78.5 109.5t105.5 187.5zM424 684q-112 -20 -120 -168q-2 -45 -2 -90v-88q-3 -72 -11 -126t-22 -93q-41 -105 -146 -105q-90 0 -90 92q0 25 7.5 50.5t21.5 47t32.5 35t41.5 13.5q6 0 22 -4q6 12 -10 30.5
t-55 14.5q20 35 35.5 62.5t25.5 45.5q47 86 76 137.5t39 67.5q63 86 125 86q16 0 30 -8z" />
    <glyph glyph-name="t" unicode="t" horiz-adv-x="335" 
d="M485 399q0 9 -9 15q-10 4 -12 -2q-108 -213 -203 -308q-65 -65 -108 -65q-37 0 -37 55q0 8 1 15.5t3 17.5q25 184 180 461h152q12 0 18 16q6 14 -6 14h-145q71 123 122.5 207t84.5 133q-47 -22 -148 -45q-104 -206 -147 -295h-60q-12 0 -18 -14q-6 -16 6 -16h55
q-90 -176 -157 -352q-27 -62 -27 -125q0 -119 88 -119q80 0 174 106q39 41 81 106.5t89 155.5q21 35 23 39z" />
    <glyph glyph-name="u" unicode="u" horiz-adv-x="782" 
d="M942 420q2 4 -8 12q-10 6 -14 0q-140 -270 -234 -354q-65 -55 -94 -55q-27 0 -27 45q0 92 99 323q47 107 82.5 173.5t60.5 92.5q-65 -28 -154 -49q-24 -76 -43.5 -128t-33.5 -83q-101 -215 -217 -319q-62 -55 -93 -55q-26 0 -26 40q0 64 71 236q91 215 91 270
q0 60 -76 60q-62 0 -113 -68q-29 -39 -74 -131q-79 -158 -145 -250q8 -8 20 -14q68 96 146 252q82 162 127 162q20 0 20 -29q0 -64 -100 -266q-63 -133 -63 -211q0 -84 79 -84q82 0 154 65q33 29 68.5 79t76.5 120q-32 -100 -32 -172q0 -92 61 -92q102 0 193 108
q71 84 198 322z" />
    <glyph glyph-name="v" unicode="v" horiz-adv-x="653" 
d="M733 283q9 10 -2 14q-8 6 -14 -4q-14 -25 -30.5 -51.5t-34 -48t-36 -36t-36.5 -14.5q-47 0 -68 95q29 43 78 145q63 131 61 190q0 56 -41 56q-38 0 -79 -54q-43 -61 -54 -159q-8 -105 4 -172q-47 -97 -122 -166q-62 -55 -93 -55q-26 0 -26 40q0 64 71 236q84 203 84 262
q0 72 -63 72q-43 0 -84 -35q-33 -31 -61 -78q-9 -14 -20 -35.5t-28 -54.5q-79 -156 -145 -250q8 -8 20 -14q68 96 146 252q82 162 127 162q20 0 20 -29q0 -64 -100 -266q-63 -133 -63 -211q0 -84 79 -84q74 0 162 78q68 65 107 139q4 -25 27.5 -55.5t58.5 -30.5q53 0 94 61
q20 33 35.5 57.5t25.5 43.5z" />
    <glyph glyph-name="w" unicode="w" horiz-adv-x="1046" 
d="M1127 285q6 10 0 16q-9 2 -15 -6q-90 -152 -139 -152q-45 0 -66 95q29 43 78 145q62 131 62 190q-4 56 -43 56t-80 -54q-41 -63 -51 -159q-5 -56 -5 -99t9 -73q-43 -86 -119 -150q-84 -71 -131 -71q-96 0 24 276q76 174 86 229q7 35 -6.5 59.5t-36.5 24.5
q-82 0 -108 -235q-98 -203 -207 -299q-61 -55 -92 -55q-27 0 -27 40q0 64 72 236q76 178 76 254t-82 76q-62 0 -113 -68q-29 -39 -74 -131q-79 -156 -145 -250q8 -8 20 -14q68 96 146 252q82 162 127 162q22 0 22 -37q0 -92 -82 -258q-63 -133 -63 -211q0 -84 80 -84
q137 0 282 227q-24 -78 -24 -127q0 -100 84 -100q164 0 301 217q2 -25 26.5 -55.5t57.5 -30.5q47 0 94 59q12 15 62 105z" />
    <glyph glyph-name="x" unicode="x" horiz-adv-x="587" 
d="M729 389q6 8 -2 14q-8 9 -14 -2q-121 -221 -185 -299q-47 -61 -81 -61q-39 0 -54 82q-10 53 -11 105.5t7 105.5q33 28 65.5 60t65.5 69q39 47 62.5 86t31.5 69q5 13 -1.5 24t-14.5 11t-14 -8q-17 -43 -21 -65q-28 -93 -172 -211q0 8 4 48t4 66q0 80 -32 101q-11 6 -29 6
q-141 0 -272 -303q-7 -17 8 -17q8 0 14 15q55 112 110.5 185t86.5 73q16 0 18 -27q4 -35 3 -88t-5 -127q-35 -29 -77 -73t-91 -103q-131 -154 -174 -264q-4 -13 -4 -17q0 -10 8 -10q19 0 37 39q41 84 164 238q100 125 135 159q-4 -55 0 -105t16.5 -88t34 -59.5t51.5 -21.5
q80 0 152 96q119 193 176 297z" />
    <glyph glyph-name="y" unicode="y" horiz-adv-x="731" 
d="M873 389q7 12 -4 12q-12 0 -18 -10q-45 -82 -79 -138t-60 -89q-39 -47 -91.5 -93t-117.5 -87q45 125 75.5 216t51.5 150q96 248 153 305q-32 -14 -70 -25.5t-83 -21.5q-35 -108 -105 -258q-96 -200 -170 -266q-65 -55 -92 -55q-24 0 -24 37q0 63 73 233q84 203 84 262
q0 72 -63 72q-43 0 -84 -35q-33 -31 -62 -78q-8 -14 -19 -35.5t-28 -54.5q-80 -156 -145 -250q8 -8 20 -14q68 96 146 252q82 162 127 162q20 0 20 -29q0 -64 -100 -266q-64 -133 -64 -211q0 -84 80 -84q113 0 273 235q-39 -116 -62.5 -185t-34.5 -95q-77 -41 -209 -191
q-135 -157 -211 -299q-63 -112 -63 -188q0 -86 72 -86q100 0 204 145q119 168 297 623q144 86 228 190q28 35 68 97.5t87 152.5zM388 -100q-111 -295 -246 -535q-88 -156 -147 -156q-33 0 -33 58q0 65 47 166q70 135 180 276q113 139 199 191z" />
    <glyph glyph-name="z" unicode="z" horiz-adv-x="651" 
d="M785 375q8 8 -2 16q-8 2 -16 -8q-53 -92 -90 -153.5t-60 -94.5q-35 -53 -66.5 -88t-60.5 -51q13 160 -108 184q61 58 104 135q53 91 53 160q0 64 -37.5 99.5t-97.5 35.5q-149 0 -262 -180q-37 -63 -61.5 -107t-38.5 -71q12 -12 18 -14q31 53 56.5 98t46.5 84
q84 151 190 151q88 0 88 -122q0 -170 -115 -267q-88 -2 -145 -35q-35 -22 -35 -47q0 -41 56 -24q75 22 139 69q65 -24 65 -112q0 -33 -10 -90q-47 -27 -105.5 -64t-125.5 -84q-156 -110 -254 -209q-158 -161 -158 -299q0 -90 88 -88q127 4 285 139q135 117 215 252
q121 203 145 381q70 27 172 189q33 53 63.5 107.5t63.5 107.5zM388 -86q-66 -256 -219 -455q-183 -231 -326 -231q-65 0 -65 65q0 117 211 320q192 186 399 301z" />
    <glyph glyph-name="braceleft" unicode="{" horiz-adv-x="755" 
d="M43 616q240 -4 240 -196q0 -82 -41 -250t-41 -250q0 -119 86 -164q57 -30 188 -30q21 0 25 6q-6 10 -70 12q-70 2 -106 31q-56 39 -56 135q0 41 9.5 103.5t30 144.5t29.5 144.5t9 105.5q0 92 -62.5 150t-156.5 67h8q113 -4 209 92q86 86 121 201q2 10 15.5 73.5
t35.5 184.5q31 149 88 213q76 88 246 88l16 6q-4 4 -12 4q-262 0 -356 -156q-47 -80 -84 -327q-35 -220 -121 -295q-66 -58 -240 -76z" />
    <glyph glyph-name="bar" unicode="|" horiz-adv-x="512" 
d="M120 -240q29 0 57 41q52 72 125 670q33 274 49.5 455.5t16.5 273.5v12q0 9 2 19v33q0 200 -94 200q-39 0 -39 -22q0 -23 10 -68q8 -26 11 -42.5t5 -24.5q13 -97 13 -277q0 -223 -18.5 -444t-57.5 -447q-37 -184 -59.5 -275t-22.5 -102q0 -2 2 -2z" />
    <glyph glyph-name="braceright" unicode="}" horiz-adv-x="993" 
d="M581 1470l5 -4q34 -6 71 -12t72 -10q65 -23 65 -117q0 -92 -59 -270t-59 -271q0 -86 73 -135q62 -43 154 -49q-156 -14 -289 -139q-88 -84 -164 -350q-73 -256 -151 -316q-51 -39 -144 -49q-96 -10 -104 -12q4 -4 12 -4q299 0 408 219l129 411q92 224 350 226l14 18
q-225 23 -225 164q0 98 64 277q65 184 65 280q0 100 -94 133q-55 19 -178 19q-4 -2 -7 -4t-8 -5z" />
    <glyph glyph-name="asciitilde" unicode="~" horiz-adv-x="669" 
d="M502 850q24 0 65 33q35 28 53 53l-18 20q-22 -18 -47 -36.5t-57 -18.5q-62 0 -154 37t-133 37q-49 0 -123 -84l23 -27q51 58 96 58t141 -37q100 -35 154 -35z" />
    <glyph glyph-name="dieresis" unicode="&#xa8;" horiz-adv-x="1024" 
 />
    <glyph glyph-name="copyright" unicode="&#xa9;" horiz-adv-x="1772" 
 />
    <glyph glyph-name="registered" unicode="&#xae;" horiz-adv-x="1770" 
 />
    <glyph glyph-name="acute" unicode="&#xb4;" horiz-adv-x="1024" 
 />
    <glyph glyph-name="paragraph" unicode="&#xb6;" horiz-adv-x="1024" 
d="M929 1435v-70h-127v-1365h-82v1365h-166v-1365h-84v738q-174 8 -275.5 102.5t-101.5 245.5q0 157 107.5 253t285.5 96h443z" />
    <glyph glyph-name="onequarter" unicode="&#xbc;" horiz-adv-x="1298" 
 />
    <glyph glyph-name="onehalf" unicode="&#xbd;" horiz-adv-x="1320" 
 />
    <glyph glyph-name="threequarters" unicode="&#xbe;" horiz-adv-x="1288" 
 />
    <glyph glyph-name="Agrave" unicode="&#xc0;" 
d="M2026 1645q12 0 12 14q0 20 -108 104q-35 27 -69 52.5t-69 52.5q-49 43 -94 43q-47 0 -47 -33q0 -35 70 -72q178 -94 286 -155q9 -6 19 -6zM1577 1143q-114 -133 -270 -332l-238 -10q27 78 27 149q0 135 -92 219q-90 78 -232 78q-143 0 -284 -86q-156 -94 -269 -274
q-18 266 195 483q238 244 621 223q223 -12 368 -127q156 -123 174 -323zM1528 827q-29 -4 -58.5 -6t-62.5 -4q47 60 89 111t79 96q-8 -92 -47 -197zM1043 801q-174 -10 -281 -19q-301 -30 -383 -192q-114 74 -147 215q143 252 352 354q188 90 336 23q149 -64 149 -238
q0 -70 -26 -143zM998 705q-84 -144 -264 -250q-113 -70 -197 -70q-94 0 -94 72q0 32 24 67q80 -24 185 -20q20 0 20 10t-22 10q-93 -2 -168 19q106 121 376 149q56 6 140 13zM1239 725q-186 -242 -298.5 -384t-151.5 -189q-45 -56 -80 -99t-62 -71q-47 -7 -90 -7
q-102 0 -188 37q-252 107 -252 394q0 161 86 344q53 -121 164 -185q-8 -24 -8 -55q0 -64 48 -108t128 -44q100 0 215 72q190 119 278 279q99 8 151 12t60 4zM1499 754q-18 -41 -39.5 -82t-48.5 -82q-286 -467 -663 -584q45 47 94 107q166 204 290 359t210 263q43 4 83 9.5
t74 9.5zM1903 846q92 33 174 72.5t156 91.5q311 213 311 413q0 93 -70.5 149t-181.5 56q-141 0 -285 -86q-163 -94 -391 -352q-31 199 -192 321q-160 117 -385 125q-396 15 -650 -219q-223 -209 -223 -483q0 -64 15 -115q-107 -198 -107 -393q0 -317 283 -442
q118 -50 260 -35q-228 -252 -424 -334q-117 -49 -254 -49q-146 0 -242 59q-108 66 -108 191q0 10 1 19t3 20q2 14 -13 14q-12 0 -14 -12q-6 -35 -6 -66q0 -135 104 -199q91 -59 238 -59q160 0 301 57q240 95 506 373q430 100 747 623q56 92 91 176q104 14 196 37
q-264 -348 -268 -623q0 -82 39 -135t117 -53q184 0 524 469q6 8 6 14q0 16 -18 16q-15 0 -21 -12q-125 -190 -264 -321q-135 -129 -213 -129q-66 0 -66 88q-2 190 273 649q12 20 24.5 40.5t26.5 43.5zM2323 1440l-252 -264q-86 -89 -153.5 -164.5t-121.5 -141.5
q-102 -22 -221 -36q45 129 49 245q250 287 416 385q158 90 289 90q86 0 138 -39.5t52 -109.5q0 -178 -311 -375q-123 -76 -264 -121q223 338 397 512q8 6 8 17q0 6 -6 10q-6 2 -20 -8z" />
    <glyph glyph-name="Aacute" unicode="&#xc1;" 
d="M2421 1700q8 0 18 6q54 31 124.5 71t162.5 87q70 32 70 69q0 33 -47 33q-43 0 -94 -41q-35 -27 -69 -52.5t-69 -51.5q-108 -86 -108 -107q0 -14 12 -14zM1577 1143q-114 -133 -270 -332l-238 -10q27 78 27 149q0 135 -92 219q-90 78 -232 78q-143 0 -284 -86
q-156 -94 -269 -274q-18 266 195 483q238 244 621 223q223 -12 368 -127q156 -123 174 -323zM1528 827q-29 -4 -58.5 -6t-62.5 -4q47 60 89 111t79 96q-8 -92 -47 -197zM1043 801q-174 -10 -281 -19q-301 -30 -383 -192q-114 74 -147 215q143 252 352 354q188 90 336 23
q149 -64 149 -238q0 -70 -26 -143zM998 705q-84 -144 -264 -250q-113 -70 -197 -70q-94 0 -94 72q0 32 24 67q80 -24 185 -20q20 0 20 10t-22 10q-93 -2 -168 19q106 121 376 149q56 6 140 13zM1239 725q-186 -242 -298.5 -384t-151.5 -189q-45 -56 -80 -99t-62 -71
q-47 -7 -90 -7q-102 0 -188 37q-252 107 -252 394q0 161 86 344q53 -121 164 -185q-8 -24 -8 -55q0 -64 48 -108t128 -44q100 0 215 72q190 119 278 279q99 8 151 12t60 4zM1499 754q-18 -41 -39.5 -82t-48.5 -82q-286 -467 -663 -584q45 47 94 107q166 204 290 359t210 263
q43 4 83 9.5t74 9.5zM1903 846q92 33 174 72.5t156 91.5q311 213 311 413q0 93 -70.5 149t-181.5 56q-141 0 -285 -86q-163 -94 -391 -352q-31 199 -192 321q-160 117 -385 125q-396 15 -650 -219q-223 -209 -223 -483q0 -64 15 -115q-107 -198 -107 -393q0 -317 283 -442
q118 -50 260 -35q-228 -252 -424 -334q-117 -49 -254 -49q-146 0 -242 59q-108 66 -108 191q0 10 1 19t3 20q2 14 -13 14q-12 0 -14 -12q-6 -35 -6 -66q0 -135 104 -199q91 -59 238 -59q160 0 301 57q240 95 506 373q430 100 747 623q56 92 91 176q104 14 196 37
q-264 -348 -268 -623q0 -82 39 -135t117 -53q184 0 524 469q6 8 6 14q0 16 -18 16q-15 0 -21 -12q-125 -190 -264 -321q-135 -129 -213 -129q-66 0 -66 88q-2 190 273 649q12 20 24.5 40.5t26.5 43.5zM2323 1440l-252 -264q-86 -89 -153.5 -164.5t-121.5 -141.5
q-102 -22 -221 -36q45 129 49 245q250 287 416 385q158 90 289 90q86 0 138 -39.5t52 -109.5q0 -178 -311 -375q-123 -76 -264 -121q223 338 397 512q8 6 8 17q0 6 -6 10q-6 2 -20 -8z" />
    <glyph glyph-name="Acircumflex" unicode="&#xc2;" 
d="M2022 1687l6 -14q43 2 172 74q121 67 162 106q174 -172 200 -172q19 0 19 21q0 22 -103 125q-104 104 -129 106l-14 -4q-74 -68 -195 -154q-65 -41 -104 -67q-4 -6 -8 -11.5t-6 -9.5zM1577 1143q-114 -133 -270 -332l-238 -10q27 78 27 149q0 135 -92 219q-90 78 -232 78
q-143 0 -284 -86q-156 -94 -269 -274q-18 266 195 483q238 244 621 223q223 -12 368 -127q156 -123 174 -323zM1528 827q-29 -4 -58.5 -6t-62.5 -4q47 60 89 111t79 96q-8 -92 -47 -197zM1043 801q-174 -10 -281 -19q-301 -30 -383 -192q-114 74 -147 215q143 252 352 354
q188 90 336 23q149 -64 149 -238q0 -70 -26 -143zM998 705q-84 -144 -264 -250q-113 -70 -197 -70q-94 0 -94 72q0 32 24 67q80 -24 185 -20q20 0 20 10t-22 10q-93 -2 -168 19q106 121 376 149q56 6 140 13zM1239 725q-186 -242 -298.5 -384t-151.5 -189q-45 -56 -80 -99
t-62 -71q-47 -7 -90 -7q-102 0 -188 37q-252 107 -252 394q0 161 86 344q53 -121 164 -185q-8 -24 -8 -55q0 -64 48 -108t128 -44q100 0 215 72q190 119 278 279q99 8 151 12t60 4zM1499 754q-18 -41 -39.5 -82t-48.5 -82q-286 -467 -663 -584q45 47 94 107q166 204 290 359
t210 263q43 4 83 9.5t74 9.5zM1903 846q92 33 174 72.5t156 91.5q311 213 311 413q0 93 -70.5 149t-181.5 56q-141 0 -285 -86q-163 -94 -391 -352q-31 199 -192 321q-160 117 -385 125q-396 15 -650 -219q-223 -209 -223 -483q0 -64 15 -115q-107 -198 -107 -393
q0 -317 283 -442q118 -50 260 -35q-228 -252 -424 -334q-117 -49 -254 -49q-146 0 -242 59q-108 66 -108 191q0 10 1 19t3 20q2 14 -13 14q-12 0 -14 -12q-6 -35 -6 -66q0 -135 104 -199q91 -59 238 -59q160 0 301 57q240 95 506 373q430 100 747 623q56 92 91 176
q104 14 196 37q-264 -348 -268 -623q0 -82 39 -135t117 -53q184 0 524 469q6 8 6 14q0 16 -18 16q-15 0 -21 -12q-125 -190 -264 -321q-135 -129 -213 -129q-66 0 -66 88q-2 190 273 649q12 20 24.5 40.5t26.5 43.5zM2323 1440l-252 -264q-86 -89 -153.5 -164.5
t-121.5 -141.5q-102 -22 -221 -36q45 129 49 245q250 287 416 385q158 90 289 90q86 0 138 -39.5t52 -109.5q0 -178 -311 -375q-123 -76 -264 -121q223 338 397 512q8 6 8 17q0 6 -6 10q-6 2 -20 -8z" />
    <glyph glyph-name="Atilde" unicode="&#xc3;" 
d="M1577 1143q-114 -133 -270 -332l-238 -10q27 78 27 149q0 135 -92 219q-90 78 -232 78q-143 0 -284 -86q-156 -94 -269 -274q-18 266 195 483q238 244 621 223q223 -12 368 -127q156 -123 174 -323zM1528 827q-29 -4 -58.5 -6t-62.5 -4q47 60 89 111t79 96
q-8 -92 -47 -197zM1043 801q-174 -10 -281 -19q-301 -30 -383 -192q-114 74 -147 215q143 252 352 354q188 90 336 23q149 -64 149 -238q0 -70 -26 -143zM998 705q-84 -144 -264 -250q-113 -70 -197 -70q-94 0 -94 72q0 32 24 67q80 -24 185 -20q20 0 20 10t-22 10
q-93 -2 -168 19q106 121 376 149q56 6 140 13zM1239 725q-186 -242 -298.5 -384t-151.5 -189q-45 -56 -80 -99t-62 -71q-47 -7 -90 -7q-102 0 -188 37q-252 107 -252 394q0 161 86 344q53 -121 164 -185q-8 -24 -8 -55q0 -64 48 -108t128 -44q100 0 215 72q190 119 278 279
q99 8 151 12t60 4zM1499 754q-18 -41 -39.5 -82t-48.5 -82q-286 -467 -663 -584q45 47 94 107q166 204 290 359t210 263q43 4 83 9.5t74 9.5zM1903 846q92 33 174 72.5t156 91.5q311 213 311 413q0 93 -70.5 149t-181.5 56q-141 0 -285 -86q-163 -94 -391 -352
q-31 199 -192 321q-160 117 -385 125q-396 15 -650 -219q-223 -209 -223 -483q0 -64 15 -115q-107 -198 -107 -393q0 -317 283 -442q118 -50 260 -35q-228 -252 -424 -334q-117 -49 -254 -49q-146 0 -242 59q-108 66 -108 191q0 10 1 19t3 20q2 14 -13 14q-12 0 -14 -12
q-6 -35 -6 -66q0 -135 104 -199q91 -59 238 -59q160 0 301 57q240 95 506 373q430 100 747 623q56 92 91 176q104 14 196 37q-264 -348 -268 -623q0 -82 39 -135t117 -53q184 0 524 469q6 8 6 14q0 16 -18 16q-15 0 -21 -12q-125 -190 -264 -321q-135 -129 -213 -129
q-66 0 -66 88q-2 190 273 649q12 20 24.5 40.5t26.5 43.5zM2323 1440l-252 -264q-86 -89 -153.5 -164.5t-121.5 -141.5q-102 -22 -221 -36q45 129 49 245q250 287 416 385q158 90 289 90q86 0 138 -39.5t52 -109.5q0 -178 -311 -375q-123 -76 -264 -121q223 338 397 512
q8 6 8 17q0 6 -6 10q-6 2 -20 -8zM2672 1849l-35 -34q-35 -35 -92 -35q-47 0 -143.5 38t-143.5 38q-37 0 -94 -41t-57 -78q4 -8 8 -8l28 32q27 33 82 33q56 0 147 -38t136 -38l37 7q33 6 80 47q53 41 53 71z" />
    <glyph glyph-name="Egrave" unicode="&#xc8;" horiz-adv-x="1873" 
d="M1557 1700q13 0 13 14q0 21 -109 107q-35 26 -68.5 51.5t-68.5 52.5q-51 41 -94 41q-48 0 -48 -33q0 -37 70 -69q92 -47 163 -87t124 -71q8 -6 18 -6zM615 -254q318 51 567 289q177 170 254 364q39 97 39 166q0 127 -125 127q-59 0 -133 -30q2 14 3 28.5t1 28.5
q0 164 -73 334q413 63 544 278q31 51 31 103q0 45 -25.5 83.5t-71.5 67.5t-110.5 45.5t-144.5 16.5q-309 0 -594 -144q-229 174 -432 174q-64 0 -116 -17.5t-89 -49t-57.5 -73.5t-20.5 -91q0 -96 76 -180q90 -99 248 -156l-4 -10q-19 -53 -19 -103q0 -90 60 -161
q-217 -95 -359 -248q-153 -170 -170 -373q-12 -182 142 -326q165 -153 405 -155q70 -4 141 6q-2 -19 -3 -37t-1 -35q0 -131 66.5 -208.5t171.5 -77.5q113 0 233 90q7 2 7 12q0 16 -15 16q-6 0 -10 -4q-107 -82 -215 -82q-92 0 -150.5 62.5t-58.5 179.5q0 43 8 90zM621 -213
q31 141 109 301q248 45 399 295q68 113 86 246q64 30 109 30q71 0 71 -79q0 -68 -45 -177q-45 -112 -117.5 -210.5t-172.5 -186.5q-207 -178 -439 -219zM552 854q112 35 256 39q53 4 94 -6q74 -15 70 -53q-5 -41 -58 -67t-125 -26q-168 0 -237 113zM1133 1087
q-96 205 -301 373q248 156 549 156q111 0 167 -44t56 -112q0 -108 -120 -213q-134 -117 -351 -160zM744 1487q-266 -146 -348 -350q-276 98 -276 276q0 43 19 80t54 64.5t84 43t109 15.5q170 0 358 -129zM1103 1081q-50 -8 -100 -12t-103 -4q-211 0 -363 33q58 205 267 346
l4 -4q194 -158 295 -359zM746 123q183 344 434 487q-18 -118 -75 -211q-136 -225 -359 -276zM412 373q11 22 -14 22q-10 0 -14 -10q-21 -47 -21 -92q0 -47 21.5 -86t59.5 -67.5t89 -44t113 -15.5h22q13 0 23 2q-72 -150 -100 -301q-21 -2 -39.5 -3t-36.5 -1q-201 0 -320 143
q-110 135 -110 332q0 172 88 315q94 160 270 246q115 -108 311 -108q56 0 101 11t77.5 30.5t51 43t18.5 48.5q0 90 -194 86q-133 -4 -269 -45q-24 55 -18 129q2 16 4 30.5t6 30.5q168 -35 369 -35q53 0 107.5 3t109.5 12q74 -166 74 -330q0 -19 -1 -37t-3 -37
q-142 -70 -279 -229q-59 -70 -109.5 -144.5t-91.5 -156.5q-16 -2 -31.5 -3t-31.5 -1q-107 0 -178.5 50t-71.5 132q0 39 18 80z" />
    <glyph glyph-name="Eacute" unicode="&#xc9;" horiz-adv-x="1873" 
d="M1365 1702q8 0 18 6q53 31 124 71t163 87q70 32 70 69q0 33 -48 33q-43 0 -94 -41q-35 -26 -68.5 -52t-68.5 -52q-109 -86 -109 -107q0 -14 13 -14zM615 -254q318 51 567 289q177 170 254 364q39 97 39 166q0 127 -125 127q-59 0 -133 -30q2 14 3 28.5t1 28.5
q0 164 -73 334q413 63 544 278q31 51 31 103q0 45 -25.5 83.5t-71.5 67.5t-110.5 45.5t-144.5 16.5q-309 0 -594 -144q-229 174 -432 174q-64 0 -116 -17.5t-89 -49t-57.5 -73.5t-20.5 -91q0 -96 76 -180q90 -99 248 -156l-4 -10q-19 -53 -19 -103q0 -90 60 -161
q-217 -95 -359 -248q-153 -170 -170 -373q-12 -182 142 -326q165 -153 405 -155q70 -4 141 6q-2 -19 -3 -37t-1 -35q0 -131 66.5 -208.5t171.5 -77.5q113 0 233 90q7 2 7 12q0 16 -15 16q-6 0 -10 -4q-107 -82 -215 -82q-92 0 -150.5 62.5t-58.5 179.5q0 43 8 90zM621 -213
q31 141 109 301q248 45 399 295q68 113 86 246q64 30 109 30q71 0 71 -79q0 -68 -45 -177q-45 -112 -117.5 -210.5t-172.5 -186.5q-207 -178 -439 -219zM552 854q112 35 256 39q53 4 94 -6q74 -15 70 -53q-5 -41 -58 -67t-125 -26q-168 0 -237 113zM1133 1087
q-96 205 -301 373q248 156 549 156q111 0 167 -44t56 -112q0 -108 -120 -213q-134 -117 -351 -160zM744 1487q-266 -146 -348 -350q-276 98 -276 276q0 43 19 80t54 64.5t84 43t109 15.5q170 0 358 -129zM1103 1081q-50 -8 -100 -12t-103 -4q-211 0 -363 33q58 205 267 346
l4 -4q194 -158 295 -359zM746 123q183 344 434 487q-18 -118 -75 -211q-136 -225 -359 -276zM412 373q11 22 -14 22q-10 0 -14 -10q-21 -47 -21 -92q0 -47 21.5 -86t59.5 -67.5t89 -44t113 -15.5h22q13 0 23 2q-72 -150 -100 -301q-21 -2 -39.5 -3t-36.5 -1q-201 0 -320 143
q-110 135 -110 332q0 172 88 315q94 160 270 246q115 -108 311 -108q56 0 101 11t77.5 30.5t51 43t18.5 48.5q0 90 -194 86q-133 -4 -269 -45q-24 55 -18 129q2 16 4 30.5t6 30.5q168 -35 369 -35q53 0 107.5 3t109.5 12q74 -166 74 -330q0 -19 -1 -37t-3 -37
q-142 -70 -279 -229q-59 -70 -109.5 -144.5t-91.5 -156.5q-16 -2 -31.5 -3t-31.5 -1q-107 0 -178.5 50t-71.5 132q0 39 18 80z" />
    <glyph glyph-name="Ecircumflex" unicode="&#xca;" horiz-adv-x="1873" 
d="M615 -254q318 51 567 289q177 170 254 364q39 97 39 166q0 127 -125 127q-59 0 -133 -30q2 14 3 28.5t1 28.5q0 164 -73 334q413 63 544 278q31 51 31 103q0 45 -25.5 83.5t-71.5 67.5t-110.5 45.5t-144.5 16.5q-309 0 -594 -144q-229 174 -432 174q-64 0 -116 -17.5
t-89 -49t-57.5 -73.5t-20.5 -91q0 -96 76 -180q90 -99 248 -156l-4 -10q-19 -53 -19 -103q0 -90 60 -161q-217 -95 -359 -248q-153 -170 -170 -373q-12 -182 142 -326q165 -153 405 -155q70 -4 141 6q-2 -19 -3 -37t-1 -35q0 -131 66.5 -208.5t171.5 -77.5q113 0 233 90
q7 2 7 12q0 16 -15 16q-6 0 -10 -4q-107 -82 -215 -82q-92 0 -150.5 62.5t-58.5 179.5q0 43 8 90zM621 -213q31 141 109 301q248 45 399 295q68 113 86 246q64 30 109 30q71 0 71 -79q0 -68 -45 -177q-45 -112 -117.5 -210.5t-172.5 -186.5q-207 -178 -439 -219zM552 854
q112 35 256 39q53 4 94 -6q74 -15 70 -53q-5 -41 -58 -67t-125 -26q-168 0 -237 113zM1133 1087q-96 205 -301 373q248 156 549 156q111 0 167 -44t56 -112q0 -108 -120 -213q-134 -117 -351 -160zM744 1487q-266 -146 -348 -350q-276 98 -276 276q0 43 19 80t54 64.5t84 43
t109 15.5q170 0 358 -129zM1103 1081q-50 -8 -100 -12t-103 -4q-211 0 -363 33q58 205 267 346l4 -4q194 -158 295 -359zM746 123q183 344 434 487q-18 -118 -75 -211q-136 -225 -359 -276zM412 373q11 22 -14 22q-10 0 -14 -10q-21 -47 -21 -92q0 -47 21.5 -86t59.5 -67.5
t89 -44t113 -15.5h22q13 0 23 2q-72 -150 -100 -301q-21 -2 -39.5 -3t-36.5 -1q-201 0 -320 143q-110 135 -110 332q0 172 88 315q94 160 270 246q115 -108 311 -108q56 0 101 11t77.5 30.5t51 43t18.5 48.5q0 90 -194 86q-133 -4 -269 -45q-24 55 -18 129q2 16 4 30.5
t6 30.5q168 -35 369 -35q53 0 107.5 3t109.5 12q74 -166 74 -330q0 -19 -1 -37t-3 -37q-142 -70 -279 -229q-59 -70 -109.5 -144.5t-91.5 -156.5q-16 -2 -31.5 -3t-31.5 -1q-107 0 -178.5 50t-71.5 132q0 39 18 80zM1152 1704l6 -14q41 4 170 73q125 70 164 107
q174 -172 200 -172q19 0 19 18q0 25 -103 127q-104 105 -129 107l-14 -6q-80 -74 -197 -152q-30 -20 -55.5 -36.5t-46.5 -31.5q-4 -6 -8 -11t-6 -9z" />
    <glyph glyph-name="Igrave" unicode="&#xcc;" horiz-adv-x="1302" 
d="M1987 1778q12 0 12 16q0 18 -109 104q-35 27 -68.5 52.5t-68.5 52.5q-51 41 -94 41q-47 0 -47 -33t69 -69q93 -48 163.5 -87.5t123.5 -68.5q8 -8 19 -8zM1647 1163q174 -69 174 -245q0 -130 -115 -232q-135 -117 -363 -143q29 53 68 130t86 179q51 111 88 187.5t62 123.5
zM1913 1556q108 115 200 115q48 0 48 -31q0 -32 -58 -57q-67 -31 -190 -27zM1577 1214q-21 3 -41 3h-41q-516 0 -758 -375q-16 55 -16 108q0 129 74 250q75 127 215 211q237 143 563 143q51 0 111.5 -3t132.5 -11q-105 -110 -240 -326zM1176 541q-328 26 -426 262
q247 407 808 381q-126 -211 -221.5 -372t-160.5 -271zM782 43q-139 150 -139 383q0 178 86 342q127 -219 432 -250q-104 -162 -197.5 -280.5t-181.5 -194.5zM416 629q20 12 20 22q0 6 -8 6q-12 0 -33 -12q-170 -100 -274 -221q-119 -143 -119 -287q0 -295 346 -295
q82 0 166 15q158 26 303 110q131 -100 315 -100q142 0 259 51q118 49 147 123q10 22 -6 22q-10 0 -12 -12q-25 -59 -140 -106q-110 -45 -248 -45q-165 0 -284 86q268 166 479 530q254 21 414 150q137 116 137 262q0 190 -215 264q59 111 116.5 196t110.5 144q51 -4 97.5 0
t89.5 14q108 29 108 96q0 52 -90 52q-125 0 -256 -131q-147 16 -247.5 24t-153.5 8q-291 0 -490 -118q-137 -82 -215 -226q-69 -127 -69 -274q0 -92 28 -174q-80 -178 -80 -377q0 -250 117 -406q-90 -92 -197 -126q-81 -27 -163 -27q-72 0 -130.5 21.5t-99.5 58.5t-63.5 89
t-22.5 114q0 120 84 241q94 131 279 238z" />
    <glyph glyph-name="Iacute" unicode="&#xcd;" horiz-adv-x="1302" 
d="M1909 1731q8 0 18 6q53 30 124 70t163 87q69 33 69 70q0 33 -47 33q-43 0 -94 -41q-35 -27 -68.5 -52.5t-68.5 -52.5q-109 -86 -109 -106q0 -14 13 -14zM1647 1163q174 -69 174 -245q0 -130 -115 -232q-135 -117 -363 -143q29 53 68 130t86 179q51 111 88 187.5t62 123.5
zM1913 1556q108 115 200 115q48 0 48 -31q0 -32 -58 -57q-67 -31 -190 -27zM1577 1214q-21 3 -41 3h-41q-516 0 -758 -375q-16 55 -16 108q0 129 74 250q75 127 215 211q237 143 563 143q51 0 111.5 -3t132.5 -11q-105 -110 -240 -326zM1176 541q-328 26 -426 262
q247 407 808 381q-126 -211 -221.5 -372t-160.5 -271zM782 43q-139 150 -139 383q0 178 86 342q127 -219 432 -250q-104 -162 -197.5 -280.5t-181.5 -194.5zM416 629q20 12 20 22q0 6 -8 6q-12 0 -33 -12q-170 -100 -274 -221q-119 -143 -119 -287q0 -295 346 -295
q82 0 166 15q158 26 303 110q131 -100 315 -100q142 0 259 51q118 49 147 123q10 22 -6 22q-10 0 -12 -12q-25 -59 -140 -106q-110 -45 -248 -45q-165 0 -284 86q268 166 479 530q254 21 414 150q137 116 137 262q0 190 -215 264q59 111 116.5 196t110.5 144q51 -4 97.5 0
t89.5 14q108 29 108 96q0 52 -90 52q-125 0 -256 -131q-147 16 -247.5 24t-153.5 8q-291 0 -490 -118q-137 -82 -215 -226q-69 -127 -69 -274q0 -92 28 -174q-80 -178 -80 -377q0 -250 117 -406q-90 -92 -197 -126q-81 -27 -163 -27q-72 0 -130.5 21.5t-99.5 58.5t-63.5 89
t-22.5 114q0 120 84 241q94 131 279 238z" />
    <glyph glyph-name="Ograve" unicode="&#xd2;" horiz-adv-x="1988" 
d="M1790 1749q13 0 13 14q0 21 -109 107q-35 26 -68.5 52t-68.5 52q-51 41 -94 41q-47 0 -47 -33q0 -36 69 -69q92 -47 163 -87t124 -71q8 -6 18 -6zM1831 1348q17 55 17 102q0 117 -78 190q-84 78 -227 78q-138 0 -316 -78q-170 -75 -323 -223q-203 64 -404 64
q-239 0 -385 -97q-135 -90 -135 -221q0 -129 145 -239l-2 -4q-41 -99 -41 -197q0 -154 86 -279q95 -139 277 -217q41 -186 164 -282q133 -107 360 -97q248 9 494 197q225 176 372.5 436t147.5 498q0 233 -152 369zM654 168q82 -12 166 -12q317 0 565 170q246 168 246 403
q0 133 -99 272q209 140 281 299q84 -114 84 -290q0 -232 -131 -492q-129 -262 -326 -434q-215 -188 -424 -190q-268 -5 -362 274zM1512 1030q-186 232 -528 361q63 65 130.5 117.5t143.5 86.5q168 80 301 80q117 0 180.5 -61.5t63.5 -159.5q0 -41 -8 -76q-84 64 -119 64
q-17 0 -17 -12q0 -9 11 -13q59 -28 112 -78q-61 -163 -270 -309zM1481 1012q-176 -115 -387 -172q-225 -62 -436 -49q88 327 289 561q360 -121 534 -340zM633 240q-10 47 -16 98t-6 106q0 148 37 306q452 -19 856 233q90 -127 90 -256q0 -213 -217 -362.5t-516 -149.5
q-115 0 -228 25zM160 899q146 -100 336 -133q-65 -203 -65 -381v-39q0 -18 2 -37q-150 74 -230 199q-69 108 -69 240q0 67 22 139zM508 1145q23 0 23 14q0 8 -14 10q-113 11 -210.5 -42.5t-156.5 -151.5q-100 82 -100 178q0 115 137 190q139 78 354 78q156 0 322 -45
q-232 -243 -351 -567q-186 37 -323 137l-6 4q47 94 134 147.5t191 47.5z" />
    <glyph glyph-name="Oacute" unicode="&#xd3;" horiz-adv-x="1624" 
d="M1727 1780q8 0 18 6q54 31 124.5 70.5t162.5 87.5q70 32 70 69q0 33 -47 33q-43 0 -95 -41q-34 -27 -68 -52.5t-69 -51.5q-108 -86 -108 -107q0 -14 12 -14zM1831 1348q17 55 17 102q0 117 -78 190q-84 78 -227 78q-138 0 -316 -78q-170 -75 -323 -223q-203 64 -404 64
q-239 0 -385 -97q-135 -90 -135 -221q0 -129 145 -239l-2 -4q-41 -99 -41 -197q0 -154 86 -279q95 -139 277 -217q41 -186 164 -282q133 -107 360 -97q248 9 494 197q225 176 372.5 436t147.5 498q0 233 -152 369zM654 168q82 -12 166 -12q317 0 565 170q246 168 246 403
q0 133 -99 272q209 140 281 299q84 -114 84 -290q0 -232 -131 -492q-129 -262 -326 -434q-215 -188 -424 -190q-268 -5 -362 274zM1512 1030q-186 232 -528 361q63 65 130.5 117.5t143.5 86.5q168 80 301 80q117 0 180.5 -61.5t63.5 -159.5q0 -41 -8 -76q-84 64 -119 64
q-17 0 -17 -12q0 -9 11 -13q59 -28 112 -78q-61 -163 -270 -309zM1481 1012q-176 -115 -387 -172q-225 -62 -436 -49q88 327 289 561q360 -121 534 -340zM633 240q-10 47 -16 98t-6 106q0 148 37 306q452 -19 856 233q90 -127 90 -256q0 -213 -217 -362.5t-516 -149.5
q-115 0 -228 25zM160 899q146 -100 336 -133q-65 -203 -65 -381v-39q0 -18 2 -37q-150 74 -230 199q-69 108 -69 240q0 67 22 139zM508 1145q23 0 23 14q0 8 -14 10q-113 11 -210.5 -42.5t-156.5 -151.5q-100 82 -100 178q0 115 137 190q139 78 354 78q156 0 322 -45
q-232 -243 -351 -567q-186 37 -323 137l-6 4q47 94 134 147.5t191 47.5z" />
    <glyph glyph-name="Ocircumflex" unicode="&#xd4;" horiz-adv-x="1624" 
d="M1831 1348q17 55 17 102q0 117 -78 190q-84 78 -227 78q-138 0 -316 -78q-170 -75 -323 -223q-203 64 -404 64q-239 0 -385 -97q-135 -90 -135 -221q0 -129 145 -239l-2 -4q-41 -99 -41 -197q0 -154 86 -279q95 -139 277 -217q41 -186 164 -282q133 -107 360 -97
q248 9 494 197q225 176 372.5 436t147.5 498q0 233 -152 369zM654 168q82 -12 166 -12q317 0 565 170q246 168 246 403q0 133 -99 272q209 140 281 299q84 -114 84 -290q0 -232 -131 -492q-129 -262 -326 -434q-215 -188 -424 -190q-268 -5 -362 274zM1512 1030
q-186 232 -528 361q63 65 130.5 117.5t143.5 86.5q168 80 301 80q117 0 180.5 -61.5t63.5 -159.5q0 -41 -8 -76q-84 64 -119 64q-17 0 -17 -12q0 -9 11 -13q59 -28 112 -78q-61 -163 -270 -309zM1481 1012q-176 -115 -387 -172q-225 -62 -436 -49q88 327 289 561
q360 -121 534 -340zM633 240q-10 47 -16 98t-6 106q0 148 37 306q452 -19 856 233q90 -127 90 -256q0 -213 -217 -362.5t-516 -149.5q-115 0 -228 25zM160 899q146 -100 336 -133q-65 -203 -65 -381v-39q0 -18 2 -37q-150 74 -230 199q-69 108 -69 240q0 67 22 139z
M508 1145q23 0 23 14q0 8 -14 10q-113 11 -210.5 -42.5t-156.5 -151.5q-100 82 -100 178q0 115 137 190q139 78 354 78q156 0 322 -45q-232 -243 -351 -567q-186 37 -323 137l-6 4q47 94 134 147.5t191 47.5zM1311 1772l6 -15q43 2 172 74q121 67 162 106q174 -172 201 -172
q18 0 18 19q0 24 -102 127q-105 104 -129 106l-14 -6q-78 -72 -195 -151q-66 -41 -104 -68q-5 -6 -9 -11t-6 -9z" />
    <glyph glyph-name="Otilde" unicode="&#xd5;" horiz-adv-x="1894" 
d="M1831 1348q17 55 17 102q0 117 -78 190q-84 78 -227 78q-138 0 -316 -78q-170 -75 -323 -223q-203 64 -404 64q-239 0 -385 -97q-135 -90 -135 -221q0 -129 145 -239l-2 -4q-41 -99 -41 -197q0 -154 86 -279q95 -139 277 -217q41 -186 164 -282q133 -107 360 -97
q248 9 494 197q225 176 372.5 436t147.5 498q0 233 -152 369zM654 168q82 -12 166 -12q317 0 565 170q246 168 246 403q0 133 -99 272q209 140 281 299q84 -114 84 -290q0 -232 -131 -492q-129 -262 -326 -434q-215 -188 -424 -190q-268 -5 -362 274zM1512 1030
q-186 232 -528 361q63 65 130.5 117.5t143.5 86.5q168 80 301 80q117 0 180.5 -61.5t63.5 -159.5q0 -41 -8 -76q-84 64 -119 64q-17 0 -17 -12q0 -9 11 -13q59 -28 112 -78q-61 -163 -270 -309zM1481 1012q-176 -115 -387 -172q-225 -62 -436 -49q88 327 289 561
q360 -121 534 -340zM633 240q-10 47 -16 98t-6 106q0 148 37 306q452 -19 856 233q90 -127 90 -256q0 -213 -217 -362.5t-516 -149.5q-115 0 -228 25zM160 899q146 -100 336 -133q-65 -203 -65 -381v-39q0 -18 2 -37q-150 74 -230 199q-69 108 -69 240q0 67 22 139z
M508 1145q23 0 23 14q0 8 -14 10q-113 11 -210.5 -42.5t-156.5 -151.5q-100 82 -100 178q0 115 137 190q139 78 354 78q156 0 322 -45q-232 -243 -351 -567q-186 37 -323 137l-6 4q47 94 134 147.5t191 47.5zM2009 1959l-35 -34q-35 -35 -92 -35q-47 0 -143.5 38t-143.5 38
q-37 0 -94 -41t-57 -78q4 -8 8 -8l28 32q27 33 82 33q56 0 147 -38t136 -38l37 7q33 6 80 47q53 41 53 71z" />
    <glyph glyph-name="Ugrave" unicode="&#xd9;" horiz-adv-x="1613" 
d="M1470 1491q12 0 12 14q0 21 -108 105q-35 26 -69 52l-68 52q-50 43 -95 43q-47 0 -47 -33q0 -34 70 -71q178 -94 287 -156q8 -6 18 -6zM331 121q-10 -2 -26 -2q-111 0 -178 92q-78 106 -78 301q0 211 98 436q115 262 320 410q223 -68 290 -352q-145 -197 -236 -340.5
t-130 -241.5q-62 -148 -62 -262v-21q0 -10 2 -20zM1329 512q49 248 141 512q39 113 70.5 194.5t60.5 135.5q92 174 146 174q18 0 18 -39q0 -62 -45 -195q-131 -395 -391 -782zM776 893q12 -119 -2 -244q-23 -176 -117 -313q-88 -123 -205 -180q2 178 111 393q35 69 88 154
t125 190zM501 1382q193 123 355 123q116 0 116 -92q0 -90 -110 -262q-10 -16 -28.5 -42t-45.5 -60q-63 260 -287 333zM182 1331q-4 -4 -4 -10q0 -16 16 -16q6 0 10 6q62 65 156 65q27 0 61 -6q-188 -149 -303 -405q-100 -228 -100 -453q0 -205 84 -319q76 -105 203 -105
q20 0 30 2q41 -194 254 -194q146 0 314 94q157 92 317 260q-6 -66 -6 -121q0 -424 328 -424q14 0 14 10q0 9 -14 9q-258 0 -258 397q0 49 4 103.5t12 113.5q379 446 545 971q26 82 26 153q0 127 -98 115t-203 -207q-39 -76 -80.5 -175t-89.5 -226q-59 -162 -100 -308.5
t-63 -277.5q-189 -250 -369 -360q-152 -95 -256 -95q-150 0 -160 195q129 57 225 190q105 142 127 332q19 166 5 293q71 98 108 150.5t41 56.5q109 170 109 268q0 131 -175 131q-98 0 -223 -43q-125 -45 -215 -106q-14 4 -28.5 6t-30.5 4q-131 14 -213 -74z" />
    <glyph glyph-name="Uacute" unicode="&#xda;" horiz-adv-x="1613" 
d="M1275 1489q9 0 19 6q53 31 125 70t162 86q69 37 69 71q0 33 -47 33q-45 0 -94 -43q-35 -26 -68.5 -52t-68.5 -52q-109 -86 -109 -105q0 -14 12 -14zM331 121q-10 -2 -26 -2q-111 0 -178 92q-78 106 -78 301q0 211 98 436q115 262 320 410q223 -68 290 -352
q-145 -197 -236 -340.5t-130 -241.5q-62 -148 -62 -262v-21q0 -10 2 -20zM1329 512q49 248 141 512q39 113 70.5 194.5t60.5 135.5q92 174 146 174q18 0 18 -39q0 -62 -45 -195q-131 -395 -391 -782zM776 893q12 -119 -2 -244q-23 -176 -117 -313q-88 -123 -205 -180
q2 178 111 393q35 69 88 154t125 190zM501 1382q193 123 355 123q116 0 116 -92q0 -90 -110 -262q-10 -16 -28.5 -42t-45.5 -60q-63 260 -287 333zM182 1331q-4 -4 -4 -10q0 -16 16 -16q6 0 10 6q62 65 156 65q27 0 61 -6q-188 -149 -303 -405q-100 -228 -100 -453
q0 -205 84 -319q76 -105 203 -105q20 0 30 2q41 -194 254 -194q146 0 314 94q157 92 317 260q-6 -66 -6 -121q0 -424 328 -424q14 0 14 10q0 9 -14 9q-258 0 -258 397q0 49 4 103.5t12 113.5q379 446 545 971q26 82 26 153q0 127 -98 115t-203 -207q-39 -76 -80.5 -175
t-89.5 -226q-59 -162 -100 -308.5t-63 -277.5q-189 -250 -369 -360q-152 -95 -256 -95q-150 0 -160 195q129 57 225 190q105 142 127 332q19 166 5 293q71 98 108 150.5t41 56.5q109 170 109 268q0 131 -175 131q-98 0 -223 -43q-125 -45 -215 -106q-14 4 -28.5 6t-30.5 4
q-131 14 -213 -74z" />
    <glyph glyph-name="Yacute" unicode="&#xdd;" horiz-adv-x="1683" 
d="M582 342q27 49 71 114.5t104 147.5q65 90 109 154.5t69 105.5q2 -16 3 -32.5t1 -32.5q0 -168 -92 -297q-103 -140 -265 -160zM453 346q-247 51 -290 397q-43 328 120 627q175 326 472 326q143 0 227 -105q78 -100 78 -252q0 -133 -138 -325q-94 205 -268 205
q-61 0 -119 -33q-6 -4 -6 -12q0 -17 15 -17q2 2 18 8t43 14.5t49 8.5q76 0 142.5 -55.5t105.5 -147.5q-16 -22 -71.5 -93t-153.5 -187q-138 -170 -183 -259q-12 -26 -22 -50.5t-19 -49.5zM1105 307q-269 -287 -430 -293q-117 -4 -148 74q303 182 578 219zM910 -369
q-278 -346 -489 -442q-144 -66 -258 -66q-117 0 -185.5 63.5t-68.5 170.5q0 133 100 283q113 167 326 321q37 27 73.5 51.5t71.5 46.5q68 -79 197 -73q184 6 475 325q112 13 190 4q-170 -350 -413 -659q-195 37 -207 178q0 14 -15 12q-12 -4 -12 -20q14 -148 215 -195z
M1180 346q193 217 431 565q-86 -188 -146.5 -322t-95.5 -218l-10 -23q-88 6 -179 -2zM1475 291q183 -60 172 -232q-10 -194 -217 -313q-184 -102 -385 -100q236 276 430 645zM2518 1458q0 64 -105 111q-88 43 -159 39q-211 -6 -432 -328q-9 -4 -11 -6q-418 -649 -676 -934
q-155 -16 -308.5 -69.5t-309.5 -141.5q-6 72 47 180q186 15 301 166q105 137 105 322q0 51 -11 108q142 248 142 434q0 162 -90 271q-97 116 -256 116q-277 0 -500 -282q-211 -266 -211 -545q0 -233 123 -395q112 -150 278 -187q-16 -61 -16 -108q0 -64 29 -115
q-35 -20 -68 -42.5t-66 -45.5q-198 -145 -321 -299q-148 -184 -154 -342q-12 -278 252 -278q117 0 277 51q315 102 643 479q33 -2 63 0q226 10 406 125q198 129 209 324q8 192 -207 258q86 168 162 348q69 172 138.5 312t141.5 255q211 344 377 344q102 0 182 -133
q4 -8 14.5 -4t10.5 12zM1422 1479q64 0 295 139q12 8 12 18q0 15 -15 27t-30 12q-16 0 -121 -80q-59 -43 -91.5 -67.5t-43.5 -28.5q-18 -10 -18 -12q0 -8 12 -8z" />
    <glyph glyph-name="agrave" unicode="&#xe0;" horiz-adv-x="649" 
d="M571 748q10 0 10 12q0 18 -114.5 102t-139.5 84q-35 0 -35 -24q0 -17 129 -97q133 -77 150 -77zM798 399q4 17 -12 17q-2 0 -6 -4q-109 -213 -203 -308q-68 -69 -107 -69q-28 0 -26 63q8 101 71 226q56 110 88.5 173.5t42.5 80.5q-32 -15 -66 -26t-73 -20
q-35 -69 -56.5 -115t-31.5 -69q-160 -328 -244 -328q-53 0 -53 89q0 149 115 313q133 188 313 188q74 0 74 13q0 6 -41 10q-14 2 -30.5 3t-37.5 1q-129 0 -244.5 -74t-181.5 -209q-59 -129 -59 -231q0 -133 121 -133q61 0 135 90q63 78 86 145q-18 -55 -18 -114
q0 -119 79 -119q76 0 175 106q38 41 80 106.5t90 155.5q8 17 13 26t7 13z" />
    <glyph glyph-name="aacute" unicode="&#xe1;" horiz-adv-x="649" 
d="M491 725q18 0 139 73.5t121 88.5q0 22 -33 22q-22 0 -131 -78q-106 -75 -106 -96q0 -10 10 -10zM798 399q4 17 -12 17q-2 0 -6 -4q-109 -213 -203 -308q-68 -69 -107 -69q-28 0 -26 63q8 101 71 226q56 110 88.5 173.5t42.5 80.5q-32 -15 -66 -26t-73 -20
q-35 -69 -56.5 -115t-31.5 -69q-160 -328 -244 -328q-53 0 -53 89q0 149 115 313q133 188 313 188q74 0 74 13q0 6 -41 10q-14 2 -30.5 3t-37.5 1q-129 0 -244.5 -74t-181.5 -209q-59 -129 -59 -231q0 -133 121 -133q61 0 135 90q63 78 86 145q-18 -55 -18 -114
q0 -119 79 -119q76 0 175 106q38 41 80 106.5t90 155.5q8 17 13 26t7 13z" />
    <glyph glyph-name="acircumflex" unicode="&#xe2;" horiz-adv-x="649" 
d="M298 741l4 -12q17 2 52.5 16.5t89.5 42.5q51 27 84.5 47.5t52.5 36.5q119 -127 147 -137l17 17q0 22 -72 100q-72 80 -96 84q-4 -2 -7 -3l-3 -1q-15 -10 -24 -18.5t-17 -14.5q-41 -31 -84 -59q-41 -27 -73 -47.5t-58 -36.5q-5 -4 -8 -8.5t-5 -6.5zM798 399q4 17 -12 17
q-2 0 -6 -4q-109 -213 -203 -308q-68 -69 -107 -69q-28 0 -26 63q8 101 71 226q56 110 88.5 173.5t42.5 80.5q-32 -15 -66 -26t-73 -20q-35 -69 -56.5 -115t-31.5 -69q-160 -328 -244 -328q-53 0 -53 89q0 149 115 313q133 188 313 188q74 0 74 13q0 6 -41 10q-14 2 -30.5 3
t-37.5 1q-129 0 -244.5 -74t-181.5 -209q-59 -129 -59 -231q0 -133 121 -133q61 0 135 90q63 78 86 145q-18 -55 -18 -114q0 -119 79 -119q76 0 175 106q38 41 80 106.5t90 155.5q8 17 13 26t7 13z" />
    <glyph glyph-name="atilde" unicode="&#xe3;" horiz-adv-x="649" 
d="M798 399q4 17 -12 17q-2 0 -6 -4q-109 -213 -203 -308q-68 -69 -107 -69q-28 0 -26 63q8 101 71 226q56 110 88.5 173.5t42.5 80.5q-32 -15 -66 -26t-73 -20q-35 -69 -56.5 -115t-31.5 -69q-160 -328 -244 -328q-53 0 -53 89q0 149 115 313q133 188 313 188q74 0 74 13
q0 6 -41 10q-14 2 -30.5 3t-37.5 1q-129 0 -244.5 -74t-181.5 -209q-59 -129 -59 -231q0 -133 121 -133q61 0 135 90q63 78 86 145q-18 -55 -18 -114q0 -119 79 -119q76 0 175 106q38 41 80 106.5t90 155.5q8 17 13 26t7 13zM829 848l-30 -31q-31 -30 -80 -30q-41 0 -124 33
t-124 33q-31 0 -80.5 -35.5t-49.5 -67.5q3 -7 7 -7l24 29q23 28 71 28t126.5 -33t117.5 -33l32 6q28 5 69 40q46 36 46 62z" />
    <glyph glyph-name="egrave" unicode="&#xe8;" horiz-adv-x="473" 
d="M483 719q10 0 10 10q0 19 -114.5 102.5t-139.5 83.5q-35 0 -35 -24q0 -19 129 -94q131 -78 150 -78zM632 420q2 6 -6 12q-10 6 -14 0q-99 -217 -211 -328q-88 -88 -164 -92q-76 -2 -76 109q0 55 19 127q28 -21 65 -21q96 0 180 97q76 88 76 190q0 111 -102 111
q-97 0 -185 -95q-71 -77 -110 -176q-35 -88 -35 -176q0 -198 162 -198q88 0 188 106q60 59 113 143t100 191zM456 485q-35 -90 -92 -153q-66 -72 -129 -72q-27 0 -47 12q4 17 9 31t11 31q35 92 94 174q70 98 123 94q39 -2 39 -65q0 -29 -8 -52z" />
    <glyph glyph-name="eacute" unicode="&#xe9;" horiz-adv-x="473" 
d="M434 721q18 0 139 74q121 77 121 90q0 22 -33 22q-25 0 -131 -80q-107 -75 -107 -96q0 -10 11 -10zM632 420q2 6 -6 12q-10 6 -14 0q-99 -217 -211 -328q-88 -88 -164 -92q-76 -2 -76 109q0 55 19 127q28 -21 65 -21q96 0 180 97q76 88 76 190q0 111 -102 111
q-97 0 -185 -95q-71 -77 -110 -176q-35 -88 -35 -176q0 -198 162 -198q88 0 188 106q60 59 113 143t100 191zM456 485q-35 -90 -92 -153q-66 -72 -129 -72q-27 0 -47 12q4 17 9 31t11 31q35 92 94 174q70 98 123 94q39 -2 39 -65q0 -29 -8 -52z" />
    <glyph glyph-name="ecircumflex" unicode="&#xea;" horiz-adv-x="473" 
d="M184 700l4 -12q16 2 52 16.5t89 43.5q98 51 137 86q121 -132 148 -140l16 17q0 22 -72 100q-69 80 -96 86q-4 -2 -7 -3l-3 -1q-14 -10 -23.5 -18.5t-17.5 -14.5q-18 -14 -39.5 -29.5t-44.5 -31.5q-41 -25 -72.5 -45.5t-58.5 -36.5q-8 -8 -12 -17zM632 420q2 6 -6 12
q-10 6 -14 0q-99 -217 -211 -328q-88 -88 -164 -92q-76 -2 -76 109q0 55 19 127q28 -21 65 -21q96 0 180 97q76 88 76 190q0 111 -102 111q-97 0 -185 -95q-71 -77 -110 -176q-35 -88 -35 -176q0 -198 162 -198q88 0 188 106q60 59 113 143t100 191zM456 485
q-35 -90 -92 -153q-66 -72 -129 -72q-27 0 -47 12q4 17 9 31t11 31q35 92 94 174q70 98 123 94q39 -2 39 -65q0 -29 -8 -52z" />
    <glyph glyph-name="igrave" unicode="&#xec;" horiz-adv-x="452" 
d="M451 811q10 0 10 10q0 21 -114.5 105t-137.5 84q-35 0 -35 -25q0 -16 129 -96q131 -78 148 -78zM612 420q3 6 -6 12q-10 6 -14 0q-139 -270 -233 -354q-62 -55 -93 -55q-26 0 -26 40q0 64 71 236q91 215 91 270q0 60 -76 60q-62 0 -113 -68q-29 -39 -74 -131
q-79 -158 -145 -250q8 -8 20 -14q68 96 146 252q82 162 127 162q18 0 18 -25q0 -39 -110 -268q-60 -125 -60 -201q0 -96 88 -96q103 0 193 108q72 88 196 322z" />
    <glyph glyph-name="iacute" unicode="&#xed;" horiz-adv-x="452" 
d="M647 932q6 6 6 14q0 15 -10 31t-20 16q-4 0 -8 -4q-78 -74 -135.5 -126t-96.5 -83q-33 -24 -33 -43q0 -6 9 -6q10 0 36 21q33 24 95.5 69t156.5 111zM612 420q3 6 -6 12q-10 6 -14 0q-139 -270 -233 -354q-62 -55 -93 -55q-26 0 -26 40q0 64 71 236q91 215 91 270
q0 60 -76 60q-62 0 -113 -68q-29 -39 -74 -131q-79 -158 -145 -250q8 -8 20 -14q68 96 146 252q82 162 127 162q18 0 18 -25q0 -39 -110 -268q-60 -125 -60 -201q0 -96 88 -96q103 0 193 108q72 88 196 322z" />
    <glyph glyph-name="ograve" unicode="&#xf2;" horiz-adv-x="501" 
d="M507 723q10 0 10 10q0 21 -114.5 105t-139.5 84q-35 0 -35 -25q0 -16 129 -96q132 -78 150 -78zM656 412q13 22 -10 22q-6 0 -8 -6q-164 -326 -258 -326q-25 0 -47 17q55 71 108 180q54 111 54 209q0 121 -103 121q-73 0 -153 -74q-88 -80 -140 -201q-59 -141 -59 -233
q0 -131 119 -131q74 0 160 108q24 -24 55 -24q45 0 95 46t110 146q10 21 29.5 56.5t47.5 89.5zM407 598q59 0 59 -78q0 -82 -66 -229q2 8 2 20q0 47 -36 47q-50 0 -76 -79q-14 -37 -14 -78q0 -49 24 -80q-74 -101 -117 -101q-57 0 -57 78q0 121 104 310q105 190 177 190z
" />
    <glyph glyph-name="oacute" unicode="&#xf3;" horiz-adv-x="501" 
d="M396 723q21 0 142 74q120 77 120 90q0 22 -32 22q-25 0 -131 -80q-107 -75 -107 -96q0 -10 8 -10zM656 412q13 22 -10 22q-6 0 -8 -6q-164 -326 -258 -326q-25 0 -47 17q55 71 108 180q54 111 54 209q0 121 -103 121q-73 0 -153 -74q-88 -80 -140 -201q-59 -141 -59 -233
q0 -131 119 -131q74 0 160 108q24 -24 55 -24q45 0 95 46t110 146q10 21 29.5 56.5t47.5 89.5zM407 598q59 0 59 -78q0 -82 -66 -229q2 8 2 20q0 47 -36 47q-50 0 -76 -79q-14 -37 -14 -78q0 -49 24 -80q-74 -101 -117 -101q-57 0 -57 78q0 121 104 310q105 190 177 190z
" />
    <glyph glyph-name="ocircumflex" unicode="&#xf4;" horiz-adv-x="501" 
d="M194 725l2 -12q34 2 143 61q104 53 137 84q119 -127 148 -137l16 14q0 25 -71.5 102.5t-96.5 84.5q-4 -2 -7 -3l-3 -1q-14 -11 -23.5 -19t-17.5 -14q-21 -15 -41.5 -29t-42.5 -31q-41 -26 -72.5 -46.5t-58.5 -37.5q-8 -8 -12 -16zM656 412q13 22 -10 22q-6 0 -8 -6
q-164 -326 -258 -326q-25 0 -47 17q55 71 108 180q54 111 54 209q0 121 -103 121q-73 0 -153 -74q-88 -80 -140 -201q-59 -141 -59 -233q0 -131 119 -131q74 0 160 108q24 -24 55 -24q45 0 95 46t110 146q10 21 29.5 56.5t47.5 89.5zM407 598q59 0 59 -78q0 -82 -66 -229
q2 8 2 20q0 47 -36 47q-50 0 -76 -79q-14 -37 -14 -78q0 -49 24 -80q-74 -101 -117 -101q-57 0 -57 78q0 121 104 310q105 190 177 190z" />
    <glyph glyph-name="otilde" unicode="&#xf5;" horiz-adv-x="501" 
d="M656 412q13 22 -10 22q-6 0 -8 -6q-164 -326 -258 -326q-25 0 -47 17q55 71 108 180q54 111 54 209q0 121 -103 121q-73 0 -153 -74q-88 -80 -140 -201q-59 -141 -59 -233q0 -131 119 -131q74 0 160 108q24 -24 55 -24q45 0 95 46t110 146q10 21 29.5 56.5t47.5 89.5z
M407 598q59 0 59 -78q0 -82 -66 -229q2 8 2 20q0 47 -36 47q-50 0 -76 -79q-14 -37 -14 -78q0 -49 24 -80q-74 -101 -117 -101q-57 0 -57 78q0 121 104 310q105 190 177 190zM749 818l-30 -31q-31 -30 -80 -30q-41 0 -124 33t-124 33q-31 0 -80.5 -35.5t-49.5 -67.5
q3 -7 7 -7l24 29q23 28 71 28t126.5 -33t117.5 -33l32 6q28 5 69 40q46 36 46 62z" />
    <glyph glyph-name="divide" unicode="&#xf7;" horiz-adv-x="1706" 
 />
    <glyph glyph-name="glyph216" unicode="&#xf9;" horiz-adv-x="782" 
d="M608 713q9 0 9 12q0 18 -115 102t-137 84q-35 0 -35 -24q0 -17 129 -96q131 -78 149 -78zM942 420q2 4 -8 12q-10 6 -14 0q-140 -270 -234 -354q-65 -55 -94 -55q-27 0 -27 45q0 92 99 323q47 107 82.5 173.5t60.5 92.5q-65 -28 -154 -49q-26 -76 -44.5 -128t-32.5 -83
q-101 -215 -217 -319q-62 -55 -93 -55q-26 0 -26 40q0 64 71 236q91 215 91 270q0 60 -76 60q-62 0 -113 -68q-29 -39 -74 -131q-79 -158 -145 -250q8 -8 20 -14q68 96 146 252q82 162 127 162q20 0 20 -29q0 -64 -100 -266q-63 -133 -63 -211q0 -84 79 -84q82 0 154 65
q33 29 68.5 79t76.5 120q-32 -100 -32 -172q0 -92 61 -92q102 0 193 108q71 84 198 322z" />
    <glyph glyph-name="glyph217" unicode="&#xfa;" horiz-adv-x="782" 
d="M529 723q18 0 139 74q121 77 121 90q0 22 -33 22q-25 0 -131 -80q-107 -75 -107 -96q0 -10 11 -10zM942 420q2 4 -8 12q-10 6 -14 0q-140 -270 -234 -354q-65 -55 -94 -55q-27 0 -27 45q0 92 99 323q47 107 82.5 173.5t60.5 92.5q-65 -28 -154 -49q-26 -76 -44.5 -128
t-32.5 -83q-101 -215 -217 -319q-62 -55 -93 -55q-26 0 -26 40q0 64 71 236q91 215 91 270q0 60 -76 60q-62 0 -113 -68q-29 -39 -74 -131q-79 -158 -145 -250q8 -8 20 -14q68 96 146 252q82 162 127 162q20 0 20 -29q0 -64 -100 -266q-63 -133 -63 -211q0 -84 79 -84
q82 0 154 65q33 29 68.5 79t76.5 120q-32 -100 -32 -172q0 -92 61 -92q102 0 193 108q71 84 198 322z" />
    <glyph glyph-name="glyph234" unicode="&#xfd;" horiz-adv-x="731" 
d="M873 389l-4 12q-12 0 -18 -10l-80 -139q-10 -19 -20 -37q-17 -27 -39 -51q-35 -43 -93 -94q-49 -43 -116 -86l76 215l51 151q94 242 153 305l-71 -26l-82 -21q-33 -106 -105 -258q-96 -200 -170 -266q-65 -55 -92 -55q-24 0 -24 37q0 61 73 233q84 205 84 262
q0 72 -63 72q-43 0 -84 -35q-23 -23 -32 -35t-30 -43l-20 -37l-27 -53q-82 -158 -145 -250l20 -14q35 47 71 110.5t75 141.5q82 162 127 162q18 0 20 -29q0 -64 -100 -266q-31 -66 -47.5 -119t-16.5 -92q0 -84 80 -84q111 0 273 235l-64 -186l-33 -94q-75 -41 -209.5 -194.5
t-210.5 -295.5q-63 -114 -63 -188q0 -86 72 -86q98 0 204 145q115 164 297 623q142 86 228 190q22 29 31.5 41.5t35.5 55.5q35 53 88 153zM388 -100q-111 -295 -246 -535q-88 -156 -147 -156q-33 0 -33 58q0 37 10.5 73.5t40 96t74.5 130.5t102 142q111 139 199 191z
M530 723q18 0 139 74q121 77 121 90q0 22 -33 22q-25 0 -131 -80q-107 -75 -107 -96q0 -10 11 -10z" />
    <glyph glyph-name="Abreve" unicode="&#x102;" 
d="M1577 1143q-114 -133 -270 -332l-238 -10q27 78 27 149q0 135 -92 219q-90 78 -232 78q-143 0 -284 -86q-156 -94 -269 -274q-18 266 195 483q238 244 621 223q223 -12 368 -127q156 -123 174 -323zM1528 827q-29 -4 -58.5 -6t-62.5 -4q47 60 89 111t79 96
q-8 -92 -47 -197zM1043 801q-174 -10 -281 -19q-301 -30 -383 -192q-114 74 -147 215q143 252 352 354q188 90 336 23q149 -64 149 -238q0 -70 -26 -143zM998 705q-84 -144 -264 -250q-113 -70 -197 -70q-94 0 -94 72q0 32 24 67q80 -24 185 -20q20 0 20 10t-22 10
q-93 -2 -168 19q106 121 376 149q56 6 140 13zM1239 725q-186 -242 -298.5 -384t-151.5 -189q-45 -56 -80 -99t-62 -71q-47 -7 -90 -7q-102 0 -188 37q-252 107 -252 394q0 161 86 344q53 -121 164 -185q-8 -24 -8 -55q0 -64 48 -108t128 -44q100 0 215 72q190 119 278 279
q99 8 151 12t60 4zM1499 754q-18 -41 -39.5 -82t-48.5 -82q-286 -467 -663 -584q45 47 94 107q166 204 290 359t210 263q43 4 83 9.5t74 9.5zM1903 846q92 33 174 72.5t156 91.5q311 213 311 413q0 93 -70.5 149t-181.5 56q-141 0 -285 -86q-163 -94 -391 -352
q-31 199 -192 321q-160 117 -385 125q-396 15 -650 -219q-223 -209 -223 -483q0 -64 15 -115q-107 -198 -107 -393q0 -317 283 -442q118 -50 260 -35q-228 -252 -424 -334q-117 -49 -254 -49q-146 0 -242 59q-108 66 -108 191q0 10 1 19t3 20q2 14 -13 14q-12 0 -14 -12
q-6 -35 -6 -66q0 -135 104 -199q91 -59 238 -59q160 0 301 57q240 95 506 373q430 100 747 623q56 92 91 176q104 14 196 37q-264 -348 -268 -623q0 -82 39 -135t117 -53q184 0 524 469q6 8 6 14q0 16 -18 16q-15 0 -21 -12q-125 -190 -264 -321q-135 -129 -213 -129
q-66 0 -66 88q0 196 273 649q12 20 24.5 40.5t26.5 43.5zM2323 1440l-252 -264q-86 -89 -153.5 -164.5t-121.5 -141.5q-102 -22 -221 -36q45 129 49 245q250 287 416 385q158 90 289 90q86 0 138 -39.5t52 -109.5q0 -178 -311 -375q-123 -76 -264 -121q223 338 397 512
q8 6 8 17q0 6 -6 10q-6 2 -20 -8zM2622 1906h33q-37 -50 -137 -112q-115 -73 -235 -73q-76 0 -111 33q-12 0 -43 72q-4 8 -4 28q0 35 24 83h27q-12 -30 -12 -43v-18l2 1q0 -94 149 -94q105 0 176 38z" />
    <glyph glyph-name="abreve" unicode="&#x103;" horiz-adv-x="649" 
d="M798 399q4 17 -12 17q-2 0 -6 -4q-109 -213 -203 -308q-68 -69 -107 -69q-28 0 -26 63q8 101 71 226q56 110 88.5 173.5t42.5 80.5q-32 -15 -66 -26t-73 -20q-35 -69 -56.5 -115t-31.5 -69q-160 -328 -244 -328q-53 0 -53 89q0 149 115 313q133 188 313 188q74 0 74 13
q0 6 -41 10q-14 2 -30.5 3t-37.5 1q-129 0 -244.5 -74t-181.5 -209q-59 -129 -59 -231q0 -133 121 -133q61 0 135 90q63 78 86 145q-18 -55 -18 -114q0 -119 79 -119q76 0 175 106q38 41 80 106.5t90 155.5q8 17 13 26t7 13zM712 800q-51 -27 -125 -27q-104 0 -104 74h-2
q0 -5 0 8q0 10 10 34h-29q-19 -38 -19 -65q0 -15 3 -21q23 -56 33 -56q26 -25 84 -25q90 0 176 56q74 47 102 88h-32z" />
    <glyph glyph-name="Ccaron" unicode="&#x10c;" horiz-adv-x="1274" 
 />
    <glyph glyph-name="ccaron" unicode="&#x10d;" horiz-adv-x="922" 
 />
    <glyph glyph-name="Dslash" unicode="&#x110;" horiz-adv-x="2028" 
d="M132 657q-13 314 170 588q198 295 501 318q273 20 435 -217q147 -220 147 -566q0 -331 -139 -633q-76 -165 -182.5 -287t-243.5 -208q-189 -117 -393 -117q-273 0 -390 172q-32 47 -32 125q0 35 8 53q4 15 -8 17q-15 4 -17 -8q-12 -35 -12 -82q0 -74 31 -119
q61 -92 181 -144.5t267 -52.5q209 0 389 113q289 180 447 506q145 303 145 639q0 360 -164 598q-174 254 -473 250q-319 -7 -532 -281q-199 -254 -199 -586q0 -366 256 -629q254 -258 627 -258q436 0 788 310q367 317 391 751q21 338 -204 533q-201 174 -520 174
q-242 0 -463 -109q-228 -112 -349 -319q-79 -139 -79 -270q0 -99 54 -153t128 -54q78 0 138.5 57t66.5 162q0 12 -13 12q-12 0 -12 -12q-6 -92 -57 -143.5t-117 -51.5q-63 0 -108.5 48t-45.5 135q0 108 68 229q115 192 342 313q219 119 449 119q229 0 368 -127
q158 -141 158 -416q0 -28 -2 -60t-6 -65q-49 -407 -324 -712q-289 -318 -657 -318q-355 0 -582 232q-219 219 -231 544zM577 693l-34 -57h332q-273 -417 -467 -579q-102 -86 -203 -86q-120 0 -120 127q0 47 22 119q55 158 150 240q8 8 8 18q0 25 -25 6q-55 -49 -106 -133
q-29 -49 -50.5 -95t-31.5 -91q-13 -53 -13 -92q0 -185 195 -185q207 0 381 181q179 184 376 570h309l34 57h-315q17 34 34 69l289 663q4 13 4 17q0 12 -12 12q-19 0 -21 -18q-120 -303 -395 -734q-3 -5 -6 -9h-335z" />
    <glyph glyph-name="dcroat" unicode="&#x111;" horiz-adv-x="657" 
d="M548 610l-129 -262q-160 -328 -244 -328q-53 0 -53 91q0 151 113 309q133 190 313 190zM1031 1339q-45 -20 -149 -45l-322 -657q-12 2 -25 2h-22q-47 0 -106.5 -14.5t-116.5 -51.5q-63 -34 -112.5 -89.5t-86.5 -129.5q-61 -127 -61 -231q0 -133 121 -133q59 0 137 90
l49 74l35 71q-18 -55 -18 -114q0 -119 82 -119q77 0 172 106q38 43 79 107q23 33 42.5 66.5t48.5 88.5l22 39q0 15 -14 17l-4 -4q-111 -217 -205 -308q-66 -65 -109 -65q-35 0 -35 55q0 131 187 506q6 4 10 14q148 283 238 441q43 75 92 162.5t71 121.5zM913 979h-396
q-4 -5 -11 -33.5t-3 -34.5h396q4 6 11 34.5t3 33.5z" />
    <glyph glyph-name="Itilde" unicode="&#x128;" horiz-adv-x="1691" 
d="M1647 1163q174 -69 174 -245q0 -130 -115 -232q-135 -117 -363 -143q29 53 68 130t86 179q51 111 88 187.5t62 123.5zM1913 1556q108 115 200 115q48 0 48 -31q0 -32 -58 -57q-67 -31 -190 -27zM1577 1214q-21 3 -41 3h-41q-516 0 -758 -375q-16 55 -16 108q0 129 74 250
q75 127 215 211q237 143 563 143q51 0 111.5 -3t132.5 -11q-105 -110 -240 -326zM1176 541q-328 26 -426 262q247 407 808 381q-126 -211 -221.5 -372t-160.5 -271zM782 43q-139 150 -139 383q0 178 86 342q127 -219 432 -250q-104 -162 -197.5 -280.5t-181.5 -194.5z
M416 629q20 12 20 22q0 6 -8 6q-12 0 -33 -12q-170 -100 -274 -221q-119 -143 -119 -287q0 -295 346 -295q82 0 166 15q158 26 303 110q131 -100 315 -100q142 0 259 51q118 49 147 123q10 22 -6 22q-10 0 -12 -12q-25 -59 -140 -106q-110 -45 -248 -45q-165 0 -284 86
q268 166 479 530q254 21 414 150q137 116 137 262q0 190 -215 264q59 111 116.5 196t110.5 144q51 -4 97.5 0t89.5 14q108 29 108 96q0 52 -90 52q-125 0 -256 -131q-147 16 -247.5 24t-153.5 8q-291 0 -490 -118q-137 -82 -215 -226q-69 -127 -69 -274q0 -92 28 -174
q-80 -178 -80 -377q0 -250 117 -406q-90 -92 -197 -126q-81 -27 -163 -27q-72 0 -130.5 21.5t-99.5 58.5t-63.5 89t-22.5 114q0 120 84 241q94 131 279 238zM2090 1869l-35 -34q-35 -35 -92 -35q-47 0 -143.5 38t-143.5 38q-37 0 -94 -41t-57 -78q4 -8 8 -8l28 32
q27 33 82 33q56 0 147 -38t136 -38l37 7q33 6 80 47q53 41 53 71z" />
    <glyph glyph-name="itilde" unicode="&#x129;" horiz-adv-x="452" 
d="M612 420l-6 12q-8 6 -14 0q-137 -266 -233 -354q-54 -47 -89 -51q-30 0 -30 47q0 45 20 98q74 190 117 283q27 75 27 110q0 64 -78 64q-60 0 -113 -68q-29 -39 -74 -131q-82 -160 -145 -250l20 -14q35 47 71 110.5t75 141.5q82 162 127 162q14 0 16 -23q0 -25 -24 -86
l-80 -178q-43 -105 -53 -176q-2 -13 -2 -35q0 -92 79 -92q103 0 193 108q72 88 196 322zM698 838l-30 -31q-30 -30 -80 -30q-40 0 -123.5 33t-123.5 33q-32 0 -81.5 -35.5t-49.5 -67.5q3 -7 7 -7l25 29q23 28 70 28q48 0 127 -33t117 -33l32 6q29 5 69 40q46 36 46 62z" />
    <glyph glyph-name="Utilde" unicode="&#x168;" horiz-adv-x="1630" 
d="M331 121q-10 -2 -26 -2q-111 0 -178 92q-78 106 -78 301q0 211 98 436q115 262 320 410q223 -68 290 -352q-145 -197 -236 -340.5t-130 -241.5q-62 -148 -62 -262v-21q0 -10 2 -20zM1329 512q49 248 141 512q39 113 70.5 194.5t60.5 135.5q92 174 146 174q18 0 18 -39
q0 -62 -45 -195q-131 -395 -391 -782zM776 893q12 -119 -2 -244q-23 -176 -117 -313q-88 -123 -205 -180q2 178 111 393q35 69 88 154t125 190zM501 1382q193 123 355 123q116 0 116 -92q0 -90 -110 -262q-10 -16 -28.5 -42t-45.5 -60q-63 260 -287 333zM182 1331
q-4 -4 -4 -10q0 -16 16 -16q6 0 10 6q62 65 156 65q27 0 61 -6q-188 -149 -303 -405q-100 -228 -100 -453q0 -205 84 -319q76 -105 203 -105q20 0 30 2q41 -194 254 -194q146 0 314 94q157 92 317 260q-6 -66 -6 -121q0 -424 328 -424q14 0 14 10q0 9 -14 9q-258 0 -258 397
q0 49 4 103.5t12 113.5q379 446 545 971q26 82 26 153q0 127 -98 115t-203 -207q-39 -76 -80.5 -175t-89.5 -226q-59 -162 -100 -308.5t-63 -277.5q-189 -250 -369 -360q-152 -95 -256 -95q-150 0 -160 195q129 57 225 190q105 142 127 332q19 166 5 293q71 98 108 150.5
t41 56.5q109 170 109 268q0 131 -175 131q-98 0 -223 -43q-125 -45 -215 -106q-14 4 -28.5 6t-30.5 4q-131 14 -213 -74zM1740 1849l-35 -34q-35 -35 -92 -35q-47 0 -143.5 38t-143.5 38q-37 0 -94 -41t-57 -78q4 -8 8 -8l28 32q27 33 82 33q56 0 147 -38t136 -38l37 7
q33 6 80 47q53 41 53 71z" />
    <glyph glyph-name="utilde" unicode="&#x169;" horiz-adv-x="782" 
d="M942 420l-8 12q-8 6 -14 0q-138 -266 -234 -354q-65 -55 -94 -55q-27 0 -27 45q0 90 99 323q51 115 83.5 176.5t59.5 89.5q-63 -26 -154 -49l-45 -129l-32 -82q-99 -217 -217 -319q-62 -55 -93 -55q-26 0 -26 40q0 66 71 236q91 217 91 270q0 60 -76 60q-60 0 -113 -68
q-29 -39 -74 -131q-82 -160 -145 -250l20 -14q35 47 71 110.5t75 141.5q82 162 127 162q18 0 20 -29q0 -64 -100 -266q-31 -66 -47 -119t-16 -92q0 -84 79 -84q82 0 154 65q8 6 31.5 33t36.5 45q32 45 77 121q-32 -104 -32 -172q0 -92 61 -92q102 0 193 108q69 82 198 322z
M829 848l-30 -31q-30 -30 -80 -30q-41 0 -124 33t-123 33q-32 0 -81.5 -35.5t-49.5 -67.5q3 -7 7 -7l25 29q22 28 70 28t126.5 -33t117.5 -33l32 6q28 5 69 40q46 36 46 62z" />
    <glyph glyph-name="Ohorn" unicode="&#x1a0;" horiz-adv-x="1894" 
d="M653 168q80 -12 166 -12q320 0 565.5 168t245.5 405q0 131 -98 272q207 138 280 299q84 -114 84 -290q0 -232 -129 -491t-327 -435q-219 -190 -424 -190q-268 0 -363 274zM1511 1030q-182 227 -528 361q64 67 130.5 117.5t143.5 86.5q166 80 302 80q114 0 178.5 -62.5
t64.5 -158.5v-39q-6 -24 -8 -37q-45 35 -72.5 49.5t-46.5 14.5q-12 0 -16 -12q6 -11 10 -13q62 -28 113 -78q-62 -161 -271 -309zM1481 1012q-174 -113 -387 -172q-99 -27 -212.5 -38t-224.5 -11q86 323 289 561q361 -121 535 -340zM633 240l-17 98l-6 106q0 146 37 306
q234 0 446 55t410 178q90 -127 90 -256q0 -213 -217 -362.5t-516 -149.5q-112 0 -227 25zM160 899q141 -96 336 -133q-66 -207 -66 -381v-39l2 -37q-147 74 -229 199q-70 110 -70 240q0 30 3 61t20 78zM508 1145q20 0 22 14q-8 8 -14 10q-59 0 -110.5 -9t-100.5 -34
q-96 -53 -155 -151q-101 82 -101 178q0 115 138.5 191.5t353.5 76.5q155 0 321 -45q-231 -243 -350 -567q-184 37 -324 137l-6 4q47 94 133 148q41 24 87.5 35.5t105.5 11.5zM2036 1419q112 94 112 160q0 55 -45 68q-6 2 -20 2q-53 0 -74 -60q-2 -10 -2 -26q0 -17 5 -35.5
t28 -24.5q-39 -100 -197 -162q-2 -1 -3 -1q-4 4 -9 8q8 28 12 51.5t4 50.5q0 119 -78 190q-83 78 -227 78q-139 0 -311 -75.5t-328 -225.5q-102 31 -201.5 47.5t-201.5 16.5q-240 0 -385 -97q-135 -90 -135 -221t145 -239q-43 -105 -43 -201q0 -152 89 -284t273 -212
q41 -186 164 -282q64 -49 154 -73t207 -24q237 0 493 197q221 172 370.5 433t149.5 501q0 211 -122 341q104 42 176 99z" />
    <glyph glyph-name="ohorn" unicode="&#x1a1;" horiz-adv-x="501" 
d="M407 598q59 0 59 -78q0 -45 -14.5 -96t-51.5 -133l2 20q0 47 -36 47q-48 0 -76 -79q-6 -19 -10.5 -37.5t-4.5 -40.5q0 -49 25 -80q-76 -101 -117 -101q-57 0 -57 78q0 119 104.5 309.5t176.5 190.5zM548 573q84 72 84 123q-1 49 -51 51q-39 0 -54 -45q-6 -21 0 -39
q9 -20 23 -27q-17 -40 -62 -74q-20 67 -96 67q-74 0 -155.5 -76t-139 -209t-57.5 -223q0 -131 119 -131q76 0 159 108q25 -24 56 -24q43 0 93 46t112 146l28 56l49 90q13 20 -10 22l-8 -6q-164 -326 -258 -326q-25 0 -47 17q51 65 106.5 179t55.5 210q0 15 -1 27
q32 18 54 38z" />
    <glyph glyph-name="Uhorn" unicode="&#x1af;" horiz-adv-x="1630" 
d="M331 121l-26 -2q-111 0 -178 92q-78 106 -78 301q0 209 98 436q113 258 320 410q221 -68 290 -352q-75 -105 -131 -183q-45 -63 -106 -157q-90 -144 -129 -242q-62 -148 -62 -262v-21zM1329 512q49 244 141 512l70 195q30 79 61 135q94 174 146 174q18 0 18 -39
q0 -62 -45 -195q-64 -194 -162 -390.5t-229 -391.5zM776 893q6 -59 6 -119v-61q-6 -43 -8 -64q-21 -174 -117 -313q-86 -123 -205 -180q0 178 111 393q37 76 88 153q24 41 72 113q20 31 53 78zM501 1382q191 123 355 123q116 0 116 -92q0 -86 -110 -262l-29 -43l-45 -59
q-61 258 -287 333zM182 1331l-4 -10q0 -14 16 -16l10 6q62 65 156 65l61 -6q-186 -145 -303 -405q-47 -111 -73.5 -226.5t-26.5 -226.5q0 -205 84 -319q74 -105 203 -105l30 2q41 -194 254 -194q146 0 306.5 92t324.5 262l-6 -121q0 -424 328 -424q12 0 14 10q-8 9 -14 9
q-258 0 -258 397v46.5t4 55.5l12 115q375 442 545 971q26 86 26 153q0 125 -98 115q-100 -12 -203 -207l-82 -176l-88 -225q-55 -152 -100 -310q-37 -133 -63 -276q-185 -246 -369 -360q-154 -95 -256 -95q-160 0 -160 195q127 53 227.5 190.5t124.5 331.5q11 103 11 174
q0 64 -6 119l108 149l41 58q109 170 109 268q0 131 -175 131q-96 0 -222 -43t-216 -106l-28 6l-31 4q-21 2 -31 2q-102 0 -182 -76zM2035 1419q-73 -59 -182 -102q-18 -2 -25 6q0 12 15 18q157 62 196 162q-22 6 -27 24.5t-5 35.5q0 16 2 26q20 60 73 60q15 0 21 -2
q45 -13 45 -68q0 -66 -113 -160z" />
    <glyph glyph-name="uhorn" unicode="&#x1b0;" horiz-adv-x="782" 
d="M850 573q84 72 84 123q-1 49 -51 51q-39 0 -54 -45q-6 -21 0 -39q9 -20 23 -27q-28 -65 -126 -111q12 24 22 43q32 61 59 89q-64 -26 -154 -49l-45 -129l-33 -82q-98 -217 -217 -319q-61 -55 -92 -55q-26 0 -26 40q0 66 71 236q90 217 90 270q0 60 -75 60q-60 0 -113 -68
q-29 -39 -74 -131q-82 -160 -145 -250l20 -14q35 47 71 110.5t75 141.5q82 162 127 162q18 0 20 -29q0 -64 -100 -266q-31 -66 -47.5 -119t-16.5 -92q0 -84 80 -84q82 0 154 65q8 6 31.5 33t35.5 45q33 45 78 121q-33 -104 -33 -172q0 -92 62 -92q102 0 192 108
q70 82 199 322l-8 12q-8 6 -14 0q-138 -266 -234 -354q-65 -55 -94 -55q-27 0 -27 45q0 90 99 323q26 59 48 104q91 37 138 78z" />
    <glyph glyph-name="uni1EA0" unicode="&#x1ea0;" 
d="M1155 -173q-2 3 -6 3q-33 0 -94.5 -43t-61.5 -74q0 -17 14.5 -38.5t28.5 -21.5q33 0 55 56q21 43 35 82q31 43 31 34q-2 2 -2 5v-3zM1577 1143q-114 -133 -270 -332l-238 -10q27 78 27 149q0 135 -92 219q-90 78 -232 78q-143 0 -284 -86q-156 -94 -269 -274
q-18 266 195 483q238 244 621 223q223 -12 368 -127q156 -123 174 -323zM1528 827q-29 -4 -58.5 -6t-62.5 -4q47 60 89 111t79 96q-8 -92 -47 -197zM1043 801q-174 -10 -281 -19q-301 -30 -383 -192q-114 74 -147 215q143 252 352 354q188 90 336 23q149 -64 149 -238
q0 -70 -26 -143zM998 705q-84 -144 -264 -250q-113 -70 -197 -70q-94 0 -94 72q0 32 24 67q80 -24 185 -20q20 0 20 10t-22 10q-93 -2 -168 19q106 121 376 149q56 6 140 13zM1239 725q-186 -242 -298.5 -384t-151.5 -189q-45 -56 -80 -99t-62 -71q-47 -7 -90 -7
q-102 0 -188 37q-252 107 -252 394q0 161 86 344q53 -121 164 -185q-8 -24 -8 -55q0 -64 48 -108t128 -44q100 0 215 72q190 119 278 279q99 8 151 12t60 4zM1499 754q-18 -41 -39.5 -82t-48.5 -82q-286 -467 -663 -584q45 47 94 107q166 204 290 359t210 263q43 4 83 9.5
t74 9.5zM1903 846q92 33 174 72.5t156 91.5q311 213 311 413q0 93 -70.5 149t-181.5 56q-141 0 -285 -86q-163 -94 -391 -352q-31 199 -192 321q-160 117 -385 125q-396 15 -650 -219q-223 -209 -223 -483q0 -64 15 -115q-107 -198 -107 -393q0 -317 283 -442
q118 -50 260 -35q-228 -252 -424 -334q-117 -49 -254 -49q-146 0 -242 59q-108 66 -108 191q0 10 1 19t3 20q2 14 -13 14q-12 0 -14 -12q-6 -35 -6 -66q0 -135 104 -199q91 -59 238 -59q160 0 301 57q240 95 506 373q430 100 747 623q56 92 91 176q104 14 196 37
q-264 -348 -268 -623q0 -82 39 -135t117 -53q184 0 524 469q6 8 6 14q0 16 -18 16q-15 0 -21 -12q-125 -190 -264 -321q-135 -129 -213 -129q-66 0 -66 88q-2 190 273 649q12 20 24.5 40.5t26.5 43.5zM2323 1440l-252 -264q-86 -89 -153.5 -164.5t-121.5 -141.5
q-102 -22 -221 -36q45 129 49 245q250 287 416 385q158 90 289 90q86 0 138 -39.5t52 -109.5q0 -178 -311 -375q-123 -76 -264 -121q223 338 397 512q8 6 8 17q0 6 -6 10q-6 2 -20 -8z" />
    <glyph glyph-name="uni1EA1" unicode="&#x1ea1;" horiz-adv-x="649" 
d="M798 399q4 17 -12 17q-2 0 -6 -4q-109 -213 -203 -308q-68 -69 -107 -69q-28 0 -26 63q8 101 71 226q56 110 88.5 173.5t42.5 80.5q-32 -15 -66 -26t-73 -20q-35 -69 -56.5 -115t-31.5 -69q-160 -328 -244 -328q-53 0 -53 89q0 149 115 313q133 188 313 188q74 0 74 13
q0 6 -41 10q-14 2 -30.5 3t-37.5 1q-129 0 -244.5 -74t-181.5 -209q-59 -129 -59 -231q0 -133 121 -133q61 0 135 90q63 78 86 145q-18 -55 -18 -114q0 -119 79 -119q76 0 175 106q38 41 80 106.5t90 155.5q8 17 13 26t7 13zM332 -65q-2 3 -6 3q-33 0 -94 -43t-61 -74
q0 -17 14 -38.5t29 -21.5q32 0 55 56q20 43 35 82q30 43 30 34q-2 2 -2 5v-3z" />
    <glyph glyph-name="uni1EA2" unicode="&#x1ea2;" 
d="M1577 1143q-114 -133 -270 -332l-238 -10q27 78 27 149q0 135 -92 219q-90 78 -232 78q-143 0 -284 -86q-156 -94 -269 -274q-18 266 195 483q238 244 621 223q223 -12 368 -127q156 -123 174 -323zM1528 827q-29 -4 -58.5 -6t-62.5 -4q47 60 89 111t79 96
q-8 -92 -47 -197zM1043 801q-174 -10 -281 -19q-301 -30 -383 -192q-114 74 -147 215q143 252 352 354q188 90 336 23q149 -64 149 -238q0 -70 -26 -143zM998 705q-84 -144 -264 -250q-113 -70 -197 -70q-94 0 -94 72q0 32 24 67q80 -24 185 -20q20 0 20 10t-22 10
q-93 -2 -168 19q106 121 376 149q56 6 140 13zM1239 725q-186 -242 -298.5 -384t-151.5 -189q-45 -56 -80 -99t-62 -71q-47 -7 -90 -7q-102 0 -188 37q-252 107 -252 394q0 161 86 344q53 -121 164 -185q-8 -24 -8 -55q0 -64 48 -108t128 -44q100 0 215 72q190 119 278 279
q99 8 151 12t60 4zM1499 754q-18 -41 -39.5 -82t-48.5 -82q-286 -467 -663 -584q45 47 94 107q166 204 290 359t210 263q43 4 83 9.5t74 9.5zM1903 846q92 33 174 72.5t156 91.5q311 213 311 413q0 93 -70.5 149t-181.5 56q-141 0 -285 -86q-163 -94 -391 -352
q-31 199 -192 321q-160 117 -385 125q-396 15 -650 -219q-223 -209 -223 -483q0 -64 15 -115q-107 -198 -107 -393q0 -317 283 -442q118 -50 260 -35q-228 -252 -424 -334q-117 -49 -254 -49q-146 0 -242 59q-108 66 -108 191q0 10 1 19t3 20q2 14 -13 14q-12 0 -14 -12
q-6 -35 -6 -66q0 -135 104 -199q91 -59 238 -59q160 0 301 57q240 95 506 373q430 100 747 623q56 92 91 176q104 14 196 37q-264 -348 -268 -623q0 -82 39 -135t117 -53q184 0 524 469q6 8 6 14q0 16 -18 16q-15 0 -21 -12q-125 -190 -264 -321q-135 -129 -213 -129
q-66 0 -66 88q-2 190 273 649q12 20 24.5 40.5t26.5 43.5zM2323 1440l-252 -264q-86 -89 -153.5 -164.5t-121.5 -141.5q-102 -22 -221 -36q45 129 49 245q250 287 416 385q158 90 289 90q86 0 138 -39.5t52 -109.5q0 -178 -311 -375q-123 -76 -264 -121q223 338 397 512
q8 6 8 17q0 6 -6 10q-6 2 -20 -8zM2534 1901q-28 -13 -57 -26.5t-58 -26.5q-17 -8 -31.5 -18t-25.5 -20q-26 -24 -31 -40q-1 -8 -7 -24t-20 -20q-23 -7 -23 17q7 33 64 84q12 10 39 26.5t69 38.5q68 35 96 76q32 48 32 84q0 40 -43 39q-45 -2 -89 -31q-44 -30 -66 -76
q-11 -22 -11 -39q0 -25 17 -25q14 0 35 15q23 15 27 25q0 13 14 13q12 0 12 -10q0 -18 -36 -39q-30 -18 -55 -22q-23 0 -38 11q-22 13 -22 41q0 13 7 34q21 55 87 92q60 32 123 32q53 0 79.5 -20t26.5 -52q0 -27 -20 -61q-27 -42 -95 -78z" />
    <glyph glyph-name="uni1EA3" unicode="&#x1ea3;" horiz-adv-x="649" 
d="M798 399q4 17 -12 17q-2 0 -6 -4q-109 -213 -203 -308q-68 -69 -107 -69q-28 0 -26 63q8 101 71 226q56 110 88.5 173.5t42.5 80.5q-32 -15 -66 -26t-73 -20q-35 -69 -56.5 -115t-31.5 -69q-160 -328 -244 -328q-53 0 -53 89q0 149 115 313q133 188 313 188q74 0 74 13
q0 6 -41 10q-14 2 -30.5 3t-37.5 1q-129 0 -244.5 -74t-181.5 -209q-59 -129 -59 -231q0 -133 121 -133q61 0 135 90q63 78 86 145q-18 -55 -18 -114q0 -119 79 -119q76 0 175 106q38 41 80 106.5t90 155.5q8 17 13 26t7 13zM714 839q-23 -10 -46.5 -21t-46.5 -22
q-15 -6 -26.5 -14t-19.5 -16q-21 -20 -26 -33q0 -6 -5.5 -19t-15.5 -16q-19 -6 -19 13q6 27 51 68q11 9 32.5 22t55.5 31q54 28 78 62q26 38 26 68q0 32 -35 31q-36 -2 -72 -25q-36 -24 -53 -62q-9 -17 -9 -31q0 -20 13 -20q11 0 29 12t21 20q0 11 11 11q10 0 10 -9
q0 -14 -29 -31q-24 -15 -44 -18q-19 0 -32 9q-17 11 -17 33q0 11 5 28q18 44 71 74q49 26 100 26q42 0 64 -16t22 -42q0 -22 -17 -50q-21 -34 -76 -63z" />
    <glyph glyph-name="uni1EA4" unicode="&#x1ea4;" 
d="M2509 1861q8 0 18 6q54 31 124.5 71t162.5 87q70 32 70 69q0 33 -47 33q-43 0 -94 -41q-35 -27 -69 -52.5t-69 -51.5q-108 -86 -108 -107q0 -14 12 -14zM1577 1143q-114 -133 -270 -332l-238 -10q27 78 27 149q0 135 -92 219q-90 78 -232 78q-143 0 -284 -86
q-156 -94 -269 -274q-18 266 195 483q238 244 621 223q223 -12 368 -127q156 -123 174 -323zM1528 827q-29 -4 -58.5 -6t-62.5 -4q47 60 89 111t79 96q-8 -92 -47 -197zM1043 801q-174 -10 -281 -19q-301 -30 -383 -192q-114 74 -147 215q143 252 352 354q188 90 336 23
q149 -64 149 -238q0 -70 -26 -143zM998 705q-84 -144 -264 -250q-113 -70 -197 -70q-94 0 -94 72q0 32 24 67q80 -24 185 -20q20 0 20 10t-22 10q-93 -2 -168 19q106 121 376 149q56 6 140 13zM1239 725q-186 -242 -298.5 -384t-151.5 -189q-45 -56 -80 -99t-62 -71
q-47 -7 -90 -7q-102 0 -188 37q-252 107 -252 394q0 161 86 344q53 -121 164 -185q-8 -24 -8 -55q0 -64 48 -108t128 -44q100 0 215 72q190 119 278 279q99 8 151 12t60 4zM1499 754q-18 -41 -39.5 -82t-48.5 -82q-286 -467 -663 -584q45 47 94 107q166 204 290 359t210 263
q43 4 83 9.5t74 9.5zM1903 846q92 33 174 72.5t156 91.5q311 213 311 413q0 93 -70.5 149t-181.5 56q-141 0 -285 -86q-163 -94 -391 -352q-31 199 -192 321q-160 117 -385 125q-396 15 -650 -219q-223 -209 -223 -483q0 -64 15 -115q-107 -198 -107 -393q0 -317 283 -442
q118 -50 260 -35q-228 -252 -424 -334q-117 -49 -254 -49q-146 0 -242 59q-108 66 -108 191q0 10 1 19t3 20q2 14 -13 14q-12 0 -14 -12q-6 -35 -6 -66q0 -135 104 -199q91 -59 238 -59q160 0 301 57q240 95 506 373q430 100 747 623q56 92 91 176q104 14 196 37
q-264 -348 -268 -623q0 -82 39 -135t117 -53q184 0 524 469q6 8 6 14q0 16 -18 16q-15 0 -21 -12q-125 -190 -264 -321q-135 -129 -213 -129q-66 0 -66 88q-2 190 273 649q12 20 24.5 40.5t26.5 43.5zM2323 1440l-252 -264q-86 -89 -153.5 -164.5t-121.5 -141.5
q-102 -22 -221 -36q45 129 49 245q250 287 416 385q158 90 289 90q86 0 138 -39.5t52 -109.5q0 -178 -311 -375q-123 -76 -264 -121q223 338 397 512q8 6 8 17q0 6 -6 10q-6 2 -20 -8zM2022 1687l6 -14q43 2 172 74q121 67 162 106q174 -172 200 -172q19 0 19 21
q0 22 -103 125q-104 104 -129 106l-14 -4q-74 -68 -195 -154q-65 -41 -104 -67q-4 -6 -8 -11.5t-6 -9.5z" />
    <glyph glyph-name="uni1EA5" unicode="&#x1ea5;" horiz-adv-x="649" 
d="M681 886q18 0 139 73.5t121 88.5q0 22 -33 22q-22 0 -131 -78q-106 -75 -106 -96q0 -10 10 -10zM798 399q4 17 -12 17q-2 0 -6 -4q-109 -213 -203 -308q-68 -69 -107 -69q-28 0 -26 63q8 101 71 226q56 110 88.5 173.5t42.5 80.5q-32 -15 -66 -26t-73 -20
q-35 -69 -56.5 -115t-31.5 -69q-160 -328 -244 -328q-53 0 -53 89q0 149 115 313q133 188 313 188q74 0 74 13q0 6 -41 10q-14 2 -30.5 3t-37.5 1q-129 0 -244.5 -74t-181.5 -209q-59 -129 -59 -231q0 -133 121 -133q61 0 135 90q63 78 86 145q-18 -55 -18 -114
q0 -119 79 -119q76 0 175 106q38 41 80 106.5t90 155.5q8 17 13 26t7 13zM298 741l4 -12q17 2 52.5 16.5t89.5 42.5q51 27 84.5 47.5t52.5 36.5q119 -127 147 -137l17 17q0 22 -72 100q-72 80 -96 84q-4 -2 -7 -3l-3 -1q-15 -10 -24 -18.5t-17 -14.5q-41 -31 -84 -59
q-41 -27 -73 -47.5t-58 -36.5q-5 -4 -8 -8.5t-5 -6.5z" />
    <glyph glyph-name="uni1EA6" unicode="&#x1ea6;" 
d="M2136 1865q12 0 12 14q0 20 -108 104q-35 27 -69 52.5t-69 52.5q-49 43 -94 43q-47 0 -47 -33q0 -35 70 -72q178 -94 286 -155q9 -6 19 -6zM1577 1143q-114 -133 -270 -332l-238 -10q27 78 27 149q0 135 -92 219q-90 78 -232 78q-143 0 -284 -86q-156 -94 -269 -274
q-18 266 195 483q238 244 621 223q223 -12 368 -127q156 -123 174 -323zM1528 827q-29 -4 -58.5 -6t-62.5 -4q47 60 89 111t79 96q-8 -92 -47 -197zM1043 801q-174 -10 -281 -19q-301 -30 -383 -192q-114 74 -147 215q143 252 352 354q188 90 336 23q149 -64 149 -238
q0 -70 -26 -143zM998 705q-84 -144 -264 -250q-113 -70 -197 -70q-94 0 -94 72q0 32 24 67q80 -24 185 -20q20 0 20 10t-22 10q-93 -2 -168 19q106 121 376 149q56 6 140 13zM1239 725q-186 -242 -298.5 -384t-151.5 -189q-45 -56 -80 -99t-62 -71q-47 -7 -90 -7
q-102 0 -188 37q-252 107 -252 394q0 161 86 344q53 -121 164 -185q-8 -24 -8 -55q0 -64 48 -108t128 -44q100 0 215 72q190 119 278 279q99 8 151 12t60 4zM1499 754q-18 -41 -39.5 -82t-48.5 -82q-286 -467 -663 -584q45 47 94 107q166 204 290 359t210 263q43 4 83 9.5
t74 9.5zM1903 846q92 33 174 72.5t156 91.5q311 213 311 413q0 93 -70.5 149t-181.5 56q-141 0 -285 -86q-163 -94 -391 -352q-31 199 -192 321q-160 117 -385 125q-396 15 -650 -219q-223 -209 -223 -483q0 -64 15 -115q-107 -198 -107 -393q0 -317 283 -442
q118 -50 260 -35q-228 -252 -424 -334q-117 -49 -254 -49q-146 0 -242 59q-108 66 -108 191q0 10 1 19t3 20q2 14 -13 14q-12 0 -14 -12q-6 -35 -6 -66q0 -135 104 -199q91 -59 238 -59q160 0 301 57q240 95 506 373q430 100 747 623q56 92 91 176q104 14 196 37
q-264 -348 -268 -623q0 -82 39 -135t117 -53q184 0 524 469q6 8 6 14q0 16 -18 16q-15 0 -21 -12q-125 -190 -264 -321q-135 -129 -213 -129q-66 0 -66 88q-2 190 273 649q12 20 24.5 40.5t26.5 43.5zM2323 1440l-252 -264q-86 -89 -153.5 -164.5t-121.5 -141.5
q-102 -22 -221 -36q45 129 49 245q250 287 416 385q158 90 289 90q86 0 138 -39.5t52 -109.5q0 -178 -311 -375q-123 -76 -264 -121q223 338 397 512q8 6 8 17q0 6 -6 10q-6 2 -20 -8zM2022 1687l6 -14q43 2 172 74q121 67 162 106q174 -172 200 -172q19 0 19 21
q0 22 -103 125q-104 104 -129 106l-14 -4q-74 -68 -195 -154q-65 -41 -104 -67q-4 -6 -8 -11.5t-6 -9.5z" />
    <glyph glyph-name="uni1EA7" unicode="&#x1ea7;" horiz-adv-x="649" 
d="M732 909q10 0 10 12q0 18 -114.5 102t-139.5 84q-35 0 -35 -24q0 -17 129 -97q133 -77 150 -77zM798 399q4 17 -12 17q-2 0 -6 -4q-109 -213 -203 -308q-68 -69 -107 -69q-28 0 -26 63q8 101 71 226q56 110 88.5 173.5t42.5 80.5q-32 -15 -66 -26t-73 -20
q-35 -69 -56.5 -115t-31.5 -69q-160 -328 -244 -328q-53 0 -53 89q0 149 115 313q133 188 313 188q74 0 74 13q0 6 -41 10q-14 2 -30.5 3t-37.5 1q-129 0 -244.5 -74t-181.5 -209q-59 -129 -59 -231q0 -133 121 -133q61 0 135 90q63 78 86 145q-18 -55 -18 -114
q0 -119 79 -119q76 0 175 106q38 41 80 106.5t90 155.5q8 17 13 26t7 13zM298 741l4 -12q17 2 52.5 16.5t89.5 42.5q51 27 84.5 47.5t52.5 36.5q119 -127 147 -137l17 17q0 22 -72 100q-72 80 -96 84q-4 -2 -7 -3l-3 -1q-15 -10 -24 -18.5t-17 -14.5q-41 -31 -84 -59
q-41 -27 -73 -47.5t-58 -36.5q-5 -4 -8 -8.5t-5 -6.5z" />
    <glyph glyph-name="uni1EA8" unicode="&#x1ea8;" 
d="M1577 1143q-114 -133 -270 -332l-238 -10q27 78 27 149q0 135 -92 219q-90 78 -232 78q-143 0 -284 -86q-156 -94 -269 -274q-18 266 195 483q238 244 621 223q223 -12 368 -127q156 -123 174 -323zM1528 827q-29 -4 -58.5 -6t-62.5 -4q47 60 89 111t79 96
q-8 -92 -47 -197zM1043 801q-174 -10 -281 -19q-301 -30 -383 -192q-114 74 -147 215q143 252 352 354q188 90 336 23q149 -64 149 -238q0 -70 -26 -143zM998 705q-84 -144 -264 -250q-113 -70 -197 -70q-94 0 -94 72q0 32 24 67q80 -24 185 -20q20 0 20 10t-22 10
q-93 -2 -168 19q106 121 376 149q56 6 140 13zM1239 725q-186 -242 -298.5 -384t-151.5 -189q-45 -56 -80 -99t-62 -71q-47 -7 -90 -7q-102 0 -188 37q-252 107 -252 394q0 161 86 344q53 -121 164 -185q-8 -24 -8 -55q0 -64 48 -108t128 -44q100 0 215 72q190 119 278 279
q99 8 151 12t60 4zM1499 754q-18 -41 -39.5 -82t-48.5 -82q-286 -467 -663 -584q45 47 94 107q166 204 290 359t210 263q43 4 83 9.5t74 9.5zM1903 846q92 33 174 72.5t156 91.5q311 213 311 413q0 93 -70.5 149t-181.5 56q-141 0 -285 -86q-163 -94 -391 -352
q-31 199 -192 321q-160 117 -385 125q-396 15 -650 -219q-223 -209 -223 -483q0 -64 15 -115q-107 -198 -107 -393q0 -317 283 -442q118 -50 260 -35q-228 -252 -424 -334q-117 -49 -254 -49q-146 0 -242 59q-108 66 -108 191q0 10 1 19t3 20q2 14 -13 14q-12 0 -14 -12
q-6 -35 -6 -66q0 -135 104 -199q91 -59 238 -59q160 0 301 57q240 95 506 373q430 100 747 623q56 92 91 176q104 14 196 37q-264 -348 -268 -623q0 -82 39 -135t117 -53q184 0 524 469q6 8 6 14q0 16 -18 16q-15 0 -21 -12q-125 -190 -264 -321q-135 -129 -213 -129
q-66 0 -66 88q-2 190 273 649q12 20 24.5 40.5t26.5 43.5zM2323 1440l-252 -264q-86 -89 -153.5 -164.5t-121.5 -141.5q-102 -22 -221 -36q45 129 49 245q250 287 416 385q158 90 289 90q86 0 138 -39.5t52 -109.5q0 -178 -311 -375q-123 -76 -264 -121q223 338 397 512
q8 6 8 17q0 6 -6 10q-6 2 -20 -8zM2736 2028q-28 -13 -57 -26.5t-58 -26.5q-17 -8 -31.5 -18t-25.5 -20q-26 -24 -31 -40q-1 -8 -7 -24t-20 -20q-23 -7 -23 17q7 33 64 84q12 10 39 26.5t69 38.5q68 35 96 76q32 48 32 84q0 40 -43 39q-45 -2 -89 -31q-44 -30 -66 -76
q-11 -22 -11 -39q0 -25 17 -25q14 0 35 15q23 15 27 25q0 13 14 13q12 0 12 -10q0 -18 -36 -39q-30 -18 -55 -22q-23 0 -38 11q-22 13 -22 41q0 13 7 34q21 55 87 92q60 32 123 32q53 0 79.5 -20t26.5 -52q0 -27 -20 -61q-27 -42 -95 -78zM2022 1687l6 -14q43 2 172 74
q121 67 162 106q174 -172 200 -172q19 0 19 21q0 22 -103 125q-104 104 -129 106l-14 -4q-74 -68 -195 -154q-65 -41 -104 -67q-4 -6 -8 -11.5t-6 -9.5z" />
    <glyph glyph-name="uni1EA9" unicode="&#x1ea9;" horiz-adv-x="649" 
d="M798 399q4 17 -12 17q-2 0 -6 -4q-109 -213 -203 -308q-68 -69 -107 -69q-28 0 -26 63q8 101 71 226q56 110 88.5 173.5t42.5 80.5q-32 -15 -66 -26t-73 -20q-35 -69 -56.5 -115t-31.5 -69q-160 -328 -244 -328q-53 0 -53 89q0 149 115 313q133 188 313 188q74 0 74 13
q0 6 -41 10q-14 2 -30.5 3t-37.5 1q-129 0 -244.5 -74t-181.5 -209q-59 -129 -59 -231q0 -133 121 -133q61 0 135 90q63 78 86 145q-18 -55 -18 -114q0 -119 79 -119q76 0 175 106q38 41 80 106.5t90 155.5q8 17 13 26t7 13zM950 1093q17 28 17 50q0 26 -22 42t-64 16
q-51 0 -100 -26q-53 -30 -71 -74q-5 -17 -5 -28q0 -22 17 -33q13 -9 32 -9q20 3 44 18q29 17 29 31q0 9 -10 9q-11 0 -11 -11q-3 -8 -21 -20t-29 -12q-13 0 -13 20q0 14 9 31q17 38 53 62q36 23 72 25q35 1 35 -31q0 -30 -26 -68q-24 -34 -78 -62q-34 -18 -55.5 -31
t-32.5 -22q-45 -41 -51 -68q0 -19 19 -13q10 3 15.5 16t5.5 19q5 13 26 33q8 8 19.5 16t26.5 14q23 11 46.5 22t46.5 21q55 29 76 63zM298 741l4 -12q17 2 52.5 16.5t89.5 42.5q51 27 84.5 47.5t52.5 36.5q119 -127 147 -137l17 17q0 22 -72 100q-72 80 -96 84q-4 -2 -7 -3
l-3 -1q-15 -10 -24 -18.5t-17 -14.5q-41 -31 -84 -59q-41 -27 -73 -47.5t-58 -36.5q-5 -4 -8 -8.5t-5 -6.5z" />
    <glyph glyph-name="uni1EAA" unicode="&#x1eaa;" 
d="M1577 1143q-114 -133 -270 -332l-238 -10q27 78 27 149q0 135 -92 219q-90 78 -232 78q-143 0 -284 -86q-156 -94 -269 -274q-18 266 195 483q238 244 621 223q223 -12 368 -127q156 -123 174 -323zM1528 827q-29 -4 -58.5 -6t-62.5 -4q47 60 89 111t79 96
q-8 -92 -47 -197zM1043 801q-174 -10 -281 -19q-301 -30 -383 -192q-114 74 -147 215q143 252 352 354q188 90 336 23q149 -64 149 -238q0 -70 -26 -143zM998 705q-84 -144 -264 -250q-113 -70 -197 -70q-94 0 -94 72q0 32 24 67q80 -24 185 -20q20 0 20 10t-22 10
q-93 -2 -168 19q106 121 376 149q56 6 140 13zM1239 725q-186 -242 -298.5 -384t-151.5 -189q-45 -56 -80 -99t-62 -71q-47 -7 -90 -7q-102 0 -188 37q-252 107 -252 394q0 161 86 344q53 -121 164 -185q-8 -24 -8 -55q0 -64 48 -108t128 -44q100 0 215 72q190 119 278 279
q99 8 151 12t60 4zM1499 754q-18 -41 -39.5 -82t-48.5 -82q-286 -467 -663 -584q45 47 94 107q166 204 290 359t210 263q43 4 83 9.5t74 9.5zM1903 846q92 33 174 72.5t156 91.5q311 213 311 413q0 93 -70.5 149t-181.5 56q-141 0 -285 -86q-163 -94 -391 -352
q-31 199 -192 321q-160 117 -385 125q-396 15 -650 -219q-223 -209 -223 -483q0 -64 15 -115q-107 -198 -107 -393q0 -317 283 -442q118 -50 260 -35q-228 -252 -424 -334q-117 -49 -254 -49q-146 0 -242 59q-108 66 -108 191q0 10 1 19t3 20q2 14 -13 14q-12 0 -14 -12
q-6 -35 -6 -66q0 -135 104 -199q91 -59 238 -59q160 0 301 57q240 95 506 373q430 100 747 623q56 92 91 176q104 14 196 37q-264 -348 -268 -623q0 -82 39 -135t117 -53q184 0 524 469q6 8 6 14q0 16 -18 16q-15 0 -21 -12q-125 -190 -264 -321q-135 -129 -213 -129
q-66 0 -66 88q-2 190 273 649q12 20 24.5 40.5t26.5 43.5zM2323 1440l-252 -264q-86 -89 -153.5 -164.5t-121.5 -141.5q-102 -22 -221 -36q45 129 49 245q250 287 416 385q158 90 289 90q86 0 138 -39.5t52 -109.5q0 -178 -311 -375q-123 -76 -264 -121q223 338 397 512
q8 6 8 17q0 6 -6 10q-6 2 -20 -8zM2022 1687l6 -14q43 2 172 74q121 67 162 106q174 -172 200 -172q19 0 19 21q0 22 -103 125q-104 104 -129 106l-14 -4q-74 -68 -195 -154q-65 -41 -104 -67q-4 -6 -8 -11.5t-6 -9.5zM2752 2060l-35 -34q-35 -35 -92 -35q-47 0 -143.5 38
t-143.5 38q-37 0 -94 -41t-57 -78q4 -8 8 -8l28 32q27 33 82 33q56 0 147 -38t136 -38l37 7q33 6 80 47q53 41 53 71z" />
    <glyph glyph-name="uni1EAB" unicode="&#x1eab;" horiz-adv-x="649" 
d="M798 399q4 17 -12 17q-2 0 -6 -4q-109 -213 -203 -308q-68 -69 -107 -69q-28 0 -26 63q8 101 71 226q56 110 88.5 173.5t42.5 80.5q-32 -15 -66 -26t-73 -20q-35 -69 -56.5 -115t-31.5 -69q-160 -328 -244 -328q-53 0 -53 89q0 149 115 313q133 188 313 188q74 0 74 13
q0 6 -41 10q-14 2 -30.5 3t-37.5 1q-129 0 -244.5 -74t-181.5 -209q-59 -129 -59 -231q0 -133 121 -133q61 0 135 90q63 78 86 145q-18 -55 -18 -114q0 -119 79 -119q76 0 175 106q38 41 80 106.5t90 155.5q8 17 13 26t7 13zM924 1051l-30 -31q-31 -30 -80 -30
q-41 0 -124 33t-124 33q-31 0 -80.5 -35.5t-49.5 -67.5q3 -7 7 -7l24 29q23 28 71 28t126.5 -33t117.5 -33l32 6q28 5 69 40q46 36 46 62zM298 741l4 -12q17 2 52.5 16.5t89.5 42.5q51 27 84.5 47.5t52.5 36.5q119 -127 147 -137l17 17q0 22 -72 100q-72 80 -96 84
q-4 -2 -7 -3l-3 -1q-15 -10 -24 -18.5t-17 -14.5q-41 -31 -84 -59q-41 -27 -73 -47.5t-58 -36.5q-5 -4 -8 -8.5t-5 -6.5z" />
    <glyph glyph-name="uni1EAC" unicode="&#x1eac;" 
d="M1155 -173q-2 3 -6 3q-33 0 -94.5 -43t-61.5 -74q0 -17 14.5 -38.5t28.5 -21.5q33 0 55 56q21 43 35 82q31 43 31 34q-2 2 -2 5v-3zM1577 1143q-114 -133 -270 -332l-238 -10q27 78 27 149q0 135 -92 219q-90 78 -232 78q-143 0 -284 -86q-156 -94 -269 -274
q-18 266 195 483q238 244 621 223q223 -12 368 -127q156 -123 174 -323zM1528 827q-29 -4 -58.5 -6t-62.5 -4q47 60 89 111t79 96q-8 -92 -47 -197zM1043 801q-174 -10 -281 -19q-301 -30 -383 -192q-114 74 -147 215q143 252 352 354q188 90 336 23q149 -64 149 -238
q0 -70 -26 -143zM998 705q-84 -144 -264 -250q-113 -70 -197 -70q-94 0 -94 72q0 32 24 67q80 -24 185 -20q20 0 20 10t-22 10q-93 -2 -168 19q106 121 376 149q56 6 140 13zM1239 725q-186 -242 -298.5 -384t-151.5 -189q-45 -56 -80 -99t-62 -71q-47 -7 -90 -7
q-102 0 -188 37q-252 107 -252 394q0 161 86 344q53 -121 164 -185q-8 -24 -8 -55q0 -64 48 -108t128 -44q100 0 215 72q190 119 278 279q99 8 151 12t60 4zM1499 754q-18 -41 -39.5 -82t-48.5 -82q-286 -467 -663 -584q45 47 94 107q166 204 290 359t210 263q43 4 83 9.5
t74 9.5zM1903 846q92 33 174 72.5t156 91.5q311 213 311 413q0 93 -70.5 149t-181.5 56q-141 0 -285 -86q-163 -94 -391 -352q-31 199 -192 321q-160 117 -385 125q-396 15 -650 -219q-223 -209 -223 -483q0 -64 15 -115q-107 -198 -107 -393q0 -317 283 -442
q118 -50 260 -35q-228 -252 -424 -334q-117 -49 -254 -49q-146 0 -242 59q-108 66 -108 191q0 10 1 19t3 20q2 14 -13 14q-12 0 -14 -12q-6 -35 -6 -66q0 -135 104 -199q91 -59 238 -59q160 0 301 57q240 95 506 373q430 100 747 623q56 92 91 176q104 14 196 37
q-264 -348 -268 -623q0 -82 39 -135t117 -53q184 0 524 469q6 8 6 14q0 16 -18 16q-15 0 -21 -12q-125 -190 -264 -321q-135 -129 -213 -129q-66 0 -66 88q-2 190 273 649q12 20 24.5 40.5t26.5 43.5zM2323 1440l-252 -264q-86 -89 -153.5 -164.5t-121.5 -141.5
q-102 -22 -221 -36q45 129 49 245q250 287 416 385q158 90 289 90q86 0 138 -39.5t52 -109.5q0 -178 -311 -375q-123 -76 -264 -121q223 338 397 512q8 6 8 17q0 6 -6 10q-6 2 -20 -8zM2022 1687l6 -14q43 2 172 74q121 67 162 106q174 -172 200 -172q19 0 19 21
q0 22 -103 125q-104 104 -129 106l-14 -4q-74 -68 -195 -154q-65 -41 -104 -67q-4 -6 -8 -11.5t-6 -9.5z" />
    <glyph glyph-name="uni1EAD" unicode="&#x1ead;" horiz-adv-x="649" 
d="M798 399q4 17 -12 17q-2 0 -6 -4q-109 -213 -203 -308q-68 -69 -107 -69q-28 0 -26 63q8 101 71 226q56 110 88.5 173.5t42.5 80.5q-32 -15 -66 -26t-73 -20q-35 -69 -56.5 -115t-31.5 -69q-160 -328 -244 -328q-53 0 -53 89q0 149 115 313q133 188 313 188q74 0 74 13
q0 6 -41 10q-14 2 -30.5 3t-37.5 1q-129 0 -244.5 -74t-181.5 -209q-59 -129 -59 -231q0 -133 121 -133q61 0 135 90q63 78 86 145q-18 -55 -18 -114q0 -119 79 -119q76 0 175 106q38 41 80 106.5t90 155.5q8 17 13 26t7 13zM332 -65q-2 3 -6 3q-33 0 -94 -43t-61 -74
q0 -17 14 -38.5t29 -21.5q32 0 55 56q20 43 35 82q30 43 30 34q-2 2 -2 5v-3zM298 741l4 -12q17 2 52.5 16.5t89.5 42.5q51 27 84.5 47.5t52.5 36.5q119 -127 147 -137l17 17q0 22 -72 100q-72 80 -96 84q-4 -2 -7 -3l-3 -1q-15 -10 -24 -18.5t-17 -14.5q-41 -31 -84 -59
q-41 -27 -73 -47.5t-58 -36.5q-5 -4 -8 -8.5t-5 -6.5z" />
    <glyph glyph-name="uni1EAE" unicode="&#x1eae;" 
d="M2369 1861q8 0 18 6q54 31 124.5 71t162.5 87q70 32 70 69q0 33 -47 33q-43 0 -94 -41q-35 -27 -69 -52.5t-69 -51.5q-108 -86 -108 -107q0 -14 12 -14zM1577 1143q-114 -133 -270 -332l-238 -10q27 78 27 149q0 135 -92 219q-90 78 -232 78q-143 0 -284 -86
q-156 -94 -269 -274q-18 266 195 483q238 244 621 223q223 -12 368 -127q156 -123 174 -323zM1528 827q-29 -4 -58.5 -6t-62.5 -4q47 60 89 111t79 96q-8 -92 -47 -197zM1043 801q-174 -10 -281 -19q-301 -30 -383 -192q-114 74 -147 215q143 252 352 354q188 90 336 23
q149 -64 149 -238q0 -70 -26 -143zM998 705q-84 -144 -264 -250q-113 -70 -197 -70q-94 0 -94 72q0 32 24 67q80 -24 185 -20q20 0 20 10t-22 10q-93 -2 -168 19q106 121 376 149q56 6 140 13zM1239 725q-186 -242 -298.5 -384t-151.5 -189q-45 -56 -80 -99t-62 -71
q-47 -7 -90 -7q-102 0 -188 37q-252 107 -252 394q0 161 86 344q53 -121 164 -185q-8 -24 -8 -55q0 -64 48 -108t128 -44q100 0 215 72q190 119 278 279q99 8 151 12t60 4zM1499 754q-18 -41 -39.5 -82t-48.5 -82q-286 -467 -663 -584q45 47 94 107q166 204 290 359t210 263
q43 4 83 9.5t74 9.5zM1903 846q92 33 174 72.5t156 91.5q311 213 311 413q0 93 -70.5 149t-181.5 56q-141 0 -285 -86q-163 -94 -391 -352q-31 199 -192 321q-160 117 -385 125q-396 15 -650 -219q-223 -209 -223 -483q0 -64 15 -115q-107 -198 -107 -393q0 -317 283 -442
q118 -50 260 -35q-228 -252 -424 -334q-117 -49 -254 -49q-146 0 -242 59q-108 66 -108 191q0 10 1 19t3 20q2 14 -13 14q-12 0 -14 -12q-6 -35 -6 -66q0 -135 104 -199q91 -59 238 -59q160 0 301 57q240 95 506 373q430 100 747 623q56 92 91 176q104 14 196 37
q-264 -348 -268 -623q0 -82 39 -135t117 -53q184 0 524 469q6 8 6 14q0 16 -18 16q-15 0 -21 -12q-125 -190 -264 -321q-135 -129 -213 -129q-66 0 -66 88q-2 190 273 649q12 20 24.5 40.5t26.5 43.5zM2323 1440l-252 -264q-86 -89 -153.5 -164.5t-121.5 -141.5
q-102 -22 -221 -36q45 129 49 245q250 287 416 385q158 90 289 90q86 0 138 -39.5t52 -109.5q0 -178 -311 -375q-123 -76 -264 -121q223 338 397 512q8 6 8 17q0 6 -6 10q-6 2 -20 -8zM2622 1906h33q-37 -50 -137 -112q-115 -73 -235 -73q-76 0 -111 33q-12 0 -43 72
q-4 8 -4 28q0 35 24 83h27q-12 -30 -12 -43v-18l2 1q0 -94 149 -94q105 0 176 38z" />
    <glyph glyph-name="uni1EAF" unicode="&#x1eaf;" horiz-adv-x="649" 
d="M601 853q18 0 139 73.5t121 88.5q0 22 -33 22q-22 0 -131 -78q-106 -75 -106 -96q0 -10 10 -10zM798 399q4 17 -12 17q-2 0 -6 -4q-109 -213 -203 -308q-68 -69 -107 -69q-28 0 -26 63q8 101 71 226q56 110 88.5 173.5t42.5 80.5q-32 -15 -66 -26t-73 -20
q-35 -69 -56.5 -115t-31.5 -69q-160 -328 -244 -328q-53 0 -53 89q0 149 115 313q133 188 313 188q74 0 74 13q0 6 -41 10q-14 2 -30.5 3t-37.5 1q-129 0 -244.5 -74t-181.5 -209q-59 -129 -59 -231q0 -133 121 -133q61 0 135 90q63 78 86 145q-18 -55 -18 -114
q0 -119 79 -119q76 0 175 106q38 41 80 106.5t90 155.5q8 17 13 26t7 13zM712 800q-51 -27 -125 -27q-104 0 -104 74h-2q0 -5 0 8q0 10 10 34h-29q-19 -38 -19 -65q0 -15 3 -21q23 -56 33 -56q26 -25 84 -25q90 0 176 56q74 47 102 88h-32z" />
    <glyph glyph-name="uni1EB0" unicode="&#x1eb0;" 
d="M2397 1865q12 0 12 14q0 20 -108 104q-35 27 -69 52.5t-69 52.5q-49 43 -94 43q-47 0 -47 -33q0 -35 70 -72q178 -94 286 -155q9 -6 19 -6zM1577 1143q-114 -133 -270 -332l-238 -10q27 78 27 149q0 135 -92 219q-90 78 -232 78q-143 0 -284 -86q-156 -94 -269 -274
q-18 266 195 483q238 244 621 223q223 -12 368 -127q156 -123 174 -323zM1528 827q-29 -4 -58.5 -6t-62.5 -4q47 60 89 111t79 96q-8 -92 -47 -197zM1043 801q-174 -10 -281 -19q-301 -30 -383 -192q-114 74 -147 215q143 252 352 354q188 90 336 23q149 -64 149 -238
q0 -70 -26 -143zM998 705q-84 -144 -264 -250q-113 -70 -197 -70q-94 0 -94 72q0 32 24 67q80 -24 185 -20q20 0 20 10t-22 10q-93 -2 -168 19q106 121 376 149q56 6 140 13zM1239 725q-186 -242 -298.5 -384t-151.5 -189q-45 -56 -80 -99t-62 -71q-47 -7 -90 -7
q-102 0 -188 37q-252 107 -252 394q0 161 86 344q53 -121 164 -185q-8 -24 -8 -55q0 -64 48 -108t128 -44q100 0 215 72q190 119 278 279q99 8 151 12t60 4zM1499 754q-18 -41 -39.5 -82t-48.5 -82q-286 -467 -663 -584q45 47 94 107q166 204 290 359t210 263q43 4 83 9.5
t74 9.5zM1903 846q92 33 174 72.5t156 91.5q311 213 311 413q0 93 -70.5 149t-181.5 56q-141 0 -285 -86q-163 -94 -391 -352q-31 199 -192 321q-160 117 -385 125q-396 15 -650 -219q-223 -209 -223 -483q0 -64 15 -115q-107 -198 -107 -393q0 -317 283 -442
q118 -50 260 -35q-228 -252 -424 -334q-117 -49 -254 -49q-146 0 -242 59q-108 66 -108 191q0 10 1 19t3 20q2 14 -13 14q-12 0 -14 -12q-6 -35 -6 -66q0 -135 104 -199q91 -59 238 -59q160 0 301 57q240 95 506 373q430 100 747 623q56 92 91 176q104 14 196 37
q-264 -348 -268 -623q0 -82 39 -135t117 -53q184 0 524 469q6 8 6 14q0 16 -18 16q-15 0 -21 -12q-125 -190 -264 -321q-135 -129 -213 -129q-66 0 -66 88q-2 190 273 649q12 20 24.5 40.5t26.5 43.5zM2323 1440l-252 -264q-86 -89 -153.5 -164.5t-121.5 -141.5
q-102 -22 -221 -36q45 129 49 245q250 287 416 385q158 90 289 90q86 0 138 -39.5t52 -109.5q0 -178 -311 -375q-123 -76 -264 -121q223 338 397 512q8 6 8 17q0 6 -6 10q-6 2 -20 -8zM2622 1906h33q-37 -50 -137 -112q-115 -73 -235 -73q-76 0 -111 33q-12 0 -43 72
q-4 8 -4 28q0 35 24 83h27q-12 -30 -12 -43v-18l2 1q0 -94 149 -94q105 0 176 38z" />
    <glyph glyph-name="uni1EB1" unicode="&#x1eb1;" horiz-adv-x="649" 
d="M678 850q10 0 10 12q0 18 -114.5 102t-139.5 84q-35 0 -35 -24q0 -17 129 -97q133 -77 150 -77zM798 399q4 17 -12 17q-2 0 -6 -4q-109 -213 -203 -308q-68 -69 -107 -69q-28 0 -26 63q8 101 71 226q56 110 88.5 173.5t42.5 80.5q-32 -15 -66 -26t-73 -20
q-35 -69 -56.5 -115t-31.5 -69q-160 -328 -244 -328q-53 0 -53 89q0 149 115 313q133 188 313 188q74 0 74 13q0 6 -41 10q-14 2 -30.5 3t-37.5 1q-129 0 -244.5 -74t-181.5 -209q-59 -129 -59 -231q0 -133 121 -133q61 0 135 90q63 78 86 145q-18 -55 -18 -114
q0 -119 79 -119q76 0 175 106q38 41 80 106.5t90 155.5q8 17 13 26t7 13zM712 800q-51 -27 -125 -27q-104 0 -104 74h-2q0 -5 0 8q0 10 10 34h-29q-19 -38 -19 -65q0 -15 3 -21q23 -56 33 -56q26 -25 84 -25q90 0 176 56q74 47 102 88h-32z" />
    <glyph glyph-name="uni1EB2" unicode="&#x1eb2;" 
d="M1577 1143q-114 -133 -270 -332l-238 -10q27 78 27 149q0 135 -92 219q-90 78 -232 78q-143 0 -284 -86q-156 -94 -269 -274q-18 266 195 483q238 244 621 223q223 -12 368 -127q156 -123 174 -323zM1528 827q-29 -4 -58.5 -6t-62.5 -4q47 60 89 111t79 96
q-8 -92 -47 -197zM1043 801q-174 -10 -281 -19q-301 -30 -383 -192q-114 74 -147 215q143 252 352 354q188 90 336 23q149 -64 149 -238q0 -70 -26 -143zM998 705q-84 -144 -264 -250q-113 -70 -197 -70q-94 0 -94 72q0 32 24 67q80 -24 185 -20q20 0 20 10t-22 10
q-93 -2 -168 19q106 121 376 149q56 6 140 13zM1239 725q-186 -242 -298.5 -384t-151.5 -189q-45 -56 -80 -99t-62 -71q-47 -7 -90 -7q-102 0 -188 37q-252 107 -252 394q0 161 86 344q53 -121 164 -185q-8 -24 -8 -55q0 -64 48 -108t128 -44q100 0 215 72q190 119 278 279
q99 8 151 12t60 4zM1499 754q-18 -41 -39.5 -82t-48.5 -82q-286 -467 -663 -584q45 47 94 107q166 204 290 359t210 263q43 4 83 9.5t74 9.5zM1903 846q92 33 174 72.5t156 91.5q311 213 311 413q0 93 -70.5 149t-181.5 56q-141 0 -285 -86q-163 -94 -391 -352
q-31 199 -192 321q-160 117 -385 125q-396 15 -650 -219q-223 -209 -223 -483q0 -64 15 -115q-107 -198 -107 -393q0 -317 283 -442q118 -50 260 -35q-228 -252 -424 -334q-117 -49 -254 -49q-146 0 -242 59q-108 66 -108 191q0 10 1 19t3 20q2 14 -13 14q-12 0 -14 -12
q-6 -35 -6 -66q0 -135 104 -199q91 -59 238 -59q160 0 301 57q240 95 506 373q430 100 747 623q56 92 91 176q104 14 196 37q-264 -348 -268 -623q0 -82 39 -135t117 -53q184 0 524 469q6 8 6 14q0 16 -18 16q-15 0 -21 -12q-125 -190 -264 -321q-135 -129 -213 -129
q-66 0 -66 88q-2 190 273 649q12 20 24.5 40.5t26.5 43.5zM2323 1440l-252 -264q-86 -89 -153.5 -164.5t-121.5 -141.5q-102 -22 -221 -36q45 129 49 245q250 287 416 385q158 90 289 90q86 0 138 -39.5t52 -109.5q0 -178 -311 -375q-123 -76 -264 -121q223 338 397 512
q8 6 8 17q0 6 -6 10q-6 2 -20 -8zM2590 2028q-28 -13 -57 -26.5t-58 -26.5q-17 -8 -31.5 -18t-25.5 -20q-26 -24 -31 -40q-1 -8 -7 -24t-20 -20q-23 -7 -23 17q7 33 64 84q12 10 39 26.5t69 38.5q68 35 96 76q32 48 32 84q0 40 -43 39q-45 -2 -89 -31q-44 -30 -66 -76
q-11 -22 -11 -39q0 -25 17 -25q14 0 35 15q23 15 27 25q0 13 14 13q12 0 12 -10q0 -18 -36 -39q-30 -18 -55 -22q-23 0 -38 11q-22 13 -22 41q0 13 7 34q21 55 87 92q60 32 123 32q53 0 79.5 -20t26.5 -52q0 -27 -20 -61q-27 -42 -95 -78zM2622 1906h33q-37 -50 -137 -112
q-115 -73 -235 -73q-76 0 -111 33q-12 0 -43 72q-4 8 -4 28q0 35 24 83h27q-12 -30 -12 -43v-18l2 1q0 -94 149 -94q105 0 176 38z" />
    <glyph glyph-name="uni1EB3" unicode="&#x1eb3;" horiz-adv-x="649" 
d="M798 399q4 17 -12 17q-2 0 -6 -4q-109 -213 -203 -308q-68 -69 -107 -69q-28 0 -26 63q8 101 71 226q56 110 88.5 173.5t42.5 80.5q-32 -15 -66 -26t-73 -20q-35 -69 -56.5 -115t-31.5 -69q-160 -328 -244 -328q-53 0 -53 89q0 149 115 313q133 188 313 188q74 0 74 13
q0 6 -41 10q-14 2 -30.5 3t-37.5 1q-129 0 -244.5 -74t-181.5 -209q-59 -129 -59 -231q0 -133 121 -133q61 0 135 90q63 78 86 145q-18 -55 -18 -114q0 -119 79 -119q76 0 175 106q38 41 80 106.5t90 155.5q8 17 13 26t7 13zM879 1043q17 28 17 50q0 26 -22 42t-64 16
q-51 0 -100 -26q-53 -30 -71 -74q-5 -17 -5 -28q0 -22 17 -33q13 -9 32 -9q20 3 44 18q29 17 29 31q0 9 -10 9q-11 0 -11 -11q-3 -8 -21 -20t-29 -12q-13 0 -13 20q0 14 9 31q17 38 53 62q36 23 72 25q35 1 35 -31q0 -30 -26 -68q-24 -34 -78 -62q-34 -18 -55.5 -31
t-32.5 -22q-45 -41 -51 -68q0 -19 19 -13q10 3 15.5 16t5.5 19q5 13 26 33q8 8 19.5 16t26.5 14q23 11 46.5 22t46.5 21q55 29 76 63zM712 800q-51 -27 -125 -27q-104 0 -104 74h-2q0 -5 0 8q0 10 10 34h-29q-19 -38 -19 -65q0 -15 3 -21q23 -56 33 -56q26 -25 84 -25
q90 0 176 56q74 47 102 88h-32z" />
    <glyph glyph-name="uni1EB4" unicode="&#x1eb4;" 
d="M1577 1143q-114 -133 -270 -332l-238 -10q27 78 27 149q0 135 -92 219q-90 78 -232 78q-143 0 -284 -86q-156 -94 -269 -274q-18 266 195 483q238 244 621 223q223 -12 368 -127q156 -123 174 -323zM1528 827q-29 -4 -58.5 -6t-62.5 -4q47 60 89 111t79 96
q-8 -92 -47 -197zM1043 801q-174 -10 -281 -19q-301 -30 -383 -192q-114 74 -147 215q143 252 352 354q188 90 336 23q149 -64 149 -238q0 -70 -26 -143zM998 705q-84 -144 -264 -250q-113 -70 -197 -70q-94 0 -94 72q0 32 24 67q80 -24 185 -20q20 0 20 10t-22 10
q-93 -2 -168 19q106 121 376 149q56 6 140 13zM1239 725q-186 -242 -298.5 -384t-151.5 -189q-45 -56 -80 -99t-62 -71q-47 -7 -90 -7q-102 0 -188 37q-252 107 -252 394q0 161 86 344q53 -121 164 -185q-8 -24 -8 -55q0 -64 48 -108t128 -44q100 0 215 72q190 119 278 279
q99 8 151 12t60 4zM1499 754q-18 -41 -39.5 -82t-48.5 -82q-286 -467 -663 -584q45 47 94 107q166 204 290 359t210 263q43 4 83 9.5t74 9.5zM1903 846q92 33 174 72.5t156 91.5q311 213 311 413q0 93 -70.5 149t-181.5 56q-141 0 -285 -86q-163 -94 -391 -352
q-31 199 -192 321q-160 117 -385 125q-396 15 -650 -219q-223 -209 -223 -483q0 -64 15 -115q-107 -198 -107 -393q0 -317 283 -442q118 -50 260 -35q-228 -252 -424 -334q-117 -49 -254 -49q-146 0 -242 59q-108 66 -108 191q0 10 1 19t3 20q2 14 -13 14q-12 0 -14 -12
q-6 -35 -6 -66q0 -135 104 -199q91 -59 238 -59q160 0 301 57q240 95 506 373q430 100 747 623q56 92 91 176q104 14 196 37q-264 -348 -268 -623q0 -82 39 -135t117 -53q184 0 524 469q6 8 6 14q0 16 -18 16q-15 0 -21 -12q-125 -190 -264 -321q-135 -129 -213 -129
q-66 0 -66 88q-2 190 273 649q12 20 24.5 40.5t26.5 43.5zM2323 1440l-252 -264q-86 -89 -153.5 -164.5t-121.5 -141.5q-102 -22 -221 -36q45 129 49 245q250 287 416 385q158 90 289 90q86 0 138 -39.5t52 -109.5q0 -178 -311 -375q-123 -76 -264 -121q223 338 397 512
q8 6 8 17q0 6 -6 10q-6 2 -20 -8zM2622 1906h33q-37 -50 -137 -112q-115 -73 -235 -73q-76 0 -111 33q-12 0 -43 72q-4 8 -4 28q0 35 24 83h27q-12 -30 -12 -43v-18l2 1q0 -94 149 -94q105 0 176 38zM2782 2090l-35 -34q-35 -35 -92 -35q-47 0 -143.5 38t-143.5 38
q-37 0 -94 -41t-57 -78q4 -8 8 -8l28 32q27 33 82 33q56 0 147 -38t136 -38l37 7q33 6 80 47q53 41 53 71z" />
    <glyph glyph-name="uni1EB5" unicode="&#x1eb5;" horiz-adv-x="649" 
d="M798 399q4 17 -12 17q-2 0 -6 -4q-109 -213 -203 -308q-68 -69 -107 -69q-28 0 -26 63q8 101 71 226q56 110 88.5 173.5t42.5 80.5q-32 -15 -66 -26t-73 -20q-35 -69 -56.5 -115t-31.5 -69q-160 -328 -244 -328q-53 0 -53 89q0 149 115 313q133 188 313 188q74 0 74 13
q0 6 -41 10q-14 2 -30.5 3t-37.5 1q-129 0 -244.5 -74t-181.5 -209q-59 -129 -59 -231q0 -133 121 -133q61 0 135 90q63 78 86 145q-18 -55 -18 -114q0 -119 79 -119q76 0 175 106q38 41 80 106.5t90 155.5q8 17 13 26t7 13zM989 1022l-30 -31q-31 -30 -80 -30
q-41 0 -124 33t-124 33q-31 0 -80.5 -35.5t-49.5 -67.5q3 -7 7 -7l24 29q23 28 71 28t126.5 -33t117.5 -33l32 6q28 5 69 40q46 36 46 62zM712 800q-51 -27 -125 -27q-104 0 -104 74h-2q0 -5 0 8q0 10 10 34h-29q-19 -38 -19 -65q0 -15 3 -21q23 -56 33 -56q26 -25 84 -25
q90 0 176 56q74 47 102 88h-32z" />
    <glyph glyph-name="uni1EB6" unicode="&#x1eb6;" 
d="M1155 -173q-2 3 -6 3q-33 0 -94.5 -43t-61.5 -74q0 -17 14.5 -38.5t28.5 -21.5q33 0 55 56q21 43 35 82q31 43 31 34q-2 2 -2 5v-3zM1577 1143q-114 -133 -270 -332l-238 -10q27 78 27 149q0 135 -92 219q-90 78 -232 78q-143 0 -284 -86q-156 -94 -269 -274
q-18 266 195 483q238 244 621 223q223 -12 368 -127q156 -123 174 -323zM1528 827q-29 -4 -58.5 -6t-62.5 -4q47 60 89 111t79 96q-8 -92 -47 -197zM1043 801q-174 -10 -281 -19q-301 -30 -383 -192q-114 74 -147 215q143 252 352 354q188 90 336 23q149 -64 149 -238
q0 -70 -26 -143zM998 705q-84 -144 -264 -250q-113 -70 -197 -70q-94 0 -94 72q0 32 24 67q80 -24 185 -20q20 0 20 10t-22 10q-93 -2 -168 19q106 121 376 149q56 6 140 13zM1239 725q-186 -242 -298.5 -384t-151.5 -189q-45 -56 -80 -99t-62 -71q-47 -7 -90 -7
q-102 0 -188 37q-252 107 -252 394q0 161 86 344q53 -121 164 -185q-8 -24 -8 -55q0 -64 48 -108t128 -44q100 0 215 72q190 119 278 279q99 8 151 12t60 4zM1499 754q-18 -41 -39.5 -82t-48.5 -82q-286 -467 -663 -584q45 47 94 107q166 204 290 359t210 263q43 4 83 9.5
t74 9.5zM1903 846q92 33 174 72.5t156 91.5q311 213 311 413q0 93 -70.5 149t-181.5 56q-141 0 -285 -86q-163 -94 -391 -352q-31 199 -192 321q-160 117 -385 125q-396 15 -650 -219q-223 -209 -223 -483q0 -64 15 -115q-107 -198 -107 -393q0 -317 283 -442
q118 -50 260 -35q-228 -252 -424 -334q-117 -49 -254 -49q-146 0 -242 59q-108 66 -108 191q0 10 1 19t3 20q2 14 -13 14q-12 0 -14 -12q-6 -35 -6 -66q0 -135 104 -199q91 -59 238 -59q160 0 301 57q240 95 506 373q430 100 747 623q56 92 91 176q104 14 196 37
q-264 -348 -268 -623q0 -82 39 -135t117 -53q184 0 524 469q6 8 6 14q0 16 -18 16q-15 0 -21 -12q-125 -190 -264 -321q-135 -129 -213 -129q-66 0 -66 88q-2 190 273 649q12 20 24.5 40.5t26.5 43.5zM2323 1440l-252 -264q-86 -89 -153.5 -164.5t-121.5 -141.5
q-102 -22 -221 -36q45 129 49 245q250 287 416 385q158 90 289 90q86 0 138 -39.5t52 -109.5q0 -178 -311 -375q-123 -76 -264 -121q223 338 397 512q8 6 8 17q0 6 -6 10q-6 2 -20 -8zM2622 1906h33q-37 -50 -137 -112q-115 -73 -235 -73q-76 0 -111 33q-12 0 -43 72
q-4 8 -4 28q0 35 24 83h27q-12 -30 -12 -43v-18l2 1q0 -94 149 -94q105 0 176 38z" />
    <glyph glyph-name="uni1EB7" unicode="&#x1eb7;" horiz-adv-x="649" 
d="M798 399q4 17 -12 17q-2 0 -6 -4q-109 -213 -203 -308q-68 -69 -107 -69q-28 0 -26 63q8 101 71 226q56 110 88.5 173.5t42.5 80.5q-32 -15 -66 -26t-73 -20q-35 -69 -56.5 -115t-31.5 -69q-160 -328 -244 -328q-53 0 -53 89q0 149 115 313q133 188 313 188q74 0 74 13
q0 6 -41 10q-14 2 -30.5 3t-37.5 1q-129 0 -244.5 -74t-181.5 -209q-59 -129 -59 -231q0 -133 121 -133q61 0 135 90q63 78 86 145q-18 -55 -18 -114q0 -119 79 -119q76 0 175 106q38 41 80 106.5t90 155.5q8 17 13 26t7 13zM332 -65q-2 3 -6 3q-33 0 -94 -43t-61 -74
q0 -17 14 -38.5t29 -21.5q32 0 55 56q20 43 35 82q30 43 30 34q-2 2 -2 5v-3zM712 800q-51 -27 -125 -27q-104 0 -104 74h-2q0 -5 0 8q0 10 10 34h-29q-19 -38 -19 -65q0 -15 3 -21q23 -56 33 -56q26 -25 84 -25q90 0 176 56q74 47 102 88h-32z" />
    <glyph glyph-name="uni1EB8" unicode="&#x1eb8;" horiz-adv-x="1536" 
d="M615 -254q318 51 567 289q177 170 254 364q39 97 39 166q0 127 -125 127q-59 0 -133 -30q2 14 3 28.5t1 28.5q0 164 -73 334q413 63 544 278q31 51 31 103q0 45 -25.5 83.5t-71.5 67.5t-110.5 45.5t-144.5 16.5q-309 0 -594 -144q-229 174 -432 174q-64 0 -116 -17.5
t-89 -49t-57.5 -73.5t-20.5 -91q0 -96 76 -180q90 -99 248 -156l-4 -10q-19 -53 -19 -103q0 -90 60 -161q-217 -95 -359 -248q-153 -170 -170 -373q-12 -182 142 -326q165 -153 405 -155q70 -4 141 6q-2 -19 -3 -37t-1 -35q0 -131 66.5 -208.5t171.5 -77.5q113 0 233 90
q7 2 7 12q0 16 -15 16q-6 0 -10 -4q-107 -82 -215 -82q-92 0 -150.5 63.5t-58.5 180.5q0 41 8 88zM621 -213q31 141 109 301q248 45 399 295q68 113 86 246q64 30 109 30q71 0 71 -79q0 -68 -45 -177q-45 -112 -117.5 -210.5t-172.5 -186.5q-207 -178 -439 -219zM552 854
q112 35 256 39q53 4 94 -6q74 -15 70 -53q-5 -41 -58 -67t-125 -26q-168 0 -237 113zM1133 1087q-96 205 -301 373q248 156 549 156q111 0 167 -44t56 -112q0 -108 -120 -213q-134 -117 -351 -160zM744 1487q-266 -146 -348 -350q-276 98 -276 276q0 43 19 80t54 64.5t84 43
t109 15.5q170 0 358 -129zM1103 1081q-50 -8 -100 -12t-103 -4q-211 0 -363 33q58 205 267 346l4 -4q194 -158 295 -359zM746 123q183 344 434 487q-18 -118 -75 -211q-136 -225 -359 -276zM412 373q11 22 -14 22q-10 0 -14 -10q-21 -47 -21 -92q0 -47 21.5 -86t59.5 -67.5
t89 -44t113 -15.5h22q13 0 23 2q-72 -150 -100 -301q-21 -2 -39.5 -3t-36.5 -1q-201 0 -320 143q-110 135 -110 332q0 172 88 315q94 160 270 246q115 -108 311 -108q56 0 101 11t77.5 30.5t51 43t18.5 48.5q0 90 -194 86q-133 -4 -269 -45q-24 55 -18 129q2 16 4 30.5
t6 30.5q168 -35 369 -35q53 0 107.5 3t109.5 12q74 -166 74 -330q0 -19 -1 -37t-3 -37q-142 -70 -279 -229q-59 -70 -109.5 -144.5t-91.5 -156.5q-16 -2 -31.5 -3t-31.5 -1q-107 0 -178.5 50t-71.5 132q0 39 18 80zM312 -358q-2 3 -6 3q-32 0 -93.5 -43t-61.5 -74
q0 -17 14 -38.5t29 -21.5q32 0 55 56q20 43 35 82q31 43 31 34q-3 2 -3 5v-3z" />
    <glyph glyph-name="uni1EB9" unicode="&#x1eb9;" horiz-adv-x="473" 
d="M632 420l-6 12q-8 6 -14 0q-99 -215 -211 -328q-45 -45 -85 -68.5t-79 -23.5q-76 0 -76 109q0 53 19 127q30 -21 65 -21q96 0 180 97q76 88 76 190q0 111 -102 111q-97 0 -185 -95q-71 -77 -108 -170.5t-37 -181.5q0 -198 162 -198q84 0 188 106q58 57 113 143
q49 78 100 191zM456 485q-33 -88 -95.5 -156.5t-125.5 -68.5q-23 0 -47 12l8 31l12 31q35 92 97.5 180t119.5 88q39 0 39 -65q0 -29 -8 -52zM281 -85q-2 3 -6 3q-33 0 -94 -43t-61 -74q0 -17 14 -38.5t29 -21.5q32 0 55 56q20 43 35 82q30 43 30 34q-2 2 -2 5v-3z" />
    <glyph glyph-name="uni1EBA" unicode="&#x1eba;" horiz-adv-x="1536" 
d="M615 -254q318 51 567 289q177 170 254 364q39 97 39 166q0 127 -125 127q-59 0 -133 -30q2 14 3 28.5t1 28.5q0 164 -73 334q413 63 544 278q31 51 31 103q0 45 -25.5 83.5t-71.5 67.5t-110.5 45.5t-144.5 16.5q-309 0 -594 -144q-229 174 -432 174q-64 0 -116 -17.5
t-89 -49t-57.5 -73.5t-20.5 -91q0 -96 76 -180q90 -99 248 -156l-4 -10q-19 -53 -19 -103q0 -90 60 -161q-217 -95 -359 -248q-153 -170 -170 -373q-12 -182 142 -326q165 -153 405 -155q70 -4 141 6q-2 -19 -3 -37t-1 -35q0 -131 66.5 -208.5t171.5 -77.5q113 0 233 90
q7 2 7 12q0 16 -15 16q-6 0 -10 -4q-107 -82 -215 -82q-92 0 -150.5 63.5t-58.5 180.5q0 41 8 88zM621 -213q31 141 109 301q248 45 399 295q68 113 86 246q64 30 109 30q71 0 71 -79q0 -68 -45 -177q-45 -112 -117.5 -210.5t-172.5 -186.5q-207 -178 -439 -219zM552 854
q112 35 256 39q53 4 94 -6q74 -15 70 -53q-5 -41 -58 -67t-125 -26q-168 0 -237 113zM1133 1087q-96 205 -301 373q248 156 549 156q111 0 167 -44t56 -112q0 -108 -120 -213q-134 -117 -351 -160zM744 1487q-266 -146 -348 -350q-276 98 -276 276q0 43 19 80t54 64.5t84 43
t109 15.5q170 0 358 -129zM1103 1081q-50 -8 -100 -12t-103 -4q-211 0 -363 33q58 205 267 346l4 -4q194 -158 295 -359zM746 123q183 344 434 487q-18 -118 -75 -211q-136 -225 -359 -276zM412 373q11 22 -14 22q-10 0 -14 -10q-21 -47 -21 -92q0 -47 21.5 -86t59.5 -67.5
t89 -44t113 -15.5h22q13 0 23 2q-72 -150 -100 -301q-21 -2 -39.5 -3t-36.5 -1q-201 0 -320 143q-110 135 -110 332q0 172 88 315q94 160 270 246q115 -108 311 -108q56 0 101 11t77.5 30.5t51 43t18.5 48.5q0 90 -194 86q-133 -4 -269 -45q-24 55 -18 129q2 16 4 30.5
t6 30.5q168 -35 369 -35q53 0 107.5 3t109.5 12q74 -166 74 -330q0 -19 -1 -37t-3 -37q-142 -70 -279 -229q-59 -70 -109.5 -144.5t-91.5 -156.5q-16 -2 -31.5 -3t-31.5 -1q-107 0 -178.5 50t-71.5 132q0 39 18 80zM1590 1901q-28 -13 -57 -26.5t-58 -26.5q-18 -8 -32 -18
t-25 -20q-26 -24 -31 -40q-1 -8 -7.5 -24t-19.5 -20q-23 -7 -23 17q7 33 63 84q13 10 40 26.5t69 38.5q67 35 96 76q32 48 32 84q0 40 -43 39q-45 -2 -89 -31q-44 -30 -66 -76q-11 -22 -11 -39q0 -25 17 -25q14 0 35 15q23 15 27 25q0 13 13 13q12 0 12 -10q0 -18 -35 -39
q-30 -18 -55 -22q-23 0 -38 11q-23 13 -23 41q0 13 7 34q22 55 88 92q60 32 123 32q53 0 79.5 -20t26.5 -52q0 -27 -20 -61q-27 -42 -95 -78z" />
    <glyph glyph-name="uni1EBB" unicode="&#x1ebb;" horiz-adv-x="473" 
d="M632 420l-6 12q-8 6 -14 0q-99 -215 -211 -328q-45 -45 -85 -68.5t-79 -23.5q-76 0 -76 109q0 53 19 127q30 -21 65 -21q96 0 180 97q76 88 76 190q0 111 -102 111q-97 0 -185 -95q-71 -77 -108 -170.5t-37 -181.5q0 -198 162 -198q84 0 188 106q58 57 113 143
q49 78 100 191zM456 485q-33 -88 -95.5 -156.5t-125.5 -68.5q-23 0 -47 12l8 31l12 31q35 92 97.5 180t119.5 88q39 0 39 -65q0 -29 -8 -52zM709 882q17 28 17 50q0 26 -22 42t-64 16q-51 0 -100 -26q-53 -30 -71 -74q-5 -17 -5 -28q0 -22 17 -33q13 -9 32 -9q20 3 44 18
q29 17 29 31q0 9 -10 9q-11 0 -11 -11q-3 -8 -21 -20t-29 -12q-13 0 -13 20q0 14 9 31q17 38 53 62q36 23 72 25q35 1 35 -31q0 -30 -26 -68q-24 -34 -78 -62q-34 -18 -55.5 -31t-32.5 -22q-45 -41 -51 -68q0 -19 19 -13q10 3 15.5 16t5.5 19q5 13 26 33q8 8 19.5 16
t26.5 14q23 11 46.5 22t46.5 21q55 29 76 63z" />
    <glyph glyph-name="uni1EBC" unicode="&#x1ebc;" horiz-adv-x="1536" 
d="M615 -254q318 51 567 289q177 170 254 364q39 97 39 166q0 127 -125 127q-59 0 -133 -30q2 14 3 28.5t1 28.5q0 164 -73 334q413 63 544 278q31 51 31 103q0 45 -25.5 83.5t-71.5 67.5t-110.5 45.5t-144.5 16.5q-309 0 -594 -144q-229 174 -432 174q-64 0 -116 -17.5
t-89 -49t-57.5 -73.5t-20.5 -91q0 -96 76 -180q90 -99 248 -156l-4 -10q-19 -53 -19 -103q0 -90 60 -161q-217 -95 -359 -248q-153 -170 -170 -373q-12 -182 142 -326q165 -153 405 -155q70 -4 141 6q-2 -19 -3 -37t-1 -35q0 -131 66.5 -208.5t171.5 -77.5q113 0 233 90
q7 2 7 12q0 16 -15 16q-6 0 -10 -4q-107 -82 -215 -82q-92 0 -150.5 63.5t-58.5 180.5q0 41 8 88zM621 -213q31 141 109 301q248 45 399 295q68 113 86 246q64 30 109 30q71 0 71 -79q0 -68 -45 -177q-45 -112 -117.5 -210.5t-172.5 -186.5q-207 -178 -439 -219zM552 854
q112 35 256 39q53 4 94 -6q74 -15 70 -53q-5 -41 -58 -67t-125 -26q-168 0 -237 113zM1133 1087q-96 205 -301 373q248 156 549 156q111 0 167 -44t56 -112q0 -108 -120 -213q-134 -117 -351 -160zM744 1487q-266 -146 -348 -350q-276 98 -276 276q0 43 19 80t54 64.5t84 43
t109 15.5q170 0 358 -129zM1103 1081q-50 -8 -100 -12t-103 -4q-211 0 -363 33q58 205 267 346l4 -4q194 -158 295 -359zM746 123q183 344 434 487q-18 -118 -75 -211q-136 -225 -359 -276zM412 373q11 22 -14 22q-10 0 -14 -10q-21 -47 -21 -92q0 -47 21.5 -86t59.5 -67.5
t89 -44t113 -15.5h22q13 0 23 2q-72 -150 -100 -301q-21 -2 -39.5 -3t-36.5 -1q-201 0 -320 143q-110 135 -110 332q0 172 88 315q94 160 270 246q115 -108 311 -108q56 0 101 11t77.5 30.5t51 43t18.5 48.5q0 90 -194 86q-133 -4 -269 -45q-24 55 -18 129q2 16 4 30.5
t6 30.5q168 -35 369 -35q53 0 107.5 3t109.5 12q74 -166 74 -330q0 -19 -1 -37t-3 -37q-142 -70 -279 -229q-59 -70 -109.5 -144.5t-91.5 -156.5q-16 -2 -31.5 -3t-31.5 -1q-107 0 -178.5 50t-71.5 132q0 39 18 80zM1723 1882l-35 -34q-35 -35 -92 -35q-47 0 -143.5 38
t-143.5 38q-37 0 -94 -41t-57 -78q4 -8 8 -8l28 32q27 33 82 33q56 0 147 -38t136 -38l37 7q33 6 80 47q53 41 53 71z" />
    <glyph glyph-name="uni1EBD" unicode="&#x1ebd;" horiz-adv-x="473" 
d="M632 420l-6 12q-8 6 -14 0q-99 -215 -211 -328q-45 -45 -85 -68.5t-79 -23.5q-76 0 -76 109q0 53 19 127q30 -21 65 -21q96 0 180 97q76 88 76 190q0 111 -102 111q-97 0 -185 -95q-71 -77 -108 -170.5t-37 -181.5q0 -198 162 -198q84 0 188 106q58 57 113 143
q49 78 100 191zM456 485q-33 -88 -95.5 -156.5t-125.5 -68.5q-23 0 -47 12l8 31l12 31q35 92 97.5 180t119.5 88q39 0 39 -65q0 -29 -8 -52zM698 838l-30 -31q-30 -30 -80 -30q-40 0 -123.5 33t-123.5 33q-32 0 -81.5 -35.5t-49.5 -67.5q3 -7 7 -7l25 29q23 28 70 28
q48 0 127 -33t117 -33l32 6q29 5 69 40q46 36 46 62z" />
    <glyph glyph-name="uni1EBE" unicode="&#x1ebe;" horiz-adv-x="1873" 
d="M1632 1877q8 0 18 6q53 31 124 71t163 87q70 32 70 69q0 33 -48 33q-43 0 -94 -41q-35 -26 -68.5 -52t-68.5 -52q-109 -86 -109 -107q0 -14 13 -14zM615 -254q318 51 567 289q177 170 254 364q39 97 39 166q0 127 -125 127q-59 0 -133 -30q2 14 3 28.5t1 28.5
q0 164 -73 334q413 63 544 278q31 51 31 103q0 45 -25.5 83.5t-71.5 67.5t-110.5 45.5t-144.5 16.5q-309 0 -594 -144q-229 174 -432 174q-64 0 -116 -17.5t-89 -49t-57.5 -73.5t-20.5 -91q0 -96 76 -180q90 -99 248 -156l-4 -10q-19 -53 -19 -103q0 -90 60 -161
q-217 -95 -359 -248q-153 -170 -170 -373q-12 -182 142 -326q165 -153 405 -155q70 -4 141 6q-2 -19 -3 -37t-1 -35q0 -131 66.5 -208.5t171.5 -77.5q113 0 233 90q7 2 7 12q0 16 -15 16q-6 0 -10 -4q-107 -82 -215 -82q-92 0 -150.5 62.5t-58.5 179.5q0 43 8 90zM621 -213
q31 141 109 301q248 45 399 295q68 113 86 246q64 30 109 30q71 0 71 -79q0 -68 -45 -177q-45 -112 -117.5 -210.5t-172.5 -186.5q-207 -178 -439 -219zM552 854q112 35 256 39q53 4 94 -6q74 -15 70 -53q-5 -41 -58 -67t-125 -26q-168 0 -237 113zM1133 1087
q-96 205 -301 373q248 156 549 156q111 0 167 -44t56 -112q0 -108 -120 -213q-134 -117 -351 -160zM744 1487q-266 -146 -348 -350q-276 98 -276 276q0 43 19 80t54 64.5t84 43t109 15.5q170 0 358 -129zM1103 1081q-50 -8 -100 -12t-103 -4q-211 0 -363 33q58 205 267 346
l4 -4q194 -158 295 -359zM746 123q183 344 434 487q-18 -118 -75 -211q-136 -225 -359 -276zM412 373q11 22 -14 22q-10 0 -14 -10q-21 -47 -21 -92q0 -47 21.5 -86t59.5 -67.5t89 -44t113 -15.5h22q13 0 23 2q-72 -150 -100 -301q-21 -2 -39.5 -3t-36.5 -1q-201 0 -320 143
q-110 135 -110 332q0 172 88 315q94 160 270 246q115 -108 311 -108q56 0 101 11t77.5 30.5t51 43t18.5 48.5q0 90 -194 86q-133 -4 -269 -45q-24 55 -18 129q2 16 4 30.5t6 30.5q168 -35 369 -35q53 0 107.5 3t109.5 12q74 -166 74 -330q0 -19 -1 -37t-3 -37
q-142 -70 -279 -229q-59 -70 -109.5 -144.5t-91.5 -156.5q-16 -2 -31.5 -3t-31.5 -1q-107 0 -178.5 50t-71.5 132q0 39 18 80zM1152 1704l6 -14q41 4 170 73q125 70 164 107q174 -172 200 -172q19 0 19 18q0 25 -103 127q-104 105 -129 107l-14 -6q-80 -74 -197 -152
q-30 -20 -55.5 -36.5t-46.5 -31.5q-4 -6 -8 -11t-6 -9z" />
    <glyph glyph-name="uni1EBF" unicode="&#x1ebf;" horiz-adv-x="473" 
d="M585 862q18 0 139 74q121 77 121 90q0 22 -33 22q-25 0 -131 -80q-107 -75 -107 -96q0 -10 11 -10zM632 420q2 6 -6 12q-10 6 -14 0q-99 -217 -211 -328q-88 -88 -164 -92q-76 -2 -76 109q0 55 19 127q28 -21 65 -21q96 0 180 97q76 88 76 190q0 111 -102 111
q-97 0 -185 -95q-71 -77 -110 -176q-35 -88 -35 -176q0 -198 162 -198q88 0 188 106q60 59 113 143t100 191zM456 485q-35 -90 -92 -153q-66 -72 -129 -72q-27 0 -47 12q4 17 9 31t11 31q35 92 94 174q70 98 123 94q39 -2 39 -65q0 -29 -8 -52zM184 700l4 -12q16 2 52 16.5
t89 43.5q98 51 137 86q121 -132 148 -140l16 17q0 22 -72 100q-69 80 -96 86q-4 -2 -7 -3l-3 -1q-14 -10 -23.5 -18.5t-17.5 -14.5q-18 -14 -39.5 -29.5t-44.5 -31.5q-41 -25 -72.5 -45.5t-58.5 -36.5q-8 -8 -12 -17z" />
    <glyph glyph-name="uni1EC0" unicode="&#x1ec0;" horiz-adv-x="1873" 
d="M1290 1895q13 0 13 14q0 21 -109 107q-35 26 -68.5 51.5t-68.5 52.5q-51 41 -94 41q-48 0 -48 -33q0 -37 70 -69q92 -47 163 -87t124 -71q8 -6 18 -6zM615 -254q318 51 567 289q177 170 254 364q39 97 39 166q0 127 -125 127q-59 0 -133 -30q2 14 3 28.5t1 28.5
q0 164 -73 334q413 63 544 278q31 51 31 103q0 45 -25.5 83.5t-71.5 67.5t-110.5 45.5t-144.5 16.5q-309 0 -594 -144q-229 174 -432 174q-64 0 -116 -17.5t-89 -49t-57.5 -73.5t-20.5 -91q0 -96 76 -180q90 -99 248 -156l-4 -10q-19 -53 -19 -103q0 -90 60 -161
q-217 -95 -359 -248q-153 -170 -170 -373q-12 -182 142 -326q165 -153 405 -155q70 -4 141 6q-2 -19 -3 -37t-1 -35q0 -131 66.5 -208.5t171.5 -77.5q113 0 233 90q7 2 7 12q0 16 -15 16q-6 0 -10 -4q-107 -82 -215 -82q-92 0 -150.5 62.5t-58.5 179.5q0 43 8 90zM621 -213
q31 141 109 301q248 45 399 295q68 113 86 246q64 30 109 30q71 0 71 -79q0 -68 -45 -177q-45 -112 -117.5 -210.5t-172.5 -186.5q-207 -178 -439 -219zM552 854q112 35 256 39q53 4 94 -6q74 -15 70 -53q-5 -41 -58 -67t-125 -26q-168 0 -237 113zM1133 1087
q-96 205 -301 373q248 156 549 156q111 0 167 -44t56 -112q0 -108 -120 -213q-134 -117 -351 -160zM744 1487q-266 -146 -348 -350q-276 98 -276 276q0 43 19 80t54 64.5t84 43t109 15.5q170 0 358 -129zM1103 1081q-50 -8 -100 -12t-103 -4q-211 0 -363 33q58 205 267 346
l4 -4q194 -158 295 -359zM746 123q183 344 434 487q-18 -118 -75 -211q-136 -225 -359 -276zM412 373q11 22 -14 22q-10 0 -14 -10q-21 -47 -21 -92q0 -47 21.5 -86t59.5 -67.5t89 -44t113 -15.5h22q13 0 23 2q-72 -150 -100 -301q-21 -2 -39.5 -3t-36.5 -1q-201 0 -320 143
q-110 135 -110 332q0 172 88 315q94 160 270 246q115 -108 311 -108q56 0 101 11t77.5 30.5t51 43t18.5 48.5q0 90 -194 86q-133 -4 -269 -45q-24 55 -18 129q2 16 4 30.5t6 30.5q168 -35 369 -35q53 0 107.5 3t109.5 12q74 -166 74 -330q0 -19 -1 -37t-3 -37
q-142 -70 -279 -229q-59 -70 -109.5 -144.5t-91.5 -156.5q-16 -2 -31.5 -3t-31.5 -1q-107 0 -178.5 50t-71.5 132q0 39 18 80zM1152 1704l6 -14q41 4 170 73q125 70 164 107q174 -172 200 -172q19 0 19 18q0 25 -103 127q-104 105 -129 107l-14 -6q-80 -74 -197 -152
q-30 -20 -55.5 -36.5t-46.5 -31.5q-4 -6 -8 -11t-6 -9z" />
    <glyph glyph-name="uni1EC1" unicode="&#x1ec1;" horiz-adv-x="473" 
d="M614 870q10 0 10 10q0 19 -114.5 102.5t-139.5 83.5q-35 0 -35 -24q0 -19 129 -94q131 -78 150 -78zM632 420q2 6 -6 12q-10 6 -14 0q-99 -217 -211 -328q-88 -88 -164 -92q-76 -2 -76 109q0 55 19 127q28 -21 65 -21q96 0 180 97q76 88 76 190q0 111 -102 111
q-97 0 -185 -95q-71 -77 -110 -176q-35 -88 -35 -176q0 -198 162 -198q88 0 188 106q60 59 113 143t100 191zM456 485q-35 -90 -92 -153q-66 -72 -129 -72q-27 0 -47 12q4 17 9 31t11 31q35 92 94 174q70 98 123 94q39 -2 39 -65q0 -29 -8 -52zM184 700l4 -12q16 2 52 16.5
t89 43.5q98 51 137 86q121 -132 148 -140l16 17q0 22 -72 100q-69 80 -96 86q-4 -2 -7 -3l-3 -1q-14 -10 -23.5 -18.5t-17.5 -14.5q-18 -14 -39.5 -29.5t-44.5 -31.5q-41 -25 -72.5 -45.5t-58.5 -36.5q-8 -8 -12 -17z" />
    </font>
</defs>
</svg>
